<?xml version="1.0" encoding="UTF-8" standalone="no"?>
<svg
   xmlns:dc="http://purl.org/dc/elements/1.1/"
   xmlns:cc="http://creativecommons.org/ns#"
   xmlns:rdf="http://www.w3.org/1999/02/22-rdf-syntax-ns#"
   xmlns:svg="http://www.w3.org/2000/svg"
   xmlns="http://www.w3.org/2000/svg"
   xmlns:xlink="http://www.w3.org/1999/xlink"
   xmlns:sodipodi="http://sodipodi.sourceforge.net/DTD/sodipodi-0.dtd"
   xmlns:inkscape="http://www.inkscape.org/namespaces/inkscape"
   version="1.1"
   id="Layer_1"
   x="0px"
   y="0px"
   viewBox="0 0 545.6399 414.97446"
   xml:space="preserve"
   sodipodi:docname="Cleveland_Browns_2015.svg"
   width="545.63989"
   height="414.97446"
   inkscape:version="1.0.2-2 (e86c870879, 2021-01-15)"><metadata
   id="metadata1705"><rdf:RDF><cc:Work
       rdf:about=""><dc:format>image/svg+xml</dc:format><dc:type
         rdf:resource="http://purl.org/dc/dcmitype/StillImage" /></cc:Work></rdf:RDF></metadata><defs
   id="defs1703">
	
	
	
	
	
	
	
	
	
	
	
	
	
	
	
	
	
	
	
	
	
	
	
	
	
	
	
	
	
	
	
	
	
	
	
	
	
	
	
	
	
	
	
	
	
	
	
	
	
	
	
	
	
	
	
	
	
	
	
	
	

		<defs
   id="defs1643">
			<rect
   id="XMLID_45_"
   x="67.5"
   y="111.1"
   width="365"
   height="277.70001" />
		</defs>
		<clipPath
   id="XMLID_153_">
			<use
   xlink:href="#XMLID_45_"
   style="overflow:visible"
   id="use1645"
   x="0"
   y="0"
   width="100%"
   height="100%" />
		</clipPath>
		
	
		<defs
   id="defs1663">
			<rect
   id="XMLID_98_"
   x="67.5"
   y="111.1"
   width="365"
   height="277.70001" />
		</defs>
		<clipPath
   id="XMLID_154_">
			<use
   xlink:href="#XMLID_98_"
   style="overflow:visible"
   id="use1665"
   x="0"
   y="0"
   width="100%"
   height="100%" />
		</clipPath>
		
	
		<defs
   id="defs1690">
			<rect
   id="XMLID_124_"
   x="67.5"
   y="111.1"
   width="365"
   height="277.70001" />
		</defs>
		<clipPath
   id="XMLID_155_">
			<use
   xlink:href="#XMLID_124_"
   style="overflow:visible"
   id="use1692"
   x="0"
   y="0"
   width="100%"
   height="100%" />
		</clipPath>
		
		
	</defs><sodipodi:namedview
   pagecolor="#ffffff"
   bordercolor="#666666"
   borderopacity="1"
   objecttolerance="10"
   gridtolerance="10"
   guidetolerance="10"
   inkscape:pageopacity="0"
   inkscape:pageshadow="2"
   inkscape:window-width="1366"
   inkscape:window-height="705"
   id="namedview1701"
   showgrid="false"
   inkscape:zoom="1"
   inkscape:cx="311.76164"
   inkscape:cy="213.96129"
   inkscape:window-x="-8"
   inkscape:window-y="-8"
   inkscape:window-maximized="1"
   inkscape:current-layer="layer5"
   showguides="false"
   inkscape:document-rotation="0"
   inkscape:snap-smooth-nodes="false" />
<style
   type="text/css"
   id="style1614">
	.st0{fill:#E93825;}
	.st1{fill:#2E1B00;}
	.st2{fill:#FFFFFF;}
	.st3{clip-path:url(#XMLID_153_);fill:#FFFFFF;}
	.st4{clip-path:url(#XMLID_154_);fill:#2E1B00;}
	.st5{clip-path:url(#XMLID_155_);fill:#E93825;}
	.st6{clip-path:url(#XMLID_155_);fill:#2E1B00;}
</style>

<g
   inkscape:groupmode="layer"
   id="layer5"
   inkscape:label="Layer 1"
   transform="translate(22.812257,-42.468224)">
			
		<g
   id="g1128"><path
     id="XMLID_41_"
     class="st1"
     d="m 249.54789,304.42276 c 1.19597,1.19597 2.24245,2.24244 3.28893,3.13942 l 0.89697,0.59799 c -3.28892,-17.19211 -3.43842,-35.28119 5.23238,-51.42682 l -1.94345,-4.18591 c -3.44879,5.82382 -5.83037,11.51125 -7.32533,18.68708 -2.39195,10.61426 -1.94346,21.97599 -0.1495,33.18824 z"
     style="stroke:none;stroke-width:1.49497"
     sodipodi:nodetypes="ccccccc" /><path
     id="XMLID_46_"
     clip-path="url(#XMLID_153_)"
     style="fill:#ffffff;stroke:none"
     transform="matrix(1.4949658,0,0,1.4949658,-123.74507,-123.73545)"
     d="m 404.2,379.9 c 0.7,-2.9 0.5,-7.6 0.5,-7.6 23.5,-5 1.2,-7.1 1.2,-7.1 5.2,1.6 5,3.4 5,3.4 -2.2,0.1 -6.2,-1.1 -6.2,-1.1 0.1,-1.5 -0.3,-7.4 -0.3,-7.4 6.1,2.6 7.1,1.9 13.4,3.3 6.5,1.5 3.3,4.1 3.3,4.1 -3.3,4.1 -15.5,5.8 -15.5,5.8 20.4,-2.7 18.5,-8.2 18.5,-8.2 8.3,5.4 0.1,9.3 -4.1,10.5 -3.6,1.1 -15.8,4.3 -15.8,4.3 z m -11.3,-15 c 0.2,2.8 0.3,4.5 0.3,4.6 0,2.3 -1.3,3.1 -1.5,3.2 -29.3,7.9 -64.1,3.9 -79.7,-21.7 -0.6,-0.9 -1.1,-1.8 -1.6,-2.8 l -0.8,-1.5 c 2.05426,-0.18081 4.21115,-0.39282 6,-0.7 15.7,-1.7 34.3,-4.2 50.5,-6.9 7.1,12.9 16.9,21.3 26.8,25.8 z m -1.4,-14.3 c -5.2,-3.9 -9.8,-8.5 -13.5,-13.6 3.3,-0.7 6.4,-1.3 9.2,-2 0.7,-0.2 1,0 1.1,0.1 0.5,0.4 0.59866,1.31305 0.7,1.7 1.00229,3.82693 1.9,8.8 2.5,13.8 z m -23.2,-11.4 c 1.5,-0.3 7.5,-1.6 7.5,-1.6 6.4,9.5 16.6,16.4 16.6,16.4 0.3,2.4 0.5,8.5 0.5,8.5 -16.1,-7.8 -24.6,-23.3 -24.6,-23.3 z m 10.1,-41.1 c -0.21728,-0.1766 -0.455,-0.12835 -0.7,0 0,0 -1,0.2 -2.5,0.6 -20.1,3.7 -56.8,8.8 -78.3,10.1 1.9,-0.1 -8.7,0.4 -17,-0.2 -11.7,-0.7 -24.7,-3.3 -37.7,-17.3 -0.1,-0.1 -14.6,-14.1 -20.4,-20.4 -1.4,-2 -0.7,-4.3 0.8,-5.5 1.1,-0.9 3.2,-1.2 4.4,0.1 2.5,3.4 17,18.3 24.1,25 8.68109,6.813 13.6,9.4 24.7,10.7 6,0.7 13.3,0.6 13.6,0.6 14.6,0.4 67.7,-6.1 83.4,-9.2 2,-0.3 3.2,-0.7 3.2,-0.7 v -0.3 l 0.1,-0.7 c 0,-0.2 0.9,-1 1.7,-1.3 1.4,-0.7 3.3,-0.7 4.9,0.6 11.1,20.5 22.2,58.7 19.6,87.5 -0.1,1.5 -0.8,2.8 -1.9,3.4 -0.2,0 -2.7,1.1 -5.3,-0.2 0,0 0.1,0.2 -2.7,1.1 -17.2,4.4 -35.5,4.7 -51,0.6 -14,-3.7 -30.7,-11.8 -39.9,-32.3 0,0 -1.2,-2.2 -1.4,-3.3 0,0 4.7,0.1 7.8,-0.2 14.3,30.7 51.2,36.4 82.8,28.3 0,0 2.9,-0.5 3.7,-1.4 0.7,-1.5 0.6,-5.4 0.6,-5.4 0,-0.9 -0.8,-19.8 -4.3,-32.3 -0.3,-1.3 -0.7,-2.1 -1.1,-2.5 0,0 -1,-0.4 -1.6,-0.4 -1.7,-0.1 -3.9,0.4 -3.9,0.4 -19.5,4.6 -49.7,8.5 -73.5,10.9 0,0 -1.9,0.3 -5.1,0.4 L 303,345 c -4.5,0 -10.9,-0.2 -19,-1.5 l -88.4,-14.5 4.8,-6.5 85.5,14 c 13,2 19.1,1 19.3,1 23,-1.3 65.7,-7.6 76,-10.3 0,0 5.6,-1.3 6.3,-2 0.5,-0.5 -0.7,-4.6 -0.7,-4.6 0,-0.1 -4.2,-13.8 -6.3,-18.95 0,-0.15 -1.2209,-3.21723 -2.1,-3.55 z m -75.7,37.6 c 0,0 -3,0.6 -8,0.2 -2.4,-4.5 -5,-10.6 -11.7,-25.4 4.6,0.5 8.1,0 8.1,0 z m 54,-18.1 -34.24181,-6.00523 L 322.5,312.2 v 1.1 l 34.7,6 c 0.7,1.9 3.1,7.5 3.1,7.5 l -37.8,-6.4 v 1.2 0.6 l 37.3,6.3 c -12.4,2.1 -25.4,4.1 -39.2,5.6 -1.7,0.2 -3.3,0.3 -5,0.5 2.5,-8.2 2.8,-17.3 1.7,-26 1.6,-0.2 3.2,-0.3 4.8,-0.5 9.6,-1.1 19.7,-2.4 29,-3.7 2,4.6 3.9,9.2 5.6,13.2 z m 20.4,-17.1 c 1,0.5 1.3,1.75 1.3,1.75 1.5,3.85 4.2,11.95 5.6,16.15 -5.8,0.2 -11,0.2 -15.1,0.2 l -6.7,-16 c 4.5,-0.7 8.7,-1.4 12.5,-2.1 1,-0.3 1.8,-0.3 2.4,0 z m -4.9,26 -2.6,-6.1 c 8.9,0.1 15.3,0 15.3,0 1.1,3.9 -2.6,4.1 -2.6,4.1 z m -1.7,0.6 -7,1.4 c -1.4,-2.6 -10.2,-24.3 -10.2,-24.3 1,-0.1 7,-1.1 7,-1.1 4.5,12.4 10.2,24 10.2,24 z M 259,305.6 c 7.4,3.2 14.6,4.3 21.3,4.7 l 0.9,0.1 0.4,1 c -2.6,7 -7.6,14.6 -13.9,19.2 l 0.2,1 c -1.8,-0.3 -3.8,-0.7 -5.8,-1 -1.5,-0.2 -3,-0.5 -4.5,-0.7 -0.7,-0.1 -1.4,-0.2 -2.2,-0.3 -22.5,-3.6 -49.9,-8 -55,-8.8 l 5.2,-7.6 c 6.9,4.1 16.6,10.2 16.6,10.2 6.7,4.3 11.9,-1.9 13.5,-4.1 1.3,-1.7 5.2,-7.2 5.1,-11.7 -0.1,-4.4 -3.5,-6.7 -6.5,-8.7 l -14,-9.2 c 1.3,-2.1 3.4,-5 6.5,-10.1 6.3,6.3 13.6,13.2 13.6,13.2 4.3,4.7 8.6,7.8 13,10.3 1,0.6 2.1,1.1 3.1,1.7 2.8,8.5 6.1,15.7 7.4,21.3 -0.9,-6.7 -3,-13.4 -4.9,-20.5 z m -19.1,-65.8 c 2.1,-3.4 6.4,-8.5 6.4,-8.5 0,0 -0.1,1.7 0.8,3.6 0.7,1.5 2.3,5.3 2.3,5.3 0,0 -3.4,4.2 -5.4,7.4 l -12.3,20.2 -3.3,-3.6 c 0,0 -1.5,-1.8 -2.8,-1.8 6.4,-10.5 12.3,-19.6 14.3,-22.6 z m 17.1,17.1 19.1,42.1 c -8.8,-1 -14.5,-3.6 -20.5,-7.8 -2.3,-11.5 -3,-23.2 1.4,-34.3 z m -2.3,-5.2 1.3,2.8 c -5.8,10.8 -5.7,22.9 -3.5,34.3 l -0.6,-0.4 c -0.7,-0.6 -1.5,-1.4 -2.2,-2.1 -5.2,-5 -12.1,-11.9 -16.7,-16.8 L 250.3,242 Z m -6,-21.6 c 0.9,-1.5 2.7,-2.4 3.9,-2.4 0.9,0 2.12852,1.21975 2.12852,1.21975 L 286.5,299.5 c 0,0 -4.5,0.2 -8,-0.5 -13.8,-30.1 -29.8,-65.4 -29.8,-65.4 -0.7,-1.2 -0.7,-2.4 0,-3.5 z m 15.2,-9.2 c 11.7,-4.9 36.1,-11.2 57.1,-14.6 2.2,-0.3 4.1,1.2 4.3,2.8 0.2,1.4 -0.5,3.1 -3.3,3.6 l -1.3,0.2 c -16.8,3.4 -35.9,7.2 -51.9,13.7 -5,1.8 -7.7,3.3 -10.5,5.5 0,0 -1.6,-3.4 -2.1,-4.3 -0.9,-1.6 -1,-1.7 -1.7,-2.2 2.4,-1.5 5.3,-3 9.4,-4.7 z m 50.4,-29.2 4.5,12.8 -2.4,0.4 c 0,0 -2.9,-8.2 -4.8,-13.9 -1.4,-4.3 -0.4,-6.3 -0.4,-6.3 l 2.2,-1 c -1,3.2 0.9,8 0.9,8 z m 1,-8.9 2,-0.3 0.2,-0.1 -0.1,0.9 c -0.1,0.8 0.3,0.4 1.2,2.8 1.4,3.8 8.7,19 9.6,21.2 4.2,11 -6.7,13 -7.9,8.2 11.7,-0.9 6.9,-13.1 0.3,-11.4 -2.5,-6.2 -4.4,-12.5 -4.4,-12.5 0,0 -2.7,-6.8 -0.9,-8.8 z m 15.3,31.6 h 8.4 c 0,0 -2.1,3.9 -10.9,3.3 0,0 2.4,-1.6 2.5,-3.3 z m 27.1,-4.2 c -0.1,0.8 -0.6,2.6 -3.3,2.6 -2.5,-0.5 -9,-1.2 -12.3,-1.5 0,-2.8 -1.8,-6.6 -1.8,-6.6 3.6,0.5 13.06444,1.63473 15.1,2.1 1.47523,0.3372 2.4,1.9 2.3,3.4 z m 18.2,77.6 c -2,0.3 -2.1,2.1 -2.1,2.1 -4.8,1.2 -15.8,2.4 -15.8,2.4 l -2.3,-5.2 c 11.6,1.6 20.2,0.7 20.2,0.7 z m 19.5,-1.3 c -2,0.8 -11.3,2 -11.3,2 -1.2,-1 -2.5,-1.2 -2.8,-1.2 3.6,0.2 14.1,-0.8 14.1,-0.8 z m 9.4,-0.1 c 1.9,0.3 2.7,1.4 2.9,3 0.1,0.6 -0.2,2.8 -2.6,3.2 l -0.9,0.2 c -2.2,0.7 -6.5,1.7 -10.9,2.5 -2.7,0.5 -5,0.9 -5,0.9 -0.6,-1.3 -1,-2.6 -2.6,-5.8 4.8,-0.8 10.9,-2 15.2,-3.3 1.4,-0.4 3.9,-0.7 3.9,-0.7 z m 10.4,7.3 c 9.3,26.1 16.5,61.9 14.5,74.3 0,-1.6 -2.5,-4.6 -6.7,-5.4 0,0 0.1,-1.6 0,-3.6 -1.1,-10.8 -4.9,-30.4 -4.9,-30.4 6,-1.9 5.3,-14.3 -5,-14.2 -2.5,-11.1 -5.8,-19.9 -5.8,-19.9 5.6,-3.1 3,-8.2 -0.1,-9.1 -0.2,-0.1 5.4,-1.3 8,8.3 z m 1.6,32.9 c 0,0 -3,1.5 -17.1,4.1 0,0 -1.1,-4.4 -1.7,-6.6 0,0 11.9,-2.5 16.5,-4.2 0,0 -0.1,-1.5 -2.4,-1.5 0,0 -12.1,3.1 -14.8,3.3 l -0.7,-1.8 c 0,0 10.3,-2 13.8,-2.8 0,0 7.3,-2.6 8.9,3 0,0 1.6,4.8 -2.5,6.5 z m -7.2,-17.6 1.5,6.1 c -4.8,1.1 -10.2,1.9 -15.5,2.4 -2.1,-7 -4.4,-13.5 -6.9,-19.3 12.1,-1.6 16,-3.4 16,-3.4 1.8,3.6 4.3,11.4 4.9,14.2 z m -5.9,48.6 c -0.8,-8.1 -2.2,-16.6 -4,-24.8 4.6,-0.9 13.1,-3 16.2,-3.8 l 0.2,1.3 c 1.6,8.7 4,21.8 4.9,29.8 0,0.8 0,1.4 -0.1,2 -1.5,-0.3 -2.7,-0.4 -3,-0.4 -4.8,-0.7 -9.6,-2.1 -14.2,-4.1 z M 319.2,183.2 c -0.6,-4.9 4.2,-4.9 4.3,-4.9 2.5,0 4.5,1 6.5,3.8 h 1.3 c -2.9,-5.7 -4.1,-8.4 -6,-11.6 -35.9,-51.2 -95.7,-66.4 -148.3,-53.6 66.7,-9.8 117.1,19.8 142.5,62.7 -2.1,1.1 -5.6,2.8 -7.3,3.7 -0.7,0 -3.4,-0.1 -4.4,0 -1.6,0.1 -3.1,0.2 -2,4 0.8,2.8 1.1,3.4 1.7,5.2 0.7,2.1 3.2,8.3 4.9,13.6 -0.6,0.1 -1.2,0.2 -1.9,0.4 -0.3,-0.9 -0.7,-2 -1.1,-3.1 -2.1,-5.3 -4.6,-12.1 -5.3,-14.4 -0.4,-1.2 -0.5,-4.3 0.1,-6.3 0,0 -3.30988,1.81256 -0.7,8.1 l 5.7,15.8 c -0.8,0.1 -1.5,0.3 -2.3,0.5 -17.3,3.5 -33.8,7.2 -43.3,11.2 0,0 -7.1,2.6 -12.2,6.7 l -0.3,0.4 c -1.4,0.4 -2.8,1.4 -3.8,2.7 -0.7,0.6 -2.3,1.9 -3.1,2.7 -2,2.3 -3.7,4.3 -6,7.4 -2,2.9 -9,14 -15.2,24.1 -0.5,0.2 -1.1,0.5 -1.6,0.9 -1.6,1.3 -2.7,3.5 -2.3,5.9 -5.1,8.2 -8.1,13 -9.3,15 -2.8,0.2 -4.2,2.4 -4.3,2.7 -1.2,2.5 -6.5,11.2 -7.5,12.1 -0.6,0.6 -1.8,2.9 -1.3,5.6 l -0.5,0.9 -11.7,17.4 c -1,1.4 -1.2,3 -0.5,4.5 1,2 3.4,3.6 5.9,3.7 1.3,0.1 2.6,-0.2 3.5,-0.9 4.7,0.8 37.5,6.3 62.2,10.4 1,0.2 2,0.3 3,0.5 3.10794,0.51006 8.8,1.5 8.8,1.5 -0.6,7.2 -2.4,13.4 -5.1,18.8 l 1.1,0.1 c 17.2,1.4 29.5,-1.7 37.9,-7.4 0.7,1.4 1.5,2.7 2.3,4 8.2,13.1 20.7,21.9 37.2,26.2 16.9,4.5 36.1,4 54.6,-1.4 2.2,1.1 4.3,0.4 5.8,-0.3 0.4,-0.2 0.8,-0.5 1.1,-0.8 20,-4.5 23.4,-6.2 24.8,-7.4 5.7,-2.9 5.4,-11.7 5.4,-12.1 -1.7,-22.9 -6.8,-45.7 -15.5,-69.9 l -1.1,-2.5 c -2.2,-5.7 -6.1,-6.8 -12.4,-6 l -5.4,0.6 c -11,1 -28.8,2.9 -43.6,0.3 L 334.4,237 h -0.5 l -1.2,0.1 c 5.5,13 23.5,55.5 23.5,55.5 -3.5,0.6 -7.2,0.9 -7.2,0.9 l -22.7,-53.3 c -0.6,0.6 -0.9,1.1 -1.1,1.4 l -0.2,0.3 c 0,0 7.6,18.1 16.1,38.4 -1,-0.5 -1.9,-1 -2.5,-1.6 -4,-2.5 -13.3,-8.9 -21,-20.5 l -0.1,0.5 c -0.1,0.4 -0.2,1 -0.4,1.8 10.7,16.5 25.2,22.4 25.2,22.4 l 3.59999,8.7 C 331.59999,287.4 319.5,274.7 316.2,270.8 v 1.1 0.9 c 8.1,10.3 18.9,17.5 30.2,21.3 -8.4,1.1 -17.7,2.3 -26.4,3.2 -1.7,0.2 -3.3,0.3 -4.9,0.5 -1.1,-4.3 -2.4,-8.5 -3.9,-12.2 -8.1,-19.1 -30.4,-10.2 -28.8,1.3 -6.7,-14.9 -13.5,-30 -18.6,-41.3 2,-2.1 5.9,-6.2 12.3,-10.3 -4.5,2 -7.9,4.9 -7.9,4.9 -1.8,1.4 -3.5,3 -4.9,4.4 -0.4,-0.9 -0.7,-1.9 -1,-2.7 -1.3,-2.9 -3.4,-7.6 -3.4,-7.6 3.3,-2.1 6.7,-4.3 10.9,-5.8 12.3,-5 26.3,-8.2 39.9,-11 0.8,-0.2 1.5,-0.3 2.3,-0.5 0.4,6.8 -2.9,9.1 -8.8,10.4 -3.8,0.8 -7.1,1.1 -8.7,1.7 l 3.7,0.1 c 2.62408,0 4.2,0 9.8,-1.9 3.7,-1.4 6.6,-4.1 5.4,-10.7 0.6,-0.1 1.3,-0.3 1.9,-0.4 1,6.3 0,12.6 -12.3,13.8 2.1,1.4 21.2,-2.1 32.7,0.5 0.3,0.1 5.1,1.8 -0.4,4.2 10.7,-2.4 11.2,-13 9.2,-20.9 l 0.4,0.1 c 2,0.1 3.7,0.4 5,0.6 1,0.1 2.3,0.2 3.6,0.4 8,0.8 7.3,-8.8 3.2,-10 -3.2,-0.9 -4,-1 -4.8,-1.1 h -1.3 l -9.9,-22.1 5.5,-2.5 14.2,25.6 c 6.6,10.4 -4.1,14.6 -10.1,11.5 -0.8,0.4 -1.4,0.8 -1.8,1.2 1.7,1.1 3.8,1.8 6.2,1.8 4,0 7.5,-1.8 9.1,-4.7 1.2,-2.1 1.7,-5.7 -1.5,-10.8 l -14.9,-27.3 -12.3,5.5 c 1,0.2 1.6,0.6 2,1.3 l 2.1,-0.8 9.2,21.6 c 0,0 -3.9,-1.4 -4.7,-1.5 l -2.3,-0.1 c -2,-6.2 -5.1,-13.3 -6.9,-17.9 -1.47033,-0.46129 -2.80593,-0.40452 -3.3,-0.3 l 0.1,0.1 c 1.4,2.6 4.71058,14.37919 6.11058,18.07919 2,5 2.78942,9.42081 2.78942,9.42081 l -8.8,-1.1 c -0.1,-2.7 -2.7,-7.8 -2.7,-7.8 l -3.4,-7 -0.9,-2 -3.6,-7.5 c -0.4,-0.9 -1.4,-1.7 -1.6,-3.3 z m -5.9,94.6 c -2.3,-10.7 0.1,-30.5 7.9,-36.1 -11.1,1.3 -14.1,29.1 -7.9,36.1 z"
     sodipodi:nodetypes="cccccccccccccccccccccccccccccccccccccccccccccccccccccccccccccccccccccccccccccccccccccccccccccccccccccccccccccccccccccccccccccccccccccccccccccccccccccccccccccccccccccccccccccccccccccccccccccccccccccccccccccccccccccccccccccccccccccccccccccccccccccccccccccccccccccccccccccccccccccccccccccccccccccccccccccccccccccccccccccccccccccccccccccccccccccccccccccccccccccccccccccccccccccccccccccccccc" /><path
     id="XMLID_93_"
     transform="matrix(1.4949658,0,0,1.4949658,-123.74507,-123.73545)"
     style="fill:#2e1b00;stroke:none"
     d="m 381.3,287.3 h -0.1 z"
     class="st1"
     sodipodi:nodetypes="ccc" /><path
     id="XMLID_125_"
     clip-path="url(#XMLID_155_)"
     style="fill:#ff3c00;fill-opacity:1;stroke:none"
     transform="matrix(1.4949658,0,0,1.4949658,-124.04406,-123.13746)"
     d="m 193.6,329.7 c -1,0.7 -2.2,1 -3.5,0.9 -2.5,-0.2 -4.9,-1.7 -5.9,-3.7 -0.7,-1.5 -0.4,-2.4 0.6,-3.8 l 11.7,-17.4 0.5,-0.9 c -0.5,-2.7 0.7,-5 1.3,-5.6 1,-1 6.3,-9.7 7.5,-12.1 0.1,-0.3 1.6,-2.5 4.3,-2.7 1.2,-2 4.2,-6.8 9.3,-15 -0.4,-2.3 0.7,-4.6 2.3,-5.9 0.5,-0.4 1,-0.7 1.6,-0.9 6.3,-10.1 13.3,-21.2 15.2,-24.1 2.92914,-4.10292 5.4059,-6.96047 9.1,-10.1 0.9,-1.3 2.3,-2.2 3.8,-2.7 l 0.3,-0.4 c 5,-4.1 12.2,-6.7 12.2,-6.7 9.5,-4 26.4,-8.6 43.7,-12 -1.2,-3.5 -5,-14.5 -5,-14.5 -1.36624,-4.04342 -1.13165,-7.47115 0.4,-10.4 -7.9,-13.3 -19.9,-26.8 -35.3,-37.9 -12.7,-9.1 -27.6,-16.6 -44.5,-21 l -0.6,-0.2 -0.4,-0.1 c -17,-4.3 -35.8,-5.5 -56.1,-2 -28.5,9.1 -54.1,26.6 -71.8,51.1 l -0.4,0.6 -0.2,0.3 c -21.2,29.9 -30.4,70.1 -18.4,118.1 9.2,33.4 19.9,51.1 31.6,67.7 0,0 -0.5,8.1 13.4,3.9 3.2,-1 6,-1.7 8.7,-2.1 8.1,-1.2 14.9,0.4 24.7,7.8 0.6,0.4 1.2,0.9 1.8,1.3 23.2,16.2 61.2,23.2 86,10.3 6.4,-3.3 11.8,-7.9 16,-14.1 l 0.2,-0.3 c 1.9,-2.7 3,-5.1 4,-7.9 1.8,-5.1 2.2,-11 2,-15.8 -1.6,-0.3 -3.2,-0.5 -6.4,-1.05 C 231.1,336 198.4,330.5 193.6,329.7 Z m 79,-95.8 c 8,-4.3 13,-6.7 25.7,-8.3 l 3.2,-0.4 c 2.85036,-0.38869 6.44781,-1.21478 7.64781,-3.31478 0.7,-1.2 0.85671,-2.86432 0.75219,-4.78522 -13.6,2.8 -27.7,6 -39.9,11 -4.2,1.5 -7.6,3.7 -10.9,5.8 1,2.1 2,4.9 3.3,7.8 3.2,-3.1 6.4,-5.3 8.8,-6.8 0.4,-0.3 1.4,-1 1.4,-1 z m -10.3,96.3 c -0.5,-2.3 -1,-3.9 -1.4,-5.7 -1,-3.8 -4.12683,-11.98051 -7.02683,-21.68051 C 249.47317,300.31949 244.9,297 240.6,292.4 c -0.1,-0.1 -7.3,-6.9 -13.6,-13.2 -3.2,5.1 -5.3,8 -6.5,10.1 l 14,9.2 c 3,2 6.4,4.3 6.5,8.7 0.1,4.5 -3.8,9.8 -5,11.5 -1.6,2.2 -6.8,8.3 -13.5,4.1 0,0 -9.8,-6.1 -16.6,-10.2 l -5.3,7.8 55,8.8 z m -29.1,-61.1 c 4.6,4.9 11.5,12 16.7,16.9 -1.2,-7.4 -1.5,-15.1 0.1,-22.2 1,-4.8 2.8,-9 4.9,-12.5 l -4.4,-9.7 c -1,1.5 -2.8,4.2 -4.5,6.9 0.1,0 -6.2,10.1 -12.8,20.6 z"
     sodipodi:nodetypes="cccccccccccccccccccccccccccccccccccccccccccccccccccccccccccccccccccccccc" /><path
     id="XMLID_131_"
     clip-path="none"
     style="fill:#311d00;fill-opacity:1;stroke:none;stroke-width:1.49497"
     d="M 217.49219,0.00195313 C 87.732256,-0.55788489 -42.31445,109.76053 13.134766,286.77148 c 5.979863,19.28506 13.454129,36.02773 20.480468,49.48243 -0.597986,2.39194 -1.494965,7.02583 0,13.30468 2.391946,8.8203 4.334989,14.05392 11.361328,29.60157 -2.840435,10.46476 7.026919,25.86185 30.796876,21.37695 28.254852,-4.3354 43.053762,-14.64997 46.492182,-17.19141 0.89698,0.59799 1.94482,1.34627 2.8418,2.09375 50.23085,39.16811 132.15521,41.25996 162.35352,-5.08398 12.10922,2.54144 27.20703,0.44922 27.20703,0.44922 15.69714,-1.04648 28.40471,-5.2327 38.27148,-11.81055 -1.19597,-1.94345 -2.39102,-3.88752 -3.4375,-5.98047 -12.70721,8.52131 -30.94674,13.15545 -56.66015,11.0625 l -1.64453,-0.14844 c 4.0364,-8.07281 6.72802,-17.49121 7.625,-28.10546 l -5.83008,-1.04688 c 0.29899,7.17584 -0.44969,14.7995 -3.14063,22.42383 -1.49496,4.1859 -3.13897,7.7745 -6.1289,12.03516 -6.27886,9.34353 -14.35214,17.41622 -23.91993,22.3496 -37.07515,19.28506 -93.8832,8.82001 -128.5664,-15.39843 -0.89698,-0.59799 -1.79443,-1.34538 -2.69141,-1.94336 -14.80016,-11.06275 -24.81656,-13.45412 -36.925779,-11.66016 -4.036408,0.59799 -8.221969,1.64371 -13.00586,3.13867 -20.780024,6.27886 -20.033203,-5.67968 -20.033203,-5.67968 C 41.088978,345.22458 25.093529,318.76389 11.339844,268.83203 -6.5997458,197.07367 7.3038779,136.97487 38.847656,92.275391 l 0.298828,-0.447266 0.597657,-0.898437 C 66.055539,54.303025 104.47551,28.141298 147.08203,14.537109 c 30.34781,-5.0828833 58.60422,-3.438118 83.86914,2.990235 l 0.59766,0.15039 0.89648,0.298828 c 25.11543,6.57785 47.53933,17.790343 66.52539,31.394532 23.02248,16.59412 40.96321,36.775158 52.77344,56.658206 -1.95356,0.97815 -2.82595,2.64541 -3.43945,4.48437 -0.299,1.79396 -0.14861,3.73729 0.15039,5.53125 0.44849,1.94346 1.04565,3.73868 1.49414,4.78516 l 0.44922,0.89648 c 0,0 5.68065,16.44536 7.47461,21.67774 1.19597,-0.1495 2.24152,-0.44906 3.4375,-0.74805 l -8.51953,-23.62109 c -3.43843,-7.92332 0.44726,-10.91211 0.44726,-10.91211 -1.04647,2.98993 -0.14877,6.42674 0.44922,8.2207 1.04648,3.43842 4.7844,13.75442 7.92383,21.67773 0.59798,1.49497 1.19409,2.98941 1.64258,4.48438 0.89698,-0.1495 1.79532,-0.29866 2.84179,-0.59766 -2.69094,-7.92332 -6.27969,-17.1926 -7.32617,-20.33203 -0.89698,-2.54144 -1.34504,-3.58753 -2.54101,-7.77344 -1.64447,-5.68087 0.59828,-5.67952 2.99023,-5.97851 1.34547,-0.1495 5.38215,0 6.57813,0 2.54144,-1.34547 7.77268,-3.88679 10.9121,-5.53125 C 338.73685,38.158936 262.79234,-4.7483211 163.07812,9.9023438 241.71333,-9.2332185 331.11393,13.341458 384.7832,90.033203 c 2.84044,4.783891 5.23101,7.325292 9.56641,15.996097 h -1.94336 c -2.98993,-4.18591 -5.97938,-5.53215 -9.7168,-5.68164 -0.14949,0 -7.32471,8.4e-4 -6.42773,7.32617 0.29899,2.24245 1.19498,4.93383 1.79297,6.27929 l 5.38281,11.21094 1.3457,2.99024 5.08203,10.46484 c 0,0 3.88762,7.6257 4.03711,11.66211 l 13.75391,0.29883 c 0,0 0.14903,-4.18622 -2.69141,-11.81055 -2.09295,-5.38188 -8.52228,-25.26437 -10.61523,-29.30078 l -0.14844,-0.15039 c 0.74748,0 3.43863,7.3e-4 4.9336,0.44922 2.69093,6.87684 6.72686,18.83668 9.71679,28.10547 l 3.4375,0.14843 c 1.19598,0.1495 5.98054,0.448 7.625,0.89649 l -13.7539,-32.29102 -3.13868,1.19727 c -0.59798,-1.04648 -1.49526,-1.64437 -2.99023,-1.94336 l -1.3457,-0.15039 C 358.11124,33.201269 287.84396,0.30547976 217.49219,0.00195313 Z M 416.625,101.69336 l -8.22266,3.73828 14.80078,33.03906 1.64454,0.14844 c 1.19597,0.1495 2.39189,0.29906 7.17578,1.64453 6.27885,1.79396 7.32585,15.84637 -4.48438,14.65039 -1.94345,-0.29899 -3.73835,-0.44816 -5.38281,-0.59765 -2.09295,-0.299 -4.63417,-0.74699 -7.47461,-0.89649 h -0.59766 c 2.98994,11.81023 2.09274,27.65622 -13.7539,31.24414 8.22231,-3.58792 1.04614,-6.12784 0.59765,-6.27734 -17.1921,-3.88691 -45.74533,1.3449 -48.88476,-0.74805 18.38808,-1.79396 19.88364,-11.21257 18.38867,-20.63086 l -2.8418,0.59766 c 1.79395,9.86676 -2.54089,13.90314 -8.07226,15.99609 -8.37181,2.84044 -14.5009,2.98934 -14.65039,2.83985 l -5.53125,-0.14844 c 2.39194,-0.74748 7.0251,-1.04622 12.85547,-2.24219 8.82029,-1.79396 13.90462,-5.68189 13.30664,-15.84766 -1.04648,0.1495 -2.24348,0.44906 -3.43946,0.74805 0.1495,2.98993 -0.29922,5.38182 -1.3457,7.17578 -1.79396,3.28893 -7.92201,4.48511 -11.21094,4.9336 l -4.78515,0.59765 c -18.98607,2.39195 -26.4602,5.97985 -38.41992,12.40821 0,0 -1.49471,0.8981 -2.24219,1.49609 -3.58792,2.09295 -8.22197,5.38017 -13.00586,10.16406 0.59798,1.19598 1.04654,2.39281 1.64453,3.73828 2.24245,-2.09295 4.33445,-4.18634 7.02539,-6.27929 0,0 5.38203,-4.63312 12.10937,-7.62305 -9.71727,6.12936 -15.39874,12.25706 -18.38867,15.39648 7.62433,16.89312 17.79037,39.4672 27.80664,61.74219 -2.24244,-17.1921 30.79703,-30.34787 42.90625,-1.64453 2.24245,5.53137 4.33406,11.5111 5.97852,17.93945 2.39194,-0.29899 4.78473,-0.4471 7.32617,-0.74609 -0.74748,-3.13943 -1.64493,-6.42893 -2.69141,-9.56836 -1.79395,-7.32533 -3.13973,-17.49105 -2.99023,-28.4043 v -1.64453 c 4.93339,5.83037 23.02238,24.96633 44.40039,31.09571 l -5.38086,-13.00586 c 0,0 -21.67769,-8.97085 -37.67383,-33.48828 0.1495,-1.19598 0.44816,-2.09342 0.59766,-2.69141 1.79396,-8.9698 5.08423,-17.49018 10.83984,-24.66602 0.82223,-1.04647 1.41943,-1.79442 2.31641,-2.6914 l 33.93555,79.38281 c 0,0 5.68079,-0.44872 10.76367,-1.3457 0,0 -26.90961,-63.38682 -34.98242,-82.67188 l 1.79492,-0.14844 0.74805,-0.15039 1.19531,-0.14843 c 8.07281,-1.49497 12.4085,-5.08281 15.39844,-10.76368 2.69093,-4.78389 2.9895,-11.21293 2.54101,-16.44531 1.07406,-1.44502 2.70774,-2.52527 4.03711,-3.28906 9.11929,4.4849 25.41365,-1.94349 15.54688,-17.64063 z M 383.39062,103.75 c 0.45784,-0.0374 0.79297,0.0371 0.79297,0.0371 3.43842,0.59799 7.47657,5.5303 7.47657,12.55664 v 0.89844 c 2.09295,2.09295 3.73673,4.03536 4.7832,8.96875 1.19597,5.53137 -2.84054,8.37194 -6.87695,3.28906 -1.64446,-1.79396 -2.5379,-3.54148 -3.21485,-5.97852 -0.82024,-2.95288 -0.37304,-5.38281 -0.37304,-5.38281 -1.19597,-1.04648 -2.09221,-2.09346 -3.13868,-3.51367 -1.04648,-1.42022 -1.7166,-2.89661 -2.01953,-4.25977 -0.29585,-1.33155 -0.22461,-2.24381 -0.22461,-2.84179 0,-1.34547 0.29976,-2.24169 1.27149,-3.13867 0.48586,-0.44849 1.0656,-0.5974 1.52343,-0.63477 z m -9.22265,1.38281 -0.29883,0.14844 -3.58789,1.79492 c -2.54144,3.13943 1.3457,13.15625 1.3457,13.15625 0,0 2.98915,9.26726 6.72657,18.68555 9.86677,-2.54144 16.89433,15.6975 -0.44727,17.04297 1.64446,7.32533 18.08745,4.18681 11.80859,-12.25782 -1.19597,-3.28892 -12.25861,-26.01248 -14.35156,-31.69335 -1.34547,-3.58792 -1.34375,-4.18579 -1.34375,-5.53125 z m 8.07226,2.24219 c -0.44849,3.58792 2.54182,7.92406 4.63477,9.26953 1.49497,-2.39195 0.14912,-9.26953 -4.63477,-9.26953 z m -14.65039,1.04688 -3.28906,1.49414 c 0,0 -1.49529,3.14 0.59766,9.56836 2.84043,8.3718 7.17578,20.63085 7.17578,20.63085 l 3.58984,-0.59765 -6.72851,-18.98633 c 0,0 -2.84067,-7.32548 -1.34571,-12.10937 z m 20.33204,12.25781 c 0.29898,3.88691 1.49476,6.42836 3.88671,8.82031 2.24245,-3.43843 -0.1493,-8.07283 -3.88671,-8.82031 z m 19.88281,19.13672 c 0,0 2.6914,5.82972 2.6914,10.01562 4.93339,0.44849 14.65126,1.34521 18.38868,2.24219 4.0364,0 4.78214,-2.69075 4.93164,-3.88672 0.14949,-2.24245 -1.07869,-4.74165 -3.28711,-5.23242 -3.18732,-0.70829 -17.19324,-2.54069 -22.72461,-3.13867 z m -27.49414,2.15234 c -0.39302,-0.0128 -0.79787,0.0151 -1.20899,0.0898 -31.39428,5.08289 -67.87218,14.50084 -85.36328,21.82618 -6.12936,2.54144 -10.76275,4.93333 -14.20117,7.17578 0.89698,0.74748 1.19556,0.89711 2.54101,3.28906 0.89698,1.49497 3.13868,6.42773 3.13868,6.42773 4.18592,-3.13942 8.37282,-5.53171 15.84765,-8.22265 23.91946,-9.71728 52.32297,-15.39759 77.58789,-20.48047 l 1.94336,-0.44922 c 4.18591,-0.59799 5.23259,-3.13841 4.9336,-5.38086 -0.26162,-2.09295 -2.46767,-4.18546 -5.21875,-4.27539 z m 12.99218,12.34766 c -0.14949,2.54144 -3.73632,4.93359 -3.73632,4.93359 13.46506,0.85796 16.29492,-4.93359 16.29492,-4.93359 z m -116.75585,19.88281 c -1.79396,0 -4.48461,1.34544 -5.83008,3.58789 -1.04648,1.79396 -1.04648,3.43846 0,5.23242 0.14949,0.1495 24.21818,52.77302 44.69922,97.77149 5.23238,1.04647 11.95898,0.74804 11.95898,0.74804 L 279.87891,176.02344 c -0.57812,-1.34375 -1.98657,-1.82422 -3.33203,-1.82422 z m -9.26954,5.23242 c 0,0 -6.42697,7.62415 -9.5664,12.70703 -2.98993,4.4849 -11.81113,18.3879 -21.37891,33.93555 2.09295,0.1495 4.18555,2.69141 4.18555,2.6914 l 4.93359,5.38282 18.38867,-30.19922 c 2.98994,-4.78389 8.07227,-11.0625 8.07227,-11.0625 l -3.4375,-8.07227 c -1.23161,-2.89162 -1.19727,-5.38281 -1.19727,-5.38281 z m 111.97461,15.69727 c -11.51123,8.3718 -15.24897,37.97261 -11.81054,53.96875 -9.41829,-10.31527 -4.78358,-52.0253 11.81054,-53.96875 z m -95.97851,22.72461 c -6.57785,16.59412 -5.53111,34.08523 -2.24219,51.27734 9.11929,6.27886 17.64118,10.16519 30.79687,11.66016 z m -48.19336,11.49218 c -1.21466,0.0561 -2.41019,0.54211 -3.23242,1.21485 -2.24245,1.79396 -3.43776,5.08322 -1.19532,8.22265 8.67081,9.41829 30.04777,29.74984 30.19727,30.04883 19.28506,20.92952 38.71878,25.26407 56.35937,26.31055 12.25872,0.89698 28.10696,0.14933 25.41602,0.29883 32.29126,-1.94346 87.3047,-9.56824 117.35352,-15.09961 2.24244,-0.44849 3.73828,-0.89649 3.73828,-0.89649 0.39905,-0.17578 0.73031,-0.11287 1.04687,0 1.49497,0.59799 2.83985,5.0824 2.83985,5.30664 3.13942,7.84857 9.41796,28.18058 9.41796,28.33008 0,0 1.79436,6.27897 1.04688,6.87695 -1.04648,1.04648 -9.41797,2.99024 -9.41797,2.99024 -15.39815,4.03641 -79.08454,13.60448 -113.46875,15.39844 -0.29899,0 -9.26751,1.49383 -28.85156,-1.4961 l -127.82031,-20.92968 -7.02735,9.71874 132.30469,21.67579 c 12.10922,1.94345 21.67695,2.39168 28.4043,2.24218 l 3.88671,-0.14843 c 4.7839,-0.1495 7.47551,-0.59766 7.625,-0.59766 35.58019,-3.58792 80.4302,-9.56847 109.58204,-16.44531 0,0 3.28863,-0.74714 5.83007,-0.59766 1.04648,0 2.39063,0.59766 2.39063,0.59766 0.44849,0.44849 1.19604,1.64531 1.64453,3.73828 5.23238,18.83655 6.28019,47.09114 6.42969,48.28711 0,0 0.14804,5.82982 -0.89844,8.07226 -1.19597,1.34547 -5.53125,2.09375 -5.53125,2.09375 -47.24092,12.10923 -102.40519,3.58686 -123.7832,-42.30859 -4.6344,0.44849 -11.66016,0.29883 -11.66016,0.29883 0.29899,1.64446 2.09375,4.93359 2.09375,4.93359 13.75369,30.4973 38.86825,42.90613 59.94727,48.4375 23.17197,6.12936 50.38139,5.53098 75.94531,-1.04687 4.1859,-1.34547 4.03516,-1.64453 4.03516,-1.64453 3.88691,1.94345 8.07421,0.44921 8.07421,0.44921 1.49497,-1.04647 2.39046,-2.98997 2.68946,-5.23242 3.88692,-43.05501 -12.70666,-100.16375 -29.30078,-130.81054 -2.39195,-1.94346 -5.38256,-1.94296 -7.625,-0.89649 -1.75858,0.81601 -2.57406,1.64611 -2.68946,3.4375 0,0 -1.83177,0.49311 -4.78515,1.04688 -23.37022,4.38192 -102.85319,14.35189 -124.67969,13.7539 -0.59799,0 -11.06341,0.14999 -20.0332,-0.89648 -16.59412,-1.79396 -25.11556,-6.72731 -36.92579,-15.9961 -10.61425,-10.01627 -32.28992,-32.29211 -36.02734,-37.375 -0.89698,-1.04647 -2.13104,-1.41934 -3.3457,-1.36328 z m -7.26953,10.93164 c -10.46476,17.04261 -13.30558,21.67757 -13.45508,21.97657 v 0.14843 l -0.14844,0.15039 c -1.49496,1.79396 1.04565,4.33472 1.49414,4.78321 2.39195,2.09295 5.98054,3.43922 7.625,2.09375 l 12.70703,-20.18164 c 0,0 -5.08322,-4.63531 -8.22265,-8.97071 z m 281.20312,19.97657 c -0.83157,-0.0561 -1.3457,0.0566 -1.3457,0.0566 4.78387,1.49496 8.67064,9.11951 0.29883,13.7539 0,0 5.08395,13.15393 8.67187,29.74805 15.24865,-0.1495 16.14558,18.23964 7.17578,21.08008 0,0 5.82926,29.30163 7.32422,45.44726 0.1495,2.98994 0.30078,5.53125 0.30078,5.53125 6.27886,1.34547 10.01563,5.68031 10.01563,8.07227 3.13943,-18.53759 -7.77455,-72.05757 -21.67774,-111.07617 -2.91518,-10.76376 -8.26894,-12.4451 -10.76367,-12.61328 z m -4.7832,1.70117 c 0,0 -3.73713,0.44692 -5.83008,1.04492 -6.42835,1.79396 -15.54877,3.73762 -22.72461,4.93359 2.39195,4.78391 2.98974,6.72841 3.88672,8.67188 0,0 3.4382,-0.59824 7.47461,-1.3457 6.42835,-1.19599 12.95837,-2.71746 16.96875,-3.73829 4.21948,-1.07405 4.84831,-3.14687 4.56055,-5.08203 -0.37013,-2.48894 -1.49551,-4.03588 -4.33594,-4.48437 z m -14.05274,0.14844 c 0,0 -15.44819,1.42699 -21.08007,1.19726 0.44849,0 2.39354,0.298 4.1875,1.79297 0.14949,0 13.90264,-1.79426 16.89257,-2.99023 z M 430.82812,263 l 3.4375,7.77539 c 0,0 16.59476,-1.79393 23.6211,-3.58789 0,0 0.10449,-2.57647 3.13867,-3.14062 0,0 -12.85566,1.34507 -30.19727,-1.04688 z m -220.50781,0.30078 c -2.39194,2.09295 -2.84036,5.82949 1.64453,8.66992 7.62433,4.78389 32.73829,19.58399 32.73828,19.58399 0,0 6.72836,4.33492 7.02735,9.71679 2.09295,-5.83036 -1.34568,-10.16559 -4.93359,-12.70703 l -23.32227,-15.54687 c -4.3354,1.19597 -13.60279,-3.58744 -13.1543,-9.7168 z m 17.49024,6.57617 -1.94336,1.79493 c 0,0 17.79138,11.80979 22.42578,14.94921 5.23238,3.58792 7.32471,8.0737 6.42773,12.5586 0,-0.1495 4.33454,-7.62455 -3.73828,-13.75391 -4.63439,-3.43842 -15.09906,-10.46594 -23.17187,-15.54883 z m -21.22852,0.15039 c -1.04647,1.79396 -3.43787,5.38114 -8.07226,11.95899 -2.09296,2.84042 -2.69174,5.38149 -2.09375,7.77344 1.04647,3.28892 4.63476,4.9345 4.63476,5.08398 l 21.97656,13.45508 c 3.29854,1.89499 6.4917,3.96282 9.7168,5.97851 5.23238,3.43843 11.36147,0.74856 14.65039,-3.73632 2.84044,-3.88692 3.73857,-9.56824 -2.0918,-15.09961 0,0 -1.04797,-1.3451 -6.13085,-4.18555 -4.6344,-2.54144 -20.92931,-12.55791 -28.70313,-17.3418 0,0 -2.84024,-1.79376 -3.88672,-3.88672 z m -49.93164,1.04688 c -5.97986,0 -11.36203,2.24093 -15.39844,6.27734 -8.96979,9.11929 -8.37068,24.81666 1.4961,34.98242 4.93338,5.23238 11.65937,8.22266 18.38672,8.22266 2.39194,0 4.78489,-0.29939 7.02734,-1.04687 l 14.65039,-21.82618 c -0.1495,-6.57785 -2.69055,-13.30473 -7.77344,-18.53711 -5.08288,-4.93338 -11.81082,-7.92276 -18.38867,-8.07226 z m 65.92773,15.39844 c 7.62435,-0.29898 10.31519,5.82892 10.76368,7.92187 5.0829,-0.59799 8.8212,2.6923 8.9707,2.8418 6.12936,5.97986 1.94336,11.36133 1.94336,11.36133 0,0 -5.08278,7.02553 -14.35156,1.49414 -1.19598,-0.74749 -2.39224,-1.9427 -2.99024,-3.13868 -0.74748,-1.34543 -1.04687,-2.39257 -1.04687,-2.39257 -7.77382,1.19597 -10.76367,-4.63477 -10.76367,-4.63477 -2.39196,-3.58792 -0.74805,-7.77344 -0.74805,-7.77344 0.74747,-1.94345 2.09331,-5.23119 8.22265,-5.67968 z m 215.12696,0.44726 c 0,0 -8.82038,1.49504 -10.46485,1.64453 0,0 13.1551,32.44122 15.24805,36.32813 l 10.46484,-2.09375 c 0,0 -8.5207,-17.19184 -15.24804,-35.87891 z m -159.4043,0.17969 c 4.3354,14.50117 8.33725,26.13163 9.5332,31.8125 0.59801,2.69094 2.31697,5.68072 3.06446,9.11914 2.98993,0.44849 5.82948,1.0476 8.66992,1.49609 l -0.14844,-1.64453 c 9.56778,-6.87684 16.89239,-18.08887 20.7793,-28.70312 l -0.59766,-1.4961 -1.3457,-0.14843 c -10.01627,-0.59799 -20.77994,-2.09307 -31.99219,-6.87696 2.84044,10.61426 5.68171,21.07871 7.32617,30.64649 -1.94345,-8.37181 -6.42933,-19.58381 -10.61523,-32.29102 -1.64446,-0.59798 -3.17888,-1.01708 -4.67383,-1.91406 z m -56.06836,1.14453 c -1.75365,0.0327 -2.85017,0.63911 -4.28906,1.81641 0,0 -1.79366,6.42821 2.99023,9.11914 l 0.89844,0.59765 c -0.29877,-1.04647 -0.30078,-2.09292 -0.30078,-3.58789 l -1.34375,-1.04687 v -1.64453 l 1.34375,0.89648 c 0.1495,-2.24245 0.44962,-4.63392 1.49609,-6.12891 -0.2803,-0.0185 -0.54439,-0.0264 -0.79492,-0.0215 z m 3.63477,0.32031 c -1.04648,1.94346 -1.64453,4.33551 -1.64453,6.87696 0.89698,0.4485 1.79442,0.74804 2.6914,0.74804 l -0.15039,1.34571 c -0.89699,0 -1.79353,-0.14935 -2.54101,-0.29883 0,1.04647 -1.7e-4,2.0913 0.29882,2.98828 4.78389,0.74748 7.1746,-2.24193 7.25,-4.48438 -0.0553,-3.36464 -2.61537,-6.20078 -5.90429,-7.17578 z m 46.34375,2.69141 c 2.54144,10.31526 6.87791,22.27505 8.67187,35.28125 l 3.28907,0.44922 c -2.69094,-13.60419 -7.32655,-26.01319 -11.96094,-35.73047 z m -56.06055,0.89648 c -2.69094,7.17584 4.48571,12.4083 10.91406,10.46485 1.54426,7.72129 9.71644,9.26906 13.90235,6.57812 -3.49205,0.44173 -10.31575,0.29832 -11.51172,-7.625 -5.08289,1.79396 -14.05219,0.44881 -13.30469,-9.41797 z m -21.82617,1.04688 -16.59375,25.41406 c -0.89698,1.19597 -1.04721,2.39192 -0.44922,3.58789 0.89698,1.94346 3.58746,3.58879 6.12891,3.73828 1.34547,0.1495 3.13996,-0.1494 4.33593,-1.94336 0,0 12.55768,-18.6886 15.9961,-23.77148 0,0 -8.3715,-4.93244 -9.41797,-7.02539 z m 186.27148,0.89648 -7.17578,0.89649 c 1.64446,13.1557 1.1964,26.75992 -2.54101,38.86914 2.54144,-0.299 5.08266,-0.4471 7.47461,-0.7461 1.64446,-5.83036 2.5428,-12.10875 2.84179,-18.53711 v -1.79492 l 56.50977,9.56836 c 0,0 -3.73779,-8.37245 -4.63477,-11.21289 l -51.875,-8.9707 v -1.64258 c -0.14949,-2.09295 -0.30061,-4.18724 -0.59961,-6.42969 z m -146.80468,1.79492 c -0.299,2.39195 -1.79443,4.1861 -2.69141,4.9336 1.04648,5.38186 4.33654,7.77296 10.91406,6.80078 4.03608,-5.15807 -1.3458,-12.03335 -8.22265,-11.73438 z m 88.35156,2.0918 c 10.01627,21.976 13.90427,31.24531 17.49219,37.97266 7.47482,0.59798 11.95898,-0.29883 11.95898,-0.29883 l -17.3418,-37.67383 c 0,0 -5.23253,0.74748 -12.10937,0 z m 196.21484,8.9707 c -3.0273,-0.0747 -5.75586,0.89649 -5.75586,0.89649 -5.08288,1.19597 -20.63086,4.18555 -20.63086,4.18555 l 1.04688,2.6914 c 4.1859,-0.44849 22.125,-4.93359 22.125,-4.93359 3.4384,0 3.58789,2.24219 3.58789,2.24219 -6.87684,2.54144 -24.66602,6.27929 -24.66602,6.27929 0.7475,3.28893 2.54102,9.86719 2.54102,9.86719 20.92952,-3.73741 25.56445,-6.12891 25.56445,-6.12891 6.12936,-2.54144 3.73633,-9.71875 3.73633,-9.71875 -1.19597,-4.1859 -4.52152,-5.30611 -7.54883,-5.38086 z m -66.75,5.83008 3.88672,9.11914 14.94922,-2.99023 c 0.1495,0.1495 5.53207,-0.29854 4.03711,-6.12891 z m -325.90234,22.72266 c 20.63053,26.46089 56.95762,26.61034 75.3457,7.17578 -7.77382,3.88691 -40.3635,25.26498 -75.3457,-7.17578 z m 335.17187,2.99023 c 0,0 -8.97044,1.94409 -11.21289,2.39258 0,0 12.85594,23.1713 36.77539,34.83203 0,0 -0.2976,-9.11911 -0.74609,-12.70703 0,0 -15.39812,-10.3154 -24.81641,-24.51758 z m -179.69531,4.33594 c -4.3354,39.16809 -46.19454,58.75288 -82.9707,55.31445 -20.18204,-0.89698 -43.95153,-9.26865 -60.99414,-17.93945 -8.22232,-4.78389 -28.10598,-15.10034 -36.0293,-15.54883 9.11929,1.94346 28.10469,12.70847 34.83203,17.19336 14.65067,7.92332 39.16804,19.13427 62.04102,20.03125 55.16423,3.43842 86.1105,-27.20744 87.60547,-58.30273 z m 89.69727,8.22266 c -3.13282,0.35465 -6.45334,0.74804 -8.96875,1.04687 l 1.19531,2.24219 c 0.74748,1.49497 1.4956,2.84008 2.39258,4.18555 1.94345,-2.39195 3.73639,-4.78367 5.38086,-7.47461 z m 132.7539,21.07812 c 0,0 0.59676,8.96955 0.44727,11.0625 0,0 5.9806,1.79403 9.26953,1.64453 0,0 0.14972,-2.69008 -7.47461,-5.08203 0,0 33.33677,3.13845 -1.79492,10.61328 0,0 0.15088,6.87839 -0.7461,11.36329 0,0 18.23816,-4.78523 23.76954,-6.42969 6.12936,-1.79396 18.38673,-7.62445 5.97851,-15.69727 0,0 2.84105,8.37286 -27.65625,12.25977 0,0 18.23849,-2.54252 23.17188,-8.67188 0,0 4.78368,-4.03595 -4.9336,-6.1289 -9.41828,-2.09296 -10.91196,-1.04669 -20.03125,-4.9336 z"
     transform="translate(-22.813066,42.468392)"
     sodipodi:nodetypes="ccccccccccccccccccccccccccccccccccccccccccccccccccccccccccccccccccccccccccccccccccccccccccccccccccccccccccccccccccccccccccccccccccccccccccccccccccccccccccccccccccccccccccccccccccccccccccccccccccccccccccccccccccccccccccccccccccccccccccccccccccccccccccccccccccccccccccccccccccccccccccccccccccccccccccccccccccccccccccccccccccccccccccccccccccccccccccccccccccccccccccccccccccccccccccccccccccccccccccccccccccccccccccccccccccccccccccccccccccccccccccccccccccc" /><path
     id="XMLID_37_"
     class="st2"
     d="m 94.669433,425.0665 c 0.747483,-0.44849 1.34547,-1.04648 1.943456,-1.34547 -9.418285,-5.97987 -20.481032,-10.01628 -39.467098,-3.73742 l -0.896979,0.29899 c 4.484897,-0.89698 10.302804,-1.42755 14.341306,-1.15832 4.931492,0.32876 12.269086,0.56033 19.295425,5.04523 l -3.438422,1.94346 c -16.444623,7.92332 -30.048812,10.16577 -37.972131,10.76375 -7.239852,0.55692 -6.278856,-3.88691 -1.195973,-6.57785 2.840435,-1.49496 5.232381,-4.1859 6.278857,-9.11929 -0.571841,0.20346 -1.38547,0.35966 -2.242449,0.44849 -1.644462,12.10922 -25.298751,10.78067 -22.872977,-5.68087 0,0 -3.587917,-7.02634 -5.531373,-11.06275 l -0.149497,-2.54144 c 0,0 5.830367,9.41829 8.222312,12.40822 -3.249452,11.60518 13.305196,15.99613 17.640597,7.47483 -14.501169,2.69094 -14.988669,-4.82808 -14.800162,-7.17584 l -0.298993,-1.19597 c -2.541442,-2.54144 -10.763754,-13.45469 -20.182038,-30.6468 -1.195973,10.01627 10.016271,33.18824 11.062747,35.43069 l 0.896979,2.39194 c -3.438421,9.41829 6.428353,21.8265 24.06895,18.98607 17.491099,-1.79396 37.075151,-8.96979 45.297463,-14.94965 z"
     style="stroke:none;stroke-width:1.49497"
     sodipodi:nodetypes="ccccccccccccccccccccccc" /><path
     id="XMLID_23_"
     class="st1"
     d="m 110.81506,395.76517 c -2.69093,1.94345 -3.88691,5.83036 -3.43842,9.71727 -1.19597,2.39195 -0.299,5.97987 2.24244,8.52131 2.69094,2.84043 6.42836,3.73741 8.82031,2.24245 2.24245,0.14949 4.3354,-0.299 5.97986,-1.64447 3.88691,-3.28892 4.03641,-9.71727 0.44849,-14.80016 -3.58792,-5.08288 -9.86677,-6.87684 -14.05268,-4.0364 z"
     style="fill:#311d00;fill-opacity:1;stroke:none;stroke-width:1.49497"
     sodipodi:nodetypes="ccccccc" /><path
     id="XMLID_36_"
     style="fill:#ffffff;stroke:none;stroke-width:1.49497"
     d="m 111.86154,407.4259 c -0.1495,-1.19597 -1.04648,0.1495 -1.04648,0.1495 -1.34547,1.79395 1.79396,5.97986 5.23238,5.68087 1.04648,-0.1495 0.89698,-0.89698 0.299,-1.04648 -1.94346,-0.59799 -4.18591,-2.69094 -4.4849,-4.78389 z m 0.21601,-3.82079 c -1.09698,0.009 -2.11379,0.36693 -2.90624,1.1289 -1.98118,1.90499 -1.34613,5.68211 1.19531,8.37305 2.54145,2.69094 6.11491,3.43974 8.22265,1.49414 2.01957,-1.86422 1.49457,-5.68016 -1.04687,-8.37109 -1.5884,-1.68184 -3.63654,-2.63966 -5.46485,-2.625 z m -0.20117,1.22266 c 1.58665,-0.0847 3.3858,0.85991 4.61914,2.29882 1.49497,1.64446 2.83995,5.38199 0.89649,6.87696 -1.64446,1.34547 -4.48321,0.29891 -6.57617,-1.64454 -2.24244,-2.09296 -2.3934,-5.23159 -0.89844,-6.72656 0.56061,-0.51389 1.23778,-0.76618 1.95898,-0.80468 z m -0.24218,2.11718 c -0.31535,-0.12613 -0.81836,0.63086 -0.81836,0.63086 -1.19597,1.79395 1.794,5.97868 5.23242,5.67969 1.04648,-0.299 0.74732,-1.04492 0.29883,-1.04492 -2.09295,-0.59799 -4.18734,-2.69221 -4.48633,-4.78516 -0.0374,-0.29899 -0.12145,-0.43842 -0.22656,-0.48047 z m -2.3141,-4.60193 c 5.68087,-8.8203 19.88304,2.24244 12.55771,11.81022 10.91325,-8.07281 -7.92332,-26.1619 -12.55771,-11.81022 z m 7.17584,-1.19597 c -1.64446,-0.59799 -2.09295,1.64446 -0.74749,1.79395 1.34547,0.299 3.58791,2.24245 4.3354,3.73742 0.59798,1.34547 2.24244,0.1495 0.74748,-2.24245 -0.44849,-0.89698 -2.84043,-2.84043 -4.33539,-3.28892 z"
     sodipodi:nodetypes="ccccccccccccccccccccccccccccccc" /><path
     id="XMLID_9_"
     class="st1"
     d="m 203.20395,399.05409 c 1.19597,2.54144 3.58792,4.1859 6.42835,4.1859 2.09296,0 3.88691,-0.89697 5.23238,-2.24244 3.88691,-1.64447 6.57785,-5.53138 6.57785,-10.01628 0,-6.12935 -4.78207,-11.06274 -10.91325,-11.06274 -6.66736,0 -10.91325,4.93339 -10.91325,10.91325 0,3.28892 1.34547,6.27885 3.58792,8.22231 z"
     style="fill:#311d00;fill-opacity:1;stroke:none;stroke-width:1.49497"
     sodipodi:nodetypes="ccccccc" /><path
     id="XMLID_22_"
     style="fill:#ffffff;stroke:none;stroke-width:1.49497"
     d="m 212.62223,396.81165 c -0.98828,1.68008 -4.63439,1.49496 -5.97986,-0.59799 l -0.59798,-0.14949 c -0.33406,3.00648 4.7922,5.53579 7.17583,1.04647 0.0799,-0.1505 -0.0895,-1.16338 -0.59799,-0.29899 z m -2.98999,-6.72803 c -3.28892,0 -5.98047,2.69155 -5.98047,5.98047 0,3.28893 2.69155,5.98047 5.98047,5.98047 3.28893,0.14949 5.98047,-2.54205 5.98047,-5.98047 0,-3.28892 -2.69154,-5.98047 -5.98047,-5.98047 z m -0.15039,1.04688 c 2.69094,0 4.78516,2.39215 4.78516,4.93359 0,2.69094 -2.09422,4.78321 -4.78516,4.78321 -2.69094,0 -4.7832,-2.09227 -4.7832,-4.78321 0,-2.69094 2.09226,-4.93359 4.7832,-4.93359 z m -3.4375,4.93359 c -0.44849,2.84043 4.78384,5.68128 7.17578,1.04688 0,0 3.4e-4,-1.04631 -0.59765,-0.29883 -1.04647,1.64446 -4.635,1.49529 -5.98047,-0.59766 z m 4.63443,-11.66066 c 6.72735,0.29899 8.9698,7.32533 6.27886,12.8567 5.97986,-6.12936 0.89698,-15.24865 -6.12936,-15.24865 -10.01627,0 -10.76375,10.61426 -8.37181,12.85671 -1.19597,-3.73742 1.19597,-10.76376 8.22231,-10.46476 z m -4.78389,2.98993 c -1.34547,1.34547 -0.29899,2.09295 0.74748,1.49496 2.24245,-1.49496 6.12936,-0.74748 7.62433,1.04648 0.89698,1.34547 1.94345,0.1495 0.89698,-1.49497 -2.09296,-3.13943 -6.72735,-3.28892 -9.26879,-1.04647 z"
     sodipodi:nodetypes="cccccccccccccccccccccccccccccc" /></g></g></svg>
