<?xml version="1.0" encoding="utf-8"?>
<!-- Generator: Adobe Illustrator 16.0.0, SVG Export Plug-In . SVG Version: 6.00 Build 0)  -->
<!DOCTYPE svg PUBLIC "-//W3C//DTD SVG 1.0//EN" "http://www.w3.org/TR/2001/REC-SVG-20010904/DTD/svg10.dtd">
<svg version="1.0" id="Layer_1" xmlns="http://www.w3.org/2000/svg" xmlns:xlink="http://www.w3.org/1999/xlink" x="0px" y="0px"
	 width="800px" height="800px" viewBox="0 0 800 800" enable-background="new 0 0 800 800" xml:space="preserve">
<g>
	<path fill-rule="evenodd" clip-rule="evenodd" fill="#12134D" d="M25.413,299.412c0,0-3.931,73.394,81.748,120.052
		c0,0,34.497,18.382,115.684,33.317c71.313,13.136,109.611,40.889,124.808,58.334c19.431,22.301,38.492,62.717,47.068,98.154
		c0,0,0,9.199,6.604,8.785c0,0,5.784,0.414,5.37-7.844c0,0-2.067-55.738,14.032-82.57c12.332-22.04,34.437-41.098,71.017-54.506
		c0,0,24.363,18.587,59.042,18.587c25.18,0,47.48-10.744,47.48-10.744s44.177,15.281,49.137,39.218c0,0,0.414,5.787-1.238,9.916
		l55.321,2.896l30.14-27.253c0,0-56.146-4.135-57.388-20.234c0,0-0.871-7.474,14.286-7.474c0,0,34.934-0.579,67.463,48.066
		l18.629-48.935c0,0-14.288-7.145-13.999-20.263c0,0-0.289-8.013,5.989-24.039l-23.165-10.522c0,0-12.55-11.772-87.735-58.679
		l9.745-6.27l-83.193-36.006c0,0-26.643-41.984-100.95-42.275c0,0-58.01-95.165-150.577-95.165c0,0-34.163-2.028-73.252,18.532
		c0,0-15.642,7.141-30.791,15.735c0,0-31.755,22.001-68.045-25.968c0,0-13.221,56.652,26.543,80.886c0,0-38.026,8.007-51.442-24.609
		c0,0-12.259-24.903-8.878-66.603c0,0-29.146,26.352-29.146,76.925c0,0-0.29,32.236,21.133,54.245c0,0-10.808-1.645-27.989,9.17
		C88.854,322.268,58.84,343.986,25.413,299.412L25.413,299.412z"/>
	<path fill-rule="evenodd" clip-rule="evenodd" fill="#F9430D" d="M167.21,217.363c0,0,5.582,49.966,48.116,49.966
		c0,0,16.714,0,31.986-5.787c15.278-5.788,37.573-17.153,67.301-17.153c0,0,38.803-3.701,60.479,39.249
		c0,0,49.556-2.706,95.998,5.986c0,0-52.845-93.116-144.699-91.674c0,0-26.85-1.441-62.571,16.508l-14.449,6.812
		c-10.515,4.967-14.657,7.433-14.657,7.433s-14.863,8.904-29.083,8.466C205.63,237.164,187.042,238.628,167.21,217.363
		L167.21,217.363z M114.611,219.031c0,0-24.608,67.871,29.265,98.21c10.032,6.528,26.047,12.578,44.132,13.039
		c0,0,73.631-35.087,153.767-44.36c0,0-9.268-19.766-45.506-19.766c0,0-22.139-1.303-62.292,9.805c0,0-10.876,2.756-23.638,7.122
		c-18.241,4.467-48.663,8.963-68.3-3.44C142.036,279.639,115.298,266.38,114.611,219.031L114.611,219.031z M45.42,333.266
		c0,0,6.669,36.234,48.274,36.234c0,0,29.113,0.693,70.176-24.362c0,0-14.177-5.513-21.371-10.188c0,0-15.095-11.418-31.106-6.969
		c0,0-2.76,0.533-17.394,6.744c0,0-10.266,6.664-24.899,6.664C69.099,341.39,54.233,341.159,45.42,333.266L45.42,333.266z"/>
	<path fill-rule="evenodd" clip-rule="evenodd" fill="#FFFFFF" d="M270.27,450.328c0,0,82.885-87.668,202.555-57.187
		c0,0,5.915,68.636,79.862,72.81c0,0,25.181,1.516,48.981-15.248l46.492,17.372l-48.765-30.718c0,0-15.616,15.242-43.829,15.242
		c-28.216,0-62.485-28.593-59.453-69.169c0,0-51.266-25.701-108.449-39.049l17.138,27.075c0,0-111.095-7.053-202.175,63.625
		c0,0-86.904-19.264-97.37-36.019c0,0,178.91-145.426,407.904-86.438c0,0,2.677-3.928-3.979-9.41c0,0-8.592-6.437-21.347-10.262
		c0,0,56.017-2.991,85.242,39.488l64.389,27.072l-6.765,4.765c0,0,98.438,61.202,105.023,69.759l13.73,5.742
		c0,0-9.765,28.599,10.269,44.022l-7.434,19.678c0,0-32.918-35.465-65.757-36.873c0,0-24.271-0.574-24.271,18.899
		c0,0-2.905,20.796,45.437,26.809l-9.984,9.219l-36.872-2.348c0,0,0.852-30.006-63.494-53.431c0,0-52.81,31.409-102.838-7.338
		c0,0-91.169,21.903-99.401,105.825c0,0-10.02-31.717-32.31-58.775c0,0,12.004-42.796,76.904-64.303c0,0-58.263-2.987-99.204,43.598
		C340.503,484.76,313.365,462.663,270.27,450.328L270.27,450.328z"/>
	<path fill-rule="evenodd" clip-rule="evenodd" fill="#12134D" d="M568.146,351.073c0,0,45.423,6.771,123.513,70.548l-73.818-40.317
		c0,0-4.772,2.442-7.769,5.098C610.074,386.404,593.379,367.106,568.146,351.073L568.146,351.073z"/>
	<path fill-rule="evenodd" clip-rule="evenodd" fill="#F9430D" d="M605.163,364.589c0,0-3.8,3.141-2.263,8.624
		c0,0,1.858,5.169,7.717,5.287c0,0,6.618,0.088,7.78-7.143l-3.138-1.688l-8.16,6.105l2.295-9.123L605.163,364.589L605.163,364.589z"
		/>
	<path fill-rule="evenodd" clip-rule="evenodd" fill="#12134D" d="M736.36,441.754c0,0-6.268,2.327-6.268,7.943
		c0,0-1.51,5.851,11.085,18.44c0,0-18.714-13.687-22.222-21.932c0,0-3.226-6.043,5.889-6.043
		C724.842,440.163,730.386,440.163,736.36,441.754L736.36,441.754z"/>
	<path fill-rule="evenodd" clip-rule="evenodd" fill="#12134D" d="M523.716,316.906c0,0,11.542,0.169,12.877-2.658
		c0,0,2.822-2.944-12.709-10.207c0,0,23.959,4.893,34.831,24.244C558.715,328.286,543.187,321.183,523.716,316.906L523.716,316.906z
		"/>
</g>
</svg>
