<?xml version="1.0" encoding="utf-8"?>
<!-- Generator: Adobe Illustrator 16.0.0, SVG Export Plug-In . SVG Version: 6.00 Build 0)  -->
<!DOCTYPE svg PUBLIC "-//W3C//DTD SVG 1.0//EN" "http://www.w3.org/TR/2001/REC-SVG-20010904/DTD/svg10.dtd">
<svg version="1.0" id="Layer_1" xmlns="http://www.w3.org/2000/svg" xmlns:xlink="http://www.w3.org/1999/xlink" x="0px" y="0px"
	 width="800px" height="800px" viewBox="0 0 800 800" enable-background="new 0 0 800 800" xml:space="preserve">
<g transform="matrix(1.25 0 0 -1.25 -286.33 570.27)">
	<g transform="matrix(.25 0 0 .25 230.36 298.03)">
		<path fill="#B0B7BC" d="M2201.838-313.095c0,0,29.966,25.708,61.313,25.142c31.416-0.494,53.087-11.016,64.891-23.57
			c0,0,24.984,3.409,52.1-4.027c27.106-7.489,65.369-29.834,80.266-55.866c14.891-26.064,16.615-56.028,1.156-84.378
			c0,0,5.119-19.277-7.531-43.188c-12.772-23.962-33.603-36.411-33.603-36.411s-14.259-35.423-51.431-51.886
			c-37.256-16.495-86.169,2.128-86.169,2.128s-27.706-5.395-48.597-5.395c-21.053,0.041-50.422,9.07-59.453,13.316
			c0,0-24.947-36.602-31.903-45.319c0,0,34.084-29.63,71.359-41.302c37.2-11.669,66.462-17.025,83.519-29.216
			c16.903-12.306,23.428-24.237,23.428-24.237s26,4.044,50.972-1.841c25.006-5.869,54.194-25.506,73.375-51.606
			c19.147-26.078,30.837-59.531,22.859-91.359c-7.981-31.956-26.197-43.572-26.197-43.572s-8.887-29.337-26.99-47.344
			c-18.041-18.197-43.8-19.362-43.8-19.362s-14.134-18.984-50.831-24.797c-36.678-5.856-62.938,14.416-62.938,14.416
			s-28.99-3.281-68.428,8.959c-39.334,12.181-66.269,52.487-66.269,52.487s-25.616,12.334-72.991,14.503
			c-47.356,2.153-153.072,23.412-200.153,50.781c0,0-27.691-13.366-111.588-17.716c0,0-12.425,37.894-36.744,56.878
			c0,0-72.122-40.016-94.916-50.581c-22.9-10.669-65.234-29.084-102.066-31.328c0,0-9.656-60.119-27.238-92.588
			c-17.509-32.478-51.231-56.594-79.794-66.066c0,0,41.563-14.741,63.425-47.166c21.747-32.478,29.203-68.072,14.344-96.775
			c-14.922-28.719-31.731-36.512-31.731-36.512s-8.534-28.988-42.106-44.056c-33.622-15.069-75.856-7.088-75.856-7.088
			s-23.394-12.325-55.42-12.078c-32.083,0.297-72.283,27.566-72.283,27.566s-105.156-9.628-136.45-7.009
			c-31.27,2.531-68.325,15.519-85.981,61.684c0,0-19.198-16.028-47.872-29.869c-28.709-13.822-83.103-40.472-122.177-68.3
			l1.3-20.759c0,0,57.125-21.519,60.783-79.978c3.755-58.5-28.203-80.191-37.28-86.391c0,0-12.156-26.4-38.222-39.653
			c-26.034-13.256-54.82-7.147-54.82-7.147s-64.214-28.484-113.167,18.319c-48.973,46.759-35.117,97.269-34.552,109.544
			c0.489,12.184,4.042,119.372,3.538,124.347c0,0-24.308,32.494-18.989,69.194c5.316,36.672,33.498,59.575,46.756,70.713
			c13.344,11.188,29.297,29.725,37.202,57.931c7.962,28.144,8.513,85.675,11.189,106.894c2.691,21.272,3.809,56.916,3.809,56.916
			s-96.25,26.528-146.278,82.384c-49.995,55.844-63.855,96.269-76.667,151.494c-12.683,55.297-21.688,111.166-72.489,142.508
			c0,0-33.278-9.525-71.498,5.892c-38.305,15.361-61.744,46.222-86.164,76.533c-24.481,30.308-111.6,44.153-142.55,45.72
			c0,0,65.406,72.353,153.702,103.186c88.245,30.788,130.252,18.614,159.511,2.109c29.272-16.488,52.258-44.242,63.091-81.955
			c0,0,57.55-24.884,96.959-71.189c39.331-46.214,57.941-87.164,70.748-137.67c12.756-50.563,28.798-111.797,130.252-134.063
			c0,0,60.1,60.1,82.88,75.075c22.934,14.822,51.594,23.241,59.858,25.672c8.219,2.42,46.862,15.003,46.862,15.003
			s60.725,49.528,70.617,59.416c0,0,22.642,40.216,36.989,63.606c14.359,23.397,36.836,46.595,36.836,46.595
			s-29.484,54.778-27.853,114.719c0,0,14.508-6.584,27.508-8.475c0,0-0.891,44.4,27.866,85.345
			c28.709,41.019,57.675,66.692,57.675,66.692s-2.194,53.941,30.497,105.038c0,0-24.909,39.909-27.044,65.427
			c0,0,41.463,3.719,72.845,12.759c31.394,9.039,46.784,15.384,62.75,34.616c15.925,19.109,54.194,65.903,102.606,88.791
			c48.453,22.844,102.106,31.159,140.653,28.116c0,0-23.634,20.28-49.797,28.753c0,0,44.591,32.825,132.372,42.198
			c0,0,0.659,44.456,10.141,67.858c0,0,116.541-79.75,174.978-102.641c58.522-22.903,101.003-30.303,131.338-45.238
			c30.203-14.813,51.691-42.256,56.625-59.161c0,0,32.659-12.552,57.644-30.123c24.966-17.53,39.459-59.853,39.459-59.853
			s47.231-18.842,96.172-48.597c48.872-29.759,108.909-92.531,108.909-92.531s-37.828-16.653-69.944-63.081
			c0,0-14.778-51.533-39.131-76.923"/>
		<path fill="#FFFFFF" d="M2133.497-334.615c0,0,22.016,0.434,41.309-4.95c19.359-5.406,31.591-11.755,31.591-11.755
			s14.238,9.034,21.478,15.297c7.178,6.381,28.791,17.553,48.065,14.433c19.359-3.152,33.022-16.944,36.6-22.823
			c0,0,16.506-0.995,31.8-0.139c15.287,0.95,43.631-4.444,66.069-22.447c22.588-17.986,43.163-44.558,15.756-80.034
			c0,0,5.881-22.503-2.231-38.663c-8.091-16.248-29.019-25.089-29.019-25.089s-12.875-38.37-42.969-48.242
			c-30.131-9.933-67.934,8.609-67.934,8.609s-35.456-8.609-61.141-6.839c-25.609,1.836-53.637,23.481-53.637,23.481
			s-6.153-3.68-11.953-12.17c-5.906-8.584-50.028-70.434-60.31-81.328c0,0,43.185-41.95,85.878-59.416
			c42.756-17.531,64.313-20.319,75.635-23.384c11.169-3.209,35.909-17.131,44.95-44.156c0,0,27.462,6.838,45.397,5.422
			c18.003-1.319,35.538-4.9,67.013-37.269c31.469-32.384,24.313-61.669,19.353-75.116c-4.938-13.419-23.65-25.056-23.65-25.056
			s-1.566-27.103-17.769-41.516c-16.216-14.331-38.169-11.884-38.169-11.884s-8.597-16.378-31.047-23.203
			c-22.547-6.766-46.81,5.006-58.128,13.978c0,0-46.281-4.072-76.363,10.797c-30.069,14.822-44.231,43.938-44.231,43.938
			s-51.05,20.869-104.141,21.297c-53.047,0.438-155.8,29.125-189.472,53.694c0,0-51.094-23.284-92.269-23.894
			c0,0-12.719,38.534-57.237,65.281c0,0-95.431-52.869-129.616-68.6c-34.147-15.747-94.3-21.444-103.094-22.388
			c0,0,3.734-14.438-0.703-37.866c-4.653-23.353-18.953-69.278-31.075-84.556c-12.213-15.281-45.938-34.137-65.675-41.356
			c-19.778-7.203-44.494-13.525-65.284-23.794c-20.606-10.378-45.806-31.416-56.831-41.35c0,0,31.838-8.053,41.441-7.637
			c9.575,0.369,26.688,9.875,39.322,14.75c12.622,5,48.094,11.756,76.431-9.406c28.334-21.131,43.159-48.525,42.191-69.281
			c-0.797-20.659-14.225-35.681-34.016-45.913c0,0-5.919-29.197-30.609-38.166c-24.844-8.969-65.978-0.838-65.978-0.838
			s-19.534-12.672-42.925-13.963c-23.37-1.384-54.822,18.847-59.772,21.541c-5.012,2.744-9.916,5.375-18.486,5.375
			c-8.592,0-101.13-7.659-129.925-7.659c-28.756,0-48.534,14.006-60.702,36.441c-12.144,22.522,4.891,58.5,15.761,72.813
			c10.72,14.481,27.9,34.256,30.042,38.325c2.267,4.047,2.783,10.747-3.086,14.8c-5.847,4.047-24.628,13.309-24.628,13.309
			s-28.437-56.953-39.211-76.241c-10.817-19.331-24.775-40.909-51.708-57.566c-27.03-16.653-84.167-41.881-114.225-60.284
			c-30.18-18.397-48.042-35.388-48.042-35.388s0.317-54.206,1.947-60.869c0,0,27.155-5.356,38.011-14.781
			c10.803-9.494,21.542-24.775,21.084-45.9c-0.377-21.122-3.208-45.994-29.541-55.825c0,0-7.353-27.347-28.002-35.431
			c-20.703-8.116-41.867-0.938-41.867-0.938s-28.269-14.334-57.969-8.069c-29.664,6.284-54.4,36.816-54.855,67.919
			c-0.43,31.069,4.902,143.431,4.902,150.688c0,7.175,0,14.8-5.331,24.675c-5.431,9.903-18.047,34.606-14.825,50.388
			c3.138,15.731,19.286,34.184,34.134,46.806c14.831,12.559,32.891,25.119,41.844,50.331c8.961,25.109,16.606,59.759,17.545,86.338
			c0.909,26.459,4.122,112.813,9.95,136.194c0,0-111.62,24.766-161.97,82.328c-50.336,57.566-58.9,103.453-73.288,165.047
			c-14.394,61.633-32.775,108.75-91.395,139.413c0,0-31.414-15.303-71.8,2.227c-40.511,17.553-62.578,63.42-84.105,79.67
			c-21.591,16.144-80.347,25.436-92.097,25.108c0,0,70,48.575,118.158,62.966c48.103,14.373,100.325,18.87,133.116-7.248
			c32.791-25.98,37.728-71.02,37.728-71.02s67.5-27.875,106.65-75.967c39.136-48.147,50.705-93.052,58.388-123.209
			c7.678-30.122,31.403-90.359,69.461-116.947c38.084-26.591,82.708-37.769,105.975-39.347c0,0,65.652,68.591,88.152,83.456
			c22.409,14.828,47.627,20.719,58.363,23.831c10.842,3.1,48.241,15.503,48.241,15.503s66.167,56.983,78.884,66.823
			c0,0,38.373,66.495,49.156,82.275c10.844,15.702,39.811,52.689,39.811,52.689s-26.541,30.28-26.194,69.48
			c0,0,15.634-3.108,25.517-2.141c0,0-13,22.022-6.678,53.069c6.305,31.023,39.938,81.413,84.955,120.125
			c0,0-1.787,32.778,7.622,63.723c9.483,31.091,28.658,55.905,28.658,55.905s-20.523,25.386-23.77,45.298
			c0,0,38.78,3.633,65.764,12.577c26.956,9.073,48.559,28.18,48.559,28.18s51.647,71.278,114.581,93.775
			c63.066,22.491,127.256,15.545,127.256,15.545s31.847,20.714,44.969,25.278c0,0-24.984,28.127-45.716,36.784
			c0,0,48.547,14.664,93.272,11.227c0,0,0.819,31.116,5.906,49.183c0,0,77.941-56.233,113.5-71.923
			c35.494-15.734,103.353-38.237,126.35-45.461c22.916-7.173,61.822-22.112,70.028-63.639c0,0,37.813-15.913,52.709-24.03
			c14.856-8.123,30.159-27.459,33.272-35.556c3.059-8.041,6.213-18.03,10.072-24.259c3.9-6.295,10.547-10.747,16.878-12.955
			c6.316-2.303,68.788-30.173,97.628-51.761c28.709-21.661,67.913-58.934,67.913-58.934s-39.012-31.116-48.606-45.464
			c0,0-11.681-39.139-30.547-66.956c-18.95-27.877-47.2-38.758-47.2-38.758v-9.381"/>
		<path fill="#0076B6" d="M1698.675,159.758c-2.475-20.353,13.122-38.256,13.122-38.256c-22.741,10.763-84.853,13.173-84.853,13.173
			c28.741-10.758,49.025-34.653,49.025-34.653c-23.897,0-62.159-22.759-62.159-22.759c31.075,0,44.2-16.67,44.2-16.67
			c-28.659-13.13-91.031,5.975-161.203-4.786c-70.1-10.758-115.856-65.738-115.856-65.738c29.822,10.834,48.941,1.222,48.941,1.222
			c-23.819-1.212-85.953-40.588-109.859-53.661c-23.916-13.18-58.519-11.959-58.519-11.959c8.266-17.978,31.025-22.8,31.025-22.8
			c-31.037-21.436-47.839-71.633-47.839-71.633c17.952,20.37,44.245,19.186,50.239,7.173c6.003-11.947-2.303-34.044-26.272-51.33
			c-19.377-13.98-66.819-53.752-91.998-89.587c-25.091-35.809-28.967-64.095-28.967-64.095c29.999,12.322,40.202,1.67,37.939-13.155
			c-3.959-25.08-48.217-44.534-48.217-44.534c10.706-17.917,51.266-19.192,51.266-19.192s-47.836-52.48-66.923-81.12
			c-19.092-28.713-51.331-86.109-57.334-94.4c-5.928-8.331-76.395-64.581-84.792-72.884c-8.366-8.287-80.086-26.297-98.013-34.681
			c-17.848-8.306-78.797-65.6-99.075-91.894c-1.264-1.594-2.392-3.162-3.564-4.734c-28.995,2.034-96.448,10.872-142.15,48.622
			c-59.527,49.303-73.433,107.925-83.688,147.948c-10.22,39.984-26.947,70.373-50.266,100.183
			c-23.289,29.758-94.922,65.394-107.003,72.828c0,0-8.823,50.352-33.462,67.002c-26.491,17.88-61.28,14.255-76.045,10.558
			c-4.458-1.148-10.525-3.189-17.127-5.72c13.845-1.28,26.438-4.323,36.597-7.025c33.759-8.709,35.975-32.405,35.975-32.405
			s-43.412,47.108-131.092,12.93c6.922-1.153,32.469-6.258,45.505-23.322c14.642-19.344,18.959-33.597,60.814-56.741
			c37.431-20.775,65.897,2.156,65.897,2.156s63.802-32.984,84.68-69.73c20.022-35.5,39.956-91.131,49.245-140.488
			c9.336-49.259,28.856-87.416,72.589-125.55c38.841-33.975,121.916-56.822,160.722-64.131c-1.067-3.625-2.244-7.322-3.469-11.222
			c-9.583-31.025-9.583-87.216-13.172-148.15c-3.53-60.859-16.667-95.469-31.047-121.759c-14.314-26.269-58.477-51.416-62.052-66.9
			c-3.589-15.559,16.777-32.303,19.091-56.125c2.377-23.884-3.53-124.241-3.53-138.55c0-14.388-3.623-32.278,4.744-45.434
			c8.369-13.191,21.527-20.294,39.416-17.869c17.869,2.306,25.069,13.059,25.069,13.059s26.275-10.753,38.197-3.497
			c11.956,7.178,10.753,30.947,10.753,30.947s17.944,0,22.658,6.041c4.905,6.003,6.006,27.481-2.352,38.231
			c-8.308,10.747-50.152,14.3-50.152,14.3c-2.294,4.847-9.581,86.006-3.587,103.95c5.964,17.869,53.739,45.387,90.842,66.903
			c37.005,21.456,87.147,39.381,105.019,58.478c14.605,15.556,53.044,92.728,66.941,121.044
			c0.82,1.753,46.859,115.072,157.036,165.247l0.834,0.572c-80.603-71.631-87.5-98.541-87.5-98.541s53.653,50.975,146.9,90.447
			c62.044,26.166,109.566,37.728,140.581,40.716c-76.912-24.481-142.563-61.638-208.694-101.434
			c-67.541-40.716-110.509-93.781-113.084-96.944c59.647-23.725,55.067-49.175,49.894-63.716
			c-5.978-16.775-42.973-53.816-48.962-70.481c-5.967-16.791-3.617-34.662,26.272-37.081c29.869-2.363,112.283,8.384,138.566,7.2
			c26.236-1.191,43.011-27.519,68.069-27.519c25.134,0,36.972,16.803,36.972,16.803c17.984-6.037,50.213-9.569,63.394-3.613
			c13.112,5.928,10.694,31.028,10.694,31.028c21.569,3.644,34.666,14.356,31.081,26.278c-3.566,11.947-11.975,27.409-29.869,38.247
			c-17.947,10.763-34.638,7.188-47.744,1.159c-13.184-5.916-31.084-16.656-50.213-14.272c-19.095,2.275-90.786,17.887-90.786,17.887
			c19.116,52.541,80.058,90.769,107.53,100.253c27.447,9.637,80,26.369,100.353,43.034c20.284,16.716,32.216,76.506,33.366,88.412
			c1.228,11.941-9.547,50.147-9.547,50.147c21.591,3.578,77.65,2.412,120.659,19.159c25.337,9.884,73.116,35.513,108.069,54.872
			c-76.703,44.231-229.828,33.031-229.828,33.031c160.947,33.503,272.269-9.106,272.269-9.106
			c52.556-15.544,78.834-65.709,78.834-65.709c33.425,4.803,76.438,25.122,76.438,25.122
			c92.359,49.775,194.669,152.862,194.669,152.862c37.065,33.423,74.109,101.491,91.897,117.059
			c17.991,15.563,40.659,11.952,40.659,11.952s16.788-22.727,46.637-23.92c29.797-1.112,56.088,8.391,56.088,8.391
			s44.287-17.903,59.75-9.503c15.525,8.306,23.872,40.578,23.872,40.578s25.078,4.739,26.256,16.706
			c1.228,11.903-8.375,31.028-8.375,31.028s16.791,10.781,19.106,17.872c2.484,7.197-5.925,16.781-13.091,22.769
			c-7.175,5.941-33.434,20.33-46.531,17.922c-13.112-2.431-53.778,1.155-53.778,1.155s-5.981,16.742-16.728,20.322
			c-10.697,3.62-22.678-1.205-29.928-8.359c-7.125-7.184-28.553-21.492-39.313-21.492c-10.806,0-19.15,10.783-52.55,16.709
			c-33.509,5.977-53.794-9.563-53.794-9.563s3.1,24.711,1.359,41.941c-0.191,1.5-7.05-0.323-7.322,1.181
			c-0.913,16.319,0,40.523,0,40.523c-3.644-9.544-35.253-52.642-62.725-38.339c-27.462,14.381-19.728,65.748-19.728,65.748
			c43.041,26.33,104.056,22.728,104.056,22.728c11.797-26.252-3.719-52.52-3.719-52.52c51.363,16.722,63.35,80.005,69.366,93.116
			c5.906,13.178,33.356,28.656,33.356,28.656s-27.45,25.083-56.159,43.012c-28.587,17.906-81.166,40.605-90.75,44.181
			c-9.494,3.6-21.478,23.958-23.887,31.031c-2.369,7.225-9.512,28.719-27.425,38.336c-17.934,9.433-69.269,31.005-69.269,31.005
			s7.159,10.753-4.791,29.881c-11.944,19.069-54.991,27.431-125.459,51.317c-70.403,23.927-118.194,66.919-118.194,66.919
			L1698.675,159.758z M1979.982-84.153c10.634,0,32.787-14.405,48.253-15.359c0,0-13.475-18.441-15.456-23.234
			c-1.819-4.817,5.847-14.473,5.847-14.473s-30.825,23.177-40.456,29.922c-9.722,6.762-46.403,14.509-46.403,14.509
			S1969.46-84.153,1979.982-84.153L1979.982-84.153z M1582.616-193.626c12.091,0.013,24.825-1.039,38.106-3.455
			c106.222-19.398,153.444-99.114,153.444-99.114s-79.9,64.334-165.025,73.291c-85.228,8.944-165.197-23.044-165.197-23.044
			S1497.922-193.715,1582.616-193.626L1582.616-193.626z M1594.597-291.617c56.441-0.034,98.512-17.703,98.512-17.703
			c-75.672,11.203-133.234-8.22-176.488-29.377c-37.694-18.405-82.281-58.752-153.125-75.513
			c-74.747-17.664-133.462,9.258-133.462,9.258c102.816,3.627,151.547,32.68,253.444,86.744
			C1521.707-297.914,1560.729-291.592,1594.597-291.617z M1693.86-369.604c45.622-0.223,84.047-11.2,110.106-24.577
			c49.884-25.581,45.409-66.584,44.528-72.105c0-0.183,0-0.53-0.1-0.658c0,0,36.503,7.255,62.041,22.877
			c2.181,34.219,21.669,68.923,53.359,67.12c35.572-2.003,84.8-28.273,84.8-28.273c-68.075-54.975-192.934-100.547-237.05-109.747
			c0,0,30.428,41.616-11.966,87.264c-34.109,36.63-149.3,59.317-258.991,18.102C1595.432-379.929,1648.238-369.387,1693.86-369.604
			L1693.86-369.604z M2074.072-651.687c-19.137-19.813-48.681-48.734-81.381-75.713c-34.041-28.056-77.469-55.313-106.897-72.734
			c71.028-33.894,154.987-38.131,193.865-42.3c45.347-4.763,91.972-26.241,91.972-26.241s6.012-26.244,34.688-39.369
			c28.572-13.2,70.431-5.969,70.431-5.969s21.531-21.481,39.416-15.519c17.903,5.944,19.103,29.878,19.103,29.878
			s22.669-11.956,34.591-3.628c12.034,8.362,8.419,41.784,8.419,41.784c14.341,0,31.037,9.581,27.409,25.097
			c-3.519,15.556-21.481,38.209-40.541,48.959c-19.069,10.753-40.569,1.212-57.325,0c-16.716-1.153-31.072,11.956-34.694,20.313
			c-3.519,8.334-14.341,23.919-28.641,26.272c-14.275,2.328-46.569,10.734-90.719,31.025
			C2127.413-697.653,2095.553-671.184,2074.072-651.687L2074.072-651.687z"/>
	</g>
</g>
</svg>
