<?xml version="1.0" encoding="UTF-8" standalone="no"?>
<svg
   xmlns:dc="http://purl.org/dc/elements/1.1/"
   xmlns:cc="http://creativecommons.org/ns#"
   xmlns:rdf="http://www.w3.org/1999/02/22-rdf-syntax-ns#"
   xmlns:svg="http://www.w3.org/2000/svg"
   xmlns="http://www.w3.org/2000/svg"
   xmlns:sodipodi="http://sodipodi.sourceforge.net/DTD/sodipodi-0.dtd"
   xmlns:inkscape="http://www.inkscape.org/namespaces/inkscape"
   height="341.76437"
   viewBox="0 0 520.5949 341.77493"
   width="520.5885"
   version="1.1"
   id="svg359"
   sodipodi:docname="Green_Bay_Packers_1980.svg"
   inkscape:version="1.0.2-2 (e86c870879, 2021-01-15)">
  <metadata
     id="metadata365">
    <rdf:RDF>
      <cc:Work
         rdf:about="">
        <dc:format>image/svg+xml</dc:format>
        <dc:type
           rdf:resource="http://purl.org/dc/dcmitype/StillImage" />
      </cc:Work>
    </rdf:RDF>
  </metadata>
  <defs
     id="defs363" />
  <sodipodi:namedview
     pagecolor="#ffffff"
     bordercolor="#666666"
     borderopacity="1"
     objecttolerance="10"
     gridtolerance="10"
     guidetolerance="10"
     inkscape:pageopacity="0"
     inkscape:pageshadow="2"
     inkscape:window-width="1366"
     inkscape:window-height="705"
     id="namedview361"
     showgrid="false"
     inkscape:zoom="1"
     inkscape:cx="285.64239"
     inkscape:cy="182.48084"
     inkscape:window-x="-8"
     inkscape:window-y="-8"
     inkscape:window-maximized="1"
     inkscape:current-layer="layer3" />
  <g
     inkscape:groupmode="layer"
     id="layer3"
     inkscape:label="Layer 1"
     transform="translate(174.08621,113.79125)">
    <g
       id="g397">
      <path
         d="m -174.09105,57.98291 c 0,48.45966 27.82986,90.95985 74.109906,121.34514 46.280042,30.38528 111.010261,48.65564 184.810968,48.65564 86.145856,0 167.818816,-30.27898 218.487086,-80.98555 27.88745,-27.90852 43.2234,-59.529954 43.19661,-89.01523 -0.0417,-45.906145 -27.041,-89.024529 -76.03837,-121.419345 -49.1245,-32.478872 -115.04888,-50.358835 -185.645326,-50.354815 -70.174034,0.004 -134.904252,19.671947 -182.090963,50.97669 -47.186711,31.304744 -76.829911,74.246284 -76.829911,120.79747 z"
         fill="#ffb612"
         id="path349"
         style="fill:#ffb70f;fill-opacity:1;stroke:none;stroke-width:3.80553"
         sodipodi:nodetypes="ccccccccc" />
      <path
         d="m -166.07279,57.971493 c 0,-43.613314 29.31212,-84.549917 75.331006,-114.584378 46.018887,-30.034461 108.744541,-49.166775 175.571608,-49.171525 69.898136,-0.005 133.295006,18.358637 179.227566,48.011166 45.93255,29.652529 74.40079,70.593987 74.44167,115.744737 0.0248,27.358738 -14.48373,56.953737 -40.8562,83.348787 -49.1902,49.23232 -128.745,78.63374 -212.813036,78.63374 -70.238728,0 -134.542064,-17.10782 -181.067275,-48.1419 -45.028309,-30.0356 -69.835339,-70.47277 -69.835339,-113.840627 z"
         fill="#203731"
         id="path351"
         style="fill:#1f3730;fill-opacity:1;stroke:none;stroke-width:3.80553"
         sodipodi:nodetypes="ccccccccc" />
      <path
         d="m 80.910125,-37.870863 c -71.3271111,0 -129.163606,39.2350486 -129.163606,87.62621 0,48.387356 40.8257588,90.871813 129.163606,90.826663 53.049135,-0.0271 95.701555,-22.93519 115.627325,-53.030106 L 45.857357,87.813724 45.394224,48.670009 306.95614,48.578676 c 0.35353,3.138081 0.71905,6.196931 0.71905,9.377595 0,75.341949 -99.76586,136.416949 -222.825387,136.416949 -123.051919,0 -222.813973,-61.07119 -222.813973,-136.416949 0,-75.341948 105.683445,-138.731444 222.813973,-139.183575 97.493937,-0.376333 180.367057,39.912434 210.590597,94.133672 l -98.26886,0.06279 C 177.01278,-17.050409 132.87849,-37.870863 80.910125,-37.870863 Z"
         fill="#ffffff"
         id="path353"
         style="fill:#ffffff;stroke:none;stroke-width:3.80553"
         sodipodi:nodetypes="cccccccccccccc" />
    </g>
  </g>
</svg>
