<?xml version="1.0" encoding="utf-8"?>
<!-- Generator: Adobe Illustrator 16.0.0, SVG Export Plug-In . SVG Version: 6.00 Build 0)  -->
<!DOCTYPE svg PUBLIC "-//W3C//DTD SVG 1.0//EN" "http://www.w3.org/TR/2001/REC-SVG-20010904/DTD/svg10.dtd">
<svg version="1.0" id="Layer_1" xmlns="http://www.w3.org/2000/svg" xmlns:xlink="http://www.w3.org/1999/xlink" x="0px" y="0px"
	 width="800px" height="800px" viewBox="0 0 800 800" enable-background="new 0 0 800 800" xml:space="preserve">
<g>
	<path fill-rule="evenodd" clip-rule="evenodd" fill="#1A468B" d="M149.869,42.452l-10.125,77.218l35.398-1.396
		c0,0,10.53,0,2.106,16.851c-8.424,16.849-101.711,136.661-113.205,233.063c-13.713,115.057,8.587,190,77.401,270.293
		c63.182,73.702,132.588,103.787,197.976,113.726c145.851,22.161,226.358-28.382,274.551-64.759
		c88.595-66.857,118.683-138.742,123.498-206.921c3.129-44.323,7.52-102.578-19.858-174.184
		c-27.377-71.607-77.021-148.056-77.021-148.056s-18.956-35.804,8.425-31.588l27.282,2.165c4.215-12.633-2.509-76.886-2.509-76.886
		s-86.939-4.147-98.487-1.101c-21.582,3.05-52.651,25.275-48.44,69.502c4.215,44.228,55.699,113.858,67.396,141.109
		c16.379,38.169,48.575,117.917,33.092,193.622c-15.042,73.547-51.814,115.333-96.944,147.096c0,0-60.406,38.38-125.7,36.275
		c-65.284-2.108-105.303-25.276-128.464-37.91c-23.169-12.643-72.841-63.259-86.352-94.776
		c-13.848-32.302-30.009-67.403-16.85-151.637c4.561-29.206,27.378-84.245,56.86-134.794c0,0,49.57-65.784,58.611-96.347
		c8.856-29.956,3.25-46.34-10.031-62.684c-9.026-11.101-15.876-17.551-48.58-17.881C210.946,42.264,149.869,42.452,149.869,42.452
		L149.869,42.452z"/>
	<path fill-rule="evenodd" clip-rule="evenodd" fill="#FFFFFF" d="M227.797,161.779c4.935,0,8.936-5.333,8.936-11.917
		c0-6.577-4.001-11.913-8.936-11.913c-4.932,0-8.94,5.336-8.94,11.913C218.857,156.446,222.865,161.779,227.797,161.779
		L227.797,161.779z"/>
	<path fill-rule="evenodd" clip-rule="evenodd" fill="#FFFFFF" d="M587.937,168.822c4.939,0,8.938-5.335,8.938-11.919
		c0-6.577-3.998-11.912-8.938-11.912s-8.938,5.335-8.938,11.912C578.999,163.487,582.997,168.822,587.937,168.822L587.937,168.822z"
		/>
	<path fill-rule="evenodd" clip-rule="evenodd" fill="#FFFFFF" d="M684.817,398.387c4.936,0,8.935-5.335,8.935-11.913
		c0-6.583-3.999-11.919-8.935-11.919c-4.938,0-8.935,5.337-8.935,11.919C675.883,393.052,679.879,398.387,684.817,398.387
		L684.817,398.387z"/>
	<path fill-rule="evenodd" clip-rule="evenodd" fill="#FFFFFF" d="M630.061,604.782c4.931,0,8.938-5.34,8.938-11.911
		c0-6.584-4.007-11.917-8.938-11.917c-4.936,0-8.939,5.333-8.939,11.917C621.121,599.442,625.125,604.782,630.061,604.782
		L630.061,604.782z"/>
	<path fill-rule="evenodd" clip-rule="evenodd" fill="#FFFFFF" d="M398.387,707.979c4.936,0,8.934-5.34,8.934-11.908
		c0-6.587-3.998-11.924-8.934-11.924c-4.932,0-8.931,5.337-8.931,11.924C389.457,702.64,393.456,707.979,398.387,707.979
		L398.387,707.979z"/>
	<path fill-rule="evenodd" clip-rule="evenodd" fill="#FFFFFF" d="M168.824,596.358c4.937,0,8.936-5.337,8.936-11.917
		c0-6.578-3.999-11.908-8.936-11.908c-4.932,0-8.932,5.33-8.932,11.908C159.892,591.021,163.892,596.358,168.824,596.358
		L168.824,596.358z"/>
	<path fill-rule="evenodd" clip-rule="evenodd" fill="#FFFFFF" d="M120.387,394.169c4.938,0,8.938-5.334,8.938-11.91
		c0-6.578-4-11.912-8.938-11.912c-4.939,0-8.938,5.333-8.938,11.912C111.449,388.835,115.447,394.169,120.387,394.169
		L120.387,394.169z"/>
</g>
</svg>
