<?xml version="1.0" encoding="utf-8"?>
<!-- Generator: Adobe Illustrator 16.0.0, SVG Export Plug-In . SVG Version: 6.00 Build 0)  -->
<!DOCTYPE svg PUBLIC "-//W3C//DTD SVG 1.0//EN" "http://www.w3.org/TR/2001/REC-SVG-20010904/DTD/svg10.dtd">
<svg version="1.0" id="Layer_1" xmlns="http://www.w3.org/2000/svg" xmlns:xlink="http://www.w3.org/1999/xlink" x="0px" y="0px"
	 width="800px" height="800px" viewBox="0 0 800 800" enable-background="new 0 0 800 800" xml:space="preserve">
<g>
	<g>
		<defs>
			<rect id="SVGID_1_" x="25.94" y="119.986" width="748.119" height="560.027"/>
		</defs>
		<clipPath id="SVGID_2_">
			<use xlink:href="#SVGID_1_"  overflow="visible"/>
		</clipPath>
		<path clip-path="url(#SVGID_2_)" d="M745.955,319.13c0,0-12.118-26.698-46.758-49.418c8.653-11.129,12.013-24.48,8.041-35.092
			c-4.151-10.957-33.328-31.016-44.284-36.676c-11.05-5.66-26.159-13.962-26.159-13.962s-38.888-23.692-69.559-37.036
			c-36.862-16.09-103.329-37.478-175.546-22.188c0,0-43.397-14.231-121.798,9.989c-27.402,7.514-73.98,19.886-100.059,24.305
			c-38.716,6.452-77.947,7.074-108.356,10.342c-15.997,1.681-26.697-1.859-31.913,7.159C6.674,216.24,74.909,283.326,99.654,293.938
			c-7.24,41.189,2.037,90.069,45.343,138.76c47.027,53.031,112.165,63.117,150.353,91.313c42.869,31.73,51.79,71.676,87.594,109.069
			c32.882,34.471,97.31,63.815,155.037,35.711c62.485-30.498,73.886-81.412,76.099-90.953c0.791-4.87-2.039-9.815-8.312-12.902
			c-1.062-0.452-3.179-1.51-5.913-2.925c2.472-9.986,8.836-39.944,2.55-66.105c0,0-17.677,25.896-31.014,40.211
			c-3.81-3.533-20.956-20.866-18.126-41.455c7.869-3.092,16.973-7.423,23.948-12.636c3.981-3.004,7.515-6.006,10.787-8.929
			c35.182-10.164,43.134-24.662,43.134-24.662c1.243,3.532,5.743,8.135,5.743,8.135c5.132-2.923,12.117-8.135,12.117-8.135
			c0.609,4.245,0.533,11.759,0.533,11.759c2.644-0.981,5.211-1.24,5.211-1.24c-2.659,12.991-17.861,35.088-17.861,35.088
			c53.389-15.281,75.842-54.714,75.842-54.714v-0.264c2.038-0.356,3.439-0.888,3.439-0.888s35.807-10.242,52.332-45.331
			C784.925,357.661,755.141,323.632,745.955,319.13z M590.301,588.795c-4.514,8.572-10.07,16.526-16.438,23.604
			c-11.049,12.202-24.492,21.834-39.335,28.807c-15.376,7.251-32.881,12.467-50.034,13.176c3.1-3.266,6.102-6.546,9.108-9.72
			c-16.792,2.911-34.298,3.357-51.09,0c2.038-1.51,4.776-3.8,5.135-6.458c-1.153-0.176-2.394-0.701-3.547-1.061
			c-2.818-1.061-5.648-2.207-8.39-3.628c-10.079-4.946-19.448-11.481-27.931-18.824c-14.938-12.903-27.496-28.369-38.016-44.987
			c-6.35-9.99-11.485-20.765-18.55-30.315c-6.1-8.217-13.086-15.64-20.865-22.273c-12.11-10.342-25.895-18.561-40.479-25.02
			c-23.51-10.252-46.851-21.383-68.856-34.56c-6.194-3.705-12.278-7.594-18.206-11.656c-12.73-8.842-25.012-18.657-35.53-29.972
			c-0.089-0.171-0.355-0.438-0.711-0.792c-0.095-0.096-0.267-0.267-0.532-0.623c-0.172-0.265-0.527-0.619-0.793-0.965
			c-0.093-0.092-0.265-0.265-0.354-0.358c-0.174-0.173-0.346-0.357-0.438-0.527c-4.063-4.591-10.69-12.372-10.163-13.086
			c8.126-8.923,7.768-17.23,7.768-17.23s0,0-0.077,0c-2.131,0.887-6.549,0.268-6.897,0.268c5.478-3.362,10.256-10.349,10.256-10.349
			c-0.093,0.091-0.093,0.091-0.186,0.091c-0.436,0.266-0.884,0.531-1.322,0.704c-0.438,0.183-0.887,0.449-1.415,0.62
			c-0.081,0-0.436,0.173-0.886,0.438c-0.172,0.09-0.348,0.09-0.438,0.183c-0.094,0-0.094,0-0.173,0
			c-0.359,0.173-0.715,0.266-0.979,0.266c-0.091,0-0.091-0.093-0.091-0.093c-0.796-3.177-3.005-7.424-5.56-9.461
			c-2.473-2.023-5.756-8.045-5.756-8.045h-0.078c-0.532,0-1.242,0.094-2.035,0.184c-1.325,0.094-2.74,0.358-4.157,0.53
			c-0.092,0-0.174,0-0.264,0c-0.175,0-0.265,0-0.438,0c0.08,0,0.174-0.092,0.264-0.172c1.23-1.335,5.916-4.602,5.916-5.489
			c0-2.027,2.301-7.33,3.543-10.069c0.349-0.797,0.533-1.679,0.533-2.478c0-0.262,0-0.527,0-0.711c0-0.081-0.095-0.081-0.095-0.171
			c0-0.268,0-0.438-0.09-0.704c-0.083-0.184-0.172-0.45-0.266-0.716c0,0,0-0.09,0-0.171c-0.083-0.173-0.172-0.45-0.356-0.622
			c-0.081-0.173-0.172-0.355-0.265-0.527c-0.966-1.681-2.739-3.005-4.685-3.443c-0.079,0-0.079,0-0.173,0
			c-3.177-0.714-7.066-0.093-10.348,0.61c-0.527,0.094-0.876,0.185-1.059,0.185c0.359,0,0.793,0.082,1.243,0.171
			c1.495,0.176,3.176,0.704,4.328,1.68c0.091,0.095,0.185,0.095,0.185,0.177c0.172,0.09,0.267,0.182,0.267,0.182
			c-5.229,0.794-8.23,3.27-8.23,3.27c-1.058,0.792-1.945,1.591-2.648,2.289l0,0c-0.978-5.65-1.681-11.219-2.037-16.869
			c-0.53-10.522-0.437-21.397,2.835-31.561c0.089-0.184,0.354-0.355,0.793-0.527c1.058-0.095,2.035-0.184,3-0.355
			c6.632-0.798,13.18-2.04,19.546-3.799c11.839-3.271,23.5-8.311,32.693-16.712c0.798-0.704,1.152-1.152,1.243-1.152
			c-0.091,0-0.091,0-0.184,0c-0.079,0.095-0.172,0.186-0.438,0.265c-0.09,0.095-0.263,0.184-0.356,0.184
			c-15.203,6.449-31.639,9.37-48.085,8.656c-30.048-1.231-46.219-9.538-46.746-10.242c0,0,8.391-1.335,13.336-2.922
			c0,0-22.362-7.425-30.752-12.82c0,0,9.104,0.183,11.927,0.272c-3.179-2.563-6.182-5.225-9.016-7.607
			c-15.904-13.88-26.423-31.902-24.477-40.036c-6.193-8.313-14.938-10.43-14.938-10.43c26.781-2.473,51.524,7.779,77.687,24.125
			c10.968,6.903,19.446,14.767,29.266,20.956c-6.549,1.059-20.693,1.945-47.554-2.829c0,0,15.548,9.897,44.895,13.613
			c17.941,2.208,35.354,1.763,47.381,0.875c13.961-0.968,27.127-2.737,40.123-7.955c0,0,0.088,0,0.183,0
			c1.06-0.434,2.023-0.883,3.095-1.32c1.935-0.888,3.971-1.853,5.823-2.833c2.301-1.148,4.605-2.38,6.814-3.626
			c1.414-0.793,2.738-1.586,4.063-2.473c6.1-3.706,18.564-14.053,18.654-14.136l-0.09,0.083c-0.094,0-0.094,0-0.188,0
			c-1.668,0.978-3.439,1.853-5.212,2.739c-6.803,3.454-13.786,6.627-21.026,8.839c-0.805,0.267-1.68,0.527-2.485,0.794
			c-5.295,1.507-10.602,2.659-15.907,3.626c-4.682,0.887-9.366,1.507-14.051,1.597c-4.591,0.177-9.276-0.09-13.879-0.804
			c-2.646-0.438-5.214-0.876-7.78-1.404c-2.739-0.715-5.558-1.414-8.312-2.301c-2.474-0.714-4.854-1.68-7.331-2.473
			c-8.04-3.006-15.731-6.987-23.156-11.317c-1.769-1.059-6.893-4.247-7.247-4.509l0,0c-0.266-0.172-6.538-4.157-7.16-4.513
			c0.888-0.078,3.533-0.172,5.835-1.06c0,0-4.154-0.438-5.396-1.147c0,0,2.74-0.704,3.623-1.764c0.798-0.976,1.773-3.188,2.128-3.36
			c0.267-0.266,2.118-0.448,2.118-0.448s-0.711-0.795-1.507-0.876c0,0,1.418-1.77,3.281-2.208c1.764-0.359,3.443-1.059,3.704-2.211
			c0.173-1.063-3.625-1.063-3.625-1.063s1.855-1.153,4.778-0.88c1.946-0.888,5.649-3.54,2.738-5.572
			c-0.703-0.442-1.773-0.973-2.565-0.973c0.975,0,2.035-0.707,3.004-0.888c0.184,0-3.086-0.085-4.768,0.446
			c-1.598,0.621-3.188,0.354-3.188,0.354s-1.854-1.414-3.36-1.242c-0.794,0.09-1.681,0.441-2.38,0.707
			c-0.622,0.266-1.06,0.443-1.325,0.622c-0.45,0.266-2.396,0.352-2.396,0.352s2.306,0.973,3.282,0.793
			c0.079,0,0.079,0.094,0.079,0.094c0,0.175,0.093,0.794,1.059,1.235c0.81,0.351,2.04,0.798,2.568,1.238
			c0.265,0.441,0.092,0.973-0.264,1.238c0,0,0,0.086-0.093,0.086c-0.172,0.091-0.793,0.177-1.587,0.264
			c-1.06-0.173-3.708-0.701-4.779-0.527c0,0,0.623,0.619,1.243,1.062c0,0-2.911,1.145-3.532,2.297c0,0-2.396-0.266-4.063,0.356
			c-0.978,0.348-1.415,0.796-1.943,1.152c-0.36,0.078-0.714,0.266-1.152,0.437c-0.09,0-0.183,0-0.354,0
			c-1.591,0.173-2.834-0.714-2.834-0.714l0.532,1.241c0,0-4.592,0-5.572,1.591c-3.704-1.945-7.503-3.626-11.313-5.388
			c-3.614-1.507-7.242-3.01-10.863-4.418c-7.425-2.83-14.938-5.395-22.455-7.693c-2.301-0.709-4.51-1.325-6.801-1.946
			c-1.602-0.442-3.271-0.88-4.951-1.236h0.082c3.096,0,6.1-0.085,9.195-0.267c20.683-1.322,41.36-0.793,62.043-1.942
			c3.722-0.173,7.519-0.438,11.313-0.709c0,0,10.258-1.238,22.905-3.004c0,0,15.468-3.446,35.434-7.865
			c1.059,0.707,2.213,1.765,2.568,2.474c0.531,1.058,1.945,2.738,6.536,3.268c0,0-2.646,2.391-6.272,2.124
			c0,0,4.065,1.945,7.332,1.857c3.188-0.178,5.49-1.414,8.046-1.235c2.474,0.173,4.074,0.528,6.099-0.355
			c2.13-0.882,2.739-3.27,2.739-3.27s-4.502-2.562-6.01-4.771c0,0,5.478,2.033,8.577,1.767c0,0-1.508-1.415-1.508-3.274
			c0-1.06,0.804-3.089,0.62-5.034c27.232-6.101,53.92-12.021,58.777-13.173c3.278-0.88,6.627-1.768,10.08-2.56
			c0,1.146,0.357,2.474,1.588,3.619c3.271,3.273,7.951,6.542,11.843,6.809c0.717,0,1.509,0,2.13,0h0.079
			c0.531-0.089,1.059-0.089,1.603-0.181c0.344-0.086,0.608-0.086,0.874-0.171c0.262-0.091,0.448-0.091,0.622-0.179
			c0.262,0,0.449-0.089,0.621-0.089c0.172-0.091,0.355-0.091,0.437-0.177c0.184,0,0.264-0.085,0.264-0.085
			c0.265-0.093,0.447-0.093,0.447-0.093c0.609-0.266,2.119,1.15,2.65,1.501l0,0c1.147,0.801,2.302,1.416,3.626,1.946
			c0,0,0,0,0.089,0c0.704,0.263,2.213,0.535,2.646,1.149c0-0.085,0-0.085-0.09-0.176c0,0,0-0.087-0.082-0.176
			c0,0-0.09-0.091-0.09-0.177c-0.094-0.086-0.094-0.179-0.172-0.265c0,0-0.094-0.094-0.094-0.18
			c-0.094-0.177-0.266-0.442-0.438-0.62c-0.356-0.615-0.805-1.324-1.338-2.03c0-0.089,0-0.089,0-0.089
			c-1.137-1.767-2.289-3.446-3.266-5.304c-0.344-0.615-0.621-1.239-0.886-1.854c-0.08-0.355-0.267-0.621-0.346-0.972l0,0
			c-0.093-0.092-0.093-0.092-0.093-0.092c0-0.265-0.09-0.53-0.172-0.616c0,0,0.082,0.086,0.172,0.086
			c0,0.093,0.093,0.093,0.093,0.18c0.079,0.086,0.172,0.086,0.266,0.178c0.262,0.265,0.622,0.529,0.966,0.796
			c1.863,1.766,3.799,4.066,6.007,4.683c0,0,5.398-3.097,9.114-3.269c3.8-0.178,7.241-0.799,8.563-1.595c0,0-1.761-2.74-3.879-4.77
			c0,0,5.558,2.388,6.804,3.446c0,0,1.771-0.974,0.621-3.182c-1.06-1.857-0.796-3.538-2.039-5.307
			c15.826-0.879,33.237-0.615,52.944,1.682c2.127,0.179,4.336,0.442,6.453,0.794c-1.851,1.064-3.36,2.301-3.36,2.301
			c-0.354,1.767,3.981,7.073,3.981,7.073c-2.39-1.329-7.341-4.335-7.341-4.335c-3.533,2.125-3.628,5.657-2.646,7.426
			c1.059,1.68,6.187,3.889,9.461,4.239c3.36,0.358,7.595-1.5,7.595-1.5c9.197,1.063,11.841-3.357,11.841-3.357
			c-3.096-1.592-7.515-5.218-7.515-5.218c2.833,1.328,11.588,4.067,11.588,4.067c1.062-0.885,1.591-2.301,2.291-3.711
			c0.185-0.529,0.45-0.973,0.717-1.417c0.171-0.351,0.438-0.706,0.792-1.058c18.736,3.712,34.907,8.303,46.485,11.843
			c-0.875,0.179-2.12,0.351-3.531,0.709c-4.158,0.878-4.688,2.737-4.688,2.737c-0.7-0.085-2.117-0.356-2.117-0.356
			c0.358,1.243,3.005,4.6,3.005,4.6c-1.588-0.709-2.476-1.503-2.476-1.503s-0.97,0.794-1.239,1.943
			c-0.267,1.06,0.71,2.391,2.206,3.271c1.509,0.887,1.601,1.771,4.514,2.652c2.922,0.793,3.188-0.529,3.188-0.529
			c-0.532-0.529-1.153-2.123-1.153-2.123s3.626,2.036,4.858,2.301c1.325,0.352,1.585,0.529,3.451,0.173
			c1.76-0.265,3.002-0.438,5.031,0.179c1.942,0.528,3.806,0.444,3.806,0.444c1.418,1.588,4.593,2.123,4.593,2.123
			c-0.703-0.711-2.301-2.482-2.301-2.482c1.598-0.437,2.476-1.502,2.476-1.502c0.622,0.358,2.13,0.535,2.13,0.535
			c-1.683-1.151-1.594-2.388-1.594-2.388c0.611,1.06,3.711,2.211,4.599,2.297c0.881,0.091,3.094-0.173,3.094-0.173
			c1.058,0.529,6.271,5.12,6.271,5.12c0.968,1.066,0.704-4.504,0.704-4.504c0.181,0.887,2.656,3.268,2.656,3.268
			c1.06-0.264,1.681-0.973,2.738-2.031c0.967-1.15,0.622-2.74,0.622-2.74c0.703,1.682,2.212,1.854,2.212,1.854
			c-0.713-1.41-0.529-4.154-0.529-4.154s0.872-0.174,1.585-0.616c0.703-0.53,0.887-1.236,1.416-2.031
			c0.438-0.794,2.207-1.065,3.084-1.772c0.983-0.793-0.699-4.147-1.324-5.121c-0.608-0.973-2.377-1.947-5.119-2.567
			c-2.659-0.792-6.364-0.173-6.364-0.173c0.092,1.675-0.267,3.271-0.267,3.271c-0.71-2.654-4.247-4.685-4.247-4.685
			c0.8,1.767,0.267,3.447,0.267,3.447c-0.7,0.442-1.496,0.442-3.629,0.616c-2.114,0.178-4.761,2.386-4.761,2.386
			c0.267,1.595,0.082,3.005,0.082,3.005c-0.172-0.528-1.153-1.41-1.153-1.41c-0.53,0.53-1.325,3.712-1.325,3.712
			c-0.792-0.621-1.939-1.33-1.939-1.33c-9.636-5.213-18.213-9.368-25.807-12.729c0.703-0.351,1.591-0.529,2.649-0.529
			c2.206,0,4.418-1.944,4.418-1.944c1.322,2.21,2.206,1.772,2.206,1.772c-0.522-1.417,0-4.247,0-6.458c0-2.21-3.436-4.59-3.436-4.59
			c0-1.242-1.509-2.211-1.509-2.211s-0.361,0.969-1.153,0.969c-0.888,0-2.827-0.797-5.306-1.325c-1.589-0.351-5.915,0-5.915,0
			c0.796,3.36,1.325,7.424,1.325,7.424s-4.419-5.215-5.389-5.215c-1.067,0-2.563,0.358-4.947,2.032
			c-1.246,0.887-2.567,1.414-3.623,1.766c-16.539-5.742-24.402-6.271-24.402-6.271s26.875-6.629,66.992,1.236
			c27.854,5.479,48.443,14.581,65.683,23.068c0.874,1.854,2.029,3.27,2.82,4.154c0.185,0.18,0.265,0.353,0.447,0.529
			c0,0,0.08,0.087,0.08,0.18c0.094,0,0.094,0.087,0.184,0.18c-0.09,0-0.264-0.093-0.354-0.093c-1.59-0.443-2.91-1.681-4.248-2.739
			c-0.079-0.087-0.172-0.087-0.172-0.179c-0.092,0-0.092-0.087-0.171-0.087c0-0.092-0.095-0.092-0.184-0.178c0,0,0,0.178,0,0.443
			c0,0.086,0,0.265,0.089,0.529c0,0.092,0,0.178,0,0.264c0,0.094,0.095,0.266,0.174,0.53c0.092,0.356,0.264,0.8,0.625,1.236
			c0.088,0.18,0.184,0.272,0.264,0.444c0.358,0.442,0.792,0.885,1.416,1.415c3.094,2.211,8.399,3.712,10.872,5.04
			c2.912,1.504,6.443,3.533,6.443,3.533c-0.605-2.21-2.472-3.89-3.348-5.569c-0.538-0.972-0.259-1.767-0.259-1.767
			c0.525,1.681,4.06,3.268,4.06,3.268c2.288,0.803,4.415,1.151,6.007,1.237c21.04,10.612,65.591,35.806,66.291,36.15
			c0.98,0.45,1.942,0.977,2.913,1.509c0.355,0.172,0.618,0.354,0.977,0.526c1.153,3.271,0.528,5.213,0.528,5.213
			c-1.229-0.792-3.978-3.794-3.978-3.794c-0.269,1.148,0,2.036,0,2.036s-2.478,1.324-1.949,4.419
			c0.539,3.177,3.545,3.442,3.545,3.442c-0.448-1.059-0.527-2.477-0.527-2.477s1.76,1.497,2.646,2.211
			c0.968,0.7,4.511,1.853,7.423,2.475c2.924,0.62,6.103,3.441,6.103,3.441c-1.154-2.212-0.707-4.063-0.707-4.063
			c1.404,2.034,5.563,6.271,5.563,6.271c1.769,0.887,4.336,1.336,7.075,2.301c1.416,0.533,2.646,1.325,3.533,1.864
			c0.979,1.324,1.851,2.65,2.567,3.879c0.082,0.092,0.082,0.185,0.171,0.268c0.358,0.621,0.713,1.242,0.889,1.862
			c4.775,11.224-3.098,20.763-3.098,20.763c-3.889-3.439-9.104-6.976-14.936-10.51c-4.158-2.655-8.655-5.212-12.902-7.341
			c-0.175-0.081-0.358-0.171-0.529-0.265c-19.269-10.254-39.246-18.471-39.246-18.471c43.218,25.895,77.341,60.983,79.021,71.413
			c1.681,10.437-6.276,15.824-1.058,19.807c5.21,4.061,15.809-9.025,15.809-9.025c7.253,5.926,13.976,14.677,14.675,23.17
			c0,8.124-6.706,10.863-13.961,12.278c-6.536,1.242-14.936,7.08-16.447,8.139c-0.523,0.434-4.231-1.509-5.026-1.773
			c-3.018-1.061-6.02-2.118-9.021-3.096c-4.769-1.496-9.462-2.914-14.226-4.234c-2.213-0.544-4.421-1.152-6.548-1.681
			c-3.884-1.071-8.131-1.603-11.927-2.833c-0.09,0-0.185-0.09-0.185-0.09c-6.891-1.497-13.867-2.915-20.854-3.975
			c-1.413-0.183-2.741-0.354-4.155-0.528c-5.477-0.804-11.048-1.414-16.617-1.945c-2.473-0.262-5.04-0.447-7.598-0.621
			c-0.539,0-9.287-0.448-10.25-0.448c-8.936-0.172-17.864,0.183-26.7,0.183h-0.084h-0.265c0,0,0,0-0.094,0c0,0,0.094,0,0.094,0.094
			c15.02,5.029,29.958,10.863,44.541,17.229c1.147,0.449,2.209,0.886,3.359,1.414c12.2,5.307,24.571,10.958,35.528,18.475
			c2.396,1.586,4.774,3.451,6.812,5.396c0.096,0.082,0.174,0.172,0.263,0.172c4.33,3.272,7.332,8.218,9.202,13.167
			c0.962,2.476,1.584,5.043,1.942,7.608c0.079,0.873,0.434,9.46-0.092,9.46c-0.795,0-1.592-0.093-2.384-0.093
			c-6.285-0.094-12.555,0.622-18.748,1.762c-10.957,2.21-21.119,6.363-31.639,10.253c-7.515,2.83-14.767,6.551-22.361,9.107
			c-10.954,3.622-22.358,5.395-33.86,4.51c-11.921-0.888-23.499-4.25-33.487-10.787c-7.609-4.948-14.146-11.313-19.622-18.377
			c-3.983-5.134-7.427-10.519-10.349-16.263c15.109,5.384,26.967,10.336,35.537,14.132c7.506,3.189,12.64,5.663,15.287,6.985
			c2.304,0.625,5.664,0.889,7.249-1.505c3.271-5.029-2.834-9.011-2.834-9.011s-74.682-36.51-211.598-51.528
			c-16.08-1.771-31.017-3.014-44.726-3.89c13.524,1.415,28.107,3.361,43.839,5.835c24.045,3.709,46.14,8.045,66.209,12.637
			c-2.206,0.266-4.339,0.704-6.549,1.232c-4.061,1.058-8.031,2.738-11.657,5.039c-6.893,4.157-12.371,10.164-16.619,16.885
			c-8.4,13.616-12.463,30.408-12.991,46.313c-0.715,19.808,4.243,39.508,10.69,58.074c7.687,21.922,17.505,43.134,29.784,63.023
			c6.022,9.801,12.733,19.355,20.242,28.103c7.876,9.369,16.979,18.393,27.933,24.041c11.671,6.011,24.574,5.928,37.303,4.064
			c8.837-1.415,17.503-4.952,25.987-7.862c19.883-6.809,40.739-14.144,62.137-11.761c6.982,0.714,14.491,2.21,20.85,5.489
			C590.922,587.734,590.826,587.829,590.301,588.795z M658.006,351.124c-9.012-7.778-33.677-7.778-33.677-7.778
			s6.63-3.799,15.023-3.006c22.096,2.029,54.8,18.646,54.8,18.646c-1.231,10.782-18.111,26.435-18.111,26.435
			c-2.394-6.016-11.408-20.429-11.408-20.429S667.017,358.986,658.006,351.124z M547.875,552.553l-9.72-6.272l-1.246-13.961
			C536.909,532.319,550.617,541.329,547.875,552.553z M475.223,490.414c-0.799-80.96-28.729-92.356-28.729-92.356
			s34.209,5.65,43.4,34.562c9.186,28.99-5.657,73.356,25.183,89.353c0,0-7.77,30.054-43.743,49.412c0,0-27.496-9.277-42.518-43.749
			c-12.104-27.93-0.528-80.171-16.788-109.687c-10.783-19.625-29.878-24.228-29.878-24.228s11.922-6.802,36.676,1.243
			c40.745,13.164,45.164,66.464,45.88,77.429c1.23,21.477,4.947,49.319,19.091,56.833
			C483.797,529.226,475.486,517.648,475.223,490.414z M558.037,552.38c2.834,2.834,5.214,8.574,5.214,8.574
			c9.808-7.249,31.639-42.249,31.639-42.249c1.154,26.955-13.958,55.505-21.293,56.037c-7.249,0.439-12.381-5.039-12.381-5.039
			c-18.469-2.557-39.42,1.333-39.42,1.333s-10.782,11.486-26.157,13.433c-15.297,1.943-15.113-4.951-14.314-6.804
			c0.792-1.958,7.949-5.4,21.024-19.013c13.083-13.603,24.398-41.361,24.398-41.361c3.097,9.011,4.326,18.737,3.36,28.196
			c-0.358,2.827-0.793,5.569-1.417,8.218c-1.147,4.421-2.646,8.573-4.682,12.555c2.564-5.042,8.048-9.104,12.82-11.934
			c1.681,1.943,3.005,4.153,4.422,6.362c0.169,0.436,2.645,3.796,2.38,4.248C546.013,560.517,558.037,552.38,558.037,552.38z
			 M601.968,439.064c-5.74,10.256-24.305,38.808-59.845,48.705c0,0,21.927-22.27,19.448-46.854
			c13.879,0.096,28.558-2.291,41.721-5.479C603.025,436.324,602.589,437.567,601.968,439.064z M700.081,432.792
			c-1.771,7.873-28.991,36.77-43.226,42.157c0,0,12.199-19.528,15.999-39.591c-3.445,2.818-8.751,6.709-14.678,8.575
			c0,0,0.449-9.818-2.209-14.502c0,0-7.502,7.605-15.908,12.819c0,0-5.3-8.398-6.533-14.673
			c-6.099,9.277-16.089,22.099-28.199,28.369c0,0,0.704-8.483-1.413-20.589c11.313-2.739,21.568-6.101,29.35-8.76
			c5.294-3,14.223-5.823,16.34-6.006c0.266,0,7.426-1.497,6.634,3.716c0,0,8.926-6.812,16.082-4.42
			c2.387,0.887,3.722,2.03,4.333,3.443c3.54-2.212,9.907-5.571,15.026-4.421C699.197,420.593,701.844,424.919,700.081,432.792z
			 M758.767,382.593c-1.232,3.969-2.114,8.391-6.895,8.65c-3.533,0.187-6.988-0.172-10.427-0.438
			c-2.039-0.088-6.099-0.71-7.252,1.592c-3.437,6.813,10.164,6.455,13.707,6.536c0.53,0.091,0.97,0.091,1.496,0
			c-14.316,15.916-37.562,20.073-39.062,20.335h-0.092c-0.181-0.262-0.354-0.526-0.621-0.886
			c-3.701-4.775-15.109-14.58-38.267-17.147h-0.18c1.144-1.679,2.39-3.271,3.806-4.856c9.541-11.048,24.65-20.245,41.008-28.196
			c22.889-11.141,31.553-32.882,31.553-32.882s3.181,2.649,6.447,7.689c-0.966,2.912-3.438,7.331-9.537,11.75
			c0,0-4.066,2.392-2.652,5.307c1.5,2.828,4.764,1.864,6.443,0.883c1.062-0.621,4.25-2.563,6.726-6.894
			c1.147-1.758,2.035-3.266,2.476-4.419c1.506,3.454,2.735,7.515,3.265,12.199c0.096,0.532-1.759,2.04-2.117,2.384
			c-1.321,1.243-2.738,2.303-4.246,3.36c-4.156,2.739-8.654,4.509-13.164,6.367c-1.683,0.698-4.251,2.206-4.603,4.152
			c-0.531,3.006,3.626,3.627,5.753,3.267c0.171,0,0.346,0,0.609-0.09c3.097-0.532,12.649-2.821,17.939-9.542
			C760.62,375.074,759.917,378.7,758.767,382.593z"/>
	</g>
	<path fill="#D6A129" d="M713.948,305.33c0,0-10.599,13.086-15.809,9.025c-5.219-3.982,2.738-9.37,1.058-19.807
		c-1.68-10.43-35.803-45.519-79.021-71.413c0,0,19.978,8.217,39.246,18.471c23.59,3.892,29.159-2.208,30.405-4.777
		c-0.717-1.229-1.588-2.555-2.567-3.879c-0.888-0.539-2.117-1.331-3.533-1.864c-2.739-0.965-5.307-1.414-7.075-2.301
		c0,0-4.158-4.237-5.563-6.271c0,0-0.447,1.852,0.707,4.063c0,0-3.179-2.821-6.103-3.441c-2.912-0.622-6.455-1.774-7.423-2.475
		c-0.887-0.714-2.646-2.211-2.646-2.211s0.079,1.418,0.527,2.477c0,0-3.006-0.266-3.545-3.442c-0.528-3.095,1.949-4.419,1.949-4.419
		s-0.269-0.888,0-2.036c0,0,2.749,3.002,3.978,3.794c0,0,0.625-1.941-0.528-5.213c-0.358-0.172-0.621-0.354-0.977-0.526
		c-0.971-0.532-1.933-1.059-2.913-1.509c-0.7-0.345-45.251-25.538-66.291-36.15c-1.592-0.086-3.719-0.435-6.007-1.237
		c0,0-3.534-1.587-4.06-3.268c0,0-0.279,0.795,0.259,1.767c0.876,1.68,2.742,3.359,3.348,5.569c0,0-3.531-2.029-6.443-3.533
		c-2.473-1.328-7.778-2.829-10.872-5.04c-0.624-0.53-1.058-0.973-1.416-1.415c-0.08-0.172-0.176-0.265-0.264-0.444
		c-0.361-0.437-0.533-0.88-0.625-1.323c-0.079-0.178-0.174-0.35-0.174-0.443c0-0.086,0-0.172,0-0.264
		c-0.089-0.265-0.089-0.443-0.089-0.529c0-0.266,0.089-0.443,0.089-0.443c0,0.086,0.095,0.086,0.095,0.178
		c0.079,0,0.079,0.087,0.171,0.087c0,0,0.093,0.092,0.172,0.179c1.242,1.059,2.658,2.296,4.248,2.739
		c0.091,0,0.265,0.093,0.354,0.093c0-0.093-0.09-0.18-0.184-0.18c0-0.093-0.08-0.18-0.08-0.18c-0.183-0.177-0.263-0.35-0.447-0.529
		c-0.791-0.885-1.946-2.301-2.82-4.154c-17.239-8.487-37.829-17.59-65.683-23.068c-40.117-7.865-66.992-1.236-66.992-1.236
		s7.863,0.528,24.402,6.271c1.056-0.352,2.377-0.879,3.623-1.766c2.384-1.674,3.88-2.032,4.947-2.032
		c0.97,0,5.389,5.215,5.389,5.215s-0.529-4.063-1.325-7.424c0,0,4.326-0.351,5.915,0c2.479,0.528,4.418,1.325,5.306,1.325
		c0.792,0,1.153-0.969,1.153-0.969s1.588,0.969,1.588,2.211c0,0,3.356,2.38,3.356,4.59c0,2.211-0.522,5.041,0,6.458
		c0,0-0.884,0.438-2.206-1.772c0,0-2.212,1.944-4.418,1.944c-1.059,0-1.946,0.179-2.739,0.529
		c7.684,3.36,16.261,7.516,25.896,12.729c0,0,1.147,0.709,1.939,1.33c0,0,0.795-3.182,1.325-3.712c0,0,0.981,0.882,1.153,1.41
		c0,0,0.185-1.41-0.082-3.005c0,0,2.646-2.208,4.761-2.386c2.133-0.267,2.929-0.174,3.629-0.616c0,0,0.449-1.681-0.267-3.447
		c0,0,3.626,2.03,4.247,4.685c0,0,0.358-1.596,0.267-3.271c0,0,3.705-0.534,6.364,0.173c2.742,0.62,4.511,1.595,5.119,2.567
		c0.625,0.974,2.308,4.328,1.324,5.121c-0.877,0.707-2.646,0.979-3.084,1.772c-0.529,0.795-0.713,1.501-1.416,2.031
		c-0.713,0.442-1.585,0.616-1.585,0.616s-0.184,2.744,0.529,4.154c0,0-1.509-0.173-2.212-1.854c0,0,0.345,1.59-0.622,2.74
		c-1.058,1.059-1.679,1.768-2.738,2.031c0,0-2.476-2.381-2.656-3.268c0,0,0.264,5.57-0.704,4.504c0,0-5.214-4.591-6.195-5.12
		c0,0-2.289,0.264-3.17,0.173c-0.888-0.086-3.987-1.237-4.599-2.297c0,0-0.089,1.236,1.594,2.388c0,0-1.508-0.177-2.13-0.535
		c0,0-0.878,1.065-2.476,1.502c0,0,1.598,1.771,2.301,2.482c0,0-3.175-0.535-4.593-2.123c0,0-1.863,0.084-3.806-0.444
		c-2.029-0.616-3.271-0.443-5.031-0.179c-1.866,0.356-2.126,0.179-3.451-0.173c-1.232-0.265-4.858-2.301-4.858-2.301
		s0.621,1.594,1.232,2.123c0,0-0.346,1.322-3.268,0.529c-2.913-0.882-3.005-1.766-4.514-2.652c-1.496-0.88-2.473-2.211-2.206-3.271
		c0.27-1.149,1.239-1.943,1.239-1.943s0.888,0.794,2.476,1.503c0,0-2.741-3.356-3.005-4.6c0,0,1.417,0.271,2.117,0.356
		c0,0,0.529-1.859,4.688-2.737c1.411-0.358,2.656-0.53,3.623-0.709c-11.67-3.54-27.841-8.131-46.577-11.843
		c-0.354,0.352-0.532,0.707-0.792,1.058c-0.267,0.444-0.532,0.888-0.717,1.417c-0.7,1.41-1.229,2.826-2.291,3.711
		c0,0-8.755-2.739-11.492-4.067c0,0,4.323,3.626,7.419,5.218c0,0-2.644,4.421-11.841,3.357c0,0-4.234,1.858-7.595,1.5
		c-3.362-0.351-8.402-2.56-9.461-4.239c-0.981-1.769-0.887-5.301,2.646-7.426c0,0,4.951,3.006,7.341,4.335
		c0,0-4.336-5.307-3.981-7.073c0,0,1.51-1.236,3.36-2.301c-2.117-0.352-4.248-0.615-6.453-0.794
		c-19.707-2.297-37.118-2.561-52.944-1.682c1.243,1.769,0.979,3.449,2.039,5.307c1.149,2.208-0.621,3.182-0.621,3.182
		c-1.246-1.059-6.725-3.446-6.725-3.446c2.039,2.029,3.8,4.77,3.8,4.77c-1.322,0.709-4.764,1.417-8.563,1.595
		c-3.716,0.172-9.114,3.269-9.114,3.269c-2.208-0.616-4.144-2.917-6.007-4.683c-0.344-0.267-0.704-0.531-0.966-0.796
		c-0.094-0.092-0.187-0.092-0.187-0.178c-0.079-0.087-0.172-0.087-0.172-0.18c-0.09,0-0.172-0.086-0.172-0.086
		c0.082,0.086,0.172,0.352,0.172,0.616c0,0,0,0,0,0.092c0,0,0,0,0.093,0c0.079,0.351,0.266,0.616,0.346,0.972
		c0.265,0.615,0.542,1.239,0.886,1.854c0.977,1.857,2.129,3.537,3.266,5.304c0,0,0,0,0.095,0.089
		c0.438,0.706,0.887,1.415,1.243,2.03c0.172,0.178,0.344,0.443,0.438,0.62c0,0.086,0.094,0.18,0.094,0.18
		c0.078,0.086,0.078,0.179,0.172,0.265c0,0.086,0.09,0.177,0.09,0.177c0.082,0.089,0.082,0.176,0.082,0.176
		c0.09,0.091,0.09,0.091,0.184,0.176c-0.527-0.614-2.036-0.887-2.74-1.149h-0.089c-1.246-0.53-2.479-1.146-3.626-1.946l0,0
		c-0.531-0.351-2.041-1.767-2.65-1.501c0,0-0.183,0-0.447,0.093l-0.173,0.085c-0.172,0.086-0.355,0.086-0.527,0.177
		c-0.172,0-0.359,0.089-0.621,0.089c-0.174,0.088-0.36,0.088-0.622,0.179c-0.266,0-0.53,0.085-0.874,0.171
		c-0.544,0.092-1.071,0.092-1.603,0.181h-0.079c-0.621,0-1.413,0-2.13,0c-3.892-0.267-8.572-3.535-11.843-6.809
		c-1.23-1.146-1.588-2.474-1.588-3.619c-3.453,0.792-6.802,1.68-10.08,2.56c-4.857,1.152-31.545,7.072-58.777,13.173
		c0.184,1.945-0.62,3.975-0.62,5.034c0,1.859,1.508,3.274,1.508,3.274c-3.1,0.267-8.577-1.767-8.577-1.767
		c1.508,2.21,6.01,4.687,6.01,4.687s-0.609,2.56-2.739,3.354c-2.024,0.884-3.533,0.528-6.099,0.355
		c-2.65-0.179-4.857,1.058-8.128,1.144c-3.185,0.18-7.155-1.766-7.155-1.766c3.532,0.267,6.178-2.124,6.178-2.124
		c-4.591-0.529-6.005-2.21-6.536-3.268c-0.355-0.709-1.51-1.767-2.568-2.474c-19.966,4.419-35.434,7.952-35.434,7.952
		c-12.647,1.679-22.905,2.917-22.905,2.917c-0.609,0.801-1.492,2.037-0.344,2.48c0,0,2.023,0.615,4.686,0.881
		c2.474,0.086,5.212,0,5.212,0s-10.08,4.684-11.313,5.038c-1.241,0.354-2.831,1.856-2.831,1.856s0,0.087-0.09,0.087
		c0,0.09-0.084,0.09-0.174,0.175l-0.093,0.095l-0.172,0.171c0.699-0.266,1.586-0.617,2.38-0.707c1.507-0.172,3.36,1.242,3.36,1.242
		s1.59,0.267,3.188-0.354c1.682-0.531,4.951-0.446,4.857-0.446c-1.059,0.181-2.119,0.888-3.094,0.888
		c0.792,0,1.862,0.53,2.565,0.973c2.911,2.032-0.792,4.685-2.738,5.572c-2.923-0.273-4.778,0.88-4.778,0.88s3.798,0,3.625,1.063
		c-0.261,1.152-1.94,1.852-3.704,2.211c-1.863,0.438-3.281,2.208-3.281,2.208c0.796,0.081,1.507,0.876,1.507,0.876
		s-1.852,0.276-2.118,0.448c-0.354,0.172-1.33,2.385-2.128,3.36c-0.794,1.06-3.623,1.764-3.623,1.764
		c1.242,0.71,5.396,1.147,5.396,1.147c-2.302,0.888-4.947,0.981-5.835,1.06c0.622,0.355,6.895,4.341,7.16,4.513l0,0
		c1.32,0.356,2.646,0.622,3.981,0.966c15.11,3.454,30.58,6.986,46.046,7.873c9.37,0.528,18.83-0.887,27.931-2.474
		c5.654-0.979,11.223-2.117,16.794-3.536c-2.566,2.739-5.307,5.572-8.4,7.518c0.09,0,0.263-0.093,0.445-0.093
		c18.646-4.592,37.301-9.288,56.037-13.708c11.75-2.738,23.605-3.877,35.528-4.064c1.334-0.882,3.005-1.585,5.306-1.68
		c4.329-0.172,8.401,0.888,11.315,1.867c4.774,0.173,9.632,0.527,14.407,0.872c-1.774-3.083-4.514-6.006-7.778-7.33
		c4.325,0,8.664,0.093,12.9,0.267c24.133,0.886,48.348,2.646,72.044,7.251c5.835,1.148,11.753,2.381,17.492,3.799
		c0.092,0,0.45-0.177,0.799-0.705c0.264-0.713,0.089-2.128,1.502-2.484c1.326-0.255,3.722,0.978,4.33,1.243
		c0.625,0.262,3.981,2.474,5.138,2.923c0.608,0.345,0.882,1.324,0.964,2.29c3.186,0.885,6.364,1.773,9.554,2.739c0,0,0,0-0.096,0
		c0-0.083-0.092-0.083-0.171-0.172c-0.092-0.094-0.184-0.094-0.267-0.184c0-0.083-0.092-0.083-0.184-0.176
		c-0.171-0.079-0.354-0.263-0.529-0.356c-0.092,0-0.092-0.078-0.092-0.078c-0.267-0.093-0.438-0.266-0.701-0.45
		c-0.091-0.081-0.174-0.081-0.174-0.175c-0.185-0.09-0.354-0.264-0.621-0.354c-0.092-0.079-0.171-0.079-0.267-0.173
		c-0.184-0.094-0.355-0.266-0.525-0.355c-0.093-0.094-0.185-0.094-0.267-0.173l-0.796-0.53c9.807-7.076,23.595-5.479,23.595-5.479
		s3.188,0.346,5.479,1.142c0,0,3.187-1.496,5.478-1.324c2.39,0.266,6.628,2.474,6.986,3.81c0.358,1.402-0.797,5.557-1.496,7.236
		c-0.799,1.681-5.041,4.246-7.424,5.041c0,0-0.095-0.172-0.279-0.527c-0.078-0.094-0.17-0.173-0.263-0.268
		c-0.44-0.792-1.321-1.769-2.552-2.644c0.077,0.078,0.077,0.253,0.171,0.438c0,0.09,0,0.172,0.09,0.355
		c0,0.082,0.082,0.266,0.082,0.344c0,0.095,0.089,0.266,0.089,0.359c0.096,0.438,0.178,0.887,0.36,1.415
		c0,0.438,0.09,0.887,0.172,1.231c0,0-0.532,0.275-1.229,0.804c14.13,5.916,26.779,14.134,38.979,23.422
		c7.067,5.385,14.316,11.222,22.361,15.204c0.435,0.267,0.966,0.526,1.406,0.699c1.332,0.532,2.748,1.06,4.07,1.51
		c7.955,2.737,16.263,1.762,24.045-1.061c0.263-0.272,0.434-0.354,0.434-0.354c0.532-0.527,0.977-1.061,1.417-1.588
		c0.438-0.542,0.884-1.07,1.246-1.679c0.171-0.36,0.435-0.623,0.525-0.981c2.558-4.764,2.741-10.335,1.946-15.376
		c-0.092-0.263-0.092-0.438-0.092-0.712c-0.175-0.608-0.267-1.23-0.447-1.935c-0.44-1.863-0.967-3.625-1.498-5.223
		c-0.53-1.592-1.147-3.088-1.681-4.237c-0.172-0.448-0.355-0.793-0.44-1.152c-0.09-0.184-0.182-0.355-0.26-0.527
		c-0.185-0.266-0.358-0.622-0.45-0.888c-0.093-0.093-0.093-0.265-0.267-0.354c0-0.174-0.092-0.267-0.092-0.349
		c-0.079-0.185-0.171-0.355-0.26-0.449c0-0.079-0.082-0.173-0.082-0.262c2.027,1.77,3.889,3.532,5.568,5.213
		c4.947,4.603,13.167,13.086,18.206,23.155c7.69,15.204,10.431,25.285,10.431,28.114c0,2.739-6.367,1.945-11.223,1.59
		c-4.776-0.438-29.269,1.945-37.655,6.007c5.566-1.32,11.221-2.207,16.432-2.302c14.941-0.172,35.883,4.152,42.17,9.726l0.261,0.183
		c0,0,4.504,3.271,3.534,7.331c-0.881,3.454-4.244,6.101-9.987,6.459c0,0-0.267,3.705,2.035,7.332
		c2.291,3.531,7.159,7.868,7.159,7.868c6.986,1.06,13.963,2.478,20.854,3.975c0.095,0,0.095,0,0.185,0.09
		c3.796,1.23,8.043,1.762,11.927,2.833c2.127,0.528,4.335,1.137,6.548,1.681c4.764,1.32,9.457,2.738,14.226,4.234
		c3.001,0.978,6.003,2.035,9.021,3.096c0.795,0.265,4.503,2.207,5.026,1.773c1.512-1.059,9.911-6.896,16.447-8.139
		c7.255-1.415,13.961-4.154,13.961-12.278C727.924,320.007,721.201,311.256,713.948,305.33z M209.171,192.906
		c0,0,2.477,1.415,2.648,4.771c0.185,3.454-0.703,4.946,0.185,7.248c0.793,2.305-0.622,3.974-3.892,5.838c0,0-3.267,0.7-6.546,0.438
		c0,0,2.474,1.243,3.545,1.415c0,0-3.545,2.911-8.578,1.68c0,0-6.099,3.716-10.78,3.095c-4.604-0.712-5.663-2.657-5.663-2.657
		s5.477-0.965,9.462-1.495c0,0-7.253-1.683-9.544-3.006c0,0,0.704-3.361,2.212-4.869c1.493-1.493,1.138-1.94,1.138-1.94
		s-5.915-1.326-8.124-2.119c0,0,6.986-1.152,9.195-1.945c0,0-0.888-1.681,1.853-3.798c2.738-2.209,5.121-4.42,6.182-5.66
		c1.069-1.233,6.364-1.327,9.365-0.534c3.018,0.801,3.018,0.801,4.696,0.801c1.588,0,8.563-0.621,8.563-0.621
		S213.765,191.668,209.171,192.906z M307.722,176.287c-0.438,3.628-5.041,6.809-6.271,7.602c-1.243,0.887-3.532,2.477-4.247,4.778
		c-0.622,2.38-3.095,3.884-4.592,3.974c-1.509,0.181-3.533,2.298-3.533,2.298c2.119,0.527,5.119-0.352,5.479-0.531
		c-0.265,0.266-2.832,2.384-3.981,3.271c-1.231,0.978-5.389,1.946-6.803,1.773c-1.587-0.093-3.095,0-7.686-0.093
		c-4.687-0.173-9.992-0.622-11.578-3.533c-1.509-2.739-2.13-2.833-2.213-2.833c-3.278,1.505-10.081,1.415-10.081,1.415
		c6.538-2.739,12.106-8.839,12.106-8.839c-3.438,1.504-7.514,2.126-7.514,2.126c-0.527-0.974-0.611-1.947-0.527-4.068
		c0.183-2.031,2.034-3.097,2.034-3.097s0.173-1.145,1.508-2.911c1.404-1.774,6.007-4.155,8.656-4.334
		c2.563-0.179,5.833-1.502,7.608-2.738c1.758-1.238,8.041-3.805,11.128-3.539c3.188,0.265,4.42,0.799,4.42,0.799
		c1.77-0.091,5.751-0.799,5.751-0.799c-5.223,4.068-8.49,5.569-8.49,5.569c6.017-0.708,11.229-3.096,11.229-3.096
		C306.226,169.837,308.171,172.755,307.722,176.287z M385.684,171.075c-0.265,1.944-1.591,6.893-4.246,8.044
		c-2.647,1.145-3.361,1.324-3.361,1.324v5.836c0,0-3.97-3.54-4.762-4.685c0,0-1.062,0-3.894-0.358
		c-2.739-0.442-6.099,4.332-11.233,3.891c0,0-8.48-1.853-9.895-5.299c-1.418-3.454-0.887-6.365-0.267-7.339
		c0,0,2.924,3.712,4.948,4.863c0,0-1.853-4.512-1.853-7.249c0,0,1.586-1.238,1.853-2.568c0.358-1.231,3.533-3.177,5.479-3.619
		c1.945-0.356,3.891,0.442,3.891,0.442s2.209,5.215,3.89,7.157c0,0-0.701-10.166,0.183-13.787c0,0,2.118,4.685,3.177,6.188
		c0,0,2.383-0.265,5.662-0.8c3.35-0.529,6.275-0.264,8.218,1.68C385.419,166.741,386.04,169.13,385.684,171.075z M460.64,177.082
		c-2.298,1.858-5.04,2.918-5.04,2.918s0.346,2.301,1.681,3.626c0,0-2.567-0.179-4.603-1.417c0,0-1.946,2.124-2.117,3.004
		c-0.267,0.802-3.005,4.333-4.593,5.571c-1.68,1.149-5.043,2.476-5.043,2.476s3.002,4.418,5.477,6.099
		c-0.621-0.173-9.011-3.893-12.555-7.515c0,0-0.266,2.653,0.543,3.981c0,0-4.159,1.853-8.838,0.793
		c-4.421-1.058-8.839-4.239-9.382-4.599c0.543,0.095,4.603,0.802,7.252,0.802c0,0-6.009-2.921-7.07-5.928
		c-1.145-2.911-0.793-6.364,2.475-7.865c3.366-1.504,6.182-1.324,6.182-1.324s7.876,3.709,12.465,4.864c0,0-6.009-3.984-7.499-6.545
		c0,0,4.229,0.178,5.471-0.615c1.154-0.802,2.028-2.747,4.33-3.54c2.304-0.707,4.776-0.973,4.776-0.973s-2.209-1.236-2.738-1.853
		c0,0,4.5,1.236,5.914,1.236c0,0,3.893,0.173,5.664,0.443c1.76,0.173,5.04-0.886,7.778,0
		C463.907,171.604,462.849,175.229,460.64,177.082z M517.553,190.784c0,0-2.821-0.707-3.877-1.059
		c0.169,0.352,1.848,2.653,2.288,3.975c0,0-2.567,1.68-4.503,2.125c-1.94,0.438-2.485,0.966-3.544,2.119
		c-1.059,1.241-3.702,2.656-6.365,2.301c-2.548-0.438-7.686-1.853-8.122-2.04c0.354,0.267,2.566,2.567,3.625,4.247
		c0,0-2.922,1.498-7.781,2.212c0,0-4.326,0-6.193-0.621c-1.851-0.531-3.626-1.419-3.702-2.649c-0.184-1.148,0.875-2.474,0.875-2.474
		s3.89,1.415,6.102,1.853c0,0-5.651-5.307-7.692-6.808c0,0,3.983,0.622,6.367,1.501c0,0-0.27-1.501-1.153-3.087
		c-0.967-1.595,0.795-3.186,1.601-3.626c0.792-0.353,4.501-1.859,5.479-2.474c0,0-2.396-2.032-5.135-3.449
		c0,0,5.215,0.531,7.873,1.324c0,0,2.117,0.093,4.422-0.793c2.203-0.974,3.002-0.974,4.945-0.708
		c1.854,0.264,2.037,0.794,3.271,0.973c1.242,0.086,2.378,0,2.378,0s-0.793-1.152-2.738-1.945c0,0,4.25,0.62,6.192,1.945
		c0,0,3.445,0.621,5.48,2.567C519.679,188.131,517.553,190.784,517.553,190.784z M546.633,214.918c0,0,3.455,3.177,4.419,4.856
		c0,0-1.851,1.508-2.378,2.567c-0.532,0.965-2.129,3.438-3.892,4.06c0,0-1.851,2.384-3.801,2.567
		c-2.035,0.093-3.356-0.355-4.685-0.438c-1.33,0-6.628,0-10.7-3.983c0,0,5.753,0.795,7.253,0.795c0,0-5.127-3.716-6.194-5.303
		c0,0,1.51-0.97,1.414-2.301c-0.175-1.325-0.609-2.467,0.799-3.971c0,0,4.599,1.587,7.429,2.036c0,0-3.093-3.095-6.101-5.572
		c0,0,1.86-0.184,4.065,0.704c0,0,0.964-0.173,3.095-1.947c2.12-1.681,6.274-1.231,8.656,0.359c2.396,1.505,4.604,4.683,4.604,4.683
		s2.831,1.496,4.682,4.512C555.299,218.543,550.435,215.448,546.633,214.918z M568.915,187.6c-0.184,1.86-1.506,3.276-3.806,3.541
		c-2.213,0.266-3.538-0.621-4.33,0.438c-0.793,1.063-2.035,2.122-3.188,2.387c0,0-7.77-4.771-11.046-6.54
		c0,0,2.75,3.622,3.447,5.126c0,0-4.681,0.355-7.869-0.973c-3.177-1.324-5.294-2.474-7.595-3.447
		c-2.212-0.973-4.593-4.148-4.593-4.148s3.705,1.765,5.652,2.297c0,0-3.271-3.806-3.443-4.95c0,0,2.556-0.621,3.706-2.125
		c1.15-1.413,4.418-2.294,6.985-2.387h0.529c2.476,0,8.744,3.273,11.845,5.57c0,0-2.742-3.713-4.685-5.57c0,0,4.773,0,6.006-0.443
		c1.151-0.351,3.981-0.616,5.927,0.271c1.854,0.879,2.91,2.826,3.095,3.088c-0.261-0.086-2.206-0.971-3.716-1.322
		c0,0,0,1.589,3.188,3.89C568.202,184.514,568.995,185.747,568.915,187.6z M596.398,221.018c0,0-3.176-1.326-6.009-1.326
		c0,0-1.242,1.856-4.156,1.235c-3.002-0.625-5.927-2.832-5.927-2.832s2.662,0.094,4.779,0.094c0,0-0.887-1.06-3.451-1.591
		c-2.476-0.527-3.972-0.977-5.826-2.395c0,0-0.446,1.418,0.797,2.395c0,0-3.981,1.059-4.688-2.923
		c-0.618-3.971-2.922-3.704-1.334-6.71c1.601-2.832,4.867-2.832,5.042-2.832c0,0-2.913-1.771-4.775-2.829
		c0,0,6.548,1.681,11.587,4.774c0,0-0.354-2.035-1.597-3.094c0,0,3.451-1.06,7.343,1.68c3.797,2.645,3.969,5.04,6.892,6.986
		c2.912,2.024,1.233,5.028-0.089,5.834C594.985,217.484,595.865,219.868,596.398,221.018z M617.965,202.89
		c0,0-4.323-3.799-5.835-5.119c0,0,2.119,5.042,2.476,6.1c0,0-4.062,0.173-6.362-1.601c-2.212-1.669-5.388-3.706-4.596-3.706
		c0,0,1.059,0.092,1.857,0.173c0,0-2.479-3.091-6.897-3.271c0,0-2.563,0.531-5.664-0.969c-3.004-1.591-4.234-3.091-4.234-3.091
		s-1.679-1.86-2.035-4.248c0,0,3.005,2.035,4.419,2.653c0,0-2.564-3.712-2.564-6.01c0,0,1.861-0.354,4.152,0.531
		c2.394,0.974,3.097,0.266,3.097,0.266s-1.059-1.416-1.496-2.741c0,0,3.004,2.476,4.326,3.09c0,0,3.719-1.146,6.457,0
		c2.817,1.246,6.01,4.333,6.539,4.953c0.437,0.532,2.301,1.943,2.562,2.119c-0.182-0.261-1.681-2.208-2.035-3.798
		c0.174,0.179,2.035,1.41,2.912,1.767c0.888,0.444,2.567,2.296,2.923,3.449c0.266,1.06-1.585,3.01-1.585,3.01
		s2.472,3.082,2.472,4.325C618.852,202.015,617.965,202.89,617.965,202.89z M622.649,209.704c1.68-0.448,2.472-0.448,3.179-0.355
		c0,0,0.092-1.059-0.707-2.04c0,0,4.862,3.006,7.071,5.308l-0.529-2.117c0,0,3.889,0.965,5.658,2.739
		c1.857,1.68,2.738,3.704,3.271,4.591c0.529,0.887,1.947,3.892,1.328,4.778c-0.624,0.965-1.499,0.965-1.499,0.965
		s-5.398-3.271-6.814-3.97c0,0,2.659,4.235,3.093,5.213c0,0-4.679-0.703-5.911-2.302c0,0-5.227-1.324-7.169-2.566
		c-1.857-1.325-3.348-3.269-3.348-4.326c0,0,2.999,1.415,4.495,2.118c0,0-4.063-4.951-5.304-6.089
		C619.463,211.65,620.881,210.143,622.649,209.704z"/>
	<path d="M628.922,306.747c-3.623,7.608-23.245-2.648-44.368-4.502c-21.033-1.945-49.328,6.272-49.328,6.272
		c0.191-0.184,0.45-0.355,0.717-0.527c1.946-1.509,4.155-2.739,6.453-3.798c1.856-0.977,3.711-1.863,5.654-2.657
		c6.627-2.916,13.616-5.217,20.776-6.896c5.566-1.32,11.221-2.207,16.432-2.302c14.941-0.172,35.883,4.152,42.17,9.726
		C629.108,303.57,629.721,305.157,628.922,306.747z"/>
	<path fill="#9E782B" d="M621.235,316.035c0,0-0.267,3.705,2.035,7.332c2.291,3.531,7.159,7.868,7.159,7.868
		c-1.413-0.183-2.741-0.354-4.155-0.528c-5.477-0.804-11.048-1.414-16.617-1.945c-2.473-0.262-5.04-0.447-7.598-0.621
		c-0.539,0-9.287-0.448-10.25-0.448c-8.936-0.172-17.864,0.183-26.7,0.183h-0.349h-0.094c-3.001-4.07-14.142-19.979-29.441-19.357
		c0,0,28.295-8.218,49.328-6.272c21.123,1.854,40.745,12.11,44.368,4.502c0.799-1.59,0.187-3.177-1.494-4.685l0.261,0.183
		c0,0,4.504,3.271,3.534,7.331C630.342,313.03,626.979,315.677,621.235,316.035z"/>
	<path fill="#9E782B" d="M460.906,333.885c-8.495-7.952-16.979-16.091-25.988-23.421c-20.681-5.567-43.585-10.874-68.685-15.56
		c-15.734-3.006-30.222-5.384-43.663-7.252c13.707,1.335,28.552,3.006,44.55,5.307c20.866,3.003,40.214,6.459,58.166,10.081
		c-9.822-6.895-20.168-12.728-30.326-18.921c-3.441-2.207-7.068-4.509-10.069-7.33c-1.59-1.416-3.188-3.188-3.36-5.396
		c-0.093-0.438-0.093-0.876,0-1.323c0,0,0,0,0-0.095c0-0.263,0.09-0.527,0.09-0.793c0.082-0.078,0.082-0.173,0.082-0.268
		c0,0,0.09-0.077,0.09-0.171c0.095-0.184,0.173-0.438,0.173-0.622c0.092-0.171,0.186-0.354,0.186-0.436
		c0.873-2.037,2.474-3.983,4.062-5.305c0.267-0.175,0.438-0.358,0.705-0.619c0.182-0.084,0.354-0.268,0.525-0.359
		c0.188-0.174,0.449-0.438,0.625-0.611c0.263-0.184,0.527-0.355,0.712-0.528l0,0c0.081-0.093,0.172-0.186,0.264-0.265
		c0.08,0,0.08-0.095,0.174-0.095v-0.09c0.172-0.092,0.172-0.171,0.172-0.171l0.621-1.06c13.79-24.836,48.351-31.121,48.351-31.121
		c-3.626-5.03-7.778-7.688-7.778-7.688c4.603-1.68,10.438-0.62,12.727-0.172c0-0.094,0-0.184-0.079-0.266
		c-0.717-3.097-0.358-4.775,0.345-5.396c0,0,5.04,0.185,6.549,0.712c-0.533-0.263-2.834-1.414-4.343-2.563
		c-5.739-1.418-11.657-2.65-17.492-3.799c-23.696-4.605-47.911-6.365-72.044-7.251c-4.236-0.174-8.575-0.267-12.9-0.267
		c3.265,1.419,6.004,4.247,7.778,7.253c-4.775-0.36-9.633-0.622-14.407-0.795c2.208,0.795,3.795,1.493,4.155,1.669
		c0,0-3.972-0.53-6.723-0.609c0,0,1.415,0.699,2.13,1.587c0,0,0.172,1.587-0.094,2.474c-0.172,0.888-0.621,2.211-0.093,3.72
		c0.53,1.493,2.038,4.856,2.212,6.087c0,0-4.593-0.347-7.242-0.437c0,0,7.425,3.622,9.636,4.946c0,0-1.509-0.09-2.478,0
		c0,0-2.563,1.508-3.001,2.474c-0.621,0.98,0,5.479-2.566,7.425c-2.475,1.946-5.745,1.507-6.804,2.659
		c-1.07,1.232,0.61,2.912,0.61,2.912s-5.385-1.23-7.064-1.418c0,0,2.567,2.567,4.247,3.809c0,0-2.13-0.448-4.341-0.183
		c-2.207,0.267-8.918,0.793-12.544-2.024c-3.626-2.833-1.773-5.135-0.887-6.021c0.794-0.883,0.966-2.025-1.324-4.765
		c-2.474-2.827-2.13-2.827-1.598-4.336c0,0,8.4,0,11.406,0.883c0,0-8.219-4.592-11.406-5.303c0,0,0.089-1.059,1.945-2.384
		c1.771-1.414,4.153-2.473,4.948-5.834c0,0,6.099,1.149,9.553,1.679c-3.799-1.417-5.479-3.53-11.672-5.304
		c0,0,4.247-0.173,5.927-0.356c0,0,2.911-0.531,4.331-1.762c0.527-0.528,1.242-1.243,2.114-1.775
		c-11.923,0.188-23.778,1.326-35.528,4.064c-18.736,4.42-37.391,9.116-56.037,13.708c-0.183,0-0.355,0.093-0.445,0.093
		c3.094-1.945,5.834-4.778,8.4-7.518c-5.571,1.419-11.14,2.557-16.794,3.536c-9.101,1.587-18.561,3.002-27.931,2.474
		c-15.466-0.887-30.936-4.419-46.046-7.873c-1.336-0.344-2.661-0.609-3.981-0.966c0.354,0.262,5.479,3.45,7.247,4.509
		c7.425,4.33,15.116,8.312,23.156,11.317c2.478,0.793,4.857,1.759,7.331,2.563c2.754,0.797,5.572,1.496,8.312,2.211
		c2.566,0.528,5.134,0.966,7.78,1.404c4.603,0.714,9.288,0.98,13.879,0.804c4.685-0.09,9.369-0.71,14.051-1.597
		c5.306-0.967,10.612-2.119,15.907-3.626c0.806-0.267,1.681-0.527,2.485-0.794c7.24-2.212,14.224-5.385,21.026-8.839
		c1.772-0.887,3.544-1.762,5.212-2.739c0.095,0,0.095,0,0.188,0l0.09-0.083c-0.09,0.083-12.555,10.43-18.654,14.136
		c-1.325,0.887-2.649,1.68-4.063,2.473c-2.209,1.246-4.514,2.478-6.814,3.626c-1.853,0.98-3.889,1.945-5.823,2.833
		c-1.071,0.438-2.035,0.887-3.095,1.241c-0.095,0.079-0.095,0.079-0.183,0.079c-0.531,0.266-1.06,0.625-1.681,0.887
		c-3.536,2.212-7.242,4.331-11.051,6.101c0,0-0.082,0-0.172,0.093c-1.231,0.61-2.474,1.138-3.8,1.763h-0.091c0,0-0.091,0-0.091,0.09
		c-3.442,1.497-6.975,2.833-10.509,4.063c-2.832,0.978-5.66,1.946-8.494,2.738c-20.322,5.93-32.697,5.741-32.697,5.741
		c1.418,0.621,3.271,1.245,4.95,1.604c6.1,1.401,20.683,2.644,21.383,2.816c0.093,0,0.093,0,0.093,0s-0.354,0.448-1.152,1.152
		c-9.101,8.401-20.854,13.441-32.693,16.712c-6.366,1.759-12.914,3.001-19.546,3.799c-0.965,0.172-1.942,0.261-3,0.355
		c-0.438,0.172-0.704,0.344-0.793,0.527c-3.271,10.073-3.365,21.038-2.835,31.561c0.356,5.65,1.06,11.219,2.037,16.869
		c0,0,0,0,0,0.094c0.798-0.792,1.591-1.591,2.648-2.383c0,0,3.001-2.476,8.23-3.27c0,0-0.095-0.092-0.185-0.182
		c-0.082-0.082-0.176-0.082-0.267-0.177c-1.152-0.976-2.833-1.504-4.328-1.68c-0.45-0.089-0.884-0.171-1.243-0.171
		c0.183,0,0.531-0.091,1.059-0.185c3.281-0.703,7.171-1.23,10.348-0.61c0.094,0,0.094,0,0.173,0.083
		c1.945,0.355,3.626,1.68,4.685,3.36c0.093,0.172,0.184,0.354,0.265,0.527c0.185,0.172,0.273,0.449,0.356,0.622
		c0,0.081,0,0.171,0.094,0.171c0,0.266,0.089,0.532,0.172,0.716c0,0.266,0.09,0.437,0.185,0.704c0,0,0,0.09,0,0.171
		c0,0.184,0,0.449,0,0.711c0,0.799-0.185,1.681-0.533,2.478c-1.242,2.739-3.543,8.042-3.543,10.069c0,0.888-4.686,4.154-5.916,5.489
		c-0.09,0.08-0.184,0.172-0.264,0.172c0.174,0,0.264,0,0.438,0c0.09,0,0.172,0,0.264,0c1.417-0.172,2.832-0.437,4.157-0.53
		c0.793-0.09,1.503-0.184,2.035-0.184h0.078c0,0,3.283,6.021,5.756,8.045c2.555,2.037,4.764,6.284,5.56,9.554c0,0,0,0,0.091,0
		c0.265,0,0.62-0.093,0.979-0.266c0.079,0,0.079,0,0.173,0c0.09-0.093,0.266-0.093,0.438-0.183c0.45-0.266,0.805-0.438,0.886-0.438
		c0.528-0.266,0.978-0.438,1.415-0.62c0.438-0.173,0.887-0.438,1.415-0.704c0,0,0,0,0.093-0.091c0,0-4.778,6.986-10.256,10.255
		c0.349,0.094,4.767,0.793,6.897-0.174h0.077c0,0,0.358,8.308-7.768,17.23c-0.527,0.62,6.1,8.495,10.163,13.086
		c0.093,0.17,0.265,0.354,0.438,0.527c0.09,0.094,0.262,0.267,0.354,0.438c0.266,0.267,0.621,0.621,0.793,0.886
		c0.266,0.356,0.438,0.527,0.532,0.623c0.266-0.267,2.567-2.119,3.716-3.097c1.945-1.59,3.97-3.003,6.1-4.419
		c1.946-1.324,6.537-3.798,6.537-3.798c0.173-2.119,0.887-3.271,1.509-3.982c0.702-0.968,1.853-1.23,2.821-1.762
		c0.445-0.267,0.882-0.448,1.32-0.887c0.184-0.172,0.359-0.354,0.449-0.526c0.094-0.172,0.172-0.267,0.266-0.45
		c0.09-0.173,0.172-0.345,0.267-0.531c0.089-0.172,0.171-0.345,0.261-0.529c0.175-0.529,0.359-1.151,0.531-1.851
		c0.172-0.887,0.715-1.68,1.415-2.479c-1.508-0.526-2.911-0.965-4.419-1.413c-2.381-0.701-4.774-1.414-7.158-1.947
		c-1.509-0.354-3.189-0.698-4.776-1.059c12.465-8.212,26.251-14.407,40.396-19.182c4.774-1.59,14.846-4.419,14.846-4.419
		c-1.415-1.324-2.83-2.822-3.534-4.329c-1.77-3.439,1.232-8.746,2.474-10.785c1.246-1.941-0.966-3.268-0.966-3.268
		c2.026-1.507,3.533-3.981,3.533-3.981c-0.09,0-0.09,0-0.185,0c-4.419,1.061-8.654,1.243-8.654,1.243
		c-2.475-1.946-3.449-6.273-3.002-8.482c0.527-2.302,1.493-5.756,1.493-5.756h-0.09c-0.792,0.094-1.668,0-2.556-0.173
		c-1.414-0.172-2.738-0.528-3.095-0.622c9.539-1.229,14.318-4.763,14.318-4.763c-0.094,0-0.094,0.083-0.176,0.083
		c-2.475,0.445-6.894,0.71-6.894,0.71c0.082-0.265,0.347-2.829,2.29-4.074c0.715-0.527,2.129-0.527,3.892-0.263
		c1.06,0.183,2.129,0.355,3.189,0.621c0.526,0.09,1.058,0.267,1.586,0.356c1.944,0.53,3.718,1.153,5.041,1.591h0.081
		c3.717,1.242,5.491,6.271,5.491,6.271c1.058,3.189,2.645,5.568,4.496,7.341c0.095,0,0.095,0,0.095,0
		c0.887,0.795,1.773,1.415,2.738,2.025c0.438,0.277,0.794,0.45,1.243,0.621c0.344,0.188,0.793,0.359,1.23,0.532
		c1.153,0.528,2.384,0.888,3.534,1.242c0.795,0.174,1.6,0.344,2.3,0.527c0.36,0.094,0.704,0.176,1.06,0.266
		c0.714,0.095,1.324,0.356,1.856,0.703c1.679,0.977,2.923,2.658,3.716,4.42c6.627-0.704,13.352-1.324,19.979-1.679
		c-0.887-0.971-1.773-1.937-2.739-2.823c-6.627-6.1-15.915-9.986-24.305-12.727c16.606-2.21,33.488-2.833,50.2-3.454
		c9.632-0.354,19.174-0.61,28.727-0.703c-1.945-1.681-4.778-2.656-7.157-3.623c5.649-0.62,11.485-0.093,17.146,0.356
		c-4.775-2.396-10.253-3.81-15.388-5.307c-3.625-1.06-7.237-2.129-10.863-3.005c0.079,0,0.266,0,0.438,0
		c-0.093,0-0.173,0-0.173-0.09c2.381,0.266,4.948,0.438,7.422,0.715c0.438,0,0.796,0.079,1.23,0.079
		c14.328,1.508,28.646,3.188,42.872,5.133c18.034,2.475,35.881,5.558,53.745,9.105c16.171,3.174,32.352,7.154,48.349,11.129
		c6.802,1.77,13.524,3.533,20.234,5.396C485.914,340.252,473.977,337.062,460.906,333.885z M364.553,222.869
		c1.681-0.965,3.625-0.965,4.34-2.302c0.7-1.23,0.793-2.828,0.793-2.828s5.569,1.07,8.046,1.68c0,0-2.211-3.27-3.625-3.798
		c0,0,0.437-1.325,2.288-2.118c1.775-0.887,4.963-1.681,6.906-3.188c1.852-1.496,3.97-1.059,5.388-0.793
		c1.415,0.263,4.153,2.034,7.331,3.001c0,0-1.669-1.415-2.211-2.646c0,0,3.544,0.266,5.304,1.06
		c1.774,0.714,2.662,2.566,1.774,3.887c-0.799,1.326-1.851,1.51-1.942,2.384c-0.096,0.888,2.38,2.567,3.436,3.454
		c0,0-1.493-0.531-3.344-0.887c0,0,1.939,2.13,1.588,4.419c-0.358,2.208-1.154,2.657-1.775,4.153
		c-0.623,1.509-2.475,2.739-4.498,3.626c0,0,2.557,1.153,5.215,2.647c-0.621,0-5.574-0.702-6.988-0.873c0,0-2.83,1.67-4.155,3.622
		c-1.241,1.855-3.454,3.537-6.72,3.709c0,0-4.063-1.243-5.651-1.591c0,0,2.119,1.856,2.911,2.738c0,0-2.29,0.971-4.591,0.438
		c-2.212-0.438-7.346-2.555-8.932-3.082c0,0,3.799,0.253,4.869,0.438c0,0-7.437-6.01-8.574-7.343c0,0,3.268,0.527,4.682,0.883
		c-0.526-0.261-4.774-2.817-4.869-6.178C361.468,225.343,362.872,223.756,364.553,222.869z M329.381,266.003
		c0.438-0.976,0.888-1.586,2.212-1.586c1.323,0,3.97,0.346,4.946-0.354c0.888-0.715,1.06-2.478,2.648-3.455
		c1.589-1.059,4.51-0.266,7.159,0.449c2.567,0.705,5.741,1.947,5.741,1.947c-3.002,0.172-6.089,0.172-6.089,0.172
		c3.708,0.887,7.334,2.739,10.785,4.774c3.443,2.21,2.118,4.235,4.95,5.388c2.913,1.056,1.852,2.035,1.852,2.035
		c-3.452-0.619-9.369-1.152-9.369-1.152c4.419,1.68,7.78,3.006,7.78,3.006s-0.622,0.528-1.414,0.621
		c-0.794,0.093-2.209-0.793-3.451-0.621c-1.154,0.172-2.118,2.213-3.363,3.268c-1.322,1.151-3.001,0.796-3.001,0.796
		s-0.438,1.68-1.682,2.657c-1.323,0.965-3.441,0.438-6.181,0.082c-2.658-0.438-3.627-6.089-3.627-6.089
		c-2.739-2.567-7.076-4.868-7.076-4.868c1.774,0.09,4.075,0.528,4.075,0.528c-0.888-1.497-6.193-3.97-6.193-3.97
		c-0.887-0.449-3.626-1.945-3.626-1.945c2.739,0.175,11.05,2.116,11.05,2.116C334.77,268.121,329.381,266.003,329.381,266.003z
		 M197.237,348.031c-2.209,1.758-7.952,6.536-10.956,10.068c-3.096,3.545-6.273,7.249-13.087,5.479
		c-6.722-1.763-7.778-11.488-7.778-11.488c1.773-2.474,9.817-6.271,9.817-6.271c-4.246,0-9.726,0.969-9.726,0.969
		c0.172-2.027,0.438-7.955,0.438-12.729c0-4.765-2.479-9.277-2.479-9.277c1.682-1.771,6.021-4.063,6.021-4.063
		c-8.311,1.324-12.555,0.267-12.555,0.267c2.208,0,5.478-1.771,5.478-1.771c-0.436-2.478,0.528-6.01,1.771-7.253
		c1.232-1.231,5.04-6.006,6.804-7.24c1.68-1.243,6.271-0.527,10.785,0.266c4.509,0.703,5.212,3.442,5.212,3.442
		c2.301,0.527,4.509,0.266,4.509,0.266c-2.739,2.035-9.721,4.243-9.721,4.243c3.187,0.532,6.005,0.532,6.005,0.532
		s1.945,7.248,3.005,11.046c0.448,1.59,1.242,3.006,2.301,4.247c-1.945,1.142-5.306,3.006-8.124,3.971c0,0,4.854-0.09,10.069-1.852
		c0.978,0.969,2.036,1.945,3.267,3.177C201.828,337.511,199.538,346.35,197.237,348.031z M225.7,293.318
		c-1.592,1.059-1.774,2.113-3.006,3.798c-1.242,1.586-8.93,1.94-8.93,1.94c-4.685-1.585-10.692-1.585-10.692-1.585
		c3.002,0.886,7.068,2.118,7.068,2.118s-4.236,0.71-7.863,0.355c-3.532-0.355-5.479-4.327-7.424-6.986
		c-2.036-2.646,0.349-6.801,0.349-6.801c-1.142-0.715-2.385-1.059-2.385-1.059c3.981-0.358,11.312,0.172,11.312,0.172
		c-3.438-1.059-7.247-1.773-7.247-1.773s0.45-1.934,1.332-3.97c0.876-1.947,5.217-1.415,6.976-1.243
		c1.773,0.183,4.075-1.946,5.399-2.385c1.32-0.436,5.306,0.972,7.42,1.681c2.212,0.704,2.384,2.303,2.384,2.303
		c-2.024-0.184-4.856,0.348-4.856,0.348l6.986,2.036c0,0,4.686,2.301,5.384,4.591C228.621,289.16,227.379,292.258,225.7,293.318z
		 M265.911,263.265c-2.383,2.738-7.951,1.856-7.951,1.856s-5.651,4.152-11.844,3.268c-6.183-0.966-11.051-3.268-11.051-3.268
		s-5.568-1.325-8.745-2.915c0,0,7.688,0.703,13.613,0.348c0,0-6.361-1.946-8.229-4.236c0,0,2.13-1.415,1.775-3.36
		c-0.438-2.035-1.061-4.868-0.094-6.458c0,0,5.571,2.738,8.4,3.454c0,0-3.622-3.005-4.947-5.744c0,0,2.475,0,4.686-1.771
		c2.118-1.854,4.498-5.04,8.572-5.04c0,0,1.946-1.946,3.8-2.302c1.945-0.438,3.531-0.438,3.531-0.438s2.212,0.966,6.011,1.77
		c0,0-5.124-3.45-6.366-4.946c0,0,2.392,0.792,4.248,0.703c0,0,2.118-0.626,5.478,0.261c3.451,0.971,5.74,3.533,5.74,5.745
		c0,2.207-3.083,5.135-2.024,6.986c1.061,1.771,8.124,3.532,9.104,3.798c-0.715-0.094-5.307-0.438-8.044-0.094
		c0,0-1.682,1.68-3.627,1.864c-1.945,0.094-2.302,1.496-1.945,2.556C266.45,256.455,268.396,260.436,265.911,263.265z
		 M311.614,313.733c-1.773,2.646-8.84,3.534-12.56,3.096c0,0-7.065,3.178-11.129,2.645c-3.981-0.527-11.312-3.267-11.312-3.267
		s2.289-1.152,4.419-1.496c0,0-1.325-2.751-4.603-5.834c-3.271-3.098-7.503-6.896-8.218-9.459c0,0,4.325-1.854,7.424-2.568
		c0,0-5.216,0.184-8.128-1.153c0,0-0.184-5.384,0.888-7.596c1.141-2.208,1.853-4.071,1.853-5.131c0-1.152-0.263-1.058,1.417-1.589
		c1.588-0.528,9.539-1.853,9.539-1.853s-0.699-1.853-5.65-2.567c0,0,4.326-1.68,9.276-0.966c4.947,0.794,8.219,6.628,9.805,9.714
		c1.68,3.095,4.778,6.549,6.814,8.046c2.023,1.414,9.542-0.348,9.542-0.348s-4.767,4.685-7.78,4.502c0,0,1.508,5.478,4.072,7.686
		C309.841,307.808,313.383,311.085,311.614,313.733z"/>
	<path fill="#FFFFFF" d="M549.371,272.725c-3.438-0.71-6.709-1.504-9.804-2.391c-17.859-4.779-33.856-13.79-51.273-19.707
		c-17.848-6.016-36.938-9.283-56.209-7.431c-5.661,0.528-12.104,1.863-17.582,3.45c-5.309,1.591-10.703,3.27-15.467,6.01
		c-3.366,1.771-8.839,6.455-9.383,6.893c0,0,0,0,0,0.094c-0.081,0-0.081,0-0.081,0s-0.091,0.079-0.355,0.261
		c0.172-0.182,0.265-0.261,0.265-0.261l0.528-1.152c13.79-24.743,48.351-31.028,48.351-31.028c-3.626-5.03-7.778-7.688-7.778-7.688
		c4.603-1.68,10.438-0.704,12.727-0.172c0.618,2.911,0.266,5.833,0.266,5.833l-1.496,0.532c1.322,1.586,3.89,2.817,4.944,3.704
		c0.971,0.793,1.766,2.923,1.946,3.188c-0.354-0.266-2.738-1.862-3.626-1.945c-0.792-0.173-1.769-1.415-1.942-1.682
		c0.092,0.438,1.15,3.361,2.646,4.776c1.68,1.497,7.252,4.235,10.253,5.572c3.005,1.402,4.686,3.349,4.686,3.349
		c1.863-0.438-1.499-3.892-1.76-4.235c1.589,0.529,4.498,2.383,4.498,2.383c-0.264-1.152,0.887-3.709,0.267-5.389
		c-0.612-1.68-4.33-5.13-5.56-6.189c-1.246-0.969-1.863-3.72-1.681-4.952c0.704-3.621,1.763-5.129,1.763-5.129
		c0.526-0.609,1.68-1.763,2.206-2.29c1.854,0.262,5.743,0.794,7.689,1.23c0,0-0.082-0.081-0.171-0.081l0,0
		c-0.096-0.09-0.096-0.09-0.171-0.184c0,0,0,0-0.096,0c0-0.083-0.092-0.083-0.171-0.172c-0.092-0.094-0.184-0.094-0.267-0.184
		c-0.092-0.083-0.092-0.083-0.184-0.176c-0.171-0.079-0.354-0.263-0.529-0.356c-0.092,0-0.092-0.078-0.092-0.078
		c-0.267-0.093-0.438-0.266-0.701-0.45c-0.091-0.081-0.174-0.081-0.174-0.175c-0.185-0.09-0.45-0.264-0.621-0.354
		c-0.092-0.079-0.171-0.079-0.267-0.173c-0.184-0.094-0.355-0.266-0.525-0.355c-0.093-0.094-0.185-0.094-0.267-0.173l-0.796-0.53
		c9.807-7.076,23.595-5.479,23.595-5.479c3.8,2.556,4.951,6.01,4.951,6.01c-2.029-1.508-4.688-3.004-4.688-3.004
		c-1.321,0.966-1.854,2.739-2.91,4.324c-1.15,1.682-2.738,3.361-8.136,5.929c-5.214,2.556-4.688,5.478-4.688,5.478l-4.152,0.267
		c3.005,0.699,8.047,5.041,8.047,5.041c-1.591-0.622-4.688-0.888-4.688-0.888c-0.621,2.646,2.038,4.685,3.36,5.834
		c1.327,1.153,2.741,4.502,2.741,4.502c-1.324-0.083-2.646,0.093-2.646,0.093s3.801,1.415,5.03,2.381
		c1.242,1.059,6.361,1.414,6.361,1.414c0.713-1.681-0.967-3.888-0.967-3.888c-2.922-1.497-3.715-4.951-3.715-4.951
		c1.588,1.245,3.451,2.04,3.451,2.04s-0.183-2.923,1.852-6.815c0.703-1.231,1.68-2.289,2.65-3.349v0.344
		c0,3.811,2.83,11.845,8.665,16.619c7.606,6.193,21.832,12.465,21.832,12.465c-0.704-2.381-0.354-5.568-0.354-5.568
		c2.035,3.451,6.548,8.666,13.521,12.461c0.446,0.266,0.887,0.532,1.334,0.715c2.213,1.06,4.947,2.291,7.769,3.349
		C544.332,271.31,547.612,272.279,549.371,272.725z"/>
	<path fill="#D6A129" d="M614.605,372.507c-3.269,1.509-6.539,2.833-9.899,3.987c-1.681,0.618-3.359,1.146-5.04,1.585
		c-5.914,1.586-11.937,2.207-18.113,2.567c-0.188,0.077-0.45,0-0.713,0c0.092-0.185,0.092-0.36,0.184-0.449
		c0-0.346,0.079-0.61,0.079-0.792c0.45-3.71-3.535-6.449-3.535-6.449l-0.088-0.09c-0.171-0.095-0.267-0.095-0.438-0.172
		c0,0,0-0.094-0.096-0.094c-2.554-1.152-5.119-2.302-7.686-3.533c-4.5-1.945-9.011-3.891-13.521-5.743
		c-0.889-0.355-1.763-0.716-2.647-1.07c-0.625-0.267-1.324-0.528-1.945-0.793c-10.433-4.154-21.04-7.862-31.731-11.313
		c-6.46-2.117-12.913-4.065-19.451-5.916c-0.961-0.268-2.035-0.543-3.094-0.887c-10.957-3.094-22.895-6.284-35.965-9.461
		c-8.577-7.952-16.979-16.091-25.988-23.421c60.096,15.996,101.29,33.674,122.146,43.745c7.512,3.452,12.554,6.099,15.119,7.517
		c2.291,0.712,5.575,1.06,7.236-1.324c3.549-4.857-2.474-9.104-2.474-9.104s-52.671-27.841-151.66-48.257
		c-9.822-6.895-20.168-12.728-30.326-18.921c-3.441-2.207-7.068-4.509-10.069-7.33c-1.59-1.416-3.188-3.188-3.36-5.396
		c-0.093-0.438-0.093-0.876,0-1.323c0,0,0,0,0-0.095c0-0.263,0.09-0.527,0.09-0.793c0.082-0.078,0.082-0.173,0.082-0.268
		c0,0,0.09-0.077,0.09-0.171c0.095-0.184,0.095-0.438,0.173-0.622c0.092-0.171,0.186-0.354,0.186-0.436
		c0.873-2.037,2.474-3.983,4.062-5.305c0.267-0.175,0.438-0.358,0.705-0.619c0.182-0.084,0.354-0.268,0.525-0.359
		c0.277-0.174,0.449-0.438,0.625-0.528c0.263-0.267,0.527-0.438,0.712-0.611l0,0c0.081-0.093,0.172-0.186,0.264-0.265
		c0.08,0,0.08-0.095,0.174-0.095v-0.09c0.265-0.092,0.355-0.171,0.355-0.171s0,0,0.081,0c0-0.094,0-0.094,0-0.094
		c0.183,0,0.356,0,0.621-0.082c0.267-0.091,0.887-0.273,0.887-0.273c4.248-1.06,8.746-2.118,13.349-2.821
		c1.496-0.266,3.005-0.449,4.504-0.622c1.68,5.307,8.929,13.164,8.929,13.164c-3.439,0.268-7.861-0.964-7.861-0.964
		c6.365,8.573,24.121,19.438,37.83,22.097c13.787,2.738,26.332,2.211,26.332,2.211c-1.945,0.966-5.118,2.208-5.118,2.208
		s5.385-0.266,12.726,1.23c0.963,0.185,2.025,0.449,3.097,0.716c4.947,1.324,10.954,3.267,14.487,4.592
		c0.438,0.094,0.885,0.265,1.246,0.354l0,0c1.138,0.798,2.206,1.498,3.18,2.212c6.189,4.063,12.021,8.656,17.581,13.431
		c1.681,1.415,3.28,2.832,4.869,4.247c2.472,2.301,4.763,4.856,7.248,7.157c-0.181-0.182-0.275-1.151-0.354-1.413
		c-0.09-0.532-0.354-1.06-0.53-1.589c-0.446-1.15-0.884-2.303-1.324-3.362c-0.976-2.208-2.035-4.419-3.185-6.536
		c-2.305-4.249-4.951-8.308-7.779-12.199c-1.683-2.208-3.362-4.338-5.125-6.456c-1.242-1.497-2.656-2.911-3.983-4.418
		c-1.056-1.154-2.378-3.362-3.97-3.893h-0.088c24.475,0.793,28.006,19.979,28.006,19.979c15.3-0.527,26.44,15.287,29.441,19.357
		h0.094c0,0,0,0-0.094,0h0.094c2.476,1.326,4.857,2.739,7.242,4.158c0.446,0.172,0.888,0.438,1.328,0.699
		c0.614,0.359,1.238,0.714,1.765,1.06c2.117,1.241,4.248,2.473,6.27,3.809c5.573,3.533,11.503,7.241,16.181,11.927
		c-0.882,0-1.769,0.089-2.561,0.354c-0.889,0.184-1.763,0.438-2.479,0.622c5.838,4.153,11.224,9.104,16,14.41
		C609.128,365.614,614.434,372.507,614.605,372.507z"/>
	<path fill="#00839B" d="M547.875,552.553l-9.72-6.272l-1.246-13.961C536.909,532.319,550.617,541.329,547.875,552.553z"/>
	<path fill="#00839B" d="M515.077,521.972c0,0-7.77,30.054-43.743,49.412c0,0-27.496-9.277-42.435-43.749
		c-12.187-27.93-0.611-80.171-16.871-109.687c-10.783-19.625-29.878-24.228-29.878-24.228s11.922-6.802,36.676,1.243
		c40.745,13.164,45.164,66.464,45.88,77.429c1.23,21.477,4.947,49.319,19.091,56.833c0,0-8.311-11.577-8.574-38.812
		c-0.799-80.96-28.821-92.356-28.821-92.356s34.302,5.65,43.493,34.562C499.08,461.609,484.237,505.976,515.077,521.972z"/>
	<path fill="#00839B" d="M694.152,358.986c-1.231,10.782-18.111,26.435-18.111,26.435c-2.394-6.016-11.408-20.429-11.408-20.429
		s2.384-6.006-6.627-13.868c-9.012-7.778-33.677-7.778-33.677-7.778s6.63-3.799,15.023-3.006
		C661.448,342.369,694.152,358.986,694.152,358.986z"/>
	<path fill="#FFFFFF" d="M142.26,192.199c0.265,0.441,0.092,0.973-0.264,1.238c0,0,0,0.086-0.093,0.086
		c-0.172,0.091-0.793,0.177-1.587,0.264c-1.06-0.173-3.708-0.701-4.857-0.527c0,0,0.701,0.527,1.321,1.062
		c0,0-2.911,1.145-3.532,2.297c0,0-2.396-0.266-4.063,0.356c-0.978,0.348-1.415,0.796-1.943,1.152
		c-0.36,0.078-0.714,0.266-1.152,0.437c-0.09,0-0.183,0-0.354,0c-1.591,0.092-2.834-0.714-2.834-0.714l0.532,1.241
		c0,0-4.592,0-5.572,1.591c-3.704-1.855-7.503-3.626-11.313-5.388c-3.614-1.507-7.242-3.01-10.863-4.418
		c-7.425-2.83-14.938-5.395-22.455-7.693c-2.301-0.709-4.51-1.325-6.801-1.946c-1.602-0.442-3.271-0.88-4.951-1.236h0.082
		c3.096,0,6.1-0.085,9.195-0.267c20.683-1.322,41.36-0.793,62.043-1.942c3.811-0.173,7.519-0.352,11.313-0.709
		c-0.609,0.801-1.492,2.037-0.344,2.48c0,0,2.023,0.615,4.686,0.794c2.474,0.173,5.212,0,5.212,0s-10.08,4.771-11.313,5.125
		c-1.241,0.354-2.831,1.856-2.831,1.856s0,0.087-0.09,0.087c0,0.09-0.084,0.09-0.174,0.175l-0.093,0.095l-0.172,0.171
		c-0.622,0.266-1.06,0.443-1.325,0.622c-0.45,0.266-2.396,0.352-2.396,0.352s2.306,0.973,3.282,0.793c0,0.094,0,0.094,0.079,0.094
		c0,0.175,0.093,0.794,1.059,1.235C140.501,191.312,141.731,191.759,142.26,192.199z"/>
	<path fill="#FFFFFF" d="M229.764,244.079c-0.531,0.359-1.06,0.625-1.681,0.887c-3.536,2.212-7.242,4.331-11.051,6.101
		c0,0-0.082,0-0.172,0.093c-1.231,0.61-2.474,1.138-3.8,1.763h-0.091c0,0-0.091,0-0.091,0.09c-3.442,1.497-6.975,2.833-10.509,4.063
		c-2.832,1.059-5.66,1.946-8.494,2.738c-20.322,5.93-32.697,5.741-32.697,5.741c1.418,0.621,3.271,1.245,4.95,1.604
		c6.1,1.401,20.683,2.644,21.383,2.816c-0.079,0.095-0.172,0.186-0.438,0.359c-0.09,0-0.263,0.089-0.356,0.089
		c-15.203,6.449-31.639,9.37-48.085,8.656c-30.048-1.231-46.219-9.538-46.746-10.242c0,0,8.391-1.335,13.336-2.922
		c0,0-22.362-7.425-30.752-12.82c0,0,9.104,0.183,11.927,0.272c-3.179-2.563-6.182-5.225-9.016-7.607
		c-15.904-13.88-26.423-31.902-24.477-40.036c-6.193-8.313-14.938-10.43-14.938-10.43c26.781-2.473,51.524,7.779,77.687,24.125
		c10.968,6.903,19.446,14.767,29.266,20.956c-6.549,1.059-20.693,1.945-47.554-2.829c0,0,15.548,9.897,44.895,13.613
		c17.941,2.208,35.354,1.763,47.381,0.875C203.602,251.066,216.768,249.297,229.764,244.079z"/>
	<path fill="#FFFFFF" d="M760.881,371.714c-0.261,3.36-0.964,6.986-2.114,10.879c-1.232,3.969-2.114,8.391-6.895,8.65
		c-3.533,0.187-6.988-0.172-10.427-0.438c-2.039-0.088-6.099-0.71-7.252,1.592c-3.437,6.813,10.164,6.455,13.707,6.536
		c0.438,0.091,0.97,0.091,1.496,0c-14.316,15.916-37.653,20.073-39.062,20.335h-0.092c-0.181-0.262-0.354-0.526-0.621-0.886
		c-3.701-4.775-15.109-14.49-38.267-17.147h-0.18c1.144-1.679,2.39-3.271,3.806-4.856c9.541-11.048,24.65-20.245,41.008-28.196
		c22.889-11.141,31.553-32.882,31.553-32.882s3.181,2.649,6.447,7.689c-0.966,2.912-3.438,7.331-9.537,11.75
		c0,0-4.066,2.392-2.566,5.307c1.414,2.828,4.678,1.864,6.357,0.883c1.062-0.621,4.25-2.563,6.726-6.894
		c1.147-1.758,2.035-3.266,2.476-4.419c1.506,3.454,2.735,7.515,3.265,12.199c0.096,0.532-1.759,2.04-2.117,2.384
		c-1.321,1.243-2.738,2.303-4.246,3.36c-4.062,2.739-8.574,4.509-13.164,6.367c-1.683,0.698-4.251,2.206-4.603,4.059
		c-0.531,3.1,3.626,3.721,5.753,3.36c0.171,0,0.346,0,0.529-0.09C746.038,380.724,755.591,378.435,760.881,371.714z"/>
	<path fill="#FFFFFF" d="M573.597,574.742c-7.249,0.439-12.381-5.039-12.381-5.039c-18.469-2.557-39.42,1.322-39.42,1.322
		s-10.782,11.497-26.157,13.443c-15.297,1.943-15.113-4.951-14.314-6.814c0.792-1.947,7.949-5.39,21.024-19.002
		c13.083-13.603,24.398-41.361,24.398-41.361c3.097,9.011,4.326,18.737,3.269,28.196c-0.267,2.827-0.701,5.569-1.325,8.218
		c-1.147,4.421-2.646,8.573-4.682,12.555c2.564-5.042,8.048-9.104,12.82-11.934c1.681,1.943,3.005,4.153,4.422,6.362
		c0.263,0.436,2.645,3.796,2.38,4.248c2.382-4.42,14.406-12.557,14.406-12.557c2.834,2.834,5.214,8.574,5.214,8.574
		c9.808-7.249,31.639-42.249,31.639-42.249C596.044,545.66,580.932,574.21,573.597,574.742z"/>
	<path fill="#FFFFFF" d="M700.081,432.792c-1.771,7.863-28.991,36.77-43.226,42.157c0,0,12.199-19.528,15.999-39.591
		c-3.445,2.818-8.751,6.63-14.678,8.575c0,0,0.449-9.818-2.209-14.502c0,0-7.502,7.605-15.908,12.819c0,0-5.3-8.398-6.533-14.673
		c-6.099,9.277-16.089,22.099-28.199,28.369c0,0,0.704-8.483-1.413-20.589c11.313-2.739,21.568-6.101,29.429-8.76
		c5.215-3,14.144-5.834,16.261-6.006c0.266,0,7.426-1.497,6.634,3.716c0,0,8.926-6.812,16.082-4.42
		c2.387,0.876,3.722,2.03,4.333,3.443c3.54-2.212,9.907-5.571,15.026-4.421C699.197,420.593,701.844,424.919,700.081,432.792z"/>
	<path fill="#FFFFFF" d="M603.292,435.437c-0.267,0.888-0.703,2.131-1.324,3.628c-5.74,10.256-24.305,38.808-59.845,48.705
		c0,0,21.927-22.27,19.448-46.854C575.45,441.011,590.129,438.624,603.292,435.437z"/>
	<path fill="#FFFFFF" d="M666.408,391.43c-0.358-2.565-0.98-5.133-1.942-7.608c-1.87-4.949-4.872-9.895-9.202-13.167
		c-0.089,0-0.167-0.09-0.263-0.172c-2.037-1.945-4.326-3.811-6.812-5.396c-10.957-7.517-23.328-13.168-35.528-18.475
		c-1.15-0.528-2.212-0.965-3.359-1.503c-14.583-6.276-29.521-12.11-44.541-17.14c2.476,1.232,4.857,2.646,7.242,4.064
		c0.446,0.172,0.888,0.438,1.328,0.699c0.614,0.359,1.238,0.714,1.765,1.06c2.117,1.241,4.248,2.473,6.27,3.809
		c5.573,3.533,11.503,7.241,16.181,11.927c-0.882,0-1.769,0.089-2.561,0.354c-0.889,0.184-1.68,0.438-2.479,0.622
		c5.838,4.153,11.224,9.104,16,14.41c0.621,0.7,5.927,7.593,6.099,7.593c-3.269,1.509-6.539,2.833-9.899,3.987
		c-1.681,0.618-3.359,1.056-5.04,1.585c-5.914,1.586-12.015,2.207-18.113,2.567c-0.188,0.077-0.45,0-0.713,0
		c-0.172,0.438-0.438,0.886-0.705,1.32c-1.679,2.385-4.943,2.041-7.244,1.325c-2.653-1.325-7.689-3.887-15.208-7.249
		c-28.193-13.34-93.167-39.857-191.449-57.455c-15.376-2.739-29.335-4.948-42.593-6.628c0,0,0,0-0.095-0.082
		c-0.094,0-0.183,0-0.354,0c-0.173,0-0.359,0-0.438,0c3.626,0.876,7.238,1.945,10.863,3.005c5.135,1.497,10.612,2.911,15.388,5.307
		c-5.66-0.449-11.496-0.977-17.146-0.356c2.379,0.967,5.212,1.942,7.157,3.623c-9.553,0.093-19.095,0.349-28.727,0.703
		c-16.712,0.621-33.594,1.244-50.2,3.454c8.39,2.646,17.678,6.627,24.305,12.809c0.966,0.805,1.853,1.771,2.739,2.741
		c-6.627,0.354-13.352,0.975-19.979,1.679h0.094c1.32,2.657,1.68,5.396,1.68,5.396c-1.68,3.006-6.459,5.745-6.459,5.745
		c2.21,0.527,5.213,0,5.213,0c-1.231,4.247-0.262,6.271-0.262,10.52c0,4.246-5.217,6.005-13.523,7.251
		c-8.218,1.231-11.751-1.509-11.751-1.509l1.231-2.738c-2.739,0.527-10.784,0.793-10.784,0.793
		c5.306-2.302,12.025-7.068,12.025-7.068c-3.188,1.325-9.908,2.914-9.908,2.914s-2.117-1.496-4.063-3.359
		c0,0-10.071,2.829-14.846,4.419c-14.146,4.774-27.932,10.97-40.396,19.182c1.587,0.36,3.268,0.705,4.776,1.059
		c2.384,0.627,4.777,1.246,7.158,1.947c1.508,0.448,2.911,0.887,4.419,1.413c-0.7,0.799-1.243,1.592-1.415,2.479
		c-0.172,0.699-0.356,1.321-0.531,1.851c0.175-0.529,0.438-1.151,0.622-1.851c0.348-1.23,1.324-2.479,1.324-2.479
		c2.211-2.473,6.192-4.243,6.192-4.243c-2.039,2.563-2.3,5.214-2.3,5.835l0,0c4.418-6.976,11.838-6.443,11.838-6.443
		c-1.585,0.433-3.449,1.586-3.449,1.586s3.277,1.151,6.549,2.118c3.268,0.976,10.519,1.509,14.755,1.509
		c4.153,0,12.022,1.495,12.022,1.495c3.443-1.151,14.056-3.797,14.056-3.797c-3.72,2.302-10.163,5.567-10.163,5.567
		c13.164,7.251,1.853,22.269,1.853,22.269s-2.302,0.532-7.066,4.16c-4.778,3.715-5.926,8.479-5.926,8.479
		c2.474-2.292,5.926-4.42,5.926-4.42c-0.979,1.51-0.529,2.303-2.659,7.08c-2.119,4.774-7.331,4.592-10.957,4.946
		c-3.623,0.438-9.55-3.98-9.55-3.98c-2.118,0.792-6.009,4.418-6.009,4.418c1.773-5.741,8.045-11.934,8.045-11.934
		c-2.646,1.149-7.426,4.603-7.426,4.603c-2.644-2.033-12.105-4.773-18.376-8.217c-6.365-3.453-5.572-10.175-5.572-10.175
		c0.345-3.971,3.799-9.366,3.799-9.366c-2.119,1.147-4.42,3.627-4.42,3.627c0-0.798,0-1.497,0.093-2.119
		c0.173-2.04,0.873-3.271,1.498-3.982c0.71-0.968,1.852-1.14,2.829-1.762c0.438-0.183,0.887-0.448,1.23-0.887
		c-0.438,0.438-0.875,0.62-1.32,0.887c-0.969,0.531-2.119,0.794-2.821,1.681c-0.622,0.793-1.336,1.944-1.509,4.063
		c0,0-4.591,2.474-6.537,3.798c-2.13,1.416-4.154,2.829-6.1,4.419c-1.148,0.978-3.45,2.83-3.716,3.097
		c0.355,0.354,0.622,0.621,0.711,0.792c10.519,11.314,22.894,21.13,35.53,29.972c5.928,4.063,12.012,7.951,18.206,11.656
		c22.006,13.177,45.347,24.308,68.856,34.56c14.584,6.459,28.368,14.678,40.479,25.02c7.779,6.634,14.766,14.057,20.865,22.273
		c7.064,9.551,12.2,20.325,18.55,30.315c10.52,16.618,23.077,32.178,38.016,44.987c8.482,7.343,17.852,13.878,27.931,18.824
		c2.741,1.421,5.571,2.567,8.39,3.628c1.153,0.359,2.394,0.885,3.547,1.061c-0.358,2.658-3.097,4.948-5.135,6.458
		c16.792,3.357,34.298,2.911,51.09,0c-3.007,3.174-6.009,6.454-9.108,9.72c17.153-0.709,34.658-5.925,50.034-13.176
		c14.843-6.973,28.368-16.604,39.335-28.807c6.367-7.077,11.924-15.031,16.438-23.604c0.525-0.966,0.621-1.061-0.361-1.497
		c-6.358-3.279-13.867-4.775-20.944-5.489c-21.303-2.383-42.159,4.952-62.042,11.761c-8.484,2.91-17.15,6.447-25.987,7.862
		c-12.729,1.863-25.632,1.946-37.303-4.064c-10.954-5.648-20.057-14.672-28.021-24.041c-7.42-8.747-14.131-18.302-20.153-28.103
		c-12.279-19.89-22.098-41.102-29.784-63.023c-6.447-18.566-11.405-38.267-10.69-58.074c0.528-15.904,4.591-32.696,12.991-46.313
		c4.248-6.721,9.727-12.728,16.619-16.885c3.626-2.301,7.597-3.981,11.75-5.039c2.117-0.528,4.25-0.967,6.456-1.232
		c-20.069-4.592-42.164-8.928-66.209-12.637c-15.731-2.474-30.314-4.337-43.839-5.835c13.709,0.876,28.646,2.118,44.726,3.89
		c136.916,15.019,211.598,51.528,211.598,51.528s6.104,3.981,2.834,9.011c-1.585,2.394-4.945,2.13-7.249,1.505
		c-2.647-1.322-7.781-3.796-15.287-6.985c-8.57-3.796-20.428-8.748-35.537-14.132c2.922,5.744,6.365,11.129,10.349,16.263
		c5.477,7.064,12.013,13.429,19.622,18.377c9.988,6.537,21.566,9.899,33.487,10.787c11.407,0.885,22.906-0.888,33.86-4.51
		c7.689-2.557,14.847-6.366,22.361-9.107c10.52-3.89,20.682-8.043,31.639-10.253c6.193-1.14,12.463-1.855,18.748-1.762
		c0.792,0,1.589,0.093,2.384,0.093C666.842,400.89,666.487,392.303,666.408,391.43z M334.147,456.476
		c-2.555,4.329-6.011,4.777-6.011,4.777l0.889-1.68c-3.006,0.888-6.101-0.886-6.455-1.059c1.863,2.565,2.036,5.916,2.036,5.916
		l-1.154,2.129l3.986-0.266l-2.213,2.739c0.622,6.537-4.773,8.919-11.044,8.483c-6.288-0.529-13.885-6.986-13.885-6.986
		c0.438-2.477,5.217-9.277,5.217-9.277c-3.361,1.061-9.46,5.387-9.46,5.387c-5.745-3.627-4.595-2.382-20.948-4.687
		c-16.353-2.205-24.57-6.626-24.57-6.626c-0.095-2.912,2.118-6.537,2.118-6.537c-3.882,1.945-5.822,4.946-5.822,4.946
		c-1.337-1.056-6.1-5.649-4.248-12.104c1.853-6.457,11.405-7.517,11.405-7.517c3.174-2.474,7.953-2.567,8.215-2.567
		c-1.056,0.718-2.922,1.948-2.922,1.948c2.66-0.531,17.149,0.976,23.338,1.415c6.366,0.525,13.086,0.447,13.086,0.447l6.366-1.412
		c-2.657,1.757-10.347,6.625-11.234,7.246c4.686-2.922,16.263-5.225,16.263-5.225s2.037-0.265,4.951,1.069
		c3.013,1.328,4.248,6.091,4.248,6.091c2.563-2.463,6.8-0.97,11.219,3.543c4.341,4.503,4.513,9.276,4.513,9.276L334.147,456.476z
		 M300.473,381.612c4.604-2.025,8.757-1.589,12.91,0.98c4.237,2.551,8.128,10.518,8.128,10.518c3.188-1.245,8.308-2.039,8.93-2.127
		c-2.563,1.239-7.342,5.129-7.342,5.129s2.66,5.213,2.831,9.542c0.184,4.421-3.359,5.743-6.986,7.157
		c-3.531,1.416-7.502,0.624-8.748-0.17c-1.149-0.793-3.174-0.623-3.174-0.623c1.23-1.59,6.179-4.949,6.179-4.949
		c-4.764,0.448-9.184,3.359-9.184,3.359s-7.513,1.231-11.499,1.231c-3.97,0-10.161-3.799-10.161-3.799
		c-2.383,0-5.742,1.775-5.742,1.775c1.762-2.924,9.541-8.496,9.541-8.496c-3.626,0.716-8.217,3.722-8.217,3.722
		c-1.324-1.421-8.14-5.573-9.897-6.899c-1.773-1.413-3.005-3.447-2.396-7.419c0.622-3.982,5.135-4.33,9.382-4.591
		c4.143-0.188,9.897-0.188,9.897-0.188c-1.681,1.326-2.833,3.721-2.926,3.985c0.796-1.246,7.079-4.246,7.079-4.246
		S295.882,383.558,300.473,381.612z"/>
	<path d="M617.965,202.89c0,0-4.323-3.799-5.835-5.119c0,0,2.119,5.042,2.476,6.1c0,0-4.062,0.173-6.362-1.601
		c-2.212-1.669-5.388-3.706-4.513-3.706c0,0,0.976,0.092,1.774,0.173c0,0-2.567-3.091-6.897-3.271c0,0-2.563,0.622-5.664-0.969
		c-3.004-1.591-4.234-3.091-4.234-3.091s-1.679-1.86-2.035-4.248c0,0,3.005,2.035,4.419,2.653c0,0-2.564-3.712-2.564-5.923
		c0,0,1.861-0.441,4.152,0.444c2.394,0.88,3.097,0.266,3.097,0.266s-1.059-1.324-1.414-2.741c0,0,2.922,2.476,4.244,3.09
		c0,0,3.719-1.146,6.457,0c2.817,1.246,6.01,4.333,6.539,4.953c0.437,0.532,2.301,1.943,2.562,2.119
		c-0.182-0.261-1.681-2.208-2.035-3.798c0.174,0.179,2.035,1.41,2.912,1.767c0.888,0.444,2.567,2.296,2.923,3.449
		c0.266,1.149-1.585,2.915-1.585,2.915s2.472,3.177,2.472,4.42C618.852,202.002,617.965,202.89,617.965,202.89z"/>
	<path d="M641.92,222.607c-0.624,0.965-1.499,0.965-1.499,0.965s-5.398-3.271-6.814-3.97c0,0,2.659,4.235,3.093,5.213
		c0,0-4.679-0.703-5.911-2.302c0,0-5.227-1.324-7.169-2.566c-1.857-1.325-3.348-3.269-3.348-4.326c0,0,2.999,1.415,4.495,2.118
		c0,0-4.063-4.857-5.304-6.089c0,0,1.418-1.508,3.187-1.946c1.68-0.448,2.472-0.448,3.179-0.355c0,0,0.092-1.059-0.707-2.04
		c0,0,4.862,3.006,7.071,5.308l-0.608-2.117c0,0,3.968,0.965,5.737,2.739c1.857,1.762,2.738,3.704,3.271,4.591
		C641.121,218.716,642.539,221.721,641.92,222.607z"/>
	<path d="M579.42,360.401c-1.661,2.384-4.945,2.036-7.236,1.324c-2.565-1.418-7.607-4.064-15.031-7.517
		c-20.944-10.071-62.139-27.749-122.234-43.745c-20.681-5.567-43.585-10.874-68.685-15.56c-15.734-3.006-30.222-5.384-43.663-7.252
		c13.707,1.335,28.552,3.006,44.55,5.307c20.866,3.003,40.214,6.459,58.166,10.081c98.989,20.416,151.66,48.257,151.66,48.257
		S582.969,355.544,579.42,360.401z"/>
	<path d="M463.724,241.078c0,0-2.909-1.945-4.498-2.383c0.346,0.344,3.623,3.798,1.76,4.152c0,0-1.681-1.863-4.686-3.277
		c-3.001-1.325-8.573-4.063-10.161-5.561c-1.588-1.415-2.646-4.338-2.738-4.776c0.174,0.267,1.15,1.498,1.942,1.682
		c0.796,0.083,3.271,1.68,3.626,1.945c-0.092-0.266-0.976-2.396-1.946-3.188c-1.055-0.887-3.622-2.118-4.944-3.704l1.496-0.532
		c0,0,0.353-2.922-0.266-5.833c0-0.094,0-0.184-0.079-0.266c-0.717-3.004-0.358-4.775,0.345-5.396c0,0,5.04,0.185,6.549,0.712
		c-0.533-0.263-2.834-1.414-4.251-2.563c0,0,0.358-0.177,0.707-0.705c0.264-0.713,0.089-2.128,1.502-2.484
		c1.326-0.265,3.722,0.885,4.33,1.243c0.625,0.262,3.981,2.38,5.138,2.911c0.608,0.356,0.882,1.336,0.964,2.208
		c3.186,0.979,6.364,1.867,9.554,2.833c0.075,0.094,0.075,0.094,0.171,0.184l0,0c0.089,0,0.171,0.081,0.171,0.081
		c-1.946-0.437-5.835-0.969-7.689-1.23c-0.526,0.527-1.68,1.681-2.206,2.38c0,0-1.059,1.418-1.763,5.039
		c-0.183,1.232,0.435,3.894,1.681,5.042c1.229,0.97,4.947,4.42,5.56,6.1C464.61,237.357,463.46,239.926,463.724,241.078z"/>
	<path d="M460.64,177.082c-2.298,1.858-5.04,2.918-5.04,2.918s0.346,2.301,1.681,3.626c0,0-2.567-0.179-4.685-1.417
		c0,0-1.864,2.124-2.035,3.004c-0.267,0.802-3.005,4.333-4.593,5.571c-1.68,1.149-5.043,2.476-5.043,2.476s3.002,4.418,5.477,6.191
		c-0.621-0.36-9.011-3.985-12.555-7.607c0,0-0.266,2.653,0.543,3.981c0,0-4.159,1.853-8.838,0.793
		c-4.421-1.058-8.935-4.239-9.382-4.599c0.543,0.095,4.603,0.802,7.252,0.802c0,0-6.009-2.921-7.07-5.928
		c-1.145-2.911-0.793-6.364,2.475-7.865c3.366-1.504,6.182-1.324,6.182-1.324s7.876,3.709,12.465,4.864c0,0-6.009-3.984-7.499-6.545
		c0,0,4.229,0.178,5.471-0.615c1.154-0.802,2.028-2.747,4.33-3.54c2.304-0.707,4.776-0.973,4.776-0.973s-2.209-1.151-2.738-1.853
		c0,0,4.5,1.236,5.914,1.236c0,0,3.893,0.173,5.664,0.443c1.76,0.173,5.04-0.886,7.778,0
		C463.907,171.604,462.849,175.229,460.64,177.082z"/>
	<path d="M503.42,220.302c-0.799,1.681-5.041,4.246-7.424,5.041c0,0-0.095-0.172-0.279-0.527c-0.078-0.094-0.17-0.173-0.263-0.268
		c-0.44-0.792-1.321-1.769-2.552-2.644c0.077,0.078,0.077,0.253,0.171,0.438c0,0.09,0.09,0.172,0.09,0.355
		c0,0.082,0.082,0.266,0.082,0.344c0,0.095,0.089,0.187,0.089,0.359c0.096,0.438,0.178,0.965,0.36,1.415
		c0.09,0.438,0.09,0.887,0.172,1.231c0,0-0.532,0.275-1.229,0.804c-0.979,0.611-2.476,1.763-3.81,3.005
		c-0.971,1.06-1.947,2.117-2.65,3.349c-2.034,3.893-1.852,6.815-1.852,6.815s-1.863-0.795-3.451-2.04c0,0,0.793,3.454,3.715,4.951
		c0,0,1.68,2.207,0.967,3.888c0,0-5.119-0.435-6.361-1.414c-1.229-0.966-5.039-2.381-5.039-2.381s1.331-0.176,2.655-0.093
		c0,0-1.414-3.349-2.741-4.502c-1.322-1.149-3.981-3.188-3.36-5.834c0,0,3.097,0.266,4.688,0.888c0,0-5.042-4.342-8.047-5.041
		l4.152-0.267c0,0-0.526-2.922,4.688-5.478c5.397-2.567,6.985-4.247,8.136-5.929c1.056-1.585,1.589-3.358,2.91-4.324
		c0,0,2.659,1.496,4.688,3.004c0,0-1.233-3.454-4.951-6.01c0,0,3.188,0.346,5.479,1.142c0,0,3.187-1.496,5.478-1.324
		c2.39,0.266,6.628,2.474,6.986,3.81C505.274,214.468,504.119,218.622,503.42,220.302z"/>
	<path d="M517.553,190.784c0,0-2.821-0.707-3.877-1.059c0.169,0.352,1.848,2.653,2.288,3.975c0,0-2.567,1.68-4.503,2.125
		c-1.94,0.438-2.485,0.966-3.544,2.119c-1.059,1.241-3.702,2.656-6.365,2.301c-2.548-0.449-7.686-1.853-8.122-2.04
		c0.354,0.267,2.566,2.567,3.625,4.247c0,0-2.922,1.498-7.781,2.212c0,0-4.326,0-6.193-0.621c-1.851-0.531-3.626-1.419-3.702-2.649
		c-0.184-1.148,0.875-2.474,0.875-2.474s3.89,1.415,6.102,1.853c0,0-5.651-5.307-7.692-6.808c0,0,3.983,0.622,6.367,1.501
		c0,0-0.27-1.501-1.153-3.087c-0.967-1.595,0.795-3.186,1.601-3.626c0.792-0.353,4.501-1.859,5.479-2.474
		c0,0-2.396-2.032-5.135-3.449c0,0,5.215,0.531,7.873,1.324c0,0,2.117,0.093,4.422-0.793c2.298-0.974,3.002-0.974,4.945-0.708
		c1.854,0.264,2.037,0.794,3.271,0.885c1.242,0.174,2.378,0.088,2.378,0.088s-0.793-1.152-2.738-1.854c0,0,4.25,0.528,6.192,1.854
		c0,0,3.445,0.621,5.48,2.567C519.679,188.131,517.553,190.784,517.553,190.784z"/>
	<path d="M594.985,217.484c0,0,0.88,2.384,1.413,3.533c0,0-3.176-1.326-6.009-1.326c0,0-1.242,1.856-4.156,1.235
		c-3.002-0.625-5.927-2.832-5.927-2.832s2.662,0.094,4.779,0.094c0,0-0.887-1.06-3.451-1.591c-2.476-0.527-3.972-0.977-5.826-2.395
		c0,0-0.446,1.418,0.797,2.395c0,0-3.981,1.059-4.688-2.923c-0.618-3.971-2.922-3.704-1.334-6.71
		c1.601-2.832,4.867-2.832,5.042-2.832c0,0-2.913-1.771-4.775-2.829c0,0,6.548,1.681,11.587,4.774c0,0-0.354-2.035-1.597-3.094
		c0,0,3.451-1.06,7.343,1.68c3.797,2.645,3.969,5.04,6.892,6.986C597.986,213.675,596.308,216.679,594.985,217.484z"/>
	<path d="M551.052,219.774c0,0-1.851,1.508-2.378,2.567c-0.532,0.965-2.129,3.438-3.892,4.06c0,0-1.851,2.384-3.801,2.567
		c-2.035,0.093-3.356-0.355-4.685-0.438c-1.33,0-6.628,0-10.7-3.983c0,0,5.753,0.795,7.253,0.795c0,0-5.127-3.716-6.194-5.303
		c0,0,1.51-0.886,1.334-2.301c-0.095-1.325-0.529-2.467,0.879-3.971c0,0,4.599,1.587,7.429,2.036c0,0-3.093-3.095-6.101-5.572
		c0,0,1.86-0.184,4.065,0.704c0,0,0.964-0.173,3.095-1.947c2.12-1.681,6.274-1.231,8.656,0.359c2.396,1.505,4.604,4.683,4.604,4.683
		s2.831,1.496,4.682,4.512c0,0-4.864-3.095-8.666-3.625C546.633,214.918,550.088,218.095,551.052,219.774z"/>
	<path d="M568.915,187.6c-0.184,1.86-1.506,3.276-3.806,3.541c-2.213,0.266-3.538-0.621-4.33,0.438
		c-0.793,1.063-2.035,2.122-3.188,2.387c0,0-7.77-4.771-11.046-6.54c0,0,2.75,3.622,3.447,5.04c0,0-4.681,0.441-7.869-0.887
		c-3.177-1.324-5.294-2.474-7.595-3.447c-2.212-0.973-4.593-4.148-4.593-4.148s3.705,1.765,5.652,2.297c0,0-3.271-3.806-3.443-4.95
		c0,0,2.556-0.621,3.706-2.125c1.15-1.413,4.418-2.294,6.896-2.387h0.618c2.476,0,8.744,3.36,11.845,5.57
		c0,0-2.742-3.713-4.685-5.57c0,0,4.773,0,6.006-0.443c1.151-0.351,3.981-0.616,5.927,0.271c1.854,0.879,2.91,2.826,3.095,3.088
		c-0.261-0.086-2.206-0.971-3.716-1.322c0,0,0,1.589,3.188,3.89C568.202,184.514,568.995,185.747,568.915,187.6z"/>
	<path d="M323.099,396.112c0,0,2.66,5.213,2.831,9.542c0.184,4.421-3.359,5.835-6.986,7.157c-3.531,1.416-7.502,0.624-8.748-0.17
		c-1.149-0.793-3.174-0.623-3.174-0.623c1.149-1.59,6.179-4.949,6.179-4.949c-4.764,0.438-9.184,3.359-9.184,3.359
		s-7.513,1.231-11.499,1.231c-3.97,0-10.161-3.799-10.161-3.799c-2.383,0-5.742,1.775-5.742,1.775
		c1.762-2.924,9.541-8.496,9.541-8.496c-3.626,0.716-8.217,3.722-8.217,3.722c-1.324-1.326-8.14-5.573-9.897-6.899
		c-1.773-1.413-3.005-3.447-2.396-7.419c0.622-3.982,5.135-4.33,9.382-4.591c4.143-0.188,9.897-0.188,9.897-0.188
		c-1.681,1.326-2.833,3.721-2.926,3.985c0.796-1.246,7.079-4.246,7.079-4.246s6.804-1.946,11.395-3.892
		c4.604-2.025,8.757-1.589,12.91,0.98c4.157,2.551,8.128,10.597,8.128,10.597c3.188-1.324,8.308-2.118,8.93-2.206
		C327.877,392.223,323.099,396.112,323.099,396.112z"/>
	<path d="M225.7,293.318c-1.592,1.059-1.774,2.113-3.006,3.798c-1.242,1.586-8.93,1.94-8.93,1.94
		c-4.685-1.585-10.692-1.585-10.692-1.585c3.002,0.886,7.068,2.118,7.068,2.118s-4.236,0.71-7.863,0.355
		c-3.532-0.355-5.479-4.327-7.424-6.986c-2.036-2.646,0.349-6.801,0.349-6.801c-1.142-0.715-2.385-1.059-2.385-1.059
		c3.981-0.358,11.312,0.172,11.312,0.172c-3.438-1.059-7.247-1.852-7.247-1.852s0.45-1.855,1.332-3.892
		c0.876-1.947,5.217-1.415,6.976-1.243c1.773,0.183,4.075-1.946,5.399-2.385c1.32-0.436,5.306,0.972,7.42,1.681
		c2.212,0.704,2.384,2.303,2.384,2.303c-2.024-0.184-4.856,0.348-4.856,0.348l6.986,2.036c0,0,4.686,2.301,5.384,4.591
		C228.621,289.16,227.379,292.258,225.7,293.318z"/>
	<path d="M267.682,355.982c-1.231,4.247-0.262,6.271-0.262,10.52c0,4.246-5.217,6.005-13.523,7.251
		c-8.218,1.231-11.751-1.509-11.751-1.509l1.231-2.738c-2.739,0.527-10.784,0.793-10.784,0.793
		c5.306-2.302,12.025-7.068,12.025-7.068c-3.188,1.325-9.908,2.914-9.908,2.914s-2.117-1.496-4.063-3.359
		c-1.415-1.324-2.83-2.822-3.534-4.329c-1.77-3.439,1.232-8.746,2.474-10.785c1.246-1.941-0.966-3.173-0.966-3.173
		c2.026-1.602,3.533-4.076,3.533-4.076c-0.09,0-0.09,0-0.185,0c-4.419,0.977-8.654,1.243-8.654,1.243
		c-2.475-2.036-3.449-6.273-3.002-8.482c0.527-2.302,1.493-5.756,1.493-5.756h-0.09c-0.792,0-1.668,0-2.556-0.173
		c-1.414-0.172-2.738-0.528-3.095-0.622c9.539-1.229,14.318-4.763,14.318-4.763c-0.094,0-0.094,0.083-0.176,0.083
		c-2.475,0.445-6.894,0.71-6.894,0.71c0.082-0.265,0.347-2.829,2.29-4.154c0.715-0.447,2.129-0.447,3.892-0.183
		c1.06,0.183,2.129,0.355,3.189,0.621c0.526,0.09,1.058,0.267,1.586,0.438c1.944,0.448,3.718,1.071,5.041,1.509h0.081
		c3.717,1.242,5.491,6.271,5.491,6.271c1.058,3.189,2.645,5.568,4.496,7.341c0.095,0,0.095,0,0.095,0
		c0.887,0.795,1.773,1.415,2.738,2.025c0.438,0.266,0.794,0.45,1.243,0.621c0.344,0.188,0.793,0.359,1.23,0.532
		c1.153,0.528,2.384,0.888,3.534,1.242c0.795,0.174,1.6,0.344,2.3,0.527c0.36,0.094,0.704,0.176,1.06,0.176
		c0.714,0.185,1.324,0.446,1.856,0.793c1.679,0.977,2.923,2.658,3.716,4.42h0.094c1.32,2.657,1.68,5.396,1.68,5.396
		c-1.68,3.006-6.459,5.745-6.459,5.745C264.679,356.51,267.682,355.982,267.682,355.982z"/>
	<path d="M209.171,192.906c0,0,2.477,1.415,2.648,4.771c0.185,3.454-0.703,4.946,0.185,7.248c0.793,2.305-0.622,3.974-3.892,5.838
		c0,0-3.267,0.7-6.546,0.438c0,0,2.474,1.243,3.545,1.415c0,0-3.545,2.911-8.578,1.68c0,0-6.099,3.716-10.78,3.005
		c-4.604-0.622-5.663-2.567-5.663-2.567s5.477-0.965,9.462-1.495c0,0-7.253-1.683-9.544-3.006c0,0,0.704-3.361,2.212-4.869
		c1.493-1.493,1.138-1.94,1.138-1.94s-5.915-1.326-8.124-2.213c0,0,6.986-1.059,9.195-1.852c0,0-0.888-1.681,1.853-3.798
		c2.738-2.209,5.121-4.42,6.182-5.66c1.069-1.233,6.364-1.327,9.365-0.534c3.018,0.801,3.018,0.801,4.696,0.801
		c1.588,0,8.563-0.621,8.563-0.621S213.765,191.668,209.171,192.906z"/>
	<path d="M581.103,379.405c0,0.182-0.079,0.446-0.079,0.792c-0.092,0.089-0.092,0.265-0.184,0.449
		c-0.172,0.438-0.438,0.886-0.705,1.32c-1.679,2.385-4.943,2.041-7.244,1.325c-2.653-1.325-7.689-3.887-15.208-7.249
		c-28.193-13.34-93.167-39.857-191.449-57.362c-15.376-2.832-29.335-5.041-42.593-6.721c0,0,0,0-0.095-0.082
		c-0.094,0-0.183,0-0.354,0c-0.093,0-0.173,0-0.173-0.09c2.381,0.266,4.948,0.438,7.422,0.715c0.438,0,0.796,0.079,1.23,0.079
		c14.328,1.59,28.646,3.188,42.872,5.133c18.034,2.475,35.881,5.558,53.745,9.105c16.171,3.174,32.352,7.154,48.349,11.129
		c6.802,1.77,13.524,3.533,20.234,5.396c1.059,0.344,2.133,0.619,3.094,0.887c6.538,1.851,12.991,3.799,19.451,5.916
		c10.691,3.45,21.299,7.158,31.731,11.313c0.697,0.265,1.32,0.526,1.945,0.793c0.885,0.354,1.759,0.715,2.647,1.07
		c4.51,1.853,9.021,3.798,13.521,5.743c2.566,1.231,5.132,2.381,7.686,3.533c0.096,0,0.096,0.094,0.096,0.094
		c0.171,0.077,0.267,0.077,0.355,0.172c0.082,0.09,0.17,0.09,0.17,0.09S581.461,375.695,581.103,379.405z"/>
	<path d="M311.614,313.733c-1.773,2.646-8.84,3.534-12.56,3.096c0,0-7.065,3.178-11.129,2.645
		c-3.981-0.527-11.312-3.267-11.312-3.267s2.289-1.152,4.419-1.496c0,0-1.325-2.751-4.603-5.834
		c-3.271-3.098-7.503-6.896-8.218-9.459c0,0,4.325-1.854,7.424-2.568c0,0-5.216,0.184-8.128-1.153c0,0-0.184-5.384,0.888-7.596
		c1.141-2.208,1.853-4.071,1.853-5.131c0-1.152-0.263-1.058,1.417-1.589c1.588-0.528,9.539-1.853,9.539-1.853
		s-0.699-1.853-5.65-2.567c0,0,4.326-1.68,9.276-0.966c4.947,0.794,8.219,6.628,9.805,9.714c1.68,3.095,4.778,6.549,6.814,8.046
		c2.023,1.414,9.542-0.348,9.542-0.348s-4.767,4.685-7.78,4.502c0,0,1.508,5.478,4.072,7.686
		C309.841,307.808,313.383,311.085,311.614,313.733z"/>
	<path d="M197.237,348.031c-2.209,1.758-7.952,6.536-10.956,10.068c-3.096,3.545-6.273,7.249-13.087,5.479
		c-6.722-1.763-7.778-11.488-7.778-11.488c1.773-2.474,9.817-6.271,9.817-6.271c-4.246,0-9.636,0.969-9.636,0.969
		c0.082-2.027,0.349-7.955,0.349-12.729c0-4.765-2.479-9.277-2.479-9.277c1.682-1.771,6.021-4.063,6.021-4.063
		c-8.311,1.235-12.555,0.267-12.555,0.267c2.208,0,5.478-1.771,5.478-1.771c-0.436-2.478,0.528-6.01,1.771-7.253
		c1.232-1.231,5.04-6.006,6.804-7.24c1.68-1.243,6.271-0.527,10.785,0.266c4.509,0.703,5.212,3.442,5.212,3.442
		c2.301,0.527,4.509,0.266,4.509,0.266c-2.739,2.035-9.721,4.243-9.721,4.243c3.187,0.532,6.005,0.532,6.005,0.532
		s1.945,7.248,3.005,11.046c0.448,1.59,1.242,2.912,2.301,4.247c-1.945,1.142-5.306,3.006-8.124,4.064c0,0,4.854-0.184,10.069-1.945
		c0.978,0.969,2.036,1.945,3.267,3.177C201.828,337.511,199.538,346.35,197.237,348.031z"/>
	<path d="M399.036,219.774c0,0,1.939,2.13,1.588,4.419c-0.358,2.208-1.154,2.657-1.775,4.153c-0.623,1.509-2.475,2.739-4.498,3.626
		c0,0,2.557,1.153,5.215,2.647c-0.621,0-5.574-0.702-6.988-0.873c0,0-2.83,1.67-4.155,3.622c-1.241,1.855-3.454,3.537-6.72,3.709
		c0,0-4.063-1.243-5.651-1.591c0,0,2.119,1.856,2.911,2.738c0,0-2.29,0.971-4.591,0.438c-2.212-0.527-7.346-2.555-8.932-3.082
		c0,0,3.799,0.253,4.869,0.438c0,0-7.437-6.01-8.574-7.343c0,0,3.268,0.527,4.682,0.883c-0.526-0.261-4.774-2.817-4.869-6.178
		c-0.079-2.039,1.325-3.626,3.006-4.513c1.681-0.965,3.625-0.965,4.34-2.302c0.7-1.23,0.793-2.828,0.793-2.828
		s5.569,1.07,8.046,1.68c0,0-2.211-3.27-3.625-3.798c0,0,0.437-1.325,2.288-2.118c1.775-0.887,4.963-1.681,6.906-3.188
		c1.852-1.496,3.97-1.059,5.388-0.793c1.415,0.263,4.153,2.034,7.331,3.001c0,0-1.669-1.415-2.211-2.646
		c0,0,3.544,0.266,5.304,0.977c1.774,0.797,2.662,2.649,1.774,3.97c-0.799,1.326-1.851,1.51-1.942,2.384
		c-0.096,0.981,2.38,2.567,3.436,3.454C402.38,220.661,400.887,220.13,399.036,219.774z"/>
	<path d="M243.111,416.7c0,0-2.302,0.532-7.066,4.16c-4.778,3.715-5.926,8.479-5.926,8.479c2.474-2.292,5.926-4.42,5.926-4.42
		c-0.979,1.51-0.529,2.303-2.659,7.08c-2.119,4.774-7.331,4.592-10.957,4.946c-3.623,0.438-9.55-3.98-9.55-3.98
		c-2.118,0.792-6.009,4.418-6.009,4.418c1.773-5.741,8.139-11.934,8.139-11.934c-2.74,1.149-7.52,4.603-7.52,4.603
		c-2.644-2.033-12.105-4.773-18.376-8.217c-6.365-3.453-5.572-10.175-5.572-10.175c0.345-3.971,3.799-9.366,3.799-9.366
		c-2.119,1.147-4.42,3.627-4.42,3.627c0-0.798,0-1.497,0.093-2.119c0.173-2.04,0.873-3.271,1.498-3.982
		c0.71-0.968,1.852-1.151,2.829-1.762c0.438-0.183,0.887-0.448,1.23-0.887c0.184-0.172,0.359-0.354,0.449-0.526
		c0.094-0.185,0.172-0.267,0.266-0.45c0.09-0.173,0.172-0.345,0.267-0.531c0.089-0.172,0.171-0.345,0.261-0.529
		c0.175-0.529,0.438-1.151,0.622-1.851c0.348-1.243,1.324-2.479,1.324-2.479c2.211-2.473,6.192-4.243,6.192-4.243
		c-2.039,2.563-2.3,5.214-2.3,5.835l0,0c4.418-6.986,11.838-6.443,11.838-6.443c-1.585,0.433-3.449,1.586-3.449,1.586
		s3.277,1.151,6.549,2.118c3.268,0.976,10.519,1.509,14.755,1.509c4.153,0,12.022,1.495,12.022,1.495
		c3.443-1.151,14.056-3.797,14.056-3.797c-3.72,2.302-10.163,5.567-10.163,5.567C254.423,401.683,243.111,416.7,243.111,416.7z"/>
	<path d="M334.147,456.476c-2.555,4.329-6.011,4.777-6.011,4.777l0.889-1.68c-3.006,0.888-6.101-0.886-6.455-0.979
		c1.863,2.486,2.036,5.837,2.036,5.837l-1.154,2.129l3.986-0.266l-2.213,2.818c0.622,6.458-4.773,8.84-11.044,8.404
		c-6.288-0.529-13.79-6.986-13.79-6.986c0.344-2.477,5.122-9.277,5.122-9.277c-3.361,1.061-9.46,5.387-9.46,5.387
		c-5.745-3.627-4.595-2.382-20.948-4.687c-16.353-2.205-24.57-6.532-24.57-6.532c-0.095-3.006,2.118-6.631,2.118-6.631
		c-3.882,1.945-5.822,4.946-5.822,4.946c-1.337-1.056-6.1-5.649-4.248-12.104c1.853-6.457,11.405-7.517,11.405-7.517
		c3.174-2.474,7.953-2.567,8.215-2.567c-1.056,0.623-2.922,1.948-2.922,1.948c2.66-0.531,17.149,0.976,23.433,1.415
		c6.271,0.525,12.991,0.525,12.991,0.525l6.366-1.49c-2.657,1.757-10.347,6.625-11.234,7.246c4.686-2.922,16.263-5.225,16.263-5.225
		s2.037-0.265,4.951,1.069c3.013,1.328,4.248,6.091,4.248,6.091c2.563-2.473,6.8-0.97,11.219,3.543
		c4.341,4.503,4.513,9.276,4.513,9.276L334.147,456.476z"/>
	<path d="M331.061,221.721c0,0,7.425,3.622,9.716,4.946c0,0-1.589-0.09-2.558,0c0,0-2.563,1.508-3.094,2.474
		c-0.528,0.98,0,5.399-2.474,7.425c-2.475,1.946-5.745,1.507-6.804,2.659c-1.07,1.232,0.61,2.912,0.61,2.912
		s-5.385-1.23-7.064-1.418c0,0,2.567,2.567,4.247,3.809c0,0-2.13-0.448-4.341-0.183c-2.207,0.267-8.918,0.793-12.544-2.024
		c-3.626-2.833-1.773-5.135-0.887-6.021c0.794-0.883,1.06-2.025-1.324-4.765c-2.474-2.827-2.13-2.827-1.598-4.336
		c0,0,8.4,0,11.406,0.883c0,0-8.219-4.592-11.406-5.303c0,0,0.089-1.059,1.945-2.384c1.771-1.414,4.153-2.473,4.948-5.834
		c0,0,6.099,1.149,9.553,1.679c-3.799-1.417-5.479-3.53-11.672-5.304c0,0,4.247-0.173,5.927-0.356c0,0,2.911-0.531,4.331-1.762
		c0.527-0.528,1.242-1.243,2.114-1.775c1.334-0.882,3.005-1.585,5.306-1.68c4.329-0.172,8.401,0.888,11.315,1.867
		c2.208,0.795,3.795,1.493,4.155,1.669c0,0-3.972-0.609-6.723-0.609c0,0,1.415,0.699,2.13,1.587c0,0,0.172,1.587-0.094,2.474
		c-0.172,0.888-0.621,2.211-0.093,3.72c0.53,1.493,2.038,4.856,2.212,6.087C338.303,222.157,333.71,221.811,331.061,221.721z"/>
	<path d="M363.586,275.373c-3.452-0.714-9.369-1.152-9.369-1.152c4.419,1.68,7.78,3.006,7.78,3.006s-0.622,0.528-1.414,0.528
		c-0.794,0.186-2.209-0.7-3.451-0.528c-1.154,0.172-2.118,2.213-3.363,3.268c-1.322,1.151-3.001,0.796-3.001,0.796
		s-0.438,1.68-1.682,2.657c-1.323,0.965-3.441,0.438-6.181,0.082c-2.658-0.438-3.627-6.089-3.627-6.089
		c-2.739-2.567-7.076-4.868-7.076-4.868c1.774,0.09,4.075,0.528,4.075,0.528c-0.888-1.497-6.193-3.97-6.193-3.97
		c-0.887-0.449-3.626-1.945-3.626-1.945c2.739,0.175,11.05,2.116,11.05,2.116c-2.738-1.681-8.127-3.799-8.127-3.799
		c0.438-0.882,0.888-1.586,2.212-1.586c1.323,0,3.97,0.346,4.946-0.354c0.888-0.715,1.06-2.478,2.648-3.455
		c1.589-1.059,4.51-0.266,7.159,0.449c2.567,0.705,5.741,1.947,5.741,1.947c-3.002,0.172-6.1,0.172-6.1,0.172
		c3.719,0.887,7.345,2.739,10.796,4.774c3.443,2.21,2.118,4.235,4.95,5.388C364.647,274.394,363.586,275.373,363.586,275.373z"/>
	<path d="M307.722,176.287c-0.438,3.628-5.041,6.809-6.271,7.602c-1.243,0.887-3.532,2.477-4.247,4.778
		c-0.622,2.38-3.095,3.798-4.592,3.974c-1.509,0.181-3.533,2.298-3.533,2.298c2.119,0.527,5.119-0.352,5.479-0.531
		c-0.265,0.266-2.922,2.384-3.981,3.271c-1.231,0.978-5.389,1.946-6.803,1.773c-1.587-0.093-3.095,0-7.686-0.093
		c-4.687-0.173-9.992-0.532-11.578-3.533c-1.509-2.739-2.13-2.833-2.213-2.833c-3.278,1.505-10.081,1.415-10.081,1.415
		c6.538-2.739,12.106-8.839,12.106-8.839c-3.438,1.504-7.514,2.031-7.514,2.031c-0.527-0.879-0.611-1.941-0.527-3.974
		c0.183-2.031,2.034-3.097,2.034-3.097s0.173-1.145,1.508-2.911c1.404-1.774,6.007-4.155,8.656-4.334
		c2.563-0.179,5.833-1.502,7.608-2.738c1.758-1.238,8.041-3.805,11.128-3.539c3.188,0.265,4.42,0.799,4.42,0.799
		c1.77-0.091,5.751-0.799,5.751-0.799c-5.223,4.068-8.49,5.569-8.49,5.569c6.017-0.708,11.229-3.096,11.229-3.096
		C306.226,169.837,308.171,172.755,307.722,176.287z"/>
	<path d="M385.684,171.075c-0.265,1.944-1.591,6.979-4.246,8.044c-2.647,1.145-3.361,1.324-3.361,1.324v5.836
		c0,0-3.97-3.54-4.762-4.685c0,0-1.062,0-3.894-0.358c-2.739-0.442-6.099,4.332-11.233,3.891c0,0-8.48-1.853-9.895-5.299
		c-1.418-3.454-0.887-6.365-0.267-7.431c0,0,2.924,3.804,4.948,4.863c0,0-1.945-4.42-1.945-7.157c0,0,1.679-1.238,1.945-2.568
		c0.358-1.231,3.533-3.177,5.479-3.619c1.945-0.356,3.891,0.442,3.891,0.442s2.304,5.215,3.89,7.157c0,0-0.701-10.166,0.183-13.787
		c0,0,2.118,4.685,3.177,6.188c0,0,2.383-0.265,5.745-0.8c3.267-0.529,6.192-0.264,8.135,1.68
		C385.419,166.741,386.04,169.13,385.684,171.075z"/>
	<path d="M279.618,250.976c-0.793,0-5.307-0.438-8.044-0.094c0,0-1.682,1.68-3.627,1.864c-1.945,0.081-2.302,1.496-1.945,2.556
		c0.438,1.153,2.395,5.134-0.091,7.963c-2.383,2.738-7.951,1.856-7.951,1.856s-5.651,4.152-11.844,3.268
		c-6.193-0.966-11.051-3.268-11.051-3.268s-5.65-1.325-8.745-2.915c0,0,7.688,0.703,13.603,0.348c0,0-6.351-1.946-8.219-4.236
		c0,0,2.13-1.415,1.775-3.36c-0.438-2.035-1.061-4.868-0.094-6.458c0,0,5.571,2.738,8.4,3.454c0,0-3.622-3.005-4.947-5.756
		c0,0,2.475,0,4.686-1.759c2.118-1.854,4.498-5.04,8.572-5.04c0,0,1.946-1.946,3.8-2.302c1.945-0.438,3.531-0.438,3.531-0.438
		s2.212,0.966,6.011,1.77c0,0-5.124-3.45-6.366-4.946c0,0,2.392,0.792,4.248,0.703c0,0,2.118-0.626,5.478,0.261
		c3.451,0.971,5.74,3.533,5.74,5.745c0,2.207-3.083,5.135-1.93,6.986C271.574,248.948,278.638,250.71,279.618,250.976z"/>
	<path fill="#9E782B" d="M617.704,287.042c0,2.739-6.367,1.945-11.223,1.59c-4.776-0.449-29.269,1.945-37.655,6.007
		c-7.16,1.68-14.149,3.98-20.776,6.896c-1.943,0.794-3.798,1.681-5.654,2.657c-2.298,1.059-4.507,2.289-6.453,3.798
		c-0.267,0.172-0.525,0.344-0.717,0.527c0,0-1.134-6.099-6.443-11.495c-0.267-0.344-0.617-0.61-0.976-0.966
		c-0.619-0.625-1.322-1.152-2.117-1.68c-2.213-1.681-5.041-3.178-8.485-4.247c-1.148-0.349-2.394-0.704-3.623-0.876
		c-2.038-0.45-4.072-0.622-6.361-0.715h-0.095c-0.082-0.09-0.172-0.09-0.267-0.09c10.786-5.123,23.952-10.164,35.094-10.773
		c23.416-1.337,54.275,5.029,54.275,5.029s17.318-21.57-7.17-46.933c4.957,4.603,13.177,13.086,18.216,23.155
		C614.964,274.132,617.704,284.213,617.704,287.042z"/>
	<path fill="#9E782B" d="M687.79,259.722c-3.889-3.439-9.104-6.976-14.936-10.51c-4.158-2.655-8.655-5.223-12.902-7.341
		c-0.175-0.093-0.358-0.171-0.529-0.265c23.59,3.892,29.159-2.208,30.405-4.777c0.082,0.092,0.082,0.185,0.171,0.268
		c0.358,0.621,0.713,1.242,0.889,1.862C695.572,250.183,687.79,259.722,687.79,259.722z"/>
	<path fill="#00839B" d="M521.27,273.072c0,0-21.396,13.442-36.775,9.46c-15.557-3.98-42.073-24.93-42.073-24.93
		s10.175-1.32,26.967,1.419c0.171,0.09,0.266,0.09,0.435,0.09c3.096,0.702,6.284,3.178,8.76,4.857
		c1.496,1.152,2.821,2.384,4.327,3.454c0.266,0.263,3.971,2.552,4.152,2.552c0,0.265-0.089,0.53-0.089,0.797
		c0,3.888,3.268,7.169,7.16,7.169c3.983,0,7.16-3.281,7.16-7.169c0-1.59-0.533-3.005-1.328-4.146
		C514.019,270.688,521.27,273.072,521.27,273.072z"/>
	<path fill="#FFFFFF" d="M492.016,266.974c-0.175,2.035-1.51,3.266-3.364,3.266c-0.528,0-1.058-0.079-1.59-0.265
		c-0.182,0-3.887-2.289-4.152-2.552c-1.506-1.07-2.831-2.396-4.327-3.36c-2.393-1.773-5.664-4.249-8.76-4.951
		c1.863,0.344,9.197,1.763,13.527,2.911c2.127,0.621,4.152,1.153,6.099,1.68C489.448,263.702,492.104,264.854,492.016,266.974z"/>
	<path fill="#9E782B" d="M570.503,273.162c4.498-1.147,9.462-3.36,12.996-6.454h-0.092c0.092,0,0.092-0.083,0.092-0.083
		c-7.782,2.822-16.09,3.798-24.045,1.061c-1.322-0.45-2.738-0.978-4.07-1.51c-0.532-0.173-0.972-0.433-1.406-0.699
		c-8.045-3.982-15.294-9.819-22.361-15.204c-12.2-9.366-24.85-17.506-38.979-23.422c-0.979,0.611-2.476,1.763-3.81,3.087v0.262
		c0,3.811,2.83,11.845,8.665,16.619c7.606,6.193,21.832,12.465,21.832,12.465c-0.704-2.381-0.354-5.568-0.354-5.568
		c2.035,3.451,6.548,8.666,13.438,12.461c0.53,0.266,0.971,0.532,1.418,0.715c2.213,1.06,4.947,2.213,7.769,3.349
		c2.037,0.805,4.339,1.509,6.193,2.04C555.21,273.783,563.08,275.019,570.503,273.162z"/>
	<path fill="#FFFFFF" d="M482.195,290.402c-6.894-3.716-14.054-7.17-21.381-10.081c-4.593-2.302-9.107-4.775-13.525-7.341
		c-5.931-3.439-11.845-7.065-17.506-11.048c-2.738-1.935-5.834-3.536-8.123-5.826c-0.184-0.184-0.355-0.262-0.529-0.356
		c-1.417-0.172-2.926-0.355-4.247-0.355c-1.854-0.093-3.718,0-5.572,0.091c-0.171,0.093-2.298,0.265-2.298,0.265
		c1.68,5.307,8.929,13.164,8.929,13.164c-3.439,0.268-7.861-0.964-7.861-0.964c6.365,8.573,24.121,19.438,37.83,22.097
		c13.787,2.738,26.332,2.211,26.332,2.211c-1.945,0.966-5.118,2.208-5.118,2.208s5.385-0.266,12.726,1.23
		c0.963,0.185,2.025,0.449,3.097,0.793c4.947,1.247,10.954,3.189,14.487,4.515c0.438,0.094,0.797,0.265,1.155,0.354
		c-1.681-1.147-3.456-2.302-5.215-3.359C491.841,295.791,486.801,292.785,482.195,290.402z"/>
	<path d="M589.067,235.772c-1.68-1.681-3.541-3.443-5.568-5.213c0,0.089,0.082,0.172,0.082,0.262
		c0.089,0.094,0.181,0.265,0.26,0.359c0,0.172,0.092,0.265,0.092,0.354c0.096,0.173,0.174,0.345,0.267,0.438
		c0.092,0.266,0.266,0.532,0.45,0.888c0.078,0.172,0.17,0.344,0.26,0.527c0.085,0.359,0.269,0.704,0.44,1.152
		c0.533,1.149,1.15,2.646,1.681,4.237c0.531,1.598,1.058,3.359,1.498,5.212c0.181,0.622,0.272,1.337,0.355,1.945
		c0.092,0.263,0.092,0.449,0.184,0.712c0.438,5.041,0.701,9.726-1.416,14.41c-0.885,1.947-2.125,3.706-3.719,5.214
		c-0.171,0.082-0.352,0.266-0.525,0.438c-3.442,3.094-8.406,5.307-12.904,6.454c-7.423,1.856-15.293,0.621-22.811-0.883
		c-0.343-0.094-0.793-0.176-1.229-0.265c-2.302-0.532-4.603-1.06-6.896-1.681c-17.859-4.779-33.856-13.79-51.273-19.718
		c-17.848-6.005-36.938-9.272-56.209-7.42c-5.661,0.528-12.104,1.77-17.582,3.45c-5.309,1.591-10.703,3.27-15.467,5.915
		c-3.366,1.865-8.839,6.55-9.383,6.987c0.183,0,0.356,0,0.621-0.094c0.267-0.079,0.887-0.262,0.887-0.262
		c4.248-1.06,8.746-2.118,13.349-2.821c1.496-0.266,3.005-0.449,4.504-0.622c0,0,2.127-0.172,2.298-0.265
		c1.854-0.091,3.718-0.184,5.572-0.091c1.321,0.091,2.83,0.184,4.247,0.355c0.174,0.095,0.346,0.173,0.529,0.356
		c2.289,2.29,5.385,3.892,8.123,5.826c5.661,3.982,11.575,7.608,17.506,11.048c4.418,2.565,8.933,5.039,13.525,7.341
		c7.327,2.911,14.487,6.365,21.381,10.069c4.605,2.395,9.646,5.4,13.18,7.608c1.759,1.058,3.534,2.212,5.215,3.359
		c1.149,0.704,2.209,1.498,3.271,2.212c6.189,4.063,12.021,8.656,17.581,13.431c1.681,1.415,3.28,2.832,4.869,4.247
		c2.472,2.289,4.763,4.856,7.248,7.157c-0.181-0.182-0.275-1.151-0.354-1.413c-0.09-0.532-0.354-1.06-0.53-1.589
		c-0.446-1.15-0.884-2.303-1.324-3.362c-0.976-2.208-2.035-4.419-3.185-6.536c-2.305-4.249-4.951-8.308-7.779-12.199
		c-1.683-2.208-3.362-4.338-5.125-6.456c-1.242-1.497-2.656-2.911-3.983-4.418c-1.056-1.154-2.378-3.362-3.97-3.893h-0.183
		c-0.082,0-0.172,0-0.267-0.09c10.694-5.029,23.952-10.164,35.094-10.773c23.416-1.337,54.275,5.029,54.275,5.029
		S613.546,261.135,589.067,235.772z M484.494,282.532c-15.557-3.98-42.073-24.93-42.073-24.93s10.175-1.32,26.967,1.419
		c0.171,0.09,9.008,1.77,13.962,3.001c2.127,0.621,4.152,1.153,6.099,1.68c0,0,2.655,1.152,2.567,3.271
		c-0.175,2.035-1.51,3.266-3.364,3.266c-0.528,0-1.058-0.079-1.59-0.265c0,0.265-0.089,0.53-0.089,0.797
		c0,3.982,3.268,7.169,7.16,7.169c3.983,0,7.16-3.187,7.16-7.169c0-1.498-0.533-3.005-1.328-4.146
		c14.054,3.975,21.305,6.447,21.305,6.447S499.873,286.515,484.494,282.532z"/>
</g>
</svg>
