<?xml version="1.0" encoding="utf-8"?>
<!-- Generator: Adobe Illustrator 16.0.0, SVG Export Plug-In . SVG Version: 6.00 Build 0)  -->
<!DOCTYPE svg PUBLIC "-//W3C//DTD SVG 1.0//EN" "http://www.w3.org/TR/2001/REC-SVG-20010904/DTD/svg10.dtd">
<svg version="1.0" id="Layer_1" xmlns="http://www.w3.org/2000/svg" xmlns:xlink="http://www.w3.org/1999/xlink" x="0px" y="0px"
	 width="800px" height="800px" viewBox="0 0 800 800" enable-background="new 0 0 800 800" xml:space="preserve">
<g>
	<path fill-rule="evenodd" clip-rule="evenodd" fill="#FFFFFF" d="M739.366,384.792c-13.367-11.43-30.551-12.193-40.601-32.088
		c-7.638-15.157-24.545-20.906-40.108-23.338c-12.154-2.917-19.204-14.584-27.469-23.336c-10.7-18.476-32.332-18.719-51.294-20.906
		c-20.663,0.734-33.534-24.205-54.969-29.901c-7.93-2.105-29.283-0.542-43.103-10.642c-12.587-9.203-28.372-18.471-60.189-14.397
		c-23.825-3.887-40.84-24.308-65.151-27.474c-16.532-5.105-31.359,2.434-47.648,1.707c-11.423-3.165-20.912-11.184-32.57-13.621
		c-17.515-3.076-21.968,3.792-66.341-5.697c-20.879-4.494-46.99-11.181-33.576,32.324c5.889,19.072,19.608,66.509-25.045,71.107
		c-16.085,1.582-30.873-13.127-45.457-1.218c-4.944,3.568-14.331-4.518-20.421-2.671c-19.454,5.586-11.674,28.196-13.368,43.758
		c-0.484,17.501-12.404,30.385-18.232,45.706c-13.858,27.954-8.016,66.116,1.702,94.076c2.672,14.581-1.46,29.658,1.454,44.008
		c0.825,2.5,3.891,5.837,7.781,3.886c29.505-14.384,36.957,3.471,46.985-0.644c27.671-12.137,46.775-6.69,52.688,7.456
		c10.21,29.411-11.67,54.94-5.836,83.868c5.554,19.456,42.308,2.46,59.565,1.723c24.064-1.807,47.391,5.084,70.244,0.708
		c19.857-10.111,42.059-15.798,66.135-15.312c16.032,0.25,28.439-8.03,41.314-15.561c23.591-16.536,59.325-4.375,82.167-22.859
		c12.405-9.719,30.641-5.831,44.004-13.373c20.43-18.224,44.732-27.948,71.241-31.841c13.841-5.342,24.539-19.698,37.669-26.505
		c11.672-7.287,25.529-8.745,36.718-17.021c17.735-23.328,41.323-42.531,69.521-47.406
		C764.121,408.788,754.424,393.581,739.366,384.792L739.366,384.792z M566.506,488.677c-21.528,20.146-62.162,34.61-100.634,38.58
		c-46.242,4.737-92.134-1.95-128.845-26.019c-21.874-16.047-35.728-40.843-33.06-68.554c1.459-26.989,18.294-50.138,39.932-66.187
		c-1.67-1.821-3.035-3.341-5.05-5.559l-52.814,32.247c-0.026,2.787-0.051,6.524-0.051,9.201c5.5-0.033,6.863-0.033,13.315-0.096
		v29.666l-9.909,11.187l-97.396-0.078l-0.092-23.029l12.058-17.652c1.977-0.03,2.895-0.03,3.745-0.097V300.528l-15.803,0.061
		l0.058-20.631l13.164-14.616h94.042l0.099,21.904l-13.231,15.62l-0.026,39.445c50.903-28.685,91.038-51.321,91.038-51.321v-17.448
		l8.146-8.232l96.702,0.001c-0.031,10.026-0.031,12.61,0,22.271l-12.002,12.983l-28.569,0.025
		c-16.591,10.303-19.327,11.822-36.221,21.969c1.851,2.467,3.367,4.139,7.54,8.514c45.449-10.943,100.642-9.972,141.723,9.478
		l14.344-10.938c12.063-0.032,15.561-0.032,27.017-0.064c-0.062,21.764-0.062,33.153-0.033,67.89l-12.634,14.583l-24.418,0.094
		c-21.388-35.98-61.641-52.845-103.71-46.042c-2.656,0.732-5.337,0.975-7.769,2.195c15.099,16.462,17.068,18.449,31.787,34.156
		c2.911-0.065,3.822-0.065,6.291-0.065l-0.063,28.135l-9.752,12.615h-98.405v-23.854l6.338-11.017
		c-0.863-1.011-1.478-1.464-2.815-2.78c-8.745,6.569-12.635,17.255-10.688,27.96c4.623,24.296,28.93,37.2,50.32,42.301
		c35.488,7.78,76.574,4.603,107.933-9.491c28.058-16.322,30.03-31.06,31.126-32.326l37.231-0.003
		C595.664,451.734,584.869,471.49,566.506,488.677L566.506,488.677z"/>
	<path fill-rule="evenodd" clip-rule="evenodd" d="M710.919,337.874c-17.447-11.227-13.136-33.596-53.967-38.846
		c-21.3-3.044-21.822-33.968-69.771-43.083c-22.667-4.305-37.679-26.742-61.264-28.683c-21.387,0.484-43.021-0.242-59.065-13.375
		c-16.048-15.314-40.843-7.048-61.513-11.669c-16.819-5.908-25.228-17.211-42.737-22.314c-19.379-6.131-35.059,0.923-50.371-3.212
		c-19.688-2.182-34.757-16.768-56.397-13.366c-21.152,5.834-44.481,0.487-65.631-1.216c-12.651-1.457-50.154-9.64-43.522,26.986
		c4.135,17.263,8.025,34.521,12.399,51.538c8.241,27.246-0.537,29.293-13.375,30.39c-12.397,0.972-15.312-15.316-26.497-16.528
		c-9.039-1.439-22.479,8.291-33.305,11.91c-10.945,3.403-15.556-8.027-25.037-8.749c-20.125-0.196-21.153,26.496-17.505,30.869
		c6.811,13.367,8.272,31.603,3.165,46.433c-7.289,12.881-13.858,26.013-17.749,40.601c-7.782,36.459-5.345,78.519,7.78,111.826
		c4.375,18.473-11.672,39.869,4.858,53.966c15.079,9.969,26.958-4.544,41.091-7.779c10.366-2.373,27.612,4.861,36.193,0.071
		c19.962-9.891,31.527-1.481,29.199,11.834c-5.346,22.131-10.203,44.495-17.264,65.873c-4.22,15.708,14.958,29.808,24.809,28.21
		c13.361-2.416,26.735-4.865,39.867-7.29c30.631-4.619,58.825,11.428,87.756,0.732c19.449-9.484,38.876-19.109,63.699-15.807
		c16.773,2.188,29.657-5.592,42.294-13.376c15.561-9.235,44.678-13.099,54.065-12.873c17.265,0.718,28.101-11.68,43.178-16.283
		c11.476-3.826,31.506-3.991,35.728-7.056c10.462-8.508,23.703-21.201,33.179-22.637c27.717-5.349,51.182-17.717,73.06-37.409
		c2.975-3.012,26.159-7.562,33.066-10.202c14.337-5.605,24.059-19.699,31.596-32.339c7.546-10.218,18.481-16.774,29.91-20.174
		c19.688-3.17,39.377-20.061,47.881-37.685c7.762-16.031,4.531-18.777,2.447-21.389C754.195,367.534,732.56,351.243,710.919,337.874
		L710.919,337.874z M737.179,419.306c-28.198,4.871-51.789,24.071-69.524,47.403c-11.186,8.279-25.046,9.734-36.715,17.021
		c-13.133,6.807-23.828,21.163-37.672,26.508c-26.506,3.89-50.812,13.617-71.238,31.838c-13.366,7.545-31.602,3.654-44.004,13.376
		c-22.845,18.481-58.579,6.319-82.168,22.856c-12.875,7.533-25.279,15.811-41.314,15.561c-24.073-0.483-46.278,5.2-66.135,15.314
		c-22.852,4.376-46.18-2.515-70.242-0.708c-17.259,0.734-54.014,17.73-59.567-1.723c-5.836-28.928,16.048-54.46,5.836-83.871
		c-5.913-14.146-25.017-19.59-52.688-7.456c-10.029,4.113-17.48-13.74-46.985,0.643c-3.89,1.951-6.956-1.382-7.78-3.885
		c-2.913-14.35,1.218-29.428-1.455-44.005c-9.72-27.96-15.561-66.122-1.702-94.077c5.83-15.32,17.749-28.206,18.232-45.706
		c1.697-15.563-6.086-38.171,13.368-43.759c6.09-1.848,15.477,6.241,20.421,2.673c14.584-11.909,29.374,2.799,45.459,1.217
		c44.652-4.597,30.932-52.032,25.043-71.106c-13.417-43.505,12.696-36.817,33.575-32.327c44.373,9.489,48.826,2.624,66.341,5.698
		c11.658,2.437,21.147,10.458,32.57,13.621c16.287,0.726,31.115-6.811,47.648-1.707c24.311,3.166,41.324,23.587,65.151,27.475
		c31.817-4.075,47.603,5.194,60.189,14.397c13.819,10.102,35.173,8.536,43.103,10.642c21.435,5.694,34.306,30.633,54.969,29.899
		c18.962,2.189,40.594,2.431,51.294,20.906c8.265,8.754,15.314,20.421,27.469,23.338c15.563,2.434,32.471,8.18,40.108,23.337
		c10.047,19.896,27.233,20.661,40.601,32.089C754.424,393.581,764.121,408.788,737.179,419.306L737.179,419.306z"/>
	<path fill-rule="evenodd" clip-rule="evenodd" d="M528.105,466.226c-31.354,14.094-72.441,17.271-107.933,9.487
		c-21.388-5.103-45.695-18.004-50.318-42.301c-1.946-10.701,1.945-21.391,10.687-27.96c1.337,1.317,1.952,1.77,2.816,2.783
		l-6.34,11.015v23.855h98.405l9.752-12.614l0.065-28.138c-2.469,0-3.38,0-6.294,0.065c-14.716-15.706-16.688-17.694-31.783-34.155
		c2.428-1.218,5.108-1.459,7.768-2.196c42.066-6.805,82.319,10.062,103.707,46.041l24.418-0.091l12.634-14.587
		c-0.025-34.734-0.025-46.126,0.033-67.888c-11.453,0.032-14.954,0.032-27.017,0.063l-14.344,10.938
		c-41.081-19.448-96.273-20.422-141.723-9.479c-4.173-4.378-5.692-6.047-7.537-8.514c16.891-10.148,19.627-11.665,36.218-21.97
		l28.569-0.026l12.005-12.981c-0.034-9.661-0.034-12.245,0-22.271h-96.703l-8.147,8.233v17.447c0,0-40.135,22.636-91.036,51.322
		l0.026-39.445l13.229-15.62l-0.097-21.904l-94.043-0.001L191.96,279.95l-0.058,20.631l15.803-0.059v101.762
		c-0.852,0.063-1.77,0.063-3.747,0.097l-12.056,17.652l0.09,23.029l97.397,0.081l9.909-11.187v-29.666
		c-6.452,0.063-7.813,0.063-13.315,0.096c0-2.679,0.026-6.416,0.051-9.201l52.814-32.247c2.015,2.216,3.38,3.737,5.05,5.559
		c-21.638,16.049-38.471,39.198-39.932,66.187c-2.665,27.711,11.186,52.507,33.06,68.554c36.711,24.068,82.6,30.756,128.845,26.019
		c38.472-3.97,79.105-18.435,100.634-38.58c18.363-17.187,29.158-36.938,29.957-54.777h-37.231
		C558.136,435.166,556.166,449.902,528.105,466.226L528.105,466.226z M535.159,339.086c0,0,15.229,5.227,20.239,8.051l14.278-11.453
		c8.354-0.032,12.009-0.032,19.699-0.032v60.345c-7.847-0.029-9.979-0.029-19.937-0.029
		c-30.625-38.166-82.111-45.732-129.368-35.277l-22.395-24.097C454.203,325.478,500.636,326.204,535.159,339.086L535.159,339.086z
		 M279.354,390.444c-0.027,7.665-0.027,10.399-0.058,19.39l13.89-0.053l-0.099,17.604c-39.289,0.028-42.931,0.028-83.74,0.1
		l-0.034-17.683c7.255,0,9.537,0,15.405,0V285.36h-15.405v-14.282c39.008,0,47.823,0,83.772-0.027
		c0.064,6.261,0.064,7.171,0.097,14.372c-5.35-0.063-5.35-0.063-13.924-0.096l0.092,67.979l121.797-67.948c0,0-8.937,0-13.248-0.058
		c0.052-5.868,0.052-7.541,0.033-14.192l87.545-0.088l0.025,14.34l-21.307,0.001c-24.159,14.591-59.735,36.134-59.735,36.134
		l82.312,88.306l2.229-0.019c0,6.547-0.04,10.661,0,17.701l-87.973-0.068l-0.033-17.633l12.792-0.035
		c-35.424-38.843-55.821-60.964-55.821-60.964C325.606,362.153,319.135,366.043,279.354,390.444L279.354,390.444z M589.376,441.218
		c-12.403,46.984-63.308,67.801-107.212,73.877c-41.105,5.687-83.137,0.484-118.388-14.59c-24.561-9.478-46.083-33.324-48.14-60.29
		c-2.121-27.841,10.57-53.106,33.43-68.184l26.374,27.829c-8.508,9.727-13.616,21.397-11.181,34.773
		c4.126,25.766,31.845,43.515,55.184,48.38c42.054,6.804,88.976,4.122,123.983-16.787c17.289-12.365,24.277-25.032,24.277-25.032
		C577.135,441.258,580.156,441.258,589.376,441.218L589.376,441.218z"/>
	<path fill-rule="evenodd" clip-rule="evenodd" fill="#DA0C0F" d="M403.792,409.749l-12.791,0.032l0.033,17.633l87.971,0.071
		c-0.037-7.043,0-11.154,0-17.704l-2.225,0.019l-82.314-88.306c0,0,35.575-21.543,59.737-36.132l21.307-0.001l-0.028-14.34
		l-87.543,0.088c0.019,6.652,0.019,8.325-0.033,14.192c4.308,0.058,13.25,0.058,13.25,0.058L279.354,353.31l-0.092-67.979
		c8.573,0.032,8.573,0.032,13.924,0.095c-0.033-7.203-0.033-8.111-0.099-14.371c-35.95,0.025-44.763,0.025-83.772,0.025v14.285
		l15.405-0.002v124.439c-5.868,0-8.146,0-15.405,0l0.035,17.68c40.808-0.068,44.449-0.068,83.741-0.097l0.097-17.604l-13.89,0.053
		c0.032-8.994,0.032-11.725,0.058-19.392c39.781-24.399,46.251-28.29,68.618-41.659
		C347.974,348.785,368.369,370.904,403.792,409.749L403.792,409.749z"/>
	<path fill-rule="evenodd" clip-rule="evenodd" fill="#DA0C0F" d="M569.439,395.971c9.962,0,12.09,0,19.937,0.028v-60.345
		c-7.69,0-11.346,0-19.699,0.034l-14.278,11.452c-5.01-2.826-20.236-8.051-20.236-8.051c-34.523-12.882-80.959-13.608-117.482-2.493
		l22.396,24.101C487.328,350.241,538.814,357.806,569.439,395.971L569.439,395.971z"/>
	<path fill-rule="evenodd" clip-rule="evenodd" fill="#DA0C0F" d="M543.427,466.226c-35.008,20.912-81.927,23.587-123.983,16.784
		c-23.339-4.866-51.058-22.618-55.184-48.38c-2.438-13.373,2.672-25.046,11.181-34.773l-26.374-27.827
		c-22.859,15.079-35.55,40.344-33.43,68.185c2.057,26.966,23.579,50.81,48.14,60.287c35.249,15.077,77.283,20.276,118.388,14.593
		c43.907-6.079,94.809-26.893,107.212-73.877c-9.223,0.04-12.241,0.04-21.672-0.028C567.704,441.193,560.716,453.86,543.427,466.226
		L543.427,466.226z"/>
</g>
</svg>
