<?xml version="1.0" encoding="utf-8"?>
<!-- Generator: Adobe Illustrator 16.0.0, SVG Export Plug-In . SVG Version: 6.00 Build 0)  -->
<svg version="1.2" baseProfile="tiny" id="Layer_1" xmlns="http://www.w3.org/2000/svg" xmlns:xlink="http://www.w3.org/1999/xlink"
	 x="0px" y="0px"   viewBox="0 0 800 800" xml:space="preserve">
<g>
	<path fill-rule="evenodd" d="M645.27,447.182c1.473-7.95,5.89-16.778,2.06-25.311c4.219-2.332,8.962-4.732,13.531-7.06
		c0.338-5.348-1.5-21.072-19.115-32.35c0,0,7.803-2.708,4.109-18.534c-21.471,1.762-15.882-22.356-21.767-34.415
		c18.075-10.325,22.517-31.337,17.065-44.712c-5.408,9.521-12.653,17.648-22.65,19.12
		c-49.212-127.591-174.688-159.628-249.157-155.542c0,0-2.324,18.477-6.443,25.834c-54.112-14.12-52.641-73.235-78.228-110.297
		c-6.046-8.423-22.226-28.936-40.698-32.355c-3.613-0.507-4.895,2.056-4.604,3.527c38.239,25.891,42.216,69.75,45.886,112.066
		c3.093,35.621,25.503,55.833,48.747,73.213c-1.279,1.203-3.261,5.079-4.335,7.379c-29.999,8.533-66.134,3.582-91.129-13.186
		c-50.596-33.166-38.101-96.348-52.114-146.23c-4.145-12.969-10.772-30.692-24.064-37.624c-4.194-2.297-8.207,0.16-6.228,2.915
		c9.703,13.824,16.767,29.122,17.642,46.475c0.296,44.734-10.622,92.197,6.59,134.203c25.568,56.991,72.789,98.122,130.187,110.221
		c-1.863,20.165,0.106,37.5,3.529,56.473c-61.607,33.36-109.344,68.343-188.404,190.645c-2.433,4.949-0.081,9.646,6.556,3.476
		c77.513-72.025,205.309-107.697,285.535,12.272c38.58,60.831,35.224,103.66,32.789,143.621c-0.021,13.885-8.439,33.217,4.09,38.551
		c13.433,5.786,26.825-28.225,26.85-32.956c2.928-2.953,4.343-9.012,4.55-13.427c2.794-2.104,4.269-11.787,3.622-16.996
		c8.069-9.543,15.227-33.409,6.306-47.311c3.001-8.015,3.356-28.791-1.627-39.965c2.77-12.16,5.614-39.715-4.378-52.318
		c14.468-16.3,33.347-29.57,52.259-37.619c4.697,35.579,11.731,80.946-19.449,105.355c-2.081,1.396-1.736,3.796,2.089,2.741
		c50.159-16.799,60.787-112.301,64.257-124.194c16.685-8.686,64.207-21.521,78.452-26.741c14.925-5.674,4.599-25.799-1.229-32.937
		C663.433,449.479,655.01,447.655,645.27,447.182L645.27,447.182z M637.52,367.543l0.706,5.504
		c-10.298,2.516-25.672,12.537-29.018,5.777c-2.969-5.959,10.484-6.953,12.84-9.893c1.281-1.659,0.157-4.414-2.942-5
		c-7.355,0.106-11.427,0.266-14.414,1.151c-6.255,5.212-5.771,18.05-2.997,22.218c-13.568,6.188-27.001,19.862-34.656,28.099
		c-3.52-17.647,9.415-30.285,22.363-39.411c2.943-2.81,1.179-20.586-1.178-29.711c-2.435-1.042-6.575,0.03-6.931-2.056
		c-0.034-1.994,16.143-2.373,22.876-2.667c-1.749-11.154,11.648-13.03,15.715-6.585C624.871,345.85,621.347,365.775,637.52,367.543
		L637.52,367.543z M636.746,300.397c-0.882,8.53-6.473,16.177-14.116,20.586c-21.478,9.41-50.002-4.414-69.709,9.119
		c0.286-7.352,4.058-17.594,15.222-18.356C596.332,310.565,616.414,319.753,636.746,300.397L636.746,300.397z M607.039,303.926
		c-38.537-2.061-80.726,3.795-115.723,14.383c-5.299,54.162-69.209,74.489-106.639,32.974c0,0-14.176,3.125-57.06,22.645
		c-5.296-7.062-9.782-24.33-1.607-28.185c11.113-6.026,19.574-11.049,31.105-13.768c9.642-2.203,25.1,2.714,32.624,4.79
		c42.526,25.597,85.932,26.242,96.811-49.548c0,0,54.955-13.558,107.095-10.061C593.641,277.158,601.769,288.394,607.039,303.926
		L607.039,303.926z M322.612,336.576v-9.415l16.18,2.356C333.791,331.012,328.199,333.821,322.612,336.576L322.612,336.576z
		 M376.436,155.682c164.345,4.2,211.778,112.946,211.778,112.946c-31.507-2.645-71.985,3.179-103.827,9.999
		c-17.006-43.174-42.751-60.909-141.183-52.355C356.707,201.651,373.044,185.471,376.436,155.682L376.436,155.682z M307.906,181.858
		c-8.377-15.672-14.073-35.436-16.251-54.852c0.128-0.745,0.614-0.796,0.941-0.512c1.952,10.509,3.741,19.068,8.249,26.546
		c0.873,0.862,2.408,0.517,2.061-1.051c-3.401-9.727-6.94-21.094-8.708-33.742c0.404-0.549,0.811-1.262,1.213-0.229
		c3.103,7.965,7.968,21.616,11.611,25.602c0.524,0.692,2.354,0.522,2.184-0.87c-1.461-4.251-4.66-12.55-5.691-16.712
		c-0.596-1.383,0.564-0.859,1.021-0.478c9.062,24.921,22.785,38.06,40.138,48.657c6.257,4.274,4.155,21.74-10.001,24.695
		C322.612,200.981,313.493,190.979,307.906,181.858L307.906,181.858z M325.37,296.971c-3.48-4.463-18.967,7.675-20.988,5.487
		c-1.254-1.008,6.975-4.144,4.999-5.588c-5.299-3.532-14.314,3.53-15.592,2.059c-0.909-1.413,3.343-2.059,2.058-4.119
		c-3.733-3.805-17.091,3.68-18.238,1.471c-0.823-1.597,9.792-3.553,7.65-6.472c-3.502-3.383-14.413,3.862-30.319-3.381
		c-59.089-31.096-74.75-93.129-76.555-118.943c0.173-0.87,0.221-1.106,0.75-0.409c4.653,22.645,13.592,54.021,34.063,69.792
		c1.042,0.692,2.164-0.779,1.471-1.471c-21.768-17.126-30.002-55.781-31.084-89.121c-0.076-1.274,0.335-1.393,0.787-0.293
		c1.471,25.279,8.532,55.59,28.823,74.704c0.87,0.699,2.344-0.424,1.472-1.47c-19.65-23.559-25.341-53.469-25.235-82.318
		c0.183-1.154,0.939-0.765,0.875-0.4c1.178,34.416,16.711,63.601,44.951,85.662c52.64,39.583,140.54-2.258,190.481,14.58
		c74.583,21.896,51.288,87.52,28.939,98.956c-5.092-5.326-8.503,2.041-10.583,0.882c-2.258-1.427,2.578-3.652-0.365-5.421
		c-2.779-1.159-6.206,3.048-8.759,1.892c-1.474-0.653,2.573-3.573,0.547-4.877c-4.421-2.938-9.749,6.29-12.012,4.877
		c-1.789-1.175,7.561-5.742,3.84-8.865c-4.87-3.663-11.455,6.103-13.55,4.448c-3.224-2.307,13.456-9.666,7.058-12.648
		c-3.52-1.787-14.648,9.824-17.052,7.65c-1.893-1.737,13.636-8.135,9.22-11.3c-3.668-2.048-22.593,11.413-25.392,9.245
		c-2.09-1.625,16.732-10.768,12.328-14.251c-5.479-3.726-23.591,15.524-27.042,12.19c-2.618-2.157,15.445-9.267,11.056-13.654
		c-4.209-4.091-22.561,14.294-27.527,10.714c-2.31-1.523,18.482-9.777,12.958-13.933c-5.427-3.125-27.157,14.634-29.134,11.875
		c-1.725-2.285,18.332-9.715,15.586-13.237c-5.56-5.328-25.688,12.259-28.234,9.708c-2.418-2.38,15.84-8.503,12.498-11.095
		c-5.562-3.941-24.174,10.58-26.025,7.571C312.372,304.745,329.567,302.477,325.37,296.971L325.37,296.971z M189.07,523.145
		c-15.793,10.677-28.143,19.643-43.522,34.913c-1.395,1.045-2.058-0.7-0.668-2.445c93.609-139.706,205.224-184.507,232.375-191.416
		c5.306-1.038,4.783,1.9,2.657,3.266c-51.258,19.758-136.451,70.561-172.893,132.067C201.477,508.88,197.028,517.747,189.07,523.145
		L189.07,523.145z M259.645,501.955c-19.616,5.624-36.045,9.927-53.094,16.01c-1.533,0.655-4.089,0.324-3.143-1.667
		c40.082-72.364,113.829-115.786,184.717-146.671c2.085-1.047,3.605,1.365,1.875,2.061
		c-52.522,25.537-90.504,76.466-122.097,124.263C267.112,497.153,262.509,501.111,259.645,501.955L259.645,501.955z
		 M278.575,500.219c-2.777-1.055-2.539-3.962-1.846-5.692c33.826-41.46,60.247-94.147,111.719-115.325
		c4.067-1.149,9.457-4.057,13.781-2.302c10.009,4.165,26.916,10.481,47.93,4.87c41.597-12.917,46.876-53.137,46.876-53.137
		c10.296-2.644,20.594-5.873,31.768-7.055c-12.057,69.707-109.126,98.534-112.946,171.48c-28.818,5.658-64.761-16.902-70.242-50.593
		c-7.227,14.31-16.764,31.255-33.59,45.881C302.425,495.936,288.333,503.32,278.575,500.219L278.575,500.219z M467.326,587.18
		c-6.309-5.142-12.056-11.189-19.712-13.531c-0.882-27.065,17.731-57.784,23.907-67.224c2.381-3.751,4.865-1.291,6.23,3.643
		C491.307,551.29,470.668,568.532,467.326,587.18L467.326,587.18z M484.973,571.589c6.685,4.199,3.209,38.117-4.115,55.585
		c-5.161-7.423-11.322-13.663-14.605-17.034C470.777,599.019,481.853,570.193,484.973,571.589L484.973,571.589z M473.799,436.584
		c-1.075,0.508-4.096-3.475-5.698-2.651c-1.854,1.123,4.812,10.598,4.812,10.598c0.241,56.246-29.624,68.017-29.413,102.349
		c-6.022-4.757-13.88-11.629-21.535-14.571c-13.55-53.11,51.924-123.391,55.601-120.32
		C479.142,413.664,475.135,435.406,473.799,436.584L473.799,436.584z M308.867,499.259c15.591-9.701,27.305-26.573,33.452-39.153
		c1.767,4.422,4.471,9.316,6.154,13.566c-7.946,9.734-19.576,23.097-31.272,27.41C312.949,501.827,306.107,501.955,308.867,499.259
		L308.867,499.259z M385.989,536.527c-18.241-15.581-37.785-25.542-59.848-32.01c8.53-6.205,20-16.744,26.764-25.583
		c1.121,1.041,2.757,2.85,3.64,3.747c-0.883,22.349,10.427,39.749,30.131,50.05C389.812,534.117,387.726,538.268,385.989,536.527
		L385.989,536.527z M364.379,489.509c15.697,10.573,32.353,15.319,49.999,14.142v25.572
		C365.301,523.45,364.379,489.509,364.379,489.509L364.379,489.509z M415.161,565.782c-5.21-3.125-26.069-22.654-18.43-28.905
		c8.183-8.478,44.416,15.592,44.416,15.592c-0.295,5.885-1.764,11.465-1.178,17.646C439.97,570.115,420.712,569.611,415.161,565.782
		L415.161,565.782z M430.556,592.76c-2.647-4.993-7.861-11.042-4.895-14.892c4.825-4.357,26.849,3.15,38.131,15.487
		c-1.197,5.521-2.774,9.409-4.115,14.999C448.497,606.585,436.44,604.524,430.556,592.76L430.556,592.76z M449.676,630.709
		c-2.322-4.2-5.797-13.664-2.062-16.765c4.609-2.538,24.016,6.891,30.492,18.652c1.04,2.789-4.278,12.845-6.363,13.19
		C469.786,646.772,452.969,638.363,449.676,630.709L449.676,630.709z M479.97,671.014c0,4.106-3.396,9.474-5.052,9.297
		c-2.056,0.597-17.942-8.616-19.12-17.76c-0.883-4.698-1.415-13.26,0.941-14.19C461.116,647.128,476.441,661.298,479.97,671.014
		L479.97,671.014z M456.147,764.243c-4.87-2.809-2.001-13.723,1.474-19.712c2.938,2.062,5.344,5.557,8.094,8.444
		C464.655,755.766,460.934,766.166,456.147,764.243L456.147,764.243z M468.524,747.263c-4.11-4.338-5.609-8.029-10.898-11.253
		c-1.75-1.734-0.217-5.945,1.174-5.585c4.16,1.938,10.444,8.651,12.046,14.581C471.25,746.479,470.038,748.292,468.524,747.263
		L468.524,747.263z M472.995,736.676c-3.874-5.029-9.089-10.263-13.959-14.389c-2.272-1.336,0.217-5.535,2.73-4.935
		c5.915,2.051,10.661,10.277,13.314,16.754C475.431,736.187,473.686,737.365,472.995,736.676L472.995,736.676z M476.954,725.394
		c-2.012-4.896-12.334-15.173-18.076-20.245c-3.13-2.435,2.238-7.641,4.328-5.914C472.029,706.005,482.646,720.808,476.954,725.394
		L476.954,725.394z M480.403,713.198c-4.115-9.706-11.312-18.657-20.13-24.543c-3.13-1.735-2.785-9.232,0-8.528
		c10.287,3.524,20.638,16.149,22.989,26.436C484.303,710.373,482.139,716.322,480.403,713.198L480.403,713.198z M492.382,667.573
		c3.396,2.489,0.773,20.786-5.349,29.013l-7.649-10.572C483.504,679.527,490.001,666.101,492.382,667.573L492.382,667.573z
		 M483.504,666.011c-1.396-6.126-5.106-9.434-6.896-15.093c1.385-2.07,11.283-23.562,13.362-22.871
		C493.579,629.886,489.843,655.862,483.504,666.011L483.504,666.011z M489.384,557.462c5.586-23.231-3.528-43.825-12.056-62.936
		c3.051-15.083,3.688-27.668,5.584-42.785c1.124-3.214,5.107-3.85,6.472-1.641c4.092,33.655,17.894,45.461,47.947,43.834
		l2.055,22.645C520.275,524.524,504.093,540.998,489.384,557.462L489.384,557.462z M537.754,483.51
		c-27.8,8.33-43.746-8.705-41.311-46.926c-3.317-5.323-12.353,6.759-13.531,2.928c-0.266-40.247,17.352-42.217,24.04-51.918
		c6.526,0.86,13.797,3.282,17.297,8.02c10.774,16.819,8.084,37.141,14.546,55.971c1.577,3.361,4.707,0,4.707,0
		c-7.063-25.893,0.586-62.657-30.887-73.537c12.648-17.355,17.592-36.258,22.892-56.557c2.056-2.351,6.526-2.859,8.877-1.977
		c-0.882,7.938-4.115,15-2.942,24.119c0.695,5.43,11.041-6.553,17.06-9.415c8.449-4.355,22.137-3.286,33.908-1.519
		c2.43,0.345,2.084,2.753-0.351,3.098c-11.466,1.175-29.087,3.45-30.023,8.426c-0.059,3.692,13.229,7.352,21.176,7.648
		c1.148,4.253,2.327,9.656,1.632,14.659c-14.714,7.058-33.396,25.708-22.892,56.449C550.481,440.315,542.915,462.156,537.754,483.51
		L537.754,483.51z M588.214,493.053c-12.707,38.517-18.465,89.71-34.8,111.955c-0.311,0.434-1.192,0.409-0.828-0.508
		c19.293-38.457,15.764-72.966,27.101-109.974c0.611-1.396-0.946-3.219-2.169-1.134c-12.895,16.995-15.132,84.49-25.996,105.302
		c-0.37,0.788-1.577,0.96-1.178-0.637c12.919-48.838,2.755-95.788,22.865-133.239c0.774-1.346-1.537-3.476-3.529-1.178
		c-8.822,15.886-19.14,48.414-16.28,86.994c0.162,2.129-1.577,2.454-1.873,0.079c-5.584-45.013-10.025-89.962,21.688-128.843
		c13.358-16.37,33.375-31.545,46.739-35.027c31.521-6.654,35.913,22.971,35.913,22.971
		C618.805,420.407,598.969,460.451,588.214,493.053L588.214,493.053z M598.62,496.231c-1.879-1.119-1.691-4.924,0.097-5.594
		c10.939-3.007,42.036-10.135,43.62-6.709C642.917,484.875,600.891,497.435,598.62,496.231L598.62,496.231z M666.454,476.875
		c-23.241-1.179-45.58,1.232-65.598,5.584c3.806-22.86,34.248-57.532,40.307-54.185c5.743,3.179-6.714,19.405,0.32,24.329
		c5.348,3.116,11.584,1.045,16.044,2.696C667.382,459.81,669.737,475.889,666.454,476.875L666.454,476.875z"/>
	<path fill-rule="evenodd" fill="#2F0C67" d="M486.551,287.216c-10.879,75.79-54.285,75.147-96.811,49.55
		c-7.527-2.071-22.982-6.99-32.626-4.79c-11.529,2.714-19.989,7.737-31.105,13.768c-8.177,3.857-3.687,21.126,1.609,28.183
		c42.881-19.517,57.06-22.645,57.06-22.645c37.435,41.518,101.34,21.186,106.634-32.971c35.002-10.588,77.19-16.443,115.728-14.385
		c-5.271-15.537-13.398-26.769-13.398-26.769C541.501,273.661,486.551,287.216,486.551,287.216L486.551,287.216z"/>
	<path fill-rule="evenodd" fill="#FFFFFF" d="M672.807,447.911c-3.114-3.963-8.772-6.63-17.118-8.045
		c1.04-4.17,1.883-8.808,1.336-13.702c2.426-1.262,7.621-3.914,7.621-3.914c2.632-1.336,4.357-3.963,4.55-6.901
		c0.602-9.508-3.373-23.339-15.7-34.382c1.746-4.274,2.494-10.364,0.492-18.929c-0.936-4.027-4.682-6.76-8.798-6.42
		c-6.097,0.498-7.477-0.589-9.601-14.277c-0.445-2.814-0.893-5.676-1.564-8.458c17.085-13.348,21.093-33.886,14.856-51.224
		c-2.681-7.446-12.006-5.829-14.969-0.966c-3.589,5.869-6.975,10.188-10.702,12.633c-23.067-54.689-63.058-97.466-116.075-124.007
		c-42.144-21.109-92.529-31.769-138.23-29.262c-4.024,0.217-7.317,3.288-7.82,7.285c-0.582,4.631-1.78,11.315-3.185,16.496
		c-26.664-10.33-36.123-35.32-46.07-61.682c-5.569-14.743-11.321-29.991-20.29-42.979c-8.488-11.835-25.629-32.04-46.041-35.815
		c-16.335-1.39-16.703,15.157-10.797,18.632c35.137,23.776,38.752,65.521,42.255,105.883c3.071,35.411,23.475,56.714,44.438,73.318
		c-26.541,5.676-57.24,0.5-78.21-13.568c-0.022-0.007-0.042-0.017-0.06-0.034c-0.004-0.003-0.006-0.003-0.006-0.003
		c-32.338-21.2-37.142-55.47-40.602-93.481c-2.245-24.685-8.113-48.229-8.143-48.323c-5.265-16.475-12.719-34.393-28.088-42.445
		c-5.832-3.149-12.562-2.318-16.406,2.019c-3.283,3.705-3.53,9.006-0.52,13.124c16.327,22.326,17.343,42.304,15.925,64.392
		c-6.922,60.422-3.623,91.091,11.138,123.805c34.444,66.356,86.447,94.802,125.317,104.326c-0.854,16.87,0.821,31.795,3.105,45.521
		c-55.731,30.62-105.971,66.504-186.176,190.575c-6.6,8.695,1.519,28.377,19.239,14.112
		c49.032-45.545,109.747-69.062,162.424-62.916c44.024,5.151,81.193,29.925,110.447,73.638
		c36.412,57.453,34.623,103.283,30.137,150.585c-1.143,12.065-4.461,28.357,10.466,34.721c5.283,2.263,11.164,1.592,16.517-1.898
		c10.903-7.146,19.175-26.064,21.362-35.076c3.229-4.515,4.427-10.247,4.881-13.914c3.224-5.151,3.963-12.737,3.973-17.493
		c8.597-12.343,14.334-34.938,6.807-50.968c2.49-10.642,2.229-28.077-1.902-39.749c1.543-8.147,5.357-33.409-2.672-50.444
		c10.12-10.415,22.216-19.45,35.101-26.267c2.588,31.768,8.563,63.629-17.809,86.328c-6.605,5.205-6.107,21.393,9.878,17.232
		c48.557-15.705,64.029-97.094,68.845-126.339c11.929-5.333,69.22-22.91,74.075-24.685c8.208-3.131,11.282-8.938,12.441-13.25
		C686.146,468.53,677.722,453.925,672.807,447.911L672.807,447.911z M667.573,486.122c-14.24,5.22-61.768,18.061-78.452,26.741
		c-3.471,11.898-14.098,107.396-64.257,124.199c-3.825,1.05-4.17-1.351-2.089-2.746c31.186-24.409,24.146-69.767,19.449-105.355
		c-18.912,8.049-37.791,21.319-52.259,37.624c9.997,12.599,7.152,40.158,4.378,52.313c4.983,11.175,4.633,31.95,1.627,39.965
		c8.926,13.9,1.769,37.767-6.306,47.315c0.646,5.206-0.823,14.887-3.623,16.991c-0.201,4.415-1.616,10.474-4.549,13.427
		c-0.024,4.73-13.417,38.742-26.85,32.961c-12.529-5.339-4.11-24.676-4.091-38.551c2.436-39.966,5.792-82.795-32.783-143.621
		c-80.231-119.975-208.025-84.303-285.538-12.272c-6.637,6.171-8.989,1.474-6.559-3.476
		c79.061-122.307,126.797-157.289,188.404-190.647c-3.424-18.975-5.388-36.308-3.529-56.473
		c-57.4-12.099-104.616-53.235-130.187-110.221c-17.212-42.006-6.299-89.471-6.587-134.203c-0.875-17.353-7.938-32.65-17.644-46.477
		c-1.979-2.755,2.033-5.21,6.228-2.913c13.292,6.932,19.919,24.658,24.066,37.624c14.006,49.882,1.514,113.069,52.111,146.23
		c24.996,16.767,61.131,21.718,91.13,13.183c1.072-2.297,3.056-6.174,4.335-7.376c-23.244-17.38-45.653-37.592-48.747-73.213
		c-3.667-42.316-7.65-86.176-45.886-112.066c-0.292-1.471,0.994-4.034,4.604-3.529c18.475,3.424,34.652,23.934,40.697,32.357
		c25.592,37.065,24.121,96.175,78.235,110.3c4.121-7.354,6.445-25.832,6.445-25.832c74.465-4.088,199.945,27.954,249.152,155.542
		c10.002-1.471,17.248-9.6,22.65-19.12c5.451,13.375,1.015,34.388-17.061,44.709c5.88,12.062,0.296,36.18,21.767,34.415
		c3.693,15.828-4.114,18.534-4.114,18.534c17.615,11.278,19.46,27.002,19.115,32.35c-4.569,2.332-9.303,4.732-13.526,7.06
		c3.825,8.527-0.592,17.36-2.06,25.311c9.735,0.474,18.158,2.297,21.07,6.015C672.172,460.323,682.498,480.448,667.573,486.122
		L667.573,486.122z"/>
	<path fill-rule="evenodd" fill="#FFFFFF" d="M344.675,174.218c-17.354-10.597-31.076-23.736-40.138-48.657
		c-0.454-0.38-1.617-0.9-1.019,0.478c1.026,4.163,4.227,12.461,5.688,16.712c0.173,1.393-1.656,1.562-2.184,0.87
		c-3.638-3.985-8.505-17.636-11.611-25.602c-0.402-1.033-0.809-0.321-1.213,0.229c1.77,12.648,5.307,24.013,8.708,33.742
		c0.347,1.568-1.19,1.913-2.061,1.051c-4.506-7.478-6.299-16.032-8.249-26.546c-0.328-0.284-0.813-0.23-0.941,0.512
		c2.181,19.411,7.875,39.179,16.252,54.852c5.586,9.121,14.708,19.123,26.767,17.055
		C348.833,195.958,350.935,178.492,344.675,174.218L344.675,174.218z"/>
	<path fill-rule="evenodd" fill="#FFFFFF" d="M340.111,299.887c3.342,2.592-14.914,8.714-12.498,11.095
		c2.548,2.551,22.674-15.036,28.234-9.708c2.745,3.522-17.312,10.958-15.586,13.24c1.977,2.758,23.707-15.002,29.134-11.877
		c5.523,4.16-15.271,12.409-12.959,13.933c4.967,3.581,23.317-14.802,27.527-10.714c4.389,4.387-13.676,11.495-11.056,13.654
		c3.448,3.332,21.565-15.918,27.041-12.19c4.405,3.483-14.42,12.626-12.33,14.25c2.802,2.169,21.728-11.291,25.395-9.245
		c4.417,3.165-11.117,9.563-9.22,11.3c2.407,2.176,13.532-9.437,17.052-7.65c6.398,2.982-10.286,10.338-7.058,12.648
		c2.094,1.654,8.675-8.108,13.55-4.449c3.721,3.123-5.629,7.69-3.84,8.865c2.263,1.417,7.596-7.813,12.012-4.877
		c2.026,1.301-2.016,4.224-0.547,4.877c2.554,1.161,5.984-3.051,8.759-1.892c2.943,1.764-1.893,3.992,0.365,5.421
		c2.08,1.159,5.491-6.213,10.583-0.882c22.349-11.436,45.644-77.06-28.939-98.956c-49.941-16.838-137.843,25.006-190.481-14.58
		c-28.233-22.059-43.773-51.246-44.951-85.661c0.063-0.363-0.693-0.75-0.875,0.402c-0.106,28.85,5.585,58.76,25.235,82.316
		c0.872,1.045-0.602,2.169-1.471,1.47c-20.291-19.115-27.354-49.427-28.823-74.704c-0.451-1.097-0.863-0.981-0.786,0.293
		c1.082,33.34,9.31,71.995,31.083,89.121c0.698,0.693-0.429,2.164-1.471,1.472c-20.471-15.77-29.41-47.145-34.063-69.791
		c-0.527-0.695-0.577-0.461-0.752,0.409c1.807,25.813,17.464,87.846,76.557,118.942c15.909,7.241,26.817-0.002,30.319,3.381
		c2.142,2.918-8.473,4.877-7.65,6.474c1.146,2.206,14.501-5.278,18.237-1.474c1.28,2.061-2.972,2.706-2.058,4.121
		c1.277,1.469,10.292-5.592,15.589-2.061c1.977,1.447-6.248,4.577-4.996,5.587c2.026,2.19,17.508-9.945,20.986-5.486
		c4.2,5.505-12.996,7.776-11.283,10.486C315.936,310.467,334.551,295.951,340.111,299.887L340.111,299.887z"/>
	<path fill-rule="evenodd" fill="#F3CC9E" d="M584.848,366.523c0.695-5-0.483-10.403-1.632-14.657
		c-7.951-0.293-21.234-3.953-21.181-7.647c0.941-4.972,18.558-7.251,30.023-8.43c2.435-0.344,2.78-2.752,0.355-3.095
		c-11.771-1.77-25.459-2.839-33.908,1.519c-6.019,2.861-16.364,14.842-17.064,9.415c-1.173-9.119,2.061-16.18,2.947-24.119
		c-2.355-0.882-6.821-0.375-8.877,1.974c-5.3,20.301-10.248,39.204-22.891,56.557c31.472,10.882,23.817,47.646,30.886,73.539
		c0,0-3.13,3.361-4.707,0c-6.467-18.83-3.771-39.147-14.551-55.976c-3.5-4.732-10.771-7.16-17.292-8.015
		c-6.684,9.695-24.306,11.667-24.045,51.918c1.179,3.83,10.214-8.251,13.531-2.928c-2.436,38.216,13.511,55.256,41.311,46.926
		c5.166-21.354,12.728-43.189,24.202-60.535C551.452,392.231,570.129,373.585,584.848,366.523L584.848,366.523z"/>
	<path fill-rule="evenodd" fill="#F3CC9E" d="M604.159,341.557c-6.733,0.293-22.91,0.67-22.876,2.667
		c0.351,2.085,4.496,1.019,6.931,2.056c2.356,9.122,4.12,26.899,1.178,29.711c-12.948,9.126-25.883,21.767-22.363,39.413
		c7.655-8.236,21.087-21.913,34.656-28.101c-2.774-4.167-3.259-17.005,2.997-22.218c2.992-0.885,7.059-1.045,14.414-1.151
		c3.104,0.592,4.224,3.344,2.942,5c-2.355,2.938-15.803,3.934-12.84,9.893c3.346,6.76,18.72-3.258,29.018-5.776l-0.706-5.504
		c-16.173-1.765-12.644-21.688-17.646-32.571C615.808,328.525,602.41,330.398,604.159,341.557L604.159,341.557z"/>
	<path fill-rule="evenodd" fill="#F3CC9E" d="M657.522,455.295c-4.46-1.651-10.696,0.425-16.044-2.696
		c-7.034-4.924,5.422-21.146-0.32-24.329c-6.059-3.348-36.501,31.324-40.306,54.185c20.021-4.347,42.355-6.762,65.597-5.584
		C669.737,475.889,667.382,459.81,657.522,455.295L657.522,455.295z"/>
	<path fill-rule="evenodd" fill="#F3CC9E" d="M489.384,450.101c-1.364-2.209-5.348-1.578-6.472,1.641
		c-1.896,15.117-2.533,27.702-5.584,42.785c8.527,19.11,17.642,39.699,12.056,62.936c14.709-16.464,30.892-32.938,50.002-40.883
		l-2.055-22.64C507.277,495.566,493.476,483.756,489.384,450.101L489.384,450.101z"/>
	<path fill-rule="evenodd" fill="#F3CC9E" d="M598.717,490.643c-1.788,0.665-1.976,4.47-0.097,5.594
		c2.271,1.203,44.297-11.356,43.717-12.308C640.753,480.508,609.656,487.631,598.717,490.643L598.717,490.643z"/>
	<path fill-rule="evenodd" fill="#F5BE12" d="M322.612,327.162v9.415c5.587-2.755,11.179-5.564,16.18-7.058L322.612,327.162
		L322.612,327.162z"/>
	<path fill-rule="evenodd" fill="#F5BE12" d="M484.382,278.627c31.847-6.819,72.325-12.646,103.827-9.999
		c0,0-47.438-108.754-211.773-112.946c-3.392,29.787-19.732,45.967-33.234,70.59C441.631,217.718,467.381,235.453,484.382,278.627
		L484.382,278.627z"/>
	<path fill-rule="evenodd" fill="#F5BE12" d="M568.138,311.751c-11.164,0.756-14.931,11.004-15.222,18.355
		c19.707-13.533,48.236,0.291,69.714-9.121c7.644-4.412,13.234-12.057,14.116-20.584
		C616.414,319.753,596.332,310.565,568.138,311.751L568.138,311.751z"/>
	<path fill-rule="evenodd" fill="#F5BE12" d="M345.612,442.46c5.481,33.69,41.424,56.251,70.24,50.593
		c3.82-72.941,100.89-101.771,112.946-171.478c-11.169,1.183-21.472,4.409-31.768,7.055c0,0-5.274,40.217-46.876,53.137
		c-21.009,5.614-37.921-0.705-47.925-4.87c-4.327-1.757-9.719,1.15-13.784,2.302c-51.47,21.181-77.89,73.868-111.716,115.328
		c-0.693,1.735-0.937,4.638,1.846,5.692c9.76,3.102,23.85-4.283,33.447-11.873C328.848,473.715,338.385,456.769,345.612,442.46
		L345.612,442.46z"/>
	<path fill-rule="evenodd" fill="#F5BE12" d="M379.914,367.462c2.126-1.365,2.649-4.303-2.657-3.266
		c-27.153,6.911-138.765,51.709-232.375,191.416c-1.39,1.745-0.722,3.49,0.666,2.445c15.382-15.271,27.731-24.236,43.524-34.913
		c7.956-5.397,12.404-14.265,17.951-23.615C243.458,438.019,328.656,387.221,379.914,367.462L379.914,367.462z"/>
	<path fill-rule="evenodd" fill="#F5BE12" d="M389.996,371.687c1.735-0.695,0.212-3.108-1.873-2.058
		c-70.889,30.883-144.636,74.305-184.717,146.674c-0.946,1.991,1.607,2.322,3.143,1.662c17.049-6.078,33.481-10.381,53.092-16.01
		c2.862-0.839,7.47-4.802,8.256-5.999C299.495,448.153,337.476,397.224,389.996,371.687L389.996,371.687z"/>
	<path fill-rule="evenodd" fill="#F5BE12" d="M655.86,409.814c0,0-4.391-29.627-35.907-22.973
		c-13.369,3.482-33.381,18.66-46.739,35.03c-31.708,38.881-27.271,83.825-21.688,128.843c0.296,2.375,2.041,2.05,1.873-0.084
		c-2.859-38.58,7.463-71.113,16.275-86.989c1.992-2.298,4.309-0.173,3.534,1.178c-20.115,37.446-9.946,84.396-22.865,133.239
		c-0.395,1.592,0.808,1.425,1.178,0.632c10.864-20.807,13.097-88.307,25.996-105.297c1.223-2.085,2.775-0.262,2.169,1.129
		c-11.342,37.008-7.808,71.517-27.101,109.974c-0.364,0.917,0.518,0.941,0.828,0.508c16.335-22.24,22.093-73.439,34.8-111.95
		C598.969,460.451,618.805,420.407,655.86,409.814L655.86,409.814z"/>
	<path fill-rule="evenodd" fill="#F5BE12" d="M477.569,411.983c-3.678-3.071-69.15,67.214-55.596,120.319
		c7.65,2.942,15.508,9.814,21.53,14.571c-0.216-34.327,29.654-46.103,29.413-102.349c0,0-6.665-9.475-4.812-10.598
		c1.602-0.823,4.624,3.159,5.698,2.651C475.135,435.406,479.142,413.664,477.569,411.983L477.569,411.983z"/>
	<path fill-rule="evenodd" fill="#F5BE12" d="M348.473,473.672c-1.683-4.25-4.387-9.148-6.154-13.566
		c-6.144,12.58-17.86,29.452-33.452,39.153c-2.76,2.696,4.082,2.572,8.333,1.823C328.895,496.769,340.527,483.406,348.473,473.672
		L348.473,473.672z"/>
	<path fill-rule="evenodd" fill="#F5BE12" d="M386.681,532.731c-19.709-10.296-31.019-27.701-30.134-50.05
		c-0.883-0.893-2.517-2.706-3.638-3.747c-6.771,8.839-18.236,19.383-26.766,25.588c22.059,6.463,41.607,16.424,59.848,32.005
		C387.726,538.268,389.812,534.117,386.681,532.731L386.681,532.731z"/>
	<path fill-rule="evenodd" fill="#F5BE12" d="M414.383,503.65c-17.651,1.178-34.307-3.568-49.999-14.142
		c0,0,0.92,33.941,49.999,39.714V503.65L414.383,503.65z"/>
	<path fill-rule="evenodd" fill="#F5BE12" d="M471.521,506.425c-6.181,9.439-24.789,40.158-23.907,67.224
		c7.656,2.342,13.403,8.39,19.712,13.531c3.348-18.647,23.98-35.89,10.426-77.117C476.387,505.134,473.902,502.674,471.521,506.425
		L471.521,506.425z"/>
	<path fill-rule="evenodd" fill="#F5BE12" d="M441.147,552.469c0,0-36.233-24.069-44.416-15.592
		c-7.643,6.251,13.215,25.78,18.43,28.905c5.551,3.829,24.809,4.333,24.809,4.333C439.384,563.934,440.853,558.354,441.147,552.469
		L441.147,552.469z"/>
	<path fill-rule="evenodd" fill="#F5BE12" d="M480.857,627.174c7.324-17.468,10.8-51.386,4.115-55.585
		c-3.12-1.396-14.195,27.43-18.721,38.551C469.535,613.511,475.696,619.751,480.857,627.174L480.857,627.174z"/>
	<path fill-rule="evenodd" fill="#F5BE12" d="M463.792,593.36c-11.277-12.342-33.306-19.85-38.127-15.487
		c-2.966,3.851,2.249,9.898,4.896,14.892c5.88,11.76,17.937,13.82,29.116,15.596C461.018,602.765,462.59,598.886,463.792,593.36
		L463.792,593.36z"/>
	<path fill-rule="evenodd" fill="#F5BE12" d="M471.738,645.792c2.085-0.355,7.403-10.406,6.363-13.19
		c-6.472-11.762-25.878-21.19-30.487-18.657c-3.735,3.101-0.261,12.564,2.056,16.77
		C452.969,638.363,469.786,646.772,471.738,645.792L471.738,645.792z"/>
	<path fill-rule="evenodd" fill="#F5BE12" d="M476.608,650.918c1.789,5.664,5.506,8.967,6.896,15.093
		c6.339-10.148,10.075-36.125,6.467-37.964C487.892,627.356,477.993,648.843,476.608,650.918L476.608,650.918z"/>
	<path fill-rule="evenodd" fill="#F5BE12" d="M456.739,648.36c-2.356,0.926-1.824,9.482-0.941,14.186
		c1.178,9.148,17.064,18.366,19.125,17.765c1.651,0.177,5.047-5.19,5.047-9.302C476.441,661.298,461.116,647.128,456.739,648.36
		L456.739,648.36z"/>
	<path fill-rule="evenodd" fill="#F5BE12" d="M479.384,686.014l7.649,10.572c6.122-8.227,8.739-26.523,5.349-29.013
		C490.001,666.101,483.504,679.527,479.384,686.014L479.384,686.014z"/>
	<path fill-rule="evenodd" fill="#F5BE12" d="M460.269,680.127c-2.785-0.704-3.13,6.793,0,8.528
		c8.823,5.886,16.015,14.837,20.13,24.543c1.735,3.124,3.904-2.825,2.859-6.636C480.906,696.271,470.561,683.646,460.269,680.127
		L460.269,680.127z"/>
	<path fill-rule="evenodd" fill="#F5BE12" d="M463.206,699.234c-2.09-1.731-7.463,3.479-4.328,5.914
		c5.742,5.072,16.064,15.35,18.076,20.245C482.646,720.808,472.029,706.005,463.206,699.234L463.206,699.234z"/>
	<path fill-rule="evenodd" fill="#F5BE12" d="M461.767,717.353c-2.514-0.596-5.008,3.599-2.73,4.939
		c4.87,4.116,10.08,9.359,13.959,14.389c0.695,0.689,2.436-0.489,2.08-2.574C472.428,727.63,467.677,719.398,461.767,717.353
		L461.767,717.353z"/>
	<path fill-rule="evenodd" fill="#F5BE12" d="M458.795,730.431c-1.391-0.366-2.919,3.85-1.174,5.579
		c5.289,3.229,6.783,6.92,10.903,11.258c1.509,1.029,2.726-0.784,2.316-2.252C469.239,739.081,462.955,732.362,458.795,730.431
		L458.795,730.431z"/>
	<path fill-rule="evenodd" fill="#F5BE12" d="M457.626,744.531c-3.479,5.989-6.344,16.908-1.474,19.712
		c4.781,1.923,8.503-8.478,9.567-11.263C462.965,750.093,460.559,746.598,457.626,744.531L457.626,744.531z"/>
</g>
</svg>
