<?xml version="1.0" encoding="UTF-8" standalone="no"?>
<svg
   xmlns:dc="http://purl.org/dc/elements/1.1/"
   xmlns:cc="http://creativecommons.org/ns#"
   xmlns:rdf="http://www.w3.org/1999/02/22-rdf-syntax-ns#"
   xmlns:svg="http://www.w3.org/2000/svg"
   xmlns="http://www.w3.org/2000/svg"
   xmlns:sodipodi="http://sodipodi.sourceforge.net/DTD/sodipodi-0.dtd"
   xmlns:inkscape="http://www.inkscape.org/namespaces/inkscape"
   xml:space="preserve"
   height="346.85083"
   viewBox="0 0 447.30121 346.84048"
   width="447.29514"
   version="1.1"
   id="svg2233"
   sodipodi:docname="New_York_Giants_2000.svg"
   inkscape:version="1.0.2-2 (e86c870879, 2021-01-15)"><metadata
     id="metadata2239"><rdf:RDF><cc:Work
         rdf:about=""><dc:format>image/svg+xml</dc:format><dc:type
           rdf:resource="http://purl.org/dc/dcmitype/StillImage" /></cc:Work></rdf:RDF></metadata><defs
     id="defs2237" /><sodipodi:namedview
     pagecolor="#ffffff"
     bordercolor="#666666"
     borderopacity="1"
     objecttolerance="10"
     gridtolerance="10"
     guidetolerance="10"
     inkscape:pageopacity="0"
     inkscape:pageshadow="2"
     inkscape:window-width="1366"
     inkscape:window-height="705"
     id="namedview2235"
     showgrid="false"
     inkscape:zoom="1"
     inkscape:cx="237.61959"
     inkscape:cy="179.94983"
     inkscape:window-x="-8"
     inkscape:window-y="-8"
     inkscape:window-maximized="1"
     inkscape:current-layer="layer9"
     inkscape:document-rotation="0"
     inkscape:snap-bbox="false"
     inkscape:bbox-paths="false"
     inkscape:bbox-nodes="true"
     inkscape:snap-nodes="true" /><g
     inkscape:groupmode="layer"
     id="layer9"
     inkscape:label="Layer 1"
     transform="translate(161.62894,96.656862)"><g
       id="g102"><path
         id="path3006"
         style="fill:#c8243f;fill-opacity:1;stroke:none;stroke-width:0.732236"
         d="m 65.463394,91.757546 c -5.12777,-0.003 -9.29353,-4.15068 -9.29353,-9.28549 V -46.280696 c 0,-8.579897 -4.17251,-17.808702 -8.37481,-23.978546 -8.77499,-12.883495 -20.00073,-19.934081 -35.09389,-23.794744 -23.85035,-6.100664 -49.54383,-1.278267 -66.99156,12.062854 V -93.671761 H -161.60694 l -0.022,61.376035 h 24.96999 c 5.14249,0 9.30087,4.172797 9.30087,9.300867 V 151.10896 h 73.103534 l 0.014,-164.392607 c 8.3e-4,-9.741673 8.25744,-17.64616 18.4465,-17.64616 10.0353,0 18.40988,7.696194 18.40988,17.271255 V 119.02998 c 0,17.36856 18.34556012,31.60405 31.58933,31.60405 H 82.790811 V 91.767356 Z M 285.46311,-93.666641 h -74.8565 V 63.471256 c 0,13.44089 -5.85774,23.76264 -19.14513,23.83906 -10.30678,0.0593 -19.0109,-7.86781 -19.00519,-17.63152 l 0.0955,-163.347267 H 69.145376 v 61.195183 h 19.071089 c 5.12778,0 9.278166,4.165396 9.278166,9.300866 V 96.489616 c 0,19.741184 13.657789,36.553874 27.805939,46.171894 15.78695,10.73209 51.02037,16.43828 70.90683,10.34357 7.6991,-2.35958 14.15632,-6.25175 14.15632,-6.25175 v 15.18511 c 0,12.22722 -8.47912,17.1106 -17.89563,17.11017 l -319.86276,-0.0147 v 71.15724 H 219.2899 c 42.61879,0 66.40771,-23.92612 66.38234,-58.53591 z"
         sodipodi:nodetypes="cccccccccccccccccccccccccccccccccccccccccc" /><path
         id="path2227"
         style="fill:#003c7e;fill-opacity:1;stroke:none;stroke-width:0.732301"
         d="m 45.872237,-45.761082 c 2.58e-4,-20.888921 -19.283155,-34.03186 -35.677236,-38.307805 -20.730691,-5.40703 -43.072894,-1.323649 -58.195911,10.2566 l -16.589533,12.703214 v -22.261199 h -86.697047 l -0.007,40.724689 h 14.64235 c 10.82193,0 19.61686,8.801518 19.61686,19.624186 V 140.7649 h 52.464931 l 0.02204,-154.07409 c 0.0022,-15.42152 12.908991,-27.970213 28.770618,-27.970213 15.502066,0 28.7413252,12.273133 28.7413252,27.595275 V 119.01603 c 0,11.70223 11.9322256,21.27698 21.2623418,21.27698 h 58.261591 v -38.21216 h -7.001748 c -10.814612,0 -19.615301,-8.808845 -19.615167,-19.623457 z M 192.78472,143.25582 c 10.39321,-3.43368 18.87973,-9.80349 27.92592,-15.85487 v 36.15591 c 0,17.64113 -15.31064,25.81588 -28.21986,25.81588 h -309.56534 v 50.49578 h 336.04533 c 34.01124,0 56.42604,-15.37624 56.40323,-48.21847 L 275.18295,-83.372678 H 220.95464 V 67.453593 c 0,18.928182 -10.74968,30.170766 -29.46896,30.170766 -16.2741,0 -29.35446,-12.294107 -29.344,-27.874282 l 0.10281,-153.116688 H 79.487224 v 40.548206 h 8.742931 c 10.814609,0 19.609535,8.808841 19.609535,19.624185 V 96.017692 c 0,15.461638 10.6663,29.574508 23.23073,38.095468 13.6956,9.2881 45.43324,14.52155 61.7143,9.14266 z"
         sodipodi:nodetypes="cccccccccccccccccccccccccccccccccccccccccc" /></g></g></svg>
