<?xml version="1.0" encoding="utf-8"?>
<!-- Generator: Adobe Illustrator 16.0.0, SVG Export Plug-In . SVG Version: 6.00 Build 0)  -->
<!DOCTYPE svg PUBLIC "-//W3C//DTD SVG 1.0//EN" "http://www.w3.org/TR/2001/REC-SVG-20010904/DTD/svg10.dtd">
<svg version="1.0" id="Layer_1" xmlns="http://www.w3.org/2000/svg" xmlns:xlink="http://www.w3.org/1999/xlink" x="0px" y="0px"
	   viewBox="0 0 800 800" enable-background="new 0 0 800 800" xml:space="preserve">
<g>
	<path fill="#FFFFFF" d="M762.953,263.887c-93.747,22.136-97.841-32.153-238.824-42.106
		c-189.784-13.401-349.247,69.275-476.693,79.871c-27.682,2.301-24.092,25.35-4.194,29.255c48.029,11.217,97.592,9.785,142.958,3.7
		c-1.517,3.666-3.06,9.299,2.017,13.608c17.972,15.274,90.191,16.588,121.902,14.761c10.766-0.616,33.749-2.796,33.749-2.796
		c-6.548,0.624-16.797,20.595,4.854,26.228c133.841,37.472,196.803,97.978,269.087,193.276c29.38-3.76,57.033-39.091,45.243-66.076
		l5.864-14.489l21.639-10.014l-6.213-48.329l32.987-15.537c0,0,51.375-138.063,54.392-148.108
		C774.724,267.079,768.501,262.582,762.953,263.887"/>
	<path fill="#E60000" d="M391.602,282.898c-92.786,5.477-204.126,57.912-345.875,34.542c125.63-16.954,221.417-58.52,338.257-75.067
		L391.602,282.898z"/>
	<path fill="#05173C" d="M407.088,336.536c37.615-4.045,70.787-2.753,106.945,19.294c-75.414-8.187-112.34,12.882-159.354,17.559
		c166.067,43.583,226.874,136.698,268.052,188.31c28.787-12.23,30.339-37.243,23.006-46.171l7.415-15.887l0.343-10.196l19.838-9.284
		l-6.268-49.444l37.152-15.212l49.23-134.777c-83.415,17.318-110.438-36.627-229.113-43.979
		c-48.337-3.012-91.879-0.785-132.752,4.583l6.666,41.251c27.316-0.942,53.027,2.526,77.43,13.63
		c-26.834-1.661-50.963,0.558-74.504,4.931L407.088,336.536z"/>
	<path fill="#E60000" d="M401.607,337.116c-51.333,6.039-110.877,20.398-196.774,4.207c74.041-2.013,129.458-26.8,190.465-38.976
		L401.607,337.116z"/>
	<path fill="#CCCCCC" d="M535.2,450.241c44.895,31.44,67.944,66.268,91.337,96.757c11.904-4.946,15.624-18.751,11.717-23.636
		l-11.321-13.942l12.878,0.752l5.919-10.271l-16.022-0.942l-18.053,3.259l18.304-12.536l13.934,0.814l0.517-7.934l-14.238-6.814
		l4.893-5.355l26.335,1.641l-7.569-58.615c-10.414-1.276-19.16,4.186-22.943,19.222l-46.665-2.742
		c6.572-14.877,16.79-21.586,36.21-19.109c-10.896-15.251-63.965-16.664-71.455,7.264l41.201,33.771l5.335,30.848l-16.938-24.555
		C563.349,444.931,547.378,435.701,535.2,450.241"/>
	<polygon fill="#FFFFFF" points="673.285,299.05 676.606,328.49 709.732,340.936 678.657,348.724 681.728,388.425 654.831,354.876 
		614.632,364.349 639.469,335.413 618.985,308.271 653.296,320.05 	"/>
</g>
</svg>
