<?xml version="1.0" encoding="utf-8"?>
<!-- Generator: Adobe Illustrator 16.0.0, SVG Export Plug-In . SVG Version: 6.00 Build 0)  -->
<!DOCTYPE svg PUBLIC "-//W3C//DTD SVG 1.0//EN" "http://www.w3.org/TR/2001/REC-SVG-20010904/DTD/svg10.dtd">
<svg version="1.0" id="Layer_1" xmlns="http://www.w3.org/2000/svg" xmlns:xlink="http://www.w3.org/1999/xlink" x="0px" y="0px"
	   viewBox="0 0 800 800" enable-background="new 0 0 800 800" xml:space="preserve">
<g>
	<path d="M645.552,321.311c-55.824-32.486-110.702-24.915-152.173-6.466c-1.895-13.561-5.521-28.542-11.354-46.203
		c-8.832-26.177-18.607-51.092-27.124-73.171c-11.196-28.858-19.712-53.773-24.442-70.331L400.179,21.22l-31.379,104.078
		c-4.89,16.399-13.247,41.473-24.286,70.488c-8.515,21.919-18.134,46.993-26.809,73.013c-5.99,17.661-9.46,32.642-11.352,46.361
		c-41.632-18.45-96.509-25.861-152.175,6.624c-45.417,26.65-69.858,72.854-63.551,120.794c5.676,43.364,35.48,77.742,77.585,89.254
		l31.382,8.672l7.726-31.694c1.104-4.258,12.458-43.841,48.097-43.209c24.759,0.472,45.259,22.394,55.509,36.585
		c-3.313,9.935-5.047,21.918-3.313,34.849l-14.034-18.605l-25.23,18.765c-22.71,17.03-55.824,58.819-35.324,108.336
		c8.832,21.446,28.07,36.269,53.931,41.313c15.77,3.155,33.748,2.524,50.305-1.259c6.624,20.972,18.608,46.52,40.212,69.227
		l22.866,23.97l22.867-23.97c21.76-22.866,33.587-48.255,40.052-69.387c16.717,3.628,34.693,4.418,50.463,1.104
		c25.705-5.046,44.943-19.868,53.773-41.471c20.343-49.516-12.931-91.306-35.639-108.179l-25.388-18.765l-13.879,18.605
		c1.736-12.771-0.155-24.758-3.468-34.849c10.249-14.191,30.749-36.111,55.509-36.586c35.639-0.788,46.993,38.793,48.254,43.209
		l7.728,31.695c0-0.156,31.223-8.987,31.223-8.987c42.262-11.512,71.906-45.89,77.585-89.412
		C715.566,394.007,691.125,347.802,645.552,321.311"/>
	<path fill="#FFFFFF" d="M389.771,129.712c-3.783,18.136-13.718,43.839-25.23,73.643c-8.357,21.92-17.976,46.678-26.493,72.382
		c-8.357,24.601-11.669,43.049-11.669,60.082c0,5.518,0.63,10.879,1.261,16.399c-31.695-21.919-94.3-51.724-162.583-11.827
		c-37.846,22.235-58.188,60.239-53.142,99.347c4.574,34.693,28.384,62.132,61.974,71.435l10.092,2.682l2.523-10.091
		c0.631-2.523,15.613-60.714,69.386-59.61c43.208,0.947,71.594,43.05,79.163,55.98c-3.626,6.625-6.625,15.93-6.625,26.493
		c0,11.512,3.942,24.442,13.878,37.532c-3.943,5.204-10.408,11.827-17.977,12.458c-10.881,0.944-21.763-10.408-29.016-20.028
		l-5.993-8.199l-8.042,6.149c-16.558,12.299-43.839,45.416-28.385,82.789c6.151,14.824,19.397,24.758,38.162,28.385
		c19.554,3.941,44.154,0.475,61.5-7.568c3.469,19.87,12.932,53.144,40.528,81.844l7.253,7.569l7.254-7.729
		c27.44-28.7,36.9-61.974,40.371-81.843c17.504,8.042,42.103,11.512,61.499,7.569c18.923-3.785,32.013-13.719,38.162-28.543
		c15.298-37.373-11.986-70.646-28.543-82.789l-8.2-5.991l-5.99,8.041c-7.097,9.62-18.137,20.975-28.86,20.185
		c-7.568-0.629-14.034-7.254-17.976-12.456c9.776-13.09,13.719-26.021,13.719-37.375c0-10.563-3.154-20.025-6.782-26.648
		c7.569-13.088,35.798-55.193,79.163-56.141c53.773-1.26,68.912,56.927,69.543,59.451l2.523,10.091l9.936-2.836
		c33.745-9.304,57.399-36.743,61.973-71.593c4.891-39.109-15.453-76.955-53.457-99.189c-68.439-39.739-130.886-9.62-162.583,12.299
		c0.631-5.203,1.263-10.565,1.263-15.927c0-17.347-3.47-35.954-11.671-60.555c-8.672-25.704-18.292-50.461-26.648-72.224
		c-11.671-29.804-21.606-55.507-25.549-73.643l-9.934-46.361L389.771,129.712"/>
	<path d="M400.338,732.892c38.793-40.687,39.265-91.938,39.265-91.938c17.189,17.032,83.737,28.544,98.719-7.884
		c16.241-39.896-25.23-70.803-25.23-70.803c-40.371,54.089-67.336,1.104-67.336,1.104c30.592-33.118,7.569-62.922,7.569-62.922
		c2.048-6.149,36.113-65.6,90.515-66.703c62.921-1.42,79.638,67.019,79.638,67.019c65.913-18.133,78.688-110.07,6.149-152.172
		c-91.937-53.459-172.203,28.068-172.203,28.068c7.568-30.591,9.62-53.458-5.361-97.927c-20.5-60.396-45.417-114.328-52.355-146.971
		c-6.938,32.643-31.854,86.732-52.038,147.128c-14.982,44.627-12.774,67.336-5.362,97.928c0,0-80.266-81.37-172.203-27.754
		c-72.382,42.42-59.45,134.196,6.465,152.333c0,0,16.717-68.597,79.479-67.336c54.563,1.104,88.782,60.397,90.833,66.388
		c0,0-23.024,29.964,7.725,63.078c0,0-26.965,52.986-67.334-0.944c0,0-41.632,30.907-25.073,70.803
		c14.98,36.428,81.527,24.759,98.716,7.728c0,0,0.473,51.251,39.265,91.778"/>
	<path fill="#C6A775" d="M565.129,345.753c-74.748,0-136.247,84.998-136.247,84.998c2.68-13.878,34.69-76.483,5.834-151.229
		c-29.016-74.904-35.009-105.024-35.009-105.024l-0.157,0.947v-0.79c0,0-5.836,30.12-34.536,105.024
		c-28.857,74.747,3.312,137.353,5.993,151.227c0,0-61.5-84.837-136.405-84.837c-74.906,0.158-137.194,85.313-67.967,135.615
		c0,0,20.185-62.762,89.887-62.92c51.407-0.157,102.815,54.88,105.024,82.16c0,0-23.498,33.271,9.145,60.868
		c0,0-35.322,74.275-84.208,20.814c0,0-37.688,46.995,11.511,58.506c39.109,8.989,77.429-30.594,77.429-30.594
		s-4.1,62.605,24.756,96.667v-0.315l0.159,0.315c28.857-34.218,24.6-96.823,24.6-96.823s38.479,39.58,77.43,30.435
		c49.2-11.511,11.512-58.504,11.512-58.504c-48.728,53.615-84.209-20.501-84.209-20.501c32.483-27.754,8.988-61.028,8.988-61.028
		c2.051-27.12,53.302-82.313,104.708-82.313c69.7,0,90.201,62.762,90.201,62.762C702.636,430.751,640.033,345.595,565.129,345.753"
		/>
</g>
</svg>
