<?xml version="1.0" encoding="UTF-8"?>
<!-- Generator: Adobe Illustrator 24.1.2, SVG Export Plug-In . SVG Version: 6.00 Build 0)  -->
<svg xmlns="http://www.w3.org/2000/svg" xmlns:xlink="http://www.w3.org/1999/xlink" version="1.1" id="katman_1" x="0px" y="0px" viewBox="0 0 1027.78 311.84" style="enable-background:new 0 0 1027.78 311.84;" xml:space="preserve">
<style type="text/css">
	.st0{fill-rule:evenodd;clip-rule:evenodd;fill:#003F2C;}
</style>
<g>
	<polygon class="st0" points="583.08,151.3 795.28,151.3 776.83,188.21 719.63,188.21 656.89,311.84 553.56,311.84 623.67,186.36    564.63,186.36 583.08,151.3  "></polygon>
	<polygon class="st0" points="536.95,188.21 446.54,188.21 431.78,212.2 520.35,214.04 501.9,247.25 411.48,247.25 396.72,274.93    527.73,274.93 507.43,311.84 280.47,311.84 363.51,149.46 557.25,149.46 536.95,188.21  "></polygon>
	<path class="st0" d="M1027.78,110.71L664.27,79.34c-36.9-5.53-66.43-13.84-92.26-31.37L506.51,0l61.7,98.72l-328.33,0.92   l-88.57,167.91c-4.64,7.91-6.08,12.94-22.14,12.92H20.3L0,311.84h212.2c22.85,0.08,27.34-11.62,35.06-25.83l90.72-176.22   L1027.78,110.71L1027.78,110.71z"></path>
	<path class="st0" d="M998.25,183.6H874.62l88.57,32.29c7.38,3.69,11.07,9.23,9.23,16.61l-35.06,66.43   c-6.46,6.46-7.38,12.92-18.45,12.92H710.4l17.53-38.75h147.62l-75.65-30.45c-10.15-7.38-8.3-19.38-8.3-19.38   c-3.69,7.38,33.21-64.58,33.21-64.58c5.54-7.38,14.76-11.07,23.07-11.07h169.76L998.25,183.6L998.25,183.6z"></path>
</g>
</svg>
