<?xml version="1.0" encoding="utf-8"?>
<!-- Generator: Adobe Illustrator 22.0.1, SVG Export Plug-In . SVG Version: 6.00 Build 0)  -->
<svg version="1.1" id="Layer_1" xmlns="http://www.w3.org/2000/svg" xmlns:xlink="http://www.w3.org/1999/xlink" x="0px" y="0px"
	 viewBox="0 0 640 480" style="enable-background:new 0 0 640 480;" xml:space="preserve">
<style type="text/css">
	.st0{fill:#A5ACAF;}
	.st1{fill:#FFFFFE;}
	.st2{fill:#FFB612;}
	.st3{fill:#C60C30;}
	.st4{fill:#00539B;}
	.st5{fill:none;}
</style>
<g>
	<path d="M94.3,240c0,124.5,101.3,225.7,225.7,225.7c124.5,0,225.7-101.3,225.7-225.7c0-124.5-101.3-225.7-225.7-225.7
		C195.5,14.3,94.3,115.5,94.3,240"/>
	<path class="st0" d="M320,460.8c121.9,0,220.8-98.8,220.8-220.8c0-121.9-98.8-220.8-220.8-220.8C198.1,19.2,99.2,118.1,99.2,240
		C99.2,361.9,198.1,460.8,320,460.8"/>
	<path class="st1" d="M320,424.7c101.7,0,184.2-82.5,184.2-184.2S421.7,56.4,320,56.4c-101.7,0-184.2,82.5-184.2,184.2
		C135.8,342.2,218.3,424.7,320,424.7"/>
	<path class="st2" d="M321,240.8c2.1-75.4,73.4-93.1,91.3-91.5c-44.1-2.4-87.7-21-91-90.8c-5.3,64.9-31.4,83.3-91.4,91
		C272.7,151.7,316.1,168.6,321,240.8"/>
	<path class="st3" d="M412.5,334.2c2.1-75.4,72.1-94,90-92.4c-44.3-1.6-86.9-22.7-90.3-92.5c-5.3,64.9-31.3,83.8-91.3,91.5
		C363.8,243,407.6,262,412.5,334.2"/>
	<path class="st4" d="M322.1,423.9c2.1-75.4,72.5-91.4,90.4-89.8c-44.1-2.4-88.2-23.6-91.5-93.4c-5.3,64.9-30.6,84.4-90.6,92.1
		C273.2,335.1,317.2,351.8,322.1,423.9"/>
	<path d="M269.6,224.7l7.2-0.1l0,3.5c1.1-1.9,1.7-3,4.2-3.6h1.8v8.4c-6.2-0.4-5.8,1.7-5.9,3.4v16h-7.3L269.6,224.7L269.6,224.7z
		 M302,233.7l-6.4,0c0-0.7,0-1.2-0.1-1.8c-0.2-0.7-1.1-1.4-2.1-1.4c-1.1,0-2,0.4-2.4,1.5c-0.5,1.3-0.2,3.3,3.2,3.7l1.8,0.4
		c2,0.7,3.9,1.2,5.3,4c0.2,0.5,0.3,0.6,0.7,2c0.8,2.9,0.3,5-0.7,6.8c-0.6,1-2,2.3-2.5,2.6c-2.7,1.7-6.4,1.9-9.7,0.8
		c-1.6-0.5-3.4-1.7-4.3-3.5c-0.9-1.8-0.9-3.2-1.1-5.6l6.2,0c-0.1,1,0.5,2.1,1.4,2.5c1,0.4,3.4,0.4,3.8-0.7c0.3-0.8,0.5-1.2-0.2-2.2
		c-1.2-1.8-3.8-2.1-6.1-2.7c-4.1-1-5.1-5-4.9-8c0.1-1.4,0.3-3.1,1.2-4.2c1.9-2.3,2.7-2.2,3.8-2.8c3.8-1.8,8.4-0.5,10.9,2
		C301.5,228.6,302,231.2,302,233.7L302,233.7z M183,224.8h-5.1l-2.8,0c-0.1-1.2-0.2-2.8-1.1-3.5c-1.2-1.1-3.9-0.5-4.6,1
		c-1.3,2.7,0.4,5.2,4.5,6.6l1.1,0.6c3.9,1.9,5,2.9,6.5,4.9c0.4,0.6,1.3,2.3,1.7,4.2c0.7,4.3-0.3,6.9-1.3,9.2c0,0-0.4,1.1-1.4,2
		c-4.1,3.8-9.8,4-14.1,2c-2-0.9-3.5-1.8-4.5-4.2c-1.1-2.4-1.3-4.5-1-8l7.9,0c-0.1,1.1,0.2,3.9,0.9,4.7c0.7,0.8,3.7,1.5,4.9-0.5
		c0.4-0.7,0.5-3.8-0.8-5c-2.4-2.3-4.4-2.5-7.2-4.3c-4-2.5-6.1-7-5.8-11.2c0.1-2,0.7-3.4,1.6-5.2c1-1.7,2.4-3.3,4.4-4.2
		c5.3-2.3,11.8-1,14.7,4C182.4,219.4,183.1,221.3,183,224.8L183,224.8z M187.1,224.7v-2.5l7.4-4.1l0,6.7l2.8-0.1l0,6.5l-2.8,0v10.9
		c0,1.5-0.3,2.1,2.7,2l0,8.3c-3.5-0.1-10.2,1.1-10.2-6.7l-0.1-14.7l-2.8,0.1l0-6.4L187.1,224.7L187.1,224.7z M239.4,213.6l7.5,0
		v38.9h-7.5V213.6L239.4,213.6z M255.1,244.5c0,2.5,5.4,3,5.6-0.1v-0.8l6.1,0l0,3.3c0.1,2.2-0.8,4.5-4.5,5.8c-3.9,1.2-6.3,0.5-8.6,0
		c-3-1.1-4.4-3.5-4.6-6.8v-13.5c-0.1-2.5,1.3-4.7,3.7-6.3c4.2-1.8,6.4-1.3,9.6-0.2c3,1.6,4.3,3.6,4.4,6.4v8.5h-11.7L255.1,244.5
		L255.1,244.5z M255.4,234.9l5.5,0C262,230.1,254.5,229.5,255.4,234.9z M225.5,244.5c0,2.5,5.4,3,5.6-0.1v-0.8l6.1,0l0,3.3
		c0.1,2.2-0.8,4.5-4.5,5.8c-3.9,1.2-6.3,0.5-8.6,0c-3-1.1-4.4-3.5-4.6-6.8v-13.5c-0.1-2.5,1.3-4.7,3.7-6.3c4.2-1.8,6.4-1.3,9.6-0.2
		c3,1.6,4.3,3.6,4.4,6.4v8.5h-11.7L225.5,244.5L225.5,244.5z M225.7,234.9l5.5,0C232.4,230.1,224.8,229.5,225.7,234.9z M205.2,244.5
		c0,2.5,5.4,3,5.6-0.1v-0.8l6.1,0l0,3.3c0.1,2.2-0.8,4.5-4.5,5.8c-3.9,1.2-6.3,0.5-8.6,0c-3-1.1-4.4-3.5-4.6-6.8v-13.5
		c-0.1-2.5,1.3-4.7,3.7-6.3c4.2-1.8,6.4-1.3,9.6-0.2c3,1.6,4.3,3.6,4.4,6.4v8.5h-11.7L205.2,244.5L205.2,244.5z M205.5,234.9l5.5,0
		C212.2,230.1,204.6,229.5,205.5,234.9z"/>
</g>
<rect x="80" class="st5" width="480" height="480"/>
</svg>
