<?xml version="1.0" encoding="UTF-8" standalone="no"?>
<svg
   xmlns:dc="http://purl.org/dc/elements/1.1/"
   xmlns:cc="http://creativecommons.org/ns#"
   xmlns:rdf="http://www.w3.org/1999/02/22-rdf-syntax-ns#"
   xmlns:svg="http://www.w3.org/2000/svg"
   xmlns="http://www.w3.org/2000/svg"
   xmlns:sodipodi="http://sodipodi.sourceforge.net/DTD/sodipodi-0.dtd"
   xmlns:inkscape="http://www.inkscape.org/namespaces/inkscape"
   height="418.1456"
   width="470.181"
   viewBox="0 0 473.33658 421.30119"
   version="1.1"
   id="svg339"
   sodipodi:docname="Tampa_Bay_Buccaneers_2020.svg"
   inkscape:version="1.0.2-2 (e86c870879, 2021-01-15)">
  <metadata
     id="metadata345">
    <rdf:RDF>
      <cc:Work
         rdf:about="">
        <dc:format>image/svg+xml</dc:format>
        <dc:type
           rdf:resource="http://purl.org/dc/dcmitype/StillImage" />
      </cc:Work>
    </rdf:RDF>
  </metadata>
  <defs
     id="defs343" />
  <sodipodi:namedview
     pagecolor="#ffffff"
     bordercolor="#666666"
     borderopacity="1"
     objecttolerance="10"
     gridtolerance="10"
     guidetolerance="10"
     inkscape:pageopacity="0"
     inkscape:pageshadow="2"
     inkscape:window-width="1366"
     inkscape:window-height="705"
     id="namedview341"
     showgrid="false"
     inkscape:zoom="1"
     inkscape:cx="136.85376"
     inkscape:cy="244.17311"
     inkscape:window-x="-8"
     inkscape:window-y="-8"
     inkscape:window-maximized="1"
     inkscape:current-layer="layer2"
     inkscape:document-rotation="0" />
  <g
     inkscape:groupmode="layer"
     id="layer2"
     inkscape:label="Layer 1"
     transform="translate(114.43405,71.336768)">
    <g
       id="g1931">
      <path
         d="m 340.20853,-71.336768 c 0,0 1.10301,20.197477 -2.71119,38.687582 -3.68633,17.866236 -5.7149,24.6736805 -5.7149,24.6736805 -7.80189,4.5738618 -20.43115,10.2009159 -38.8926,13.2731942 C 258.43487,11.041801 227.16868,1.7868285 193.03556,-11.612903 158.89252,-25.012855 113.21232,-39.445608 70.830029,-34.579211 29.734049,-29.859082 0.330649,-13.212256 -15.302445,-2.3573799 -30.935539,8.4872455 -33.812389,11.354507 -47.212342,15.187001 c 0,0 10.532581,4.14476 15.954949,4.14476 0,0 -2.555107,10.54228 -1.599353,14.043661 0,0 22.332519,-10.210726 24.887515,-5.422258 2.555107,4.788359 -7.977364,7.987174 -15.311239,9.888872 -7.333765,1.921208 -26.486868,1.589653 -26.486868,1.589653 0,0 8.981947,6.953381 12.151112,11.780759 0,0 -16.930432,7.372785 -35.762232,4.817679 0,0 -0.624155,6.97289 14.852707,18.393107 -3.296253,1.18006 -7.470333,3.091457 -10.054648,5.851361 0,0 16.218384,-3.345085 26.409711,8.006682 2.681864,3.364593 3.559579,6.378012 3.257344,10.181407 -0.555882,6.894966 -3.198815,9.527996 -9.693885,13.818806 -3.715656,1.51162 -7.665319,3.40361 -11.478745,5.73441 -17.934574,11.02022 -31.051251,27.79413 -40.257176,46.9577 -3.98868,8.29922 -7.17769,17.9445 -9.43056,26.69189 -2.25276,8.79666 -3.08175,16.60858 -3.60841,21.48489 -0.52663,4.8664 -1.24828,20.2074 -1.24828,20.2074 0,0 8.0457,-11.27373 11.81933,-16.67692 3.75468,-5.38334 27.550535,-35.30369 62.210525,-43.97283 11.088551,-2.81843 22.128604,-3.99849 32.680364,-3.99849 25.365888,-0.0195 48.020262,6.86565 61.430135,13.42861 19.46559,9.42075 51.443816,31.65638 93.368686,38.60933 9.87035,1.62867 20.50941,2.43804 31.53954,2.43804 10.5813,0 21.5334,-0.77044 32.47535,-2.26257 -6.18302,9.22577 -12.11253,17.8464 -17.7494,25.83434 -5.7149,-5.44176 -13.46829,-6.00743 -13.46829,-6.00743 -9.40124,-0.88746 -14.1109,4.83718 -14.1109,4.83718 -1.90269,2.05778 -3.32656,4.72994 -3.88242,7.87993 -0.66316,2.91598 0.12678,6.31077 0.67389,8.03589 1.79345,5.6954 6.65985,8.28952 8.55185,9.11841 -13.74055,18.30492 -17.72956,39.38089 -17.72956,39.38971 l -6.27076,5.52961 2.26257,9.16724 c -3.49135,11.24396 1.98943,19.68052 9.09889,23.17132 7.21671,3.54988 13.95549,1.49211 13.95549,1.49211 4.2423,-1.18976 8.08472,-3.86193 10.69835,-7.78238 0.40082,-0.5949 0.75094,-1.19957 1.06301,-1.80415 1.46289,-0.78994 2.72088,-1.67739 3.79369,-2.63315 1.97974,0.2243 7.05093,0.38034 7.05093,0.38034 10.39601,-0.0877 20.55791,-3.03292 28.31108,-9.61584 6.10499,-5.46128 12.82458,-14.77445 13.05826,-27.50204 0,-2.38932 0.43885,-12.02435 -7.51906,-20.42123 50.21593,-73.72784 82.81693,-121.19147 103.62836,-169.48068 55.13964,-128.014355 8.10423,-181.384899 7.89944,-181.836818 z"
         fill="#b1babf"
         id="path319-0"
         style="fill:#b0bac0;fill-opacity:1;fill-rule:evenodd;stroke:none;stroke-width:1.10224"
         sodipodi:nodetypes="ccccccccccccccccccccccccccccccccccccccccccccccccccccc" />
      <path
         d="m 344.2758,-49.296343 c -0.55686,26.701805 -7.87111,45.2999297 -7.87111,45.2999297 C 325.95114,2.26454 311.68251,8.9450065 295.38587,11.363325 261.34093,16.395499 244.61551,11.304796 213.08589,1.2209376 181.57611,-8.8630305 134.28663,-30.62062 85.754934,-30.298766 37.207799,-29.986688 2.557729,-8.9119705 -28.481397,15.059582 c 0.477865,-0.146289 8.094422,-2.525897 10.844625,-3.432821 0,0 -7.246027,8.504014 -9.450069,13.233514 0,0 14.443775,-10.795797 34.269796,-9.645056 0,0 -6.894962,1.726111 -9.771813,6.036757 0,0 8.045703,-1.73592 9.479278,1.433576 1.443386,3.159796 -3.442521,10.347183 -12.346209,14.365516 -8.903908,4.027701 -23.279345,7.187497 -32.475347,7.762867 0,0 9.206253,2.876961 15.23298,8.621074 0,0 -7.02172,1.004494 -14.65761,4.018002 -6.358502,2.516087 -17.817737,4.027701 -22.703974,3.452331 0,0 6.690056,6.260953 14.65761,11.205389 23.327843,14.472434 13.478211,35.927569 5.968418,42.958769 -4.944436,1.40437 -56.485478,15.42808 -68.295998,98.6352 0,0 26.116515,-36.4346 65.662743,-46.49917 39.555045,-10.06446 77.902034,0 98.03007,9.82065 20.129141,9.83034 51.287307,31.39294 91.789177,38.11221 22.2741,3.69614 49.09384,3.02323 75.05384,-1.94072 -0.41936,0.64365 -20.22614,30.10553 -28.73985,41.98439 0,0 -6.31948,-7.93846 -14.87255,-8.72832 0,0 -3.5889,-0.72169 -6.49507,0.78993 v 0.01 c -2.56492,1.18006 -4.75915,3.70585 -5.47109,7.20701 -0.7207,3.54988 0.56563,6.29997 2.24406,8.2505 1.59836,1.86267 3.60741,2.80873 5.23609,3.24753 1.45308,0.35109 3.47184,1.23859 3.85222,3.1598 -3.90094,6.00743 -9.24527,14.68737 -13.09794,23.07432 -3.02322,6.60232 -4.46661,12.26795 -5.67588,16.08171 -1.14104,3.91064 -2.15532,5.44177 -2.48688,5.63686 l -4.10574,3.61811 c 0,0 1.57015,6.34881 2.01876,7.41181 -0.99473,1.89199 -1.49211,3.97898 -1.50192,6.03675 v 0.11703 c 0,4.31054 2.12601,8.54303 5.98793,11.08965 3.01353,2.0763 7.37279,2.20305 7.37279,2.20305 4.30072,0 8.52352,-2.126 11.06871,-5.94891 0.6144,-0.92647 1.08349,-1.90169 1.42387,-2.87696 3.09146,-1.25809 4.99316,-3.01353 5.97823,-4.4568 2.29178,0.52663 8.96244,0.73143 9.23546,0.73143 9.32321,-0.0682 18.15833,-2.7404 24.62519,-8.2505 5.19795,-4.65191 10.87383,-12.60855 11.05879,-23.26943 0,-1.9017 0.57539,-11.92736 -9.05018,-19.88554 8.31873,-12.02436 18.53971,-27.01374 29.28656,-43.2707 19.98254,-30.28079 36.32768,-56.5924 48.76207,-78.56338 13.00976,-22.33362 53.71555,-83.685503 53.62847,-167.6950575 -0.039,-24.4785835 -8.80537,-40.1987545 -8.80537,-40.1987545 z"
         id="path321-5"
         style="fill:#000000;fill-rule:evenodd;stroke:none;stroke-width:1.10224"
         sodipodi:nodetypes="cccccccccccccccccccccccccccccccccccccccccccccccccccc" />
      <path
         d="m 89.272184,-21.594804 c -64.703791,-0.343745 -96.227903,33.621678 -96.243335,33.638212 0.0099,-0.0099 15.369659,-5.5983959 23.112907,-0.566189 8.416276,5.471087 0.995357,19.583528 -1.71575,22.40196 -7.782377,8.104232 -18.967375,14.089956 -31.323505,14.089956 0,0 13.075894,3.14205 17.308502,7.033294 0,0 -12.13017,1.589763 -18.742518,3.881544 -6.602318,2.301591 -19.53503,6.036538 -22.40196,6.036538 0,0 34.064779,15.573572 12.921579,48.839229 0,0 14.784368,-2.26301 27.101919,3.64688 0,0 -67.484748,-10.89202 -90.31548,63.59604 8.601563,-7.08995 35.625554,-26.1562 77.697017,-26.36122 50.790195,-0.2243 72.576003,11.45891 92.753644,23.67836 30.759146,18.64662 54.017546,24.16665 71.688686,27.46345 50.78138,9.47928 101.77659,-7.59786 123.86993,-17.89599 C 339.12546,89.612488 346.50607,34.102493 347.5984,-5.5341175 326.87515,15.325806 292.14682,20.435799 276.40681,20.338801 229.57587,20.055988 178.85291,-6.2957665 133.85389,-16.340496 117.55174,-19.977783 102.69352,-21.526323 89.264914,-21.597638 Z M 152.59266,0.6175705 c 12.31094,-0.312232 24.65825,4.0886553 24.80485,4.1399096 0.19504,0.058529 22.36228,7.0317509 30.39762,20.5678299 8.07491,13.60497 7.0021,25.989758 2.11619,35.030344 -4.88491,9.050176 -9.58619,14.149477 -9.45944,17.172926 0.11704,3.013529 1.4122,5.489714 1.4122,5.489714 0,0 -5.59763,11.186652 -13.83865,14.346778 0,0 -4.55292,11.771948 -9.46803,15.672778 -4.89572,3.90094 -12.21064,7.91961 -18.81306,13.20485 -2.60394,2.08699 -5.59664,3.37242 -8.78564,4.02583 0.21455,0.15604 0.41838,0.31328 0.63293,0.46931 13.27319,-0.35108 33.12897,-1.95967 53.91064,-7.54782 36.60104,-9.84985 71.36794,-43.262984 71.36794,-43.262984 -8.69812,28.457674 -12.58098,37.860904 -35.27394,53.932684 -22.70397,16.06187 -58.25126,20.96574 -58.25126,20.96574 -0.39985,1.54083 -2.75131,3.16035 -2.75131,3.16035 0,0 3.63927,1.34507 12.57217,8.06444 8.92342,6.71938 6.50411,6.38859 9.35186,8.30991 2.67514,1.79555 4.26468,1.43071 4.44776,1.38001 l 0.0194,-0.007 c 0.85821,1.72611 0.96661,4.29268 0.96661,4.29268 1.18877,1.12153 7.00993,6.67859 1.59737,12.43218 -5.42225,5.75392 -11.68376,0.41119 -11.68376,0.41119 -2.21374,0.46811 -4.36807,-0.2648 -4.36807,-0.2648 0,0 -11.58677,7.29585 -23.09307,-0.6523 -9.36321,-6.45605 -8.79666,-14.112 -8.24962,-16.75517 -3.16078,1.81396 -6.5558,3.22846 -10.03646,4.32067 -9.39253,2.94519 -21.37687,4.16394 -33.28439,0.20451 -7.8214,-2.63314 -14.29718,-7.19664 -19.407166,-12.25803 -5.12002,-5.07119 -8.9038,-10.66925 -11.37073,-15.71135 -0.37058,-0.77043 -0.72127,-1.53002 -1.03335,-2.27117 -0.81919,1.95053 -4.74074,9.35197 -16.881931,8.82444 C 56.165,157.70137 51.318444,144.89615 51.318444,144.89615 c 0,0 -2.155875,-0.7207 -3.63828,-2.41766 0,0 -8.209496,0.48699 -9.067701,-7.37334 -0.848462,-7.86041 7.156965,-8.77582 8.785638,-8.95141 0,0 1.619303,-1.98999 3.345524,-2.84819 0,0 0.97512,1.41428 4.398164,1.59957 3.423122,0.1853 1.297229,-1.01524 12.472967,-0.98599 11.176728,0.0195 14.882468,1.15173 14.882468,1.15173 0,0 -0.89857,-2.7125 -0.28417,-4.1851 0,0 -25.384625,-25.354867 -33.801343,-51.861575 -8.416718,-26.506709 -5.841661,-36.337602 4.378765,-64.2871447 0,0 7.577581,47.6201477 30.837418,77.5404987 13.27319,17.075928 28.205256,30.387701 38.591676,38.677661 0.23407,0 0.47637,0.011 0.71043,0.011 -2.21374,-2.46737 -3.89962,-5.36439 -4.73831,-8.68016 -2.07729,-8.19197 -5.48145,-15.808351 -7.0419,-21.87509 -1.56033,-6.075666 1.91173,-18.216748 1.91173,-18.216748 -4.6616,-7.470333 -2.38966,-19.767603 -2.38966,-19.767603 0,0 2.52656,-1.19979 4.44777,-3.53059 1.91151,-2.3405 1.24685,-9.245714 2.8073,-19.40717 1.56033,-10.161897 8.174,-20.6758491 22.82191,-26.6544081 3.64247,-1.4872547 7.74116,-2.113328 11.84469,-2.2173796 z"
         fill="#a71930"
         id="path323-2"
         style="fill:#a30d2d;fill-opacity:1;fill-rule:evenodd;stroke:none;stroke-width:1.10224"
         sodipodi:nodetypes="ccccccccccccccccccccccccccccccccccccccccccccccccccccccccccccccccccccccccccc" />
      <path
         d="m 121.44662,126.34808 c -14.26742,0.23204 -26.925556,6.71397 -30.382186,11.08084 -0.18725,0.23698 -0.36414,0.48469 -0.51237,0.74703 -0.0157,0.0273 -0.0336,0.0828 -0.056,0.10328 1.36237,-1.11767 2.87398,-1.33471 2.87398,-1.33471 -2.39418,1.10787 -2.28803,3.49984 -1.87943,4.38527 3.48749,8.52937 14.376536,22.53754 30.765766,28.03993 16.69786,5.60082 34.03722,1.0711 41.80582,-3.82555 0.90405,-0.64073 2.10066,-2.25519 0.93433,-4.45636 0,0 0.91049,0.93098 1.3864,2.42405 0.20187,-1.45022 -0.11371,-3.50337 -0.91925,-5.90736 -3.11394,-9.26566 -13.49144,-23.72575 -29.49378,-29.09477 -4.83157,-1.62085 -9.76719,-2.23876 -14.52314,-2.16139 z m -16.15005,9.51764 c 2.80818,0.0219 5.89501,0.20253 9.16668,0.59201 -0.57052,0.71485 -1.11932,1.45595 -1.64686,2.21958 -7.12114,-1.27077 -13.588426,-1.79907 -18.815256,-1.84493 2.70688,-0.601 6.615426,-1.0031 11.295766,-0.96661 z m 42.91248,11.98026 c 7.36495,4.31737 12.84662,8.96409 15.6397,12.2922 -4.09505,-3.02036 -9.41931,-6.37338 -15.67277,-9.55853 0.041,-0.91672 0.0528,-1.82807 0.0323,-2.73411 z"
         fill="#dc4405"
         id="path325-4"
         style="fill:#dc4405;fill-opacity:1;fill-rule:evenodd;stroke:none;stroke-width:1.10224"
         sodipodi:nodetypes="ccccccccccccccccccccccccc" />
      <path
         d="m 157.75446,7.3390403 c -21.4882,-0.2722757 -25.89497,17.2633087 -25.98425,21.8530437 -0.0681,3.694825 0.17728,6.19063 0.0603,7.672594 2.18453,-0.897214 4.2908,-2.057444 5.90085,-3.608077 -0.37156,0.429103 -6.43809,7.335198 -12.92379,8.066646 0,0 -1.42442,6.250151 -3.16035,9.409947 -1.71641,3.169496 -5.08067,5.33463 -5.08067,5.33463 -0.32182,4.466614 2.08655,10.931702 4.76852,12.27787 2.67216,1.345836 9.82097,3.706618 12.60083,6.876114 2.76971,3.169495 2.84819,6.534089 2.20448,8.923419 -0.2048,0.984996 -0.6339,2.154662 -0.97523,3.003166 0.0877,0.01951 0.16742,0.03858 0.23466,0.05809 0.58514,0.204808 0.90659,0.605671 0.89557,0.820223 0,0 -0.3106,0.194599 -0.54466,0.55543 -0.22431,0.360841 -0.6161,1.287859 -0.72335,1.541375 -0.39009,0.965464 -0.67065,1.744849 -1.00321,2.710412 -0.0195,0.02921 -0.0194,0.05897 -0.0194,0.08829 -0.31207,0.926467 0.6243,1.248619 0.6243,1.248619 0,0.0099 0.0956,0.0388 0.10549,0.0388 0.75092,0.136535 1.56166,0.302378 2.40035,0.477921 l 0.0344,0.0044 c 0.19294,0.02458 1.1266,0.09578 1.46609,-0.803005 0.36084,-1.063002 0.67441,-1.94237 1.07426,-3.005372 0.0195,-0.05853 0.0483,-0.125524 0.0775,-0.193752 l 0.0302,-0.06889 c 0,0 0.24267,-0.732275 0.35091,-1.171132 0.0966,-0.409593 0.52798,-1.110839 0.9171,-1.110839 0.4096,0 0.96485,0.195802 0.90632,1.024743 -0.0585,0.828952 -0.22482,1.374936 -0.25403,1.472484 -0.01,0.03902 -0.0194,0.08708 -0.0194,0.116254 -0.37058,1.306818 -1.12164,4.058013 -1.12164,4.058013 -0.36083,1.053258 0.79008,1.384305 0.79008,1.384305 0.70119,0.195053 1.75609,0.36126 2.49723,0.585566 0.0487,0.0099 0.0879,0.01808 0.14639,0.028 0,0 0.87629,0.282791 1.18833,0.165766 0.32183,-0.117025 0.52704,-0.603907 0.58557,-0.75994 0.0487,-0.156045 1.21875,-4.243521 1.3455,-4.682323 0.0887,-0.331576 0.0485,-0.993153 -0.12701,-1.373503 0.0585,0.0099 1.12208,0.194611 1.71796,0.389653 0.49639,0.175543 1.16033,0.439651 1.49188,0.693211 -0.50712,0.25356 -0.83838,1.090701 -0.86759,1.207726 -0.01,0.01951 -0.0215,0.02888 -0.0215,0.0388 -0.078,0.273069 -0.17383,0.53753 -0.25187,0.800845 -0.37059,1.121531 -0.85969,2.554335 -1.24002,3.685675 -0.0585,0.302323 -0.11561,1.052685 0.76209,1.384306 0.0488,0.0099 0.0878,0.03957 0.13563,0.04949 0.73142,0.273059 1.65843,0.605297 2.34006,0.878355 l 0.0409,0.0129 c 0.0764,0.02469 0.25505,0.07539 0.46716,0.07539 0.34133,0 0.76177,-0.127441 0.95584,-0.712577 0.17555,-0.536384 0.57562,-1.726882 0.92572,-2.809393 0.34231,-1.072757 0.65315,-2.046533 0.66307,-2.163591 0.01,-0.204796 0.25413,-0.585797 0.40042,-0.712577 0.39985,-0.02921 0.6914,0.02921 0.96446,0.165766 0.32183,0.156034 0.69331,0.55553 0.8396,0.70182 -0.21455,0.370584 -0.55595,1.317289 -0.64369,1.83424 -0.0682,0.438858 -0.58503,2.321321 -0.82884,3.199036 -0.0292,0.06823 -0.0492,0.165237 -0.0775,0.243265 -0.0205,0.02932 -0.01,0.05787 -0.0194,0.09689 -0.01,0.02921 -0.0207,0.04938 -0.011,0.06889 -0.13653,0.906972 0.74056,1.364902 0.74056,1.364902 0.78019,0.37059 1.53157,0.73077 2.21529,1.0721 0,0 0.0978,0.0388 0.10769,0.0388 0,0 0.9344,0.30432 1.24652,-0.62216 0.01,-0.0292 0.0289,-0.059 0.0388,-0.0689 0.31305,-0.97523 0.5589,-1.784531 0.83099,-2.779304 0.0682,-0.273058 0.14606,-0.547152 0.21528,-0.820222 0.0185,-0.02921 0.0277,-0.105925 0.0387,-0.213129 0.0185,-0.06823 0.15474,-0.556643 0.19375,-0.858966 0.0294,-0.156034 0.0293,-0.301794 0.0194,-0.409042 0,0 0.51795,0.203848 1.12164,0.467163 0.24381,-2.047965 1.12164,-3.577987 1.12164,-3.577987 0.19506,-0.468111 0.477,-0.868434 0.77932,-1.22922 -0.01,0 -0.0194,0.0088 -0.0194,0.0088 1.12153,-1.930907 3.16046,-3.842414 6.54456,-4.544542 4.12525,-0.848451 11.24507,1.570033 14.20018,2.116193 2.60394,0.477866 7.45072,-2.349648 10.21944,-5.616693 0.50712,-0.780188 0.85897,-1.345506 0.85897,-1.345506 0,0 -1.38463,-3.754566 -0.8482,-7.323845 0.54611,-3.559579 3.16894,-9.42075 3.16894,-9.42075 l -0.23251,-0.228208 c -4.50883,-4.548621 -5.16918,-13.404361 -5.20765,-13.980833 l -0.002,-0.0237 v -0.0066 c 0.30232,1.950417 1.09221,3.901715 2.11619,5.735074 0.85821,-1.297118 2.5259,-3.061477 4.37877,-5.636093 1.31651,-1.843168 3.71576,-6.837756 3.71576,-12.942522 0,-6.943682 -3.10148,-15.339898 -14.40409,-22.214579 -0.039,-0.02932 -0.0783,-0.06018 -0.12702,-0.07969 -0.13654,-0.08774 -0.28212,-0.173835 -0.42841,-0.251873 -1.45309,-0.877705 -2.89724,-1.647962 -4.25179,-2.301371 -0.62512,-0.302323 -1.22867,-0.576285 -1.80404,-0.8396 -0.58514,-0.253559 -1.14181,-0.487257 -1.66846,-0.701819 -0.39984,-0.165788 -0.78017,-0.313412 -1.14104,-0.449946 -0.27307,-0.107248 -0.5375,-0.203838 -0.79008,-0.301386 -0.86894,-0.321833 -1.58965,-0.555409 -2.11619,-0.721197 -0.10725,-0.03902 -0.20491,-0.06867 -0.31216,-0.107689 -1.07298,-0.34133 -5.17933,-1.5806136 -10.29935,-2.6436154 -2.60294,-0.4434319 -5.00815,-0.6607388 -7.23137,-0.6889011 z M 51.573315,25.209685 c 0,0 -3.106778,19.410477 11.957118,47.000689 l 1.080715,1.941818 c 0.705104,1.146883 1.58833,2.681754 2.725403,4.542448 5.457423,8.738132 12.712153,18.136285 22.428413,27.91758 l 0.0237,0.0237 c 0.60617,0.59524 12.215036,12.03097 17.233546,16.45426 1.99241,-0.54417 4.08458,-0.99442 6.2496,-1.3455 C 106.09996,115.81329 99.033054,109.32131 92.572814,102.32207 59.914496,66.943421 53.674706,34.045915 51.574935,25.210346 Z m 77.409325,18.738108 c 0.22333,0.08774 3.76394,1.639034 6.88472,4.613433 0.31304,0.293549 0.61494,0.595233 0.90848,0.90634 3.39182,3.68733 6.60221,7.06074 9.75231,8.113932 1.024,0.341331 2.1055,0.420219 3.09146,0.372437 0.01,0 0.0281,2.53e-4 0.0495,-0.01102 0.27209,-0.0099 0.53533,-0.02888 0.78792,-0.05809 1.61887,-0.204796 2.90849,-0.635079 2.90849,-0.635079 0,0 -1.67739,2.567342 -2.77071,3.999925 -1.10104,1.443386 -5.78368,6.631086 -9.31306,6.241003 -0.0283,0 -0.0591,-0.0194 -0.0883,-0.0194 -3.69714,-0.185298 -9.36222,-3.237834 -11.54818,-5.354029 -0.2916,-0.292568 -0.73943,-0.927856 -0.74919,-0.927856 -0.0682,0.05853 -0.13941,0.10835 -0.21742,0.157146 0.078,-0.04872 0.14916,-0.107248 0.21742,-0.165766 0.039,-0.03902 -0.70471,-1.32765 -0.75348,-1.425198 -1.17025,-2.828132 -0.89719,-6.348141 -0.16576,-9.186083 0.21455,-0.828951 0.47041,-1.648071 0.79223,-2.447747 0,0 1.26747,-2.740725 0.53606,-3.842746 -0.0877,-0.09755 -0.18662,-0.196396 -0.27341,-0.284168 l -0.0194,-0.0088 c 0,-0.0088 -0.0119,-0.01819 -0.0301,-0.03869 z m 36.11605,17.244572 c 0,0 0.0376,0.04817 0.0581,0.07749 0.14629,0.214552 0.82848,1.160111 1.87293,2.163591 0.1853,0.185298 0.3798,0.361689 0.58557,0.538202 0.01,0.0088 0.0269,0.01929 0.0366,0.0388 0.76166,0.633899 1.66064,1.218418 2.69531,1.560775 3.14801,1.063001 7.74226,0.311647 12.66697,-0.585566 0.43008,-0.06724 0.84767,-0.126779 1.26801,-0.176524 4.41779,-0.506139 8.30121,0.469313 8.30121,0.469313 l 0.009,0.028 -0.0883,-0.0088 c -0.12777,0.01852 -0.25214,0.03858 -0.38966,0.05809 -1.24729,0.437877 -1.89233,3.395015 -1.89233,3.395015 -0.24381,0.88747 -0.54668,1.753336 -0.90849,2.602724 -0.82895,1.910516 -1.97852,3.774736 -3.43161,5.287342 -1.09226,1.141041 -2.29145,1.707594 -3.62747,2.458551 l -0.011,-0.01102 c -0.0185,0 -0.77011,0.234227 -1.16903,0.28202 -3.02522,0.371565 -9.38317,-0.603048 -12.43439,-2.691013 -0.0302,-0.0099 -0.0504,-0.02127 -0.0689,-0.03009 -3.06324,-1.82465 -3.67796,-8.797431 -3.68777,-10.602682 -0.009,-1.793348 0.20432,-4.802248 0.21528,-4.854604 z M 120.1096,84.303067 c -1.05058,0.01102 -2.29344,0.180967 -3.05696,0.820233 0,0 0.88905,4.889324 3.28523,9.188176 2.39231,4.295878 5.24414,11.838084 6.3013,14.884674 0.43398,1.25127 1.28058,2.66941 2.66731,4.09031 1.90269,-1.05715 6.56672,-0.72713 11.64629,0.97953 4.85956,1.63253 8.65116,4.03376 9.7415,5.97834 1.7476,-0.32182 3.12915,-0.90765 4.1463,-1.58447 2.68583,-1.79049 9.50177,-6.08724 14.00839,-8.07095 4.50068,-1.98271 8.15703,-5.34543 8.15703,-5.34543 -0.36961,-1.60619 -2.54485,-2.97043 -3.29383,-3.40141 -0.44763,0.0819 -2.22807,0.43849 -3.11945,1.09579 -1.01912,0.75093 -4.72399,6.26338 -9.57573,8.33571 0.45934,-2.72772 -1.30538,-4.14035 -1.75884,-4.09252 -0.4496,0.0537 -0.80845,1.12275 -0.90203,1.39291 -0.0936,0.27404 -1.02994,2.11873 -1.34981,2.98377 -0.3199,0.86603 -0.2239,0.93431 -0.2239,0.93431 -0.77921,-0.0214 -1.55791,-0.0644 -2.32936,-0.12486 0.74313,-1.4004 1.40502,-2.79297 2.0301,-4.1808 0.45154,-1.15857 -0.78562,-1.41319 -0.79223,-1.4209 -0.69144,-0.10626 -1.38056,-0.2212 -2.071,-0.35091 -0.0272,-0.004 -0.0462,5e-5 -0.0754,-0.002 -0.86601,-0.15408 -1.39147,0.38746 -1.50268,0.71904 -0.0859,0.21943 -0.16791,0.43795 -0.2605,0.65446 -0.31598,0.76653 -0.65851,1.52913 -0.98813,2.29277 -0.0156,0.0439 -0.0261,0.0935 -0.0495,0.13347 -0.39206,0.96548 -0.0603,1.77395 -0.0603,1.77395 -0.27112,-0.0185 -0.91315,0.002 -1.99572,-0.21098 -0.51394,-0.1024 -1.19913,-0.40689 -1.19913,-0.40689 0.38131,-0.31207 0.6123,-0.90533 0.62002,-0.90203 0.68948,-1.6872 1.75675,-4.30778 1.75675,-4.30778 0,0 0.42101,-1.12803 -0.31432,-1.34551 -0.99376,-0.2477 -1.9826,-0.51827 -2.96657,-0.81376 -0.74605,-0.15799 -1.07202,0.45454 -1.15394,0.65446 -0.15213,0.39594 -0.4195,1.00492 -0.51021,1.28091 -0.37937,1.07863 -0.75456,2.1518 -1.12804,3.22064 0,0.0165 1.1e-4,0.0294 -0.004,0.0431 -0.23206,0.68949 -0.0495,1.33691 -0.0495,1.33691 0,0 -0.95521,-0.19557 -1.45749,-0.32722 -0.50712,-0.13361 -1.26152,-0.66307 -1.26152,-0.66307 0.12191,-0.12581 0.26806,-0.46662 0.37244,-0.71043 0.45737,-1.60035 0.88808,-3.60621 1.27232,-5.27875 0.0283,-0.23405 0.0346,-0.92947 -0.66953,-1.22492 -0.8387,-0.30623 -1.67629,-0.62723 -2.49944,-0.96661 -0.73143,-0.23015 -1.05274,0.37168 -1.16683,0.72765 -0.33159,1.51448 -0.72028,3.32469 -0.97092,4.63934 -0.10538,0.92256 0.31216,1.56728 0.31216,1.56728 -0.38619,-0.0956 -1.16859,-0.43344 -1.79764,-0.69967 -0.41156,-0.1736 -1.32611,-0.77286 -1.32611,-0.77286 0.46811,-0.0419 0.73626,-1.03982 0.73626,-1.03982 0.52175,-1.07958 0.86683,-2.01456 1.27442,-3.03766 0.0156,-0.0497 0.0381,-0.0903 0.0538,-0.13993 0.0117,-0.0302 0.016,-0.0526 0.0344,-0.0926 0.40375,-1.08447 -0.35212,-1.66064 -0.47793,-1.75235 -1.08738,-0.5432 -2.31338,-1.184025 -2.32506,-1.184025 -0.62221,-0.333538 -1.03947,0.106697 -1.17114,0.533905 -0.43202,1.22095 -1.10709,2.32981 -1.3412,3.67267 -0.10824,0.76068 -0.0452,1.29381 -0.0452,1.29381 -1.48328,-0.70704 -2.0301,-1.82344 -2.0301,-1.82344 0.354,-0.42423 0.82642,-1.92132 0.83745,-3.321825 0.0156,-1.40139 0.10427,-2.709089 -0.55113,-3.173243 -0.65536,-0.46519 -1.74936,0.711695 -2.31217,1.543579 -0.55783,0.830903 -0.68675,1.315415 -0.68675,1.315415 v 0.107689 c -2.62818,-4.57772 -2.26169,-11.23074 -2.61562,-12.452024 -0.36376,-1.213238 -1.90743,-2.835296 -1.90743,-2.835296 0,0 -0.85898,-0.148627 -1.90952,-0.137781 z m 145.50692,12.738607 c -0.036,0.0722 -1.2409,1.066089 -3.17974,2.637224 -0.83089,0.684612 -1.74,1.423872 -2.7728,2.241082 -11.30129,8.92441 -34.87162,24.97569 -73.24947,31.87242 -9.30182,1.67155 -18.78,2.58696 -28.01017,2.99457 1.51944,1.57213 2.90959,3.17269 4.1765,4.79651 0,0 4.0384,-0.29644 4.59624,-0.34229 6.96606,-0.58513 13.92903,-1.43346 20.81143,-2.67591 17.02522,-3.07393 29.8961,-7.42249 36.01023,-9.7221 1.42972,-0.56369 2.79419,-1.14203 4.13121,-1.72225 30.07466,-13.04724 37.30426,-29.653613 37.48724,-30.079079 z M 66.816215,129.51262 c -2.221568,0.011 -4.442254,0.22884 -6.641447,0.53605 -1.948543,0.27111 -3.818826,0.61071 -5.620991,0.59417 -0.430084,-0.001 -0.847922,-0.025 -1.255123,-0.0797 l -0.402583,-0.0646 c -0.50713,-0.0956 -1.000747,-0.23889 -1.485381,-0.44564 0.02149,0.08 1.071511,4.52305 6.938501,4.52305 0.05555,-0.0624 0.260052,-0.4496 0.297088,-0.51882 0.560754,-1.06008 1.660196,-2.0688 2.691013,-2.66952 0.01102,-0.007 0.02017,-0.0171 0.03009,-0.0215 1.802275,-1.08251 4.633273,-1.73779 6.42188,-1.83633 0.0517,-0.006 -0.630757,-0.0194 -0.97307,-0.0172 z m 1.242227,0.0151 c -1.594503,0.30817 -3.425547,0.87944 -4.706021,1.72015 -1.485271,0.96451 -2.445323,2.1669 -2.951473,3.19474 4.868381,-0.57539 14.092156,-0.45444 16.423406,-0.0517 0.0147,-0.0175 0.0353,-0.0375 0.0538,-0.056 1.34484,-2.12699 3.33968,-3.07349 4.78791,-3.55429 -2.41269,-0.38229 -5.24259,-0.70608 -7.6748,-0.92355 -1.20827,-0.10824 -2.418425,-0.19551 -3.629678,-0.25404 -0.767513,-0.038 -1.534982,-0.0597 -2.303465,-0.0754 z m 50.526758,4.41756 c -0.67388,0.8153 -1.31288,1.65733 -1.91173,2.52524 -0.67681,-0.0966 -1.34639,-0.18461 -2.00862,-0.26265 -0.0682,0.0819 -0.13169,0.168 -0.19805,0.25188 -0.57052,0.71484 -1.11932,1.45595 -1.64686,2.21958 -0.17067,0.24674 -0.34013,0.49424 -0.50591,0.74487 0.7636,0.13264 1.5384,0.27274 2.31856,0.42195 -0.73826,1.41021 -1.37152,2.88082 -1.87083,4.40897 1.20827,0.15019 2.41721,0.32618 3.61667,0.53389 0.50517,-1.45121 1.10101,-2.85569 1.77395,-4.21519 1.24046,0.27404 2.49845,0.57256 3.76526,0.89341 -0.60075,1.32335 -1.1568,2.67933 -1.65116,4.07102 1.18789,0.26136 2.37875,0.54378 3.54999,0.85683 0.47982,-1.36237 0.9933,-2.69664 1.53068,-4.00643 1.21611,0.3462 2.4375,0.71332 3.66628,1.10445 -0.47201,1.31166 -0.93784,2.6435 -1.3972,3.99132 1.16055,0.35986 2.30721,0.74667 3.4531,1.15824 0.44568,-1.35267 0.87623,-2.69675 1.29172,-4.02792 1.21808,0.42715 2.41611,0.86736 3.59518,1.32181 -0.36181,1.37118 -0.76026,2.75009 -1.19913,4.1291 1.12352,0.46031 2.24174,0.95075 3.34762,1.4618 0.44569,-1.41804 0.82736,-2.84202 1.14534,-4.26689 1.20442,0.50322 2.38569,1.01889 3.54139,1.54358 -0.28379,1.50092 -0.65743,2.99137 -1.13233,4.46496 1.07959,0.56173 2.1519,1.14721 3.20124,1.75675 0.52955,-1.53796 0.91739,-3.10667 1.17973,-4.69533 0.71094,0.34523 1.40855,0.694 2.099,1.04411 0.0147,-0.26429 0.0292,-0.52893 0.0409,-0.79223 0.041,-0.91673 0.0528,-1.82807 0.0323,-2.73412 -0.004,-0.16188 -0.008,-0.32347 -0.0129,-0.48439 -0.57538,-0.3306 -1.15769,-0.65811 -1.75455,-0.98384 0.0432,-1.02692 0.0394,-2.05634 -0.007,-3.08715 -0.98792,-0.56369 -1.9653,-1.09867 -2.93858,-1.60388 -0.0175,1.02207 -0.0704,2.04951 -0.15716,3.07636 -1.08446,-0.53832 -2.19798,-1.06366 -3.33902,-1.57367 0.15019,-1.0201 0.2739,-2.04025 0.37244,-3.05056 -0.9567,-0.44764 -1.90302,-0.86561 -2.85679,-1.26152 -0.17945,0.99182 -0.37983,1.99385 -0.59634,3.00317 -1.09421,-0.43983 -2.20834,-0.86545 -3.34552,-1.27023 0.29354,-0.98986 0.57868,-1.96783 0.85467,-2.93427 -0.9528,-0.34328 -1.91305,-0.66409 -2.88049,-0.96446 -0.36376,0.93622 -0.72869,1.89034 -1.09149,2.85679 -1.15371,-0.35986 -2.30015,-0.69249 -3.4402,-0.99676 0.43789,-0.94013 0.88597,-1.86444 1.34341,-2.7685 -0.99572,-0.25454 -2.01093,-0.49335 -3.03976,-0.71473 -0.53639,0.87283 -1.05501,1.76866 -1.55438,2.68242 -1.22492,-0.27599 -2.43618,-0.52309 -3.63178,-0.74057 0.55686,-0.88844 1.14325,-1.75565 1.75675,-2.59633 -1.07861,-0.18139 -2.18056,-0.34554 -3.30893,-0.49085 z m 59.36784,29.14437 c 0.86307,1.25314 1.89596,3.30541 1.69216,5.80397 2.09183,1.08348 9.52381,6.54654 13.05936,9.94817 0.2165,-1.12737 0.17505,-2.66676 -0.43057,-4.33148 -0.51395,-1.44438 -1.62305,-3.00063 -2.71041,-4.21089 -0.14044,-0.10439 -0.28174,-0.20895 -0.42411,-0.31432 -1.11271,-0.79872 -2.25519,-1.55681 -3.40791,-2.29707 -1.61402,-1.03668 -3.25525,-2.03165 -4.91699,-2.99027 -0.788,-0.45349 -1.58282,-0.89669 -2.37666,-1.3433 -0.16774,-0.0946 -0.3225,-0.1731 -0.48439,-0.26481 z m 11.79729,7.33465 c 0.0712,0.0595 3.33031,3.49686 4.04512,5.37122 0.42813,1.06008 0.66555,2.37489 0.59633,3.5199 -0.0185,0.31598 -0.0651,0.59684 -0.12271,0.86113 0.004,0.004 0.0128,0.0203 0.0172,0.0258 0.20577,0.15505 0.40717,0.30127 0.6071,0.43487 0.32572,0.21845 0.66562,0.4116 1.01182,0.59202 0.54906,0.28282 1.12252,0.49956 1.72225,0.64585 0.42813,0.10339 0.90803,0.17008 1.34981,0.17008 1.28632,0 2.48115,-0.50108 3.49829,-1.26372 l 0.0452,-0.0323 c -0.49543,-0.11994 -0.96288,-0.29528 -1.4144,-0.51666 -0.49346,-0.24187 -0.96898,-0.55075 -1.43809,-0.89988 -0.61928,-0.46129 -2.44731,-2.18531 -2.88909,-2.63293 -0.60074,-0.6066 -1.20729,-1.2064 -1.81484,-1.80624 -0.73728,-0.72458 -2.34006,-2.20504 -3.08716,-2.77071 -0.16384,-0.12386 -2.127,-1.69855 -2.127,-1.69855 z m 58.10908,36.55695 c -0.12483,0.0487 -0.25329,0.088 -0.38106,0.12702 -4.35826,1.36535 -8.79577,2.55456 -13.28311,3.64688 -0.50712,0.77043 -25.79356,38.51563 -34.73825,50.9401 0.21357,0.18531 6.23869,5.34444 6.43478,5.5004 2.41765,-3.25734 37.51038,-53.45541 41.96675,-60.21436 z m -61.33424,66.39683 c -0.0975,0.14628 -0.19308,0.2929 -0.29064,0.43918 -2.05876,3.19882 -4.08832,6.41835 -6.01923,9.69411 -1.85397,3.14216 -5.49192,10.16377 -5.62749,10.4369 -0.0195,0.14628 -0.90557,5.38291 0.0667,9.44875 0.003,-0.009 0.007,-0.017 0.011,-0.0258 0.0362,-0.0926 0.087,-0.21306 -0.009,0.0366 6.00545,-13.22359 12.76726,-22.06137 12.77718,-22.07018 -1.23076,-3.6288 -0.99038,-7.28505 -0.90849,-7.95896 z m -12.10261,20.91063 c -0.26332,0.54613 -0.53552,1.09329 -0.77932,1.62967 -5.34521,11.68376 -5.18142,20.09055 -10.41751,24.73209 0,0 0.12877,0.0387 0.35307,0.0689 1.40437,0.1853 6.70946,-0.0187 9.45084,-12.60854 v -0.011 c -0.18528,-0.70119 -0.34377,-1.4241 -0.44132,-2.21308 -0.45739,-3.6396 0.65331,-8.63287 1.81484,-11.53937 0.01,-0.0195 0.0194,-0.0386 0.0194,-0.0581 z"
         fill="#ffffff"
         id="path327-4"
         style="fill-rule:evenodd;stroke:none;stroke-width:1.10224"
         sodipodi:nodetypes="cccccccccccccccccccccccccccccccccccccccccccccccccccccccccccccccccccccccccccccccccccccccccccccccccccccccccccccccccccccccccccccccccccccccccccccccccccccccccccccccccccccccccccccccccccccccccccccccccccccccccccccccccccccccccccccccccccccccccccccccccccccccccccccccccccccccccccccccccccccccccccccccccccccccccccccccccccccccccccccccccccccccccccccccccccccccccccccccccccccccccccccc" />
      <path
         d="m 154.53591,6.9201885 c -22.48903,0.097548 -28.88534,16.8323325 -29.83107,20.6648265 -1.00448,4.076531 -0.9952,9.245935 -1.22922,11.586766 0,0 4.3198,-0.614202 8.3572,-2.30137 0.11701,-1.482295 -0.12635,-3.978652 -0.0581,-7.674799 0.0976,-5.061494 5.45081,-25.8938626 33.21606,-21.1641434 l -0.13564,-0.027997 c -0.90696,-0.1852978 -1.84394,-0.370265 -2.80939,-0.5360532 -2.68186,-0.3803395 -5.17822,-0.5468221 -7.50902,-0.5468221 z m 28.58554,6.8761145 c 1.35465,0.653398 2.7987,1.423655 4.25179,2.30137 0.14629,0.07804 0.29187,0.164135 0.4284,0.251874 0.0487,0.01951 0.088,0.05048 0.12703,0.07969 11.30349,6.875453 14.40409,15.271558 14.40409,22.214579 0,6.104986 -2.39925,11.099573 -3.71577,12.942522 -1.85297,2.574617 -3.52056,4.338975 -4.37876,5.636093 1.56132,2.818432 3.63784,5.335291 5.17965,7.022492 1.31564,-2.135704 4.31826,-5.881121 5.82987,-9.674816 1.66769,-4.222798 8.07535,-26.311612 -20.9966,-40.296855 z M 51.579928,25.21222 c 0,0 -0.187292,0.555376 -0.187292,0.557581 -1.261957,3.716648 -1.738236,7.77378 -1.944024,11.674943 -0.349135,6.600445 0.26974,13.237923 1.666259,19.693753 1.483286,6.858809 3.857184,13.467188 6.766331,19.84476 2.976383,6.527255 6.656548,12.723176 10.755454,18.606942 5.046838,7.247901 10.804728,13.994061 17.048368,20.238261 2.67999,2.67999 5.44398,5.27235 8.28192,7.78458 0.34816,0.30915 3.18966,3.13566 3.4725,3.00108 1.77108,-0.84455 3.705296,-1.62328 5.763066,-2.34006 l -0.85898,-0.75563 C 74.186774,98.61217 63.450939,72.056963 63.450939,72.056963 l 0.04089,0.07098 C 48.481505,44.582928 51.579906,25.212132 51.579906,25.212132 Z m 87.395642,13.489235 c -0.32576,0.01157 -0.64149,0.05357 -0.94509,0.129171 0,0.126779 6.55415,4.02693 10.13335,7.763089 3.41331,3.939963 8.78575,8.873596 12.02325,9.91797 3.21921,1.122523 10.47395,0.430205 15.5846,-0.652306 5.14141,-0.828974 12.76837,0.02756 12.76837,-0.07969 -3.14999,-3.900944 -13.87723,-2.78768 -19.92412,-2.505837 -5.23797,0.409593 -6.80899,-0.369372 -7.16887,-0.505906 -0.35109,-0.09755 -2.07718,-0.428939 -6.02794,-3.920234 -4.3511,-3.630564 -11.55701,-10.320619 -16.44324,-10.146245 z m -10.01707,5.248544 c 0,0 -3.98901,7.304225 -4.34007,11.089654 -0.36084,3.793695 -0.61396,7.334536 3.52199,10.113949 -0.12678,-0.175532 -1.71729,-2.457117 0.31216,-3.646877 0.078,-0.04784 0.15446,-0.09865 0.2325,-0.157157 0.078,-0.04872 0.1492,-0.107249 0.21743,-0.165767 0.039,-0.03902 -0.70476,-1.325445 -0.75348,-1.422994 -1.17025,-2.828131 -0.89719,-6.350235 -0.16577,-9.188176 0.21455,-0.828952 0.47042,-1.648072 0.79224,-2.447748 0,0 1.26747,-2.740724 0.53605,-3.842746 -0.0877,-0.09755 -0.18666,-0.194281 -0.27341,-0.282019 l -0.0194,-0.01102 z m -12.38478,12.122454 c 0,0 -0.25404,2.488201 -0.25404,4.994478 0,1.004495 0.0305,2.020078 0.13778,2.867592 0.0585,0.429102 0.13615,0.817047 0.22389,1.149638 0.77043,2.652655 0.85856,4.330928 6.60265,6.856715 1.96023,0.857235 3.90039,1.775491 5.76307,2.828793 2.7901,1.579843 5.79404,3.442962 6.9536,6.61345 0.01,0.02822 0.0116,0.05677 0.0301,0.08608 0.31305,0.799688 0.34058,1.794339 0.12701,2.613525 0,-0.106256 -0.0492,-0.244345 -0.1184,-0.389653 -0.25356,-0.498346 -0.69144,-0.858029 -0.97522,-1.326107 0,-0.0099 -0.01,-0.01819 -0.028,-0.0388 -0.62512,-0.710946 -1.29733,-1.365788 -2.08819,-1.90313 v 0.03009 l -0.0194,-0.0388 c 0,0 -0.60405,2.116635 -1.54997,3.676968 -0.53736,0.897214 -1.11327,1.890896 -1.71796,3.257234 0,0.01951 -0.009,0.03957 -0.0172,0.05809 -1.18006,3.064231 0.19484,6.302177 0.51667,6.320694 0.38034,0.02921 1.18998,-0.340692 2.72122,-4.641429 0.039,-0.09854 0.11605,-0.303139 0.16576,-0.527445 0.039,-0.204796 -0.0306,-0.57699 -0.1184,-0.878343 0,0 0.011,-0.02127 0.0194,-0.04949 0.18627,-0.703153 1.08556,-0.643037 1.65116,-0.574808 0.19407,0.01951 0.38756,0.04817 0.57481,0.09689 0.34036,-0.848461 0.76945,-2.019196 0.97522,-3.003168 0.64365,-2.389329 0.56518,-5.753922 -2.20449,-8.923418 -2.78139,-3.170488 -9.93042,-5.531269 -12.60303,-6.876114 -2.68186,-1.345837 -5.09037,-7.81313 -4.76852,-12.280075 z m 36.79834,1.179729 c 0,0 -1.6774,2.567342 -2.77071,3.999925 -1.10104,1.443385 -5.78368,6.631086 -9.31306,6.241003 v 0.0151 c -0.002,0.139776 -0.0939,1.273421 -2.44775,2.841689 0,0 4.05801,1.29756 7.10858,-0.378895 3.06423,-1.677392 7.10913,-9.3329 12.26023,-7.666201 5.11022,1.78464 3.72569,10.328665 5.14957,13.509074 1.37405,3.09245 5.19751,4.505302 5.43151,4.583342 -0.97523,-2.838934 -0.21181,-3.743764 -0.22173,-3.743764 -3.05343,-1.824652 -3.66926,-8.797433 -3.67918,-10.602573 -0.009,-1.79445 0.20426,-4.807978 0.21528,-4.856697 -2.29277,1.180059 -10.66981,-1.630547 -11.73336,-3.941837 z m 39.13839,8.047247 c -0.12776,0.01852 -0.25213,0.03858 -0.38965,0.05809 -1.2473,0.437877 -1.89233,3.395014 -1.89233,3.395014 -0.24381,0.887471 -0.54668,1.753337 -0.90849,2.602724 -0.82895,1.910515 -1.97852,3.774738 -3.43161,5.287344 -1.09226,1.141041 -2.29145,1.707593 -3.62747,2.45855 0.039,0.175532 0.0867,0.341111 0.15499,0.505917 0.9255,2.273264 -1.96981,3.110858 -1.96981,3.110858 4.99514,0.273057 6.91348,-2.711625 8.92341,-5.950342 2.00895,-3.228026 3.22924,-11.458906 3.22924,-11.458906 z m -38.13095,2.391753 c -1.66107,0.110115 -3.08693,1.064998 -3.59308,2.542431 -0.41838,1.267798 -1.119,2.028676 -2.02791,3.041966 l -0.028,0.04089 c -0.69242,0.828951 -1.23011,1.140268 -1.89233,1.569371 -0.64561,0.390095 -1.55185,1.082875 -1.91173,2.234686 l -0.51883,1.53928 c -0.69144,2.068466 0.67524,4.389567 3.04407,5.188252 0,0 -1.03259,-1.285765 -0.51668,-2.826588 0,-0.02039 0.01,-0.04938 0.0194,-0.06889 -0.68366,-0.711926 -1.01487,-1.686099 -0.70182,-2.613525 l 0.54681,-1.60817 c 0.54516,-1.649175 1.96849,-1.503899 3.63608,-3.590883 0.89721,-1.033749 1.80591,-2.028125 2.34226,-3.627478 0.4291,-1.287308 1.88075,-2.000128 3.31532,-1.638262 -0.58051,-0.163363 -1.16,-0.219721 -1.71365,-0.182994 z m 2.24329,0.35737 c 1.34484,0.59197 2.06405,2.018425 1.63396,3.306725 -0.5354,1.588661 -0.43769,2.926231 -0.34014,4.301277 0.0682,2.662354 1.28665,3.404494 0.74056,5.052676 l -0.54681,1.610264 c -0.31013,0.936223 -1.17003,1.519 -2.15499,1.666259 0,0.01852 -0.009,0.03858 -0.0172,0.05809 -0.51882,1.531124 -2.11619,1.939394 -2.11619,1.950416 2.37864,0.789934 4.87577,-0.233906 5.5672,-2.312172 l 0.51668,-1.53928 c 0.4096,-1.13024 0.0887,-2.23226 -0.17654,-2.92568 -0.26234,-0.74117 -0.50543,-1.316739 -0.55327,-2.398258 v -0.02149 l -0.0129,-0.0388 c -0.0966,-1.345836 -0.1933,-2.359679 0.22604,-3.627478 0.66414,-1.985578 -0.56137,-4.200201 -2.7664,-5.082766 z m -37.25908,5.026772 c 0,0 -0.009,0.02844 -0.0194,0.08399 -0.20187,0.8231 -1.8133,7.504613 -2.18299,10.751156 -0.39595,3.456188 0.13607,5.134461 0.78363,7.147375 0.64365,2.009938 3.67796,10.611175 4.42407,12.955745 0.0956,0.29355 0.19826,0.6608 0.31431,1.08503 0.80652,2.96856 2.20548,8.74563 5.02678,11.78407 3.19969,3.44748 6.28861,4.99944 10.09884,6.28189 0.008,0.003 0.0231,0.004 0.0388,0.009 0.011,0.006 0.0227,0.0129 0.0344,0.0151 1.90468,0.6378 3.70993,1.11371 5.6146,1.32831 1.90468,0.21358 3.91384,0.16418 6.22811,-0.24542 4.66645,-0.82797 10.00901,-5.62309 12.01664,-7.04399 2.01489,-1.4199 9.62642,-6.44679 11.34978,-7.6619 1.72611,-1.21908 3.1663,-2.23909 4.93639,-5.22915 1.77593,-3.00173 4.77491,-9.971867 4.77491,-9.971867 0,0 -2.87806,-0.568547 -3.82985,-0.684603 0,0 -0.015,0.02579 -0.0452,0.07749 -0.42422,0.749955 -3.85619,6.80392 -5.10647,8.06874 0,0 -0.0369,0.005 -0.10328,0.0172 0.74899,0.43105 2.92425,1.79522 3.29383,3.40141 0,0 -3.65635,3.36283 -8.15703,5.34544 -4.50651,1.98359 -11.32222,6.28035 -14.00839,8.07094 -1.01717,0.67682 -2.39869,1.26052 -4.1463,1.58227 -1.09031,-1.94458 -4.88194,-4.34372 -9.7415,-5.97625 -5.08001,-1.70671 -9.74624,-2.03672 -11.64849,-0.97953 -1.38684,-1.4209 -2.23336,-2.83915 -2.66732,-4.0903 -1.05714,-3.0466 -3.90689,-10.588695 -6.29909,-14.884682 -2.39616,-4.298853 -3.28523,-9.188177 -3.28523,-9.188177 1.52727,-1.27849 4.96659,-0.682453 4.96659,-0.682453 -0.0327,-0.23405 -0.041,-0.559288 -0.0366,-0.949383 0.036,-2.541438 0.73587,-7.822719 0.83529,-8.563867 0.008,-0.05754 0.0129,-0.08608 0.0129,-0.08608 -0.82505,-0.481757 -3.4725,-1.767444 -3.4725,-1.767444 z m 75.01967,10.744652 c -2.76872,3.266052 -7.6069,6.094515 -10.21083,5.616693 -2.956,-0.547109 -10.07593,-2.965691 -14.20239,-2.116193 -3.3938,0.702161 -5.43052,2.623225 -6.56175,4.563942 0.01,-0.0099 0.0183,-0.028 0.0388,-0.028 0.0185,-0.01951 0.0277,-0.02039 0.0388,-0.04089 2.28208,-2.632154 6.42706,-2.524685 9.55852,-2.124792 2.44687,0.302323 4.87533,0.820619 7.27436,1.394998 6.11468,1.444377 7.19731,0.165997 9.40135,-1.491884 1.89387,-1.423877 3.44329,-3.619432 4.59414,-5.668388 0.0282,-0.03803 0.0504,-0.06647 0.0689,-0.105486 z m -26.8991,8.193624 c -3.09047,-0.147259 -4.81801,1.072096 -4.81801,1.072096 l -0.0172,0.0302 c -0.12447,0.227603 -0.87875,1.67144 -1.10224,3.547896 0,0.0099 1.188,0.536273 1.423,0.663064 0.2048,0.117026 0.53412,0.244157 0.66091,0.449936 0.29255,0.419347 0.37244,0.585566 0.37244,0.585566 -0.28283,0.04883 -0.56637,0.08686 -0.84821,0.13563 -0.15603,-0.0099 -0.85897,0.244963 -0.85897,0.458544 -1.36435,4.370058 -0.94615,5.140638 -0.62432,5.345428 0.27404,0.17458 3.31687,-1.56992 4.22379,-4.729716 0,-0.01951 0.5073,-2.655079 0.61355,-3.698572 0.18724,-1.687201 0.88849,-3.608739 0.97523,-3.842745 l -0.0194,0.01102 c 0,-0.0099 0.0194,-0.028 0.0194,-0.028 z m 98.13368,5.028978 c -0.18237,0.425201 -7.41269,17.032942 -37.48724,30.079072 l -0.18945,0.15285 c 0,0 -24.99663,14.88027 -62.97217,17.5995 1.21512,1.80414 2.28936,3.59275 3.19044,5.34322 11.81603,-0.66316 23.77536,-2.30677 35.07554,-5.44011 7.22453,-2.0041 14.33575,-4.54752 21.11895,-7.75008 6.82861,-3.22417 13.5245,-7.07959 19.41378,-11.83147 3.84043,-3.09928 7.43925,-6.44083 10.74036,-10.10965 4.54167,-5.04584 8.68974,-11.05438 10.92982,-17.513517 0,0 0.1831,-0.531788 0.17869,-0.529583 z M 88.399544,121.12436 c -0.0567,-0.006 -0.11846,-3.3e-4 -0.18515,0.0172 -0.3189,0.0887 -0.53982,0.3495 -0.45208,0.85467 0.0839,0.5042 0.60121,1.97334 -0.1507,4.22809 -0.75484,2.26444 -2.44753,3.72469 -4.11621,4.45416 -1.66273,0.7285 -3.71092,2.37985 -4.28629,5.07637 -0.56759,2.69553 -2.02581,6.24409 -1.62107,8.58757 0.1541,0.89234 1.03695,2.12765 3.07427,2.04091 -1.39169,1.15272 -2.70501,1.06672 -3.77386,0.5791 -1.68621,3.11196 -4.22489,4.39343 -8.84163,3.4962 -4.725971,-0.91672 -10.708829,-5.44705 -11.950504,-13.09793 0.0011,-0.13573 1.582047,-0.14964 2.230276,-0.1507 h 0.288478 c -0.278922,-0.36376 -0.578974,-0.89145 -0.598484,-1.46389 -0.0077,-0.3189 0.125556,-0.72915 0.329383,-1.16904 -5.867012,0 -6.917008,-4.44313 -6.938501,-4.52305 0,0 -1.860695,1.49508 -1.939725,4.04733 -0.201876,-1.05325 -1.045763,-1.91283 -2.161386,-2.0796 -1.413074,-0.21749 -2.73885,0.75635 -2.951473,2.17439 -0.213581,1.41605 0.765529,2.74227 2.178691,2.95577 1.414066,0.21162 2.740063,-0.76046 2.953677,-2.17649 0.0055,-0.0342 0.0044,-0.0682 0.0088,-0.10328 0.03318,0.30233 0.09116,0.61936 0.180834,0.94509 0.245756,0.90306 0.581455,1.54468 0.925718,2.03231 0.82699,1.16838 1.726551,1.33691 1.726551,1.33691 0.0099,0.002 0.125711,-0.16551 0.135631,-0.17654 0.0614,-0.0722 0.588377,-0.6218 0.656605,-0.57694 -0.593909,-0.38425 -3.123422,-2.30115 -1.584472,-6.49077 0,0 -0.08774,3.78036 3.039762,5.79316 0.343293,1.56529 2.795616,10.92079 11.969243,13.83203 10.015626,3.18217 13.876116,-1.5923 14.774446,-3.39072 0.40764,-0.82309 1.43159,-3.37561 1.43159,-3.37561 0.86893,-2.48787 3.07173,-12.16654 3.89874,-13.29414 0.82309,-1.13123 3.30684,-5.661 2.30137,-9.82329 0,0 -0.15689,-0.52313 -0.55328,-0.55973 z m -18.839518,12.92819 c -3.205981,-0.009 -6.728194,0.10416 -9.162384,0.39181 -0.25356,0.5198 -0.427516,1.0068 -0.4198,1.37351 0.01565,0.56075 0.278382,1.06692 0.533893,1.44239 0,0 8.926504,0.47514 14.537469,2.01501 0.22333,-0.79872 0.51349,-1.77792 0.89773,-2.96878 0.23991,-0.75776 0.56604,-1.39422 0.92785,-1.96772 -0.0185,0.0175 -0.0391,0.0363 -0.0538,0.0538 -1.16595,-0.20138 -4.05547,-0.33149 -7.261453,-0.34014 z m 108.690944,17.21371 c -0.30376,-0.0629 -0.62432,0.17438 -0.62432,0.17438 -3.31675,2.71218 -4.06694,7.82438 -4.09031,9.22478 -0.0205,1.40039 -4.10507,10.44263 -4.91059,12.94693 -0.0342,0.10438 -0.73153,2.25375 -0.89342,3.55858 -0.24771,1.99727 -0.17258,8.11085 9.7329,11.61873 9.07068,3.2105 16.64164,-2.8052 17.86403,-3.85354 2.54827,0.1892 4.40103,-1.14049 5.30024,-2.02791 0.41157,-0.40374 0.65231,-0.71474 0.65231,-0.71474 -0.97914,3.21535 -3.02191,4.00753 -4.27119,4.18511 -0.4057,0.0565 -0.73079,0.0502 -0.90633,0.0344 0.0263,0.0819 0.0365,0.14651 0.056,0.21958 0.14431,0.53834 0.1141,0.86329 0.1141,0.86329 0,0 0.29511,0.14004 0.80515,0.17223 0.71777,0.0439 1.87117,-0.13049 3.34762,-1.26372 0.25063,-0.19603 0.44161,-0.40563 0.64154,-0.61141 -0.57734,1.21908 -0.13133,2.68562 1.0721,3.33902 1.24631,0.6778 2.80609,0.21203 3.4789,-1.03335 0.67779,-1.24244 0.21301,-2.80388 -1.03335,-3.4768 -0.91769,-0.50128 -2.00068,-0.3757 -2.77501,0.21529 0.7519,-1.24244 0.84059,-2.51686 0.7987,-3.31752 -0.006,-0.13654 -0.0924,-0.75554 -0.10328,-0.75995 -0.01,0.009 -0.0227,0.0149 -0.0344,0.0237 -1.01717,0.76263 -2.21198,1.26372 -3.49829,1.26372 -0.44179,0 -0.9217,-0.0667 -1.34981,-0.17007 -0.59977,-0.14629 -1.17323,-0.36304 -1.72225,-0.64585 -0.34621,-0.18043 -0.6861,-0.37357 -1.01183,-0.59203 -0.19992,-0.1336 -0.40132,-0.27981 -0.60709,-0.43486 l -0.0237,-0.0172 c -0.1024,0.47104 -0.24356,0.87938 -0.44349,1.12804 -0.3579,0.44568 -0.92032,0.68581 -1.3563,0.81161 0.009,0.003 0.0181,0.0117 0.028,0.0194 0.65341,0.5237 1.32512,0.98579 1.88583,1.61677 -5.60369,5.34918 -13.10786,5.357 -17.43306,3.23783 -4.22864,-2.07431 -5.47395,-4.63007 -4.93859,-8.14193 -1.14302,-0.25356 -2.24604,-0.9587 -2.65662,-2.71901 0.038,0.0341 0.0849,0.0551 0.12486,0.0883 0.97425,0.78703 2.56503,1.07518 3.54999,0.13993 0.88746,-0.84358 1.57676,-2.22873 2.19798,-3.71786 0.56758,-1.36634 1.05857,-2.76762 1.68566,-4.10761 0.25259,-0.54321 0.4352,-1.13674 0.53175,-1.72876 0.28281,-1.6667 -0.068,-3.44109 -0.88911,-4.91269 -0.88356,-1.58568 -1.35951,-3.77176 -0.59203,-6.03433 0.76557,-2.24791 2.05877,-3.10943 2.42835,-3.45961 0.37742,-0.34718 0.35494,-0.69273 0.15501,-0.958 -0.0851,-0.10758 -0.18508,-0.162 -0.28633,-0.18299 z m 1.3907,17.62925 c 0,0 -0.19662,1.29095 -0.46285,2.05161 -0.42033,1.18292 -0.77351,2.1368 -1.08072,2.90628 4.98048,2.24207 9.70447,5.03559 12.81356,7.16457 0.43789,-0.14726 0.94706,-0.38901 1.29811,-0.82883 0.22431,-0.2877 0.37967,-0.77889 0.49085,-1.34551 -3.53522,-3.40163 -10.96708,-8.86467 -13.05936,-9.94817 z m 84.89245,32.01241 c -3.15979,1.32633 -6.35927,2.59302 -9.64682,3.75445 -9.40124,14.77555 -41.47074,62.45743 -44.26823,66.44644 1.71641,1.43258 3.26661,2.75053 4.46706,3.84275 0.0478,0.039 0.1372,0.0976 0.19375,0.14638 8.20365,-11.87004 42.89594,-64.13613 49.25477,-74.19078 z m -87.25345,54.29202 c -0.35117,-0.006 -1.0703,0.072 -1.20343,0.78147 -0.0877,0.5754 0.1558,1.1115 1.02475,1.34551 0.85917,0.2243 3.55902,0.49894 6.57255,3.33682 3.01353,2.83794 4.08667,6.58291 4.03002,9.74359 -0.078,3.1598 1.04346,7.61583 4.8761,10.49279 3.85123,2.87696 8.39544,7.73322 12.38478,8.84593 0.24381,0.0672 0.4774,0.10648 0.7212,0.12701 2.64384,0.23407 5.1489,-2.14617 4.74912,-3.4833 0.86893,2.88765 0.0786,4.98456 -1.21853,6.48647 4.42859,4.35926 6.57531,9.33301 5.19046,13.80999 -1.76613,5.75392 -8.1933,13.48813 -19.94617,13.33271 -8.36756,-0.10724 -13.28422,-2.43782 -15.42918,-3.77385 0.01,-0.0205 0.72198,-1.61831 0.7707,-1.72655 -4.90542,1.18006 -6.69898,-6.08493 -6.77702,-6.40678 -2.74139,12.5898 -8.04648,12.79482 -9.45084,12.60854 -0.22431,-0.0302 -0.35307,-0.0689 -0.35307,-0.0689 0,0 1.05355,4.1182 5.14956,6.08812 -1.86367,-0.55686 -3.93004,0.11564 -5.06127,1.83204 -1.38486,2.08698 -0.8092,4.90564 1.27882,6.29049 2.09679,1.37505 4.90574,0.81034 6.30129,-1.28742 1.37406,-2.08599 0.80819,-4.90464 -1.28951,-6.2798 -0.10725,-0.0682 -0.20375,-0.10725 -0.31001,-0.16576 0.55492,0.20479 1.12054,0.38905 1.78464,0.49729 5.46128,0.90697 7.25496,-1.72655 7.25496,-1.72655 0,0 -0.36881,-0.75198 -0.62432,-1.80624 0,0 -5.40176,3.80516 -11.37073,-2.23248 0.20578,0.0682 2.1745,0.75178 5.5693,0.1959 5.0605,-0.75191 5.75326,-2.34127 6.09462,-2.63292 0.009,-0.0585 0.0194,-0.0977 0.0409,-0.14639 4.37777,2.37952 9.21364,3.49002 16.09824,3.62747 7.72385,0.14531 15.11834,-2.27293 19.46779,-6.06662 4.34074,-3.78488 9.47862,-11.82044 7.55642,-20.3055 -1.61787,-7.10946 -10.6567,-14.04366 -12.74412,-15.56476 -4.46661,-3.94966 -16.01557,-12.97228 -17.10789,-14.92325 -1.17907,-2.126 -6.52186,-9.37225 -13.83644,-10.83514 0,0 -0.0767,-0.009 -0.19376,-0.011 z m 10.15054,26.13966 c -0.01,0.009 -6.77151,8.84747 -12.77718,22.07018 0.15603,0.6534 0.36002,1.27618 0.62431,1.84284 1.85198,3.95066 3.49267,5.03339 6.76842,4.83741 0,0 7.65617,-13.05826 13.05936,-20.04096 -1.11271,-0.92745 -2.44697,-2.10749 -4.04732,-3.58008 -1.78464,-1.63837 -2.91554,-3.39424 -3.62748,-5.13016 z m 13.14313,16.20846 c -2.0958,2.74039 -4.51654,6.45671 -6.46707,9.64682 -0.86601,1.41407 -1.64697,2.72915 -2.29057,3.81266 0.6934,0.0682 1.40316,0.0969 2.12479,0.0969 2.27228,0.011 4.62325,-0.34928 6.39819,-1.0807 2.44885,-0.90795 5.21073,-4.36003 5.06347,-6.72114 0,-0.57441 -0.11887,-1.0933 -0.37243,-1.62967 -0.96549,-2.01875 -3.02279,-3.41287 -4.45637,-4.1248 z"
         fill="#b1babf"
         id="path329-1"
         style="fill:#b0bac0;fill-opacity:1;fill-rule:evenodd;stroke:none;stroke-width:1.10224"
         sodipodi:nodetypes="ccccccccccccccccccccccccccccccccccccccccccccccccccccccccccccccccccccccccccccccccccccccccccccccccccccccccccccccccccccccccccccccccccccccccccccccccccccccccccccccccccccccccccccccccccccccccccccccccccccccccccccccccccccccccccccccccccccccccccccccccccccccccccccccccccccccccccccccccccccccccccccccccccccccccccccccccccccccccccccccccccccccccccccccccccccccccccccccccccccccccccccccccccccccccccccccccccc" />
      <path
         d="m 152.77233,69.505472 c 0.4291,-1.287308 1.88218,-2.000238 3.31675,-1.638371 0.0877,0.01951 0.17456,0.03803 0.25356,0.06823 0.0946,0.03119 0.18432,0.06922 0.27599,0.106257 1.34485,0.591968 2.06461,2.018755 1.63452,3.307055 -0.53541,1.588661 -0.43886,2.92568 -0.34134,4.300727 0.0682,2.662354 1.28731,3.404494 0.74118,5.052675 l -0.5471,1.609163 c -0.31013,0.936223 -1.16926,1.520432 -2.15434,1.667692 -0.45933,0.05853 -0.94695,0.05853 -1.43456,-0.09755 -1.50963,-0.507118 -2.35913,-2.048957 -1.89101,-3.423122 0.078,-0.234061 -0.0595,-0.48762 -0.3033,-0.576361 -0.24381,-0.07705 -0.4964,0.04872 -0.57441,0.274038 -0.45739,1.384858 -2.06748,2.096796 -3.5889,1.589653 -0.48761,-0.165788 -0.87771,-0.458355 -1.20927,-0.799687 -0.68365,-0.711927 -1.01522,-1.687202 -0.70217,-2.614627 l 0.54612,-1.608171 c 0.54516,-1.649174 1.96993,-1.502797 3.63762,-3.58989 0.89722,-1.033749 1.80415,-2.028457 2.3405,-3.62792 z"
         id="path331-8"
         style="fill:#000000;fill-rule:evenodd;stroke:none;stroke-width:1.10224"
         sodipodi:nodetypes="cccccccccccccccccccc" />
      <path
         d="m 122.25346,169.36967 c -16.38923,-5.50327 -27.278276,-19.51298 -30.765766,-28.04213 -0.40863,-0.8855 -0.51493,-3.27586 1.87932,-4.38372 0,0 -1.51261,0.21553 -2.87498,1.33316 0,0 -0.11995,0.17651 -0.24283,0.54223 -1.83446,5.47207 9.2715,28.7652 30.241096,35.80521 20.98117,7.04223 43.67302,-4.21199 45.72099,-10.31213 0.14043,-0.44373 0.16872,-0.80067 0.16872,-0.80067 -0.47592,-1.49309 -1.38684,-2.42349 -1.38684,-2.42349 1.16639,2.20106 -0.0302,3.81507 -0.93408,4.45574 -7.76852,4.89652 -25.10667,9.42652 -41.80563,3.8258 z"
         fill="#c2242b"
         id="path335-4"
         style="fill:#a30d2d;fill-opacity:1;fill-rule:evenodd;stroke:none;stroke-width:1.10224"
         sodipodi:nodetypes="ccccccccccc" />
    </g>
  </g>
</svg>
